%
T1C.008F0S0
X101228Y10411
X101828Y106547
X100769Y108419
X102723Y108454
X101404Y110985
X102464Y11228
X101416Y112774
X10116Y11527
X102863Y116405
X100952Y116881
X102456Y117585
X102156Y117729
X101904Y117767
X100698Y118578
X102546Y122004
X10297Y122728
X100627Y122828
X102966Y123529
X100512Y124299
X102538Y12472
X102965Y125088
X101455Y134143
X102503Y13532
X103645Y137804
X105388Y136966
X104716Y136532
X1054Y136431
X105298Y133425
X103297Y13339
X104798Y133384
X103296Y132413
X103306Y131428
X104077Y130916
X103336Y130348
X104217Y129689
X105042Y129585
X103336Y129111
X105315Y129052
X104173Y128754
X104995Y12842
X103317Y127874
X105227Y127634
X104302Y127259
X103305Y127062
X105171Y126795
X1033Y126278
X103794Y125367
X103793Y125128
X10431Y125063
X103946Y12415
X105104Y124148
X10355Y124116
X104917Y119496
X104398Y118799
X103118Y118756
X104393Y117859
X104398Y116405
X103372Y116389
X104652Y11638
X104141Y115491
X1039Y115333
X103716Y11511
X104218Y112209
X103206Y110396
X104659Y110268
X105315Y10975
X10467Y109216
X105054Y107901
X103052Y106241
X104892Y104845
X105262Y104839
X104324Y103463
X103935Y101497
X10706Y103885
X105646Y104013
X106997Y105064
X10681Y106089
X107255Y107595
X107585Y109514
X10624Y11095
X106875Y111224
X105551Y112484
X105913Y113599
X106806Y114965
X106797Y115313
X106785Y115719
X106769Y116131
X10626Y116746
X105774Y117693
X105779Y118643
X105749Y119639
X10577Y120693
X105823Y121722
X105823Y12267
X106291Y123141
X106267Y124148
X105513Y124997
X107922Y125216
X105797Y125341
X106902Y126678
X106219Y127643
X106943Y127701
X106969Y129814
X105871Y129838
X106356Y130228
X10637Y130931
X106365Y131574
X106469Y131956
X10674Y13215
X107109Y132393
X107898Y132433
X107511Y133659
X107898Y134028
X107562Y134315
X10667Y134755
X106505Y135643
X106604Y136429
X1064Y138816
X108919Y138804
X108191Y134338
X108474Y134107
X109654Y133868
X110386Y133867
X110365Y133228
X108908Y132279
X108471Y132246
X109301Y132165
X108507Y131278
X108564Y130214
X109921Y1296
X108301Y125307
X109742Y114083
X109256Y113911
X109193Y113574
X109223Y113334
X109212Y113103
X109141Y112347
X108932Y11215
X109133Y111949
X108907Y111754
X109129Y111555
X109119Y111343
X108325Y111194
X108942Y11116
X109091Y110898
X109089Y109982
X110316Y106148
X110481Y105065
X108781Y104933
X108413Y104918
X11026Y104152
X109168Y104072
X10842Y102514
X109001Y101225
X112929Y100299
X11193Y100313
X111573Y104446
X112882Y104644
X111585Y104899
X111581Y10528
X111569Y105696
X111572Y106066
X112854Y114102
X111204Y12466
X112882Y125406
X112726Y125574
X112095Y125648
X111398Y125889
X112635Y126065
X112628Y126344
X11205Y126511
X112769Y126537
X112564Y127114
X110847Y129624
X110863Y131091
X110863Y131559
X112431Y134426
X111599Y134436
X111957Y13663
X111988Y137112
X112933Y137398
X112595Y137561
X113695Y138193
X113141Y137784
X114208Y136847
X113719Y136835
X113703Y136403
X114152Y135807
X113919Y135489
X114257Y135311
X115175Y135308
X113952Y135106
X11422Y134849
X115219Y134848
X113247Y134449
X113815Y129725
X114231Y129207
X113695Y12817
X114259Y12816
X113452Y127907
X113958Y127883
X114507Y127869
X114264Y127563
X113709Y12752
X113982Y127133
X113439Y127133
X114502Y127115
X113691Y126704
X11422Y126675
X114474Y126317
X113447Y126317
X113958Y126312
X11409Y125603
X115365Y124691
X114485Y124562
X114593Y123006
X113459Y122932
X113351Y122067
X114483Y121577
X114614Y120606
X115061Y120078
X115048Y119093
X115044Y118143
X114603Y117677
X114446Y117174
X114174Y116625
X114558Y115727
X113023Y113531
X113026Y113319
X1143Y113277
X113035Y113116
X113281Y11294
X113051Y112743
X1133Y112544
X113068Y112346
X113272Y112151
X113142Y111948
X113357Y111757
X113153Y111556
X11302Y111366
X113135Y111165
X113778Y110981
X113128Y110878
X113369Y110224
X114478Y110198
X114807Y108173
X114266Y100318
X116448Y10038
X116959Y103278
X117271Y103794
X117254Y104532
X117374Y105366
X117009Y108714
X115826Y109781
X117044Y110928
X116785Y112493
X116392Y114967
X116394Y116196
X117071Y116748
X117337Y117072
X117296Y118018
X117783Y118023
X116597Y1198
X116619Y122517
X117016Y124787
X117004Y125201
X115547Y125448
X117007Y125631
X117002Y126077
X116461Y126449
X11793Y127221
X116899Y135125
X116275Y13526
X116294Y135563
X116793Y135996
X116102Y137404
X115996Y138793
X1187Y129672
X118712Y128931
X118387Y128404
X118406Y128031
X121791Y127581
X121624Y12174
X121661Y12004
X118167Y118027
X121717Y117101
X118963Y116898
X118651Y115816
X118631Y114786
X118879Y114544
X121643Y114181
X118249Y113916
X11863Y113913
X118635Y111556
X121717Y11139
X118456Y109444
X121846Y107158
X121126Y104903
X11839Y102297
T2C.016F0S0
X104784Y115019
X105264Y115468
X105129Y116368
X105421Y11717
X105444Y11834
X105429Y119187
X104814Y120215
X105467Y12023
X105481Y121204
X104799Y121242
X104799Y122374
X105534Y123026
X108829Y122419
X110001Y122395
X105549Y122202
X109979Y121806
X108843Y121731
X108397Y120952
X109527Y120606
X110159Y120247
X108959Y12024
X108404Y119655
X109581Y11961
X108974Y11895
X110144Y11892
X109574Y118448
X108397Y118418
X108944Y117788
X110084Y117788
X108412Y117293
X109507Y117263
X108787Y116761
X107962Y116761
X109964Y116731
X108352Y116304
X109267Y116304
X105991Y116278
X109844Y115726
X107909Y115681
X108689Y115674
X106156Y115521
X110344Y115354
X108052Y115014
X109267Y114984
X105901Y114951
X11018Y114471
X110122Y113439
X110094Y112664
X110094Y111981
X110054Y111139
X110344Y110506
X109869Y110155
X109856Y109385
X109058Y10893
X109858Y108424
X109023Y107756
X109901Y107711
X109863Y106961
X109023Y106931
X111835Y106923
X11269Y106923
X110853Y106931
X112622Y107666
X110891Y107673
X111715Y107703
X112528Y108392
X11171Y108409
X110765Y108439
X11173Y10934
X112487Y109347
X11074Y109392
X11245Y110116
X110719Y11014
X111741Y110144
X112098Y110486
X111276Y110486
X112104Y111109
X111381Y111121
X110624Y111132
X111394Y111956
X110654Y11196
X112019Y111971
X111384Y112616
X111984Y112619
X110659Y112648
X11094Y113439
X111927Y113444
X111727Y114286
X110917Y11449
X112626Y114946
X111726Y114961
X110586Y114969
X112191Y115561
X111171Y115613
X112566Y116228
X111689Y116251
X110601Y116251
X111104Y116791
X112169Y116798
X111719Y117241
X110519Y117256
X112543Y117285
X111066Y117826
X112161Y117826
X112723Y118418
X111606Y11844
X110586Y118463
X111081Y11892
X112243Y118965
X110661Y119648
X111651Y119685
X112708Y119693
X111111Y120232
X112228Y120247
X110643Y120546
X112603Y120709
X111669Y120782
X112248Y1218
X111104Y121873
X111407Y122587
X112773Y1296
X112343Y130121
X112511Y130852
X111694Y131496
X112506Y131635
X11241Y132304
X112759Y132815
X11178Y132829
X117811Y13408
X116946Y134056
X11358Y132833
X117732Y132438
X113213Y132318
X113881Y132313
X116391Y132102
X116074Y131787
X116655Y131609
X113031Y131186
X116293Y131117
X11561Y131079
X117258Y13105
X113552Y130718
X1168Y130506
X115882Y13049
X117486Y130224
X113194Y130193
X116347Y129912
X115419Y129728
X116839Y12955
X113523Y129166
X115417Y129125
X11688Y128554
X113439Y109362
X113457Y108443
X113433Y107658
X113477Y10691
X120977Y132394
X11857Y132399
X120132Y132423
X121655Y132858
X119296Y133092
X120968Y13323
X118718Y134037
X121397Y134061
X119597Y134071
X1205Y134085
X119128Y134647
X12005Y134685
X120981Y134685
X121735Y134824
X121167Y135573
X119185Y135583
X120289Y135583
T3C.01969F0S0
X119949Y123102G85X119476Y123102
X121535Y123102G85X121181Y123102
X119949Y126504G85X119476Y126504
X121535Y126504G85X121181Y126504
T4C.02559F0S0
X119909Y123665
X119909Y125941
T5C.0374F0S0
X107141Y137958
X106141Y137958
X110141Y137958
X109141Y137958
X108141Y137958
X11811Y137992
X111141Y137958
X11811Y136992
X11811Y135992
X11811Y134992
X113142Y101678
X114142Y101678
X115142Y101678
X116142Y101678
T6C.05512F0S0
X12017Y130869
T7C.06693F0S0
X118359Y130869
T8C.12205F0S0
X101378Y101378
X101378Y137992
X120866Y137992
X120866Y101378
M30
