*
*
G04 PADS 9.5 Build Number: 522968 generated Gerber (RS-274-X) file*
G04 PC Version=2.1*
*
%IN "bitaxeGamma601_V1.0.pcb"*%
*
%MOIN*%
*
%FSLAX35Y35*%
*
*
*
*
G04 PC Standard Apertures*
*
*
G04 Thermal Relief Aperture macro.*
%AMTER*
1,1,$1,0,0*
1,0,$1-$2,0,0*
21,0,$3,$4,0,0,45*
21,0,$3,$4,0,0,135*
%
*
*
G04 Annular Aperture macro.*
%AMANN*
1,1,$1,0,0*
1,0,$2,0,0*
%
*
*
G04 Odd Aperture macro.*
%AMODD*
1,1,$1,0,0*
1,0,$1-0.005,0,0*
%
*
*
G04 PC Custom Aperture Macros*
*
*
*
*
*
*
G04 PC Aperture Table*
*
%ADD010C,0.001*%
%ADD015R,0.02X0.02*%
%ADD019R,0.052X0.046*%
%ADD020R,0.046X0.052*%
%ADD021R,0.06X0.06*%
%ADD052C,0.06*%
%ADD059R,0.022X0.026*%
%ADD060R,0.026X0.022*%
%ADD064R,0.06X0.08*%
%ADD081C,0.04*%
%ADD122C,0.00591*%
%ADD173C,0.00591*%
%ADD174C,0.00984*%
%ADD175C,0.00787*%
%ADD332R,0.08X0.06*%
%ADD336O,0.04331X0.02165*%
%ADD427R,0.05512X0.05512*%
%ADD643R,0.0748X0.09843*%
%ADD644R,0.02756X0.00984*%
%ADD645R,0.00984X0.02756*%
%ADD646R,0.12992X0.20866*%
%ADD647R,0.14961X0.1063*%
%ADD648R,0.01772X0.0374*%
%ADD649R,0.05X0.02205*%
%ADD650O,0.01575X0.05906*%
*
*
*
*
G04 PC Circuitry*
G04 Layer Name bitaxeGamma601_V1.0.pcb - circuitry*
%LPD*%
*
*
G04 PC Custom Flashes*
G04 Layer Name bitaxeGamma601_V1.0.pcb - flashes*
%LPD*%
*
*
G04 PC Circuitry*
G04 Layer Name bitaxeGamma601_V1.0.pcb - circuitry*
%LPD*%
*
G54D10*
G54D15*
G01X1055126Y1252324D03*
X1051126D03*
X1039472Y1244016D03*
X1043472D03*
X1163934Y1156114D03*
Y1152114D03*
X1133752Y1112185D03*
X1137752D03*
X1046769Y1190990D03*
Y1194990D03*
X1123343Y1269165D03*
Y1265165D03*
X1186306Y1145439D03*
Y1141439D03*
X1182495Y1141463D03*
Y1145463D03*
X1178329Y1143740D03*
X1174329D03*
X1158280Y1264543D03*
X1162280D03*
X1172921Y1268740D03*
X1176921D03*
X1105641Y1061481D03*
X1109641D03*
X1084102Y1051690D03*
Y1055690D03*
X1070286Y1153135D03*
X1074286D03*
X1070337Y1149642D03*
X1074337D03*
X1132591Y1132776D03*
Y1136776D03*
X1132469Y1140165D03*
Y1144165D03*
X1097406Y1143382D03*
X1093406D03*
X1089535Y1143756D03*
Y1139756D03*
X1052628Y1050709D03*
Y1054709D03*
X1048921D03*
Y1050709D03*
X1087232Y1109618D03*
X1083232D03*
X1062409Y1112256D03*
X1066409D03*
X1123276Y1272811D03*
Y1276811D03*
X1070461Y1060890D03*
X1074461D03*
X1085543Y1132551D03*
X1081543D03*
X1090886Y1106268D03*
Y1102268D03*
X1133701Y1108602D03*
Y1104602D03*
X1089622Y1136657D03*
Y1132657D03*
X1144787Y1292071D03*
X1148787D03*
X1127169Y1143657D03*
X1123169D03*
X1140480Y1132772D03*
X1136480D03*
X1181543Y1280331D03*
X1177543D03*
X1162961Y1032764D03*
X1166961D03*
X1177575Y1284031D03*
X1181575D03*
G54D19*
X1078996Y1328541D03*
Y1336541D03*
X1071074Y1328582D03*
Y1336582D03*
X1115986Y1356133D03*
Y1348133D03*
X1132476Y1356445D03*
Y1348445D03*
X1124301Y1356395D03*
Y1348395D03*
X1029669Y1239272D03*
Y1247272D03*
X1116588Y1297602D03*
Y1289602D03*
G54D20*
X1183295Y1296724D03*
X1175295D03*
X1150000Y1297256D03*
X1142000D03*
X1175323Y1289315D03*
X1183323D03*
G54D21*
X1074420Y1186438D03*
X1062420D03*
X1074361Y1206961D03*
X1062361D03*
X1074695Y1217225D03*
X1062695D03*
X1074896Y1226717D03*
X1062896D03*
X1074609Y1176938D03*
X1062609D03*
X1074262Y1196379D03*
X1062262D03*
X1133997Y1181438D03*
X1145997D03*
X1134138Y1210571D03*
X1146138D03*
X1134138Y1200780D03*
X1146138D03*
X1133997Y1190942D03*
X1145997D03*
X1157220Y1053661D03*
X1169220D03*
G54D52*
X1043299Y1236662D03*
X1090841Y1317172D03*
X1125992Y1380758D03*
X1184221Y1134693D03*
X1166275Y1135007D03*
X1150877Y1145345D03*
X1158535Y1140101D03*
X1158578Y1129423D03*
X1150842Y1134057D03*
X1150700Y1124077D03*
X1086259Y1062898D03*
X1146143Y1113519D03*
X1065229Y1085160D03*
X1059873Y1092359D03*
X1065949Y1098075D03*
X1169624Y1380310D03*
X1169308Y1369803D03*
X1047959Y1352307D03*
X1053601Y1342997D03*
X1051079Y1063165D03*
X1074390Y1123858D03*
X1058898Y1103220D03*
X1044583Y1145469D03*
X1041311Y1139016D03*
X1036724Y1144469D03*
G54D59*
X1047312Y1248402D03*
Y1244002D03*
X1051039Y1248386D03*
Y1243986D03*
X1084745Y1333556D03*
Y1337956D03*
X1084723Y1325409D03*
Y1329809D03*
X1106390Y1332285D03*
Y1336685D03*
Y1341527D03*
Y1345927D03*
X1178427Y1134855D03*
Y1139255D03*
X1174179Y1134950D03*
Y1139350D03*
X1024557Y1183254D03*
Y1178854D03*
X1068472Y1128322D03*
Y1123922D03*
G54D60*
X1105441Y1041492D03*
X1109841D03*
G54D64*
X1128121Y1156955D03*
X1140121D03*
G54D81*
X1009901Y1358302D03*
X1215063Y1036228D03*
G54D122*
X1042457Y1248717D02*
X1042471Y1248808D01*
X1042513Y1248890*
X1042579Y1248955*
X1042661Y1248997*
X1042752Y1249011*
X1043933*
X1044024Y1248997*
X1044106Y1248955*
X1044172Y1248890*
X1044213Y1248808*
X1044228Y1248717*
Y1247535*
X1044213Y1247444*
X1044172Y1247362*
X1044106Y1247297*
X1044024Y1247255*
X1043933Y1247240*
X1042752*
X1042661Y1247255*
X1042579Y1247297*
X1042513Y1247362*
X1042471Y1247444*
X1042457Y1247535*
Y1248717*
X1042654Y1247258D02*
Y1248994D01*
X1042950Y1247240D02*
Y1249011D01*
X1043245Y1247240D02*
Y1249011D01*
X1043541Y1247240D02*
Y1249011D01*
X1043836Y1247240D02*
Y1249011D01*
X1044132Y1247322D02*
Y1248930D01*
X1038717Y1248717D02*
X1038731Y1248808D01*
X1038773Y1248890*
X1038839Y1248955*
X1038921Y1248997*
X1039012Y1249011*
X1040193*
X1040284Y1248997*
X1040366Y1248955*
X1040431Y1248890*
X1040473Y1248808*
X1040488Y1248717*
Y1247535*
X1040473Y1247444*
X1040431Y1247362*
X1040366Y1247297*
X1040284Y1247255*
X1040193Y1247240*
X1039012*
X1038921Y1247255*
X1038839Y1247297*
X1038773Y1247362*
X1038731Y1247444*
X1038717Y1247535*
Y1248717*
X1038813Y1247322D02*
Y1248930D01*
X1039108Y1247240D02*
Y1249011D01*
X1039404Y1247240D02*
Y1249011D01*
X1039699Y1247240D02*
Y1249011D01*
X1039995Y1247240D02*
Y1249011D01*
X1040290Y1247258D02*
Y1248994D01*
X1122752Y1259311D02*
X1122661Y1259326D01*
X1122578Y1259368*
X1122513Y1259433*
X1122471Y1259515*
X1122457Y1259607*
Y1260788*
X1122472Y1260879*
X1122513Y1260961*
X1122579Y1261026*
X1122661Y1261068*
X1122752Y1261082*
X1123933*
X1124024Y1261068*
X1124106Y1261026*
X1124172Y1260961*
X1124214Y1260879*
X1124228Y1260788*
Y1259607*
X1124214Y1259515*
X1124172Y1259433*
X1124107Y1259368*
X1124024Y1259326*
X1123933Y1259311*
X1122752*
Y1261082*
X1123047Y1259311D02*
Y1261082D01*
X1123343Y1259311D02*
Y1261082D01*
X1123638Y1259311D02*
Y1261082D01*
X1123934Y1259311D02*
Y1261082D01*
X1122752Y1255571D02*
X1122661Y1255586D01*
X1122579Y1255628*
X1122513Y1255693*
X1122472Y1255775*
X1122457Y1255866*
Y1257047*
X1122471Y1257138*
X1122513Y1257220*
X1122578Y1257286*
X1122661Y1257328*
X1122752Y1257342*
X1123933*
X1124024Y1257328*
X1124107Y1257286*
X1124172Y1257220*
X1124214Y1257138*
X1124228Y1257047*
Y1255866*
X1124214Y1255775*
X1124172Y1255693*
X1124106Y1255628*
X1124024Y1255586*
X1123933Y1255571*
X1122752*
Y1257342*
X1123047Y1255571D02*
Y1257342D01*
X1123343Y1255571D02*
Y1257342D01*
X1123638Y1255571D02*
Y1257342D01*
X1123934Y1255571D02*
Y1257342D01*
X1168363Y1153129D02*
X1168454Y1153115D01*
X1168536Y1153073*
X1168601Y1153008*
X1168643Y1152925*
X1168657Y1152834*
Y1151653*
X1168643Y1151562*
X1168601Y1151480*
X1168536Y1151415*
X1168454Y1151373*
X1168363Y1151358*
X1167181*
X1167090Y1151373*
X1167008Y1151415*
X1166943Y1151480*
X1166901Y1151562*
X1166886Y1151653*
Y1152834*
X1166901Y1152925*
X1166943Y1153008*
X1167008Y1153073*
X1167090Y1153115*
X1167181Y1153129*
X1168363*
X1167181Y1151358D02*
Y1153129D01*
X1167476Y1151358D02*
Y1153129D01*
X1167772Y1151358D02*
Y1153129D01*
X1168067Y1151358D02*
Y1153129D01*
X1168363Y1151358D02*
Y1153129D01*
Y1156869D02*
X1168454Y1156855D01*
X1168536Y1156813*
X1168601Y1156748*
X1168643Y1156666*
X1168657Y1156575*
Y1155394*
X1168643Y1155302*
X1168601Y1155220*
X1168536Y1155155*
X1168454Y1155113*
X1168363Y1155098*
X1167181*
X1167090Y1155113*
X1167008Y1155155*
X1166943Y1155220*
X1166901Y1155302*
X1166886Y1155394*
Y1156575*
X1166901Y1156666*
X1166943Y1156748*
X1167008Y1156813*
X1167090Y1156855*
X1167181Y1156869*
X1168363*
X1167181Y1155098D02*
Y1156869D01*
X1167476Y1155098D02*
Y1156869D01*
X1167772Y1155098D02*
Y1156869D01*
X1168067Y1155098D02*
Y1156869D01*
X1168363Y1155098D02*
Y1156869D01*
X1057067Y1051724D02*
X1057158Y1051710D01*
X1057240Y1051668*
X1057306Y1051602*
X1057348Y1051520*
X1057362Y1051429*
Y1050248*
X1057347Y1050157*
X1057306Y1050075*
X1057240Y1050010*
X1057158Y1049968*
X1057067Y1049953*
X1055886*
X1055795Y1049968*
X1055712Y1050010*
X1055647Y1050075*
X1055605Y1050157*
X1055591Y1050248*
Y1051429*
X1055605Y1051520*
X1055647Y1051602*
X1055712Y1051668*
X1055794Y1051710*
X1055886Y1051724*
X1057067*
X1055885Y1049953D02*
Y1051724D01*
X1056181Y1049953D02*
Y1051724D01*
X1056476Y1049953D02*
Y1051724D01*
X1056772Y1049953D02*
Y1051724D01*
X1057067Y1049953D02*
Y1051724D01*
Y1055464D02*
X1057158Y1055450D01*
X1057240Y1055408*
X1057306Y1055343*
X1057347Y1055260*
X1057362Y1055169*
Y1053988*
X1057348Y1053897*
X1057306Y1053815*
X1057240Y1053750*
X1057158Y1053708*
X1057067Y1053693*
X1055886*
X1055794Y1053708*
X1055712Y1053750*
X1055647Y1053815*
X1055605Y1053897*
X1055591Y1053988*
Y1055169*
X1055605Y1055260*
X1055647Y1055343*
X1055712Y1055408*
X1055795Y1055450*
X1055886Y1055464*
X1057067*
X1055885Y1053693D02*
Y1055464D01*
X1056181Y1053693D02*
Y1055464D01*
X1056476Y1053693D02*
Y1055464D01*
X1056772Y1053693D02*
Y1055464D01*
X1057067Y1053693D02*
Y1055464D01*
X1164701Y1251417D02*
X1164686Y1251326D01*
X1164644Y1251244*
X1164579Y1251179*
X1164496Y1251137*
X1164405Y1251122*
X1163224*
X1163133Y1251137*
X1163051Y1251179*
X1162986Y1251244*
X1162944Y1251326*
X1162929Y1251417*
X1162929D02*
Y1252599D01*
X1162929D02*
X1162944Y1252690D01*
X1162986Y1252772*
X1163051Y1252837*
X1163133Y1252879*
X1163224Y1252893*
X1164405*
X1164496Y1252879*
X1164579Y1252837*
X1164644Y1252772*
X1164686Y1252690*
X1164701Y1252599*
X1164701D02*
Y1251417D01*
X1163026Y1251204D02*
Y1252811D01*
X1163321Y1251122D02*
Y1252893D01*
X1163617Y1251122D02*
Y1252893D01*
X1163912Y1251122D02*
Y1252893D01*
X1164208Y1251122D02*
Y1252893D01*
X1164503Y1251140D02*
Y1252876D01*
X1168441Y1251417D02*
X1168426Y1251326D01*
X1168384Y1251244*
X1168319Y1251179*
X1168237Y1251137*
X1168146Y1251122*
X1166965*
X1166874Y1251137*
X1166791Y1251179*
X1166726Y1251244*
X1166684Y1251326*
X1166669Y1251417*
X1166669D02*
Y1252599D01*
X1166669D02*
X1166684Y1252690D01*
X1166726Y1252772*
X1166791Y1252837*
X1166874Y1252879*
X1166965Y1252893*
X1168146*
X1168237Y1252879*
X1168319Y1252837*
X1168384Y1252772*
X1168426Y1252690*
X1168441Y1252599*
X1168441D02*
Y1251417D01*
X1166867Y1251140D02*
Y1252876D01*
X1167162Y1251122D02*
Y1252893D01*
X1167458Y1251122D02*
Y1252893D01*
X1167753Y1251122D02*
Y1252893D01*
X1168049Y1251122D02*
Y1252893D01*
X1168344Y1251204D02*
Y1252811D01*
X1164701Y1260197D02*
X1164686Y1260106D01*
X1164644Y1260023*
X1164579Y1259958*
X1164496Y1259916*
X1164405Y1259902*
X1163224*
X1163133Y1259916*
X1163051Y1259958*
X1162986Y1260023*
X1162944Y1260106*
X1162930Y1260197*
Y1261378*
X1162944Y1261469*
X1162986Y1261551*
X1163051Y1261617*
X1163133Y1261658*
X1163224Y1261673*
X1164405*
X1164496Y1261659*
X1164579Y1261617*
X1164644Y1261552*
X1164644D02*
X1164686Y1261469D01*
X1164701Y1261378*
Y1260197*
X1163026Y1259984D02*
Y1261591D01*
X1163321Y1259902D02*
Y1261673D01*
X1163617Y1259902D02*
Y1261673D01*
X1163912Y1259902D02*
Y1261673D01*
X1164208Y1259902D02*
Y1261673D01*
X1164503Y1259920D02*
Y1261655D01*
X1168441Y1260197D02*
X1168426Y1260106D01*
X1168384Y1260023*
X1168319Y1259958*
X1168237Y1259916*
X1168146Y1259902*
X1166965*
X1166874Y1259916*
X1166791Y1259958*
X1166726Y1260023*
X1166684Y1260106*
X1166670Y1260197*
Y1261378*
X1166684Y1261469*
X1166726Y1261552*
X1166726D02*
X1166791Y1261617D01*
X1166874Y1261659*
X1166965Y1261673*
X1168146*
X1168237Y1261658*
X1168319Y1261617*
X1168384Y1261551*
X1168426Y1261469*
X1168441Y1261378*
Y1260197*
X1166867Y1259920D02*
Y1261655D01*
X1167163Y1259902D02*
Y1261673D01*
X1167458Y1259902D02*
Y1261673D01*
X1167754Y1259902D02*
Y1261673D01*
X1168049Y1259902D02*
Y1261673D01*
X1168345Y1259984D02*
Y1261591D01*
X1177248Y1176918D02*
X1177157Y1176932D01*
X1177075Y1176974*
X1177010Y1177039*
X1176968Y1177122*
X1176953Y1177213*
Y1178394*
X1176968Y1178485*
X1177010Y1178567*
X1177075Y1178632*
X1177157Y1178674*
X1177248Y1178689*
X1178430*
X1178521Y1178674*
X1178603Y1178632*
X1178668Y1178567*
X1178710Y1178485*
X1178724Y1178394*
Y1177213*
X1178710Y1177122*
X1178668Y1177039*
X1178603Y1176974*
X1178521Y1176932*
X1178430Y1176918*
X1177248*
Y1178689*
X1177543Y1176918D02*
Y1178689D01*
X1177839Y1176918D02*
Y1178689D01*
X1178134Y1176918D02*
Y1178689D01*
X1178430Y1176918D02*
Y1178689D01*
X1177248Y1173178D02*
X1177157Y1173192D01*
X1177075Y1173234*
X1177010Y1173299*
X1176968Y1173381*
X1176953Y1173472*
Y1174653*
X1176968Y1174745*
X1177010Y1174827*
X1177075Y1174892*
X1177157Y1174934*
X1177248Y1174949*
X1178430*
X1178521Y1174934*
X1178603Y1174892*
X1178668Y1174827*
X1178710Y1174745*
X1178724Y1174653*
Y1173472*
X1178710Y1173381*
X1178668Y1173299*
X1178603Y1173234*
X1178521Y1173192*
X1178430Y1173178*
X1177248*
Y1174949*
X1177543Y1173178D02*
Y1174949D01*
X1177839Y1173178D02*
Y1174949D01*
X1178134Y1173178D02*
Y1174949D01*
X1178430Y1173178D02*
Y1174949D01*
X1102673Y1295382D02*
X1102658Y1295291D01*
X1102616Y1295208*
X1102551Y1295143*
X1102469Y1295101*
X1102378Y1295087*
X1101197*
X1101106Y1295101*
X1101024Y1295143*
X1100958Y1295209*
X1100916Y1295291*
X1100902Y1295382*
Y1296563*
X1100916Y1296654*
X1100958Y1296736*
X1101024Y1296802*
X1101106Y1296843*
X1101197Y1296858*
X1102378*
X1102469Y1296844*
X1102551Y1296802*
X1102616Y1296737*
X1102658Y1296654*
X1102673Y1296563*
Y1295382*
X1100998Y1295169D02*
Y1296776D01*
X1101293Y1295087D02*
Y1296858D01*
X1101589Y1295087D02*
Y1296858D01*
X1101884Y1295087D02*
Y1296858D01*
X1102180Y1295087D02*
Y1296858D01*
X1102475Y1295105D02*
Y1296840D01*
X1106413Y1295382D02*
X1106398Y1295291D01*
X1106357Y1295209*
X1106291Y1295143*
X1106209Y1295101*
X1106118Y1295087*
X1104937*
X1104846Y1295101*
X1104764Y1295143*
X1104698Y1295208*
X1104656Y1295291*
X1104642Y1295382*
Y1296563*
X1104656Y1296654*
X1104698Y1296737*
X1104764Y1296802*
X1104846Y1296844*
X1104937Y1296858*
X1106118*
X1106209Y1296843*
X1106291Y1296802*
X1106357Y1296736*
X1106398Y1296654*
X1106413Y1296563*
Y1295382*
X1104839Y1295105D02*
Y1296840D01*
X1105135Y1295087D02*
Y1296858D01*
X1105430Y1295087D02*
Y1296858D01*
X1105726Y1295087D02*
Y1296858D01*
X1106021Y1295087D02*
Y1296858D01*
X1106317Y1295169D02*
Y1296776D01*
X1181086Y1176918D02*
X1180994Y1176932D01*
X1180912Y1176974*
X1180847Y1177039*
X1180805Y1177122*
X1180791Y1177213*
Y1178394*
X1180805Y1178485*
X1180847Y1178567*
X1180912Y1178632*
X1180995Y1178674*
X1181086Y1178689*
X1182267*
X1182358Y1178674*
X1182440Y1178632*
X1182505Y1178567*
X1182547Y1178485*
X1182562Y1178394*
Y1177213*
X1182547Y1177122*
X1182506Y1177039*
X1182440Y1176974*
X1182358Y1176932*
X1182267Y1176918*
X1181086*
X1181085D02*
Y1178689D01*
X1181381Y1176918D02*
Y1178689D01*
X1181676Y1176918D02*
Y1178689D01*
X1181972Y1176918D02*
Y1178689D01*
X1182267Y1176918D02*
Y1178689D01*
X1181086Y1173178D02*
X1180995Y1173192D01*
X1180912Y1173234*
X1180847Y1173299*
X1180805Y1173381*
X1180791Y1173472*
Y1174653*
X1180805Y1174745*
X1180847Y1174827*
X1180912Y1174892*
X1180994Y1174934*
X1181086Y1174949*
X1182267*
X1182358Y1174934*
X1182440Y1174892*
X1182506Y1174827*
X1182547Y1174745*
X1182562Y1174653*
Y1173472*
X1182547Y1173381*
X1182505Y1173299*
X1182440Y1173234*
X1182358Y1173192*
X1182267Y1173178*
X1181086*
X1181085D02*
Y1174949D01*
X1181381Y1173178D02*
Y1174949D01*
X1181676Y1173178D02*
Y1174949D01*
X1181972Y1173178D02*
Y1174949D01*
X1182267Y1173178D02*
Y1174949D01*
X1173937Y1271645D02*
X1173922Y1271554D01*
X1173880Y1271472*
X1173815Y1271407*
X1173733Y1271365*
X1173642Y1271351*
X1172461*
X1172369Y1271365*
X1172287Y1271407*
X1172222Y1271472*
X1172180Y1271554*
X1172166Y1271645*
Y1272827*
X1172180Y1272918*
X1172222Y1273000*
X1172287Y1273065*
X1172369Y1273107*
X1172461Y1273122*
X1173642*
X1173733Y1273107*
X1173815Y1273066*
X1173880Y1273000*
X1173922Y1272918*
X1173937Y1272827*
Y1271645*
X1172262Y1271433D02*
Y1273040D01*
X1172557Y1271351D02*
Y1273122D01*
X1172853Y1271351D02*
Y1273122D01*
X1173148Y1271351D02*
Y1273122D01*
X1173444Y1271351D02*
Y1273122D01*
X1173739Y1271368D02*
Y1273104D01*
X1177677Y1271645D02*
X1177662Y1271554D01*
X1177620Y1271472*
X1177555Y1271407*
X1177473Y1271365*
X1177382Y1271351*
X1176201*
X1176110Y1271365*
X1176028Y1271407*
X1175962Y1271472*
X1175920Y1271554*
X1175906Y1271645*
Y1272827*
X1175920Y1272918*
X1175962Y1273000*
X1176028Y1273066*
X1176110Y1273107*
X1176201Y1273122*
X1177382*
X1177473Y1273107*
X1177555Y1273065*
X1177620Y1273000*
X1177662Y1272918*
X1177677Y1272827*
Y1271645*
X1176103Y1271368D02*
Y1273104D01*
X1176399Y1271351D02*
Y1273122D01*
X1176694Y1271351D02*
Y1273122D01*
X1176990Y1271351D02*
Y1273122D01*
X1177285Y1271351D02*
Y1273122D01*
X1177581Y1271433D02*
Y1273040D01*
X1175905Y1261378D02*
X1175920Y1261469D01*
X1175962Y1261551*
X1176027Y1261616*
X1176110Y1261658*
X1176201Y1261673*
X1176201D02*
X1177382D01*
X1177382D02*
X1177473Y1261658D01*
X1177555Y1261616*
X1177620Y1261551*
X1177662Y1261469*
X1177677Y1261378*
X1177677D02*
Y1260196D01*
X1177677D02*
X1177662Y1260105D01*
X1177620Y1260023*
X1177555Y1259958*
X1177473Y1259916*
X1177382Y1259901*
X1177382D02*
X1176201D01*
X1176201D02*
X1176110Y1259916D01*
X1176027Y1259958*
X1175962Y1260023*
X1175920Y1260105*
X1175905Y1260196*
X1175905D02*
Y1261378D01*
X1176103Y1259919D02*
Y1261655D01*
X1176398Y1259901D02*
Y1261673D01*
X1176694Y1259901D02*
Y1261673D01*
X1176989Y1259901D02*
Y1261673D01*
X1177285Y1259901D02*
Y1261673D01*
X1177580Y1259983D02*
Y1261591D01*
X1172165Y1261378D02*
X1172180Y1261469D01*
X1172222Y1261551*
X1172287Y1261616*
X1172369Y1261658*
X1172460Y1261673*
X1172460D02*
X1173641D01*
X1173641D02*
X1173732Y1261658D01*
X1173815Y1261616*
X1173880Y1261551*
X1173922Y1261469*
X1173937Y1261378*
X1173937D02*
Y1260196D01*
X1173937D02*
X1173922Y1260105D01*
X1173880Y1260023*
X1173815Y1259958*
X1173732Y1259916*
X1173641Y1259901*
X1173641D02*
X1172460D01*
X1172460D02*
X1172369Y1259916D01*
X1172287Y1259958*
X1172222Y1260023*
X1172180Y1260105*
X1172165Y1260196*
X1172165D02*
Y1261378D01*
X1172262Y1259983D02*
Y1261591D01*
X1172557Y1259901D02*
Y1261673D01*
X1172853Y1259901D02*
Y1261673D01*
X1173148Y1259901D02*
Y1261673D01*
X1173444Y1259901D02*
Y1261673D01*
X1173739Y1259919D02*
Y1261655D01*
X1150693Y1248477D02*
X1150602Y1248491D01*
X1150519Y1248533*
X1150454Y1248598*
X1150412Y1248681*
X1150398Y1248772*
Y1249953*
X1150412Y1250044*
X1150454Y1250126*
X1150520Y1250191*
X1150602Y1250233*
X1150693Y1250248*
X1151874*
X1151965Y1250233*
X1152047Y1250191*
X1152113Y1250126*
X1152154Y1250044*
X1152169Y1249953*
Y1248772*
X1152155Y1248681*
X1152113Y1248598*
X1152048Y1248533*
X1151965Y1248491*
X1151874Y1248477*
X1150693*
X1150692D02*
Y1250248D01*
X1150988Y1248477D02*
Y1250248D01*
X1151283Y1248477D02*
Y1250248D01*
X1151579Y1248477D02*
Y1250248D01*
X1151874Y1248477D02*
Y1250248D01*
X1150693Y1244737D02*
X1150602Y1244751D01*
X1150520Y1244793*
X1150454Y1244858*
X1150412Y1244940*
X1150398Y1245031*
Y1246212*
X1150412Y1246304*
X1150454Y1246386*
X1150519Y1246451*
X1150602Y1246493*
X1150693Y1246508*
X1151874*
X1151965Y1246493*
X1152048Y1246451*
X1152113Y1246386*
X1152155Y1246304*
X1152169Y1246212*
Y1245031*
X1152154Y1244940*
X1152113Y1244858*
X1152047Y1244793*
X1151965Y1244751*
X1151874Y1244737*
X1150693*
X1150692D02*
Y1246508D01*
X1150988Y1244737D02*
Y1246508D01*
X1151283Y1244737D02*
Y1246508D01*
X1151579Y1244737D02*
Y1246508D01*
X1151874Y1244737D02*
Y1246508D01*
X1146685Y1248476D02*
X1146594Y1248491D01*
X1146511Y1248533*
X1146446Y1248598*
X1146404Y1248681*
X1146390Y1248772*
Y1249953*
X1146405Y1250044*
X1146446Y1250126*
X1146512Y1250191*
X1146594Y1250233*
X1146685Y1250248*
X1146685D02*
X1147866D01*
X1147866D02*
X1147957Y1250233D01*
X1148040Y1250191*
X1148105Y1250126*
X1148147Y1250044*
X1148161Y1249953*
Y1248772*
X1148147Y1248681*
X1148105Y1248598*
X1148040Y1248533*
X1147957Y1248491*
X1147866Y1248476*
X1147866D02*
X1146685D01*
Y1248477D02*
Y1250247D01*
X1146980Y1248476D02*
Y1250248D01*
X1147276Y1248476D02*
Y1250248D01*
X1147571Y1248476D02*
Y1250248D01*
X1147867Y1248477D02*
Y1250247D01*
X1146685Y1244736D02*
X1146594Y1244751D01*
X1146512Y1244793*
X1146446Y1244858*
X1146405Y1244940*
X1146390Y1245031*
Y1246212*
X1146404Y1246303*
X1146446Y1246386*
X1146511Y1246451*
X1146594Y1246493*
X1146685Y1246508*
X1146685D02*
X1147866D01*
X1147866D02*
X1147957Y1246493D01*
X1148040Y1246451*
X1148105Y1246386*
X1148147Y1246303*
X1148161Y1246212*
Y1245031*
X1148147Y1244940*
X1148105Y1244858*
X1148040Y1244793*
X1147957Y1244751*
X1147866Y1244736*
X1147866D02*
X1146685D01*
Y1244737D02*
Y1246507D01*
X1146980Y1244736D02*
Y1246508D01*
X1147276Y1244736D02*
Y1246508D01*
X1147571Y1244736D02*
Y1246508D01*
X1147867Y1244737D02*
Y1246507D01*
X1164701Y1247279D02*
X1164686Y1247188D01*
X1164644Y1247106*
X1164579Y1247041*
X1164496Y1246999*
X1164405Y1246985*
X1163224*
X1163133Y1246999*
X1163051Y1247041*
X1162986Y1247106*
X1162944Y1247188*
X1162929Y1247279*
X1162929D02*
Y1248461D01*
X1162929D02*
X1162944Y1248552D01*
X1162986Y1248634*
X1163051Y1248699*
X1163133Y1248741*
X1163224Y1248756*
X1164405*
X1164496Y1248741*
X1164579Y1248699*
X1164644Y1248634*
X1164686Y1248552*
X1164701Y1248461*
X1164701D02*
Y1247279D01*
X1163026Y1247066D02*
Y1248674D01*
X1163321Y1246985D02*
Y1248756D01*
X1163617Y1246985D02*
Y1248756D01*
X1163912Y1246985D02*
Y1248756D01*
X1164208Y1246985D02*
Y1248756D01*
X1164503Y1247002D02*
Y1248738D01*
X1168441Y1247279D02*
X1168426Y1247188D01*
X1168384Y1247106*
X1168319Y1247041*
X1168237Y1246999*
X1168146Y1246985*
X1166965*
X1166874Y1246999*
X1166791Y1247041*
X1166726Y1247106*
X1166684Y1247188*
X1166669Y1247279*
X1166669D02*
Y1248461D01*
X1166669D02*
X1166684Y1248552D01*
X1166726Y1248634*
X1166791Y1248699*
X1166874Y1248741*
X1166965Y1248756*
X1168146*
X1168237Y1248741*
X1168319Y1248699*
X1168384Y1248634*
X1168426Y1248552*
X1168441Y1248461*
X1168441D02*
Y1247279D01*
X1166867Y1247002D02*
Y1248738D01*
X1167162Y1246985D02*
Y1248756D01*
X1167458Y1246985D02*
Y1248756D01*
X1167753Y1246985D02*
Y1248756D01*
X1168049Y1246985D02*
Y1248756D01*
X1168344Y1247066D02*
Y1248674D01*
X1175905Y1256910D02*
X1175920Y1257001D01*
X1175962Y1257083*
X1176027Y1257148*
X1176110Y1257190*
X1176201Y1257205*
X1176201D02*
X1177382D01*
X1177382D02*
X1177473Y1257190D01*
X1177555Y1257148*
X1177620Y1257083*
X1177662Y1257001*
X1177677Y1256910*
X1177677D02*
Y1255728D01*
X1177677D02*
X1177662Y1255637D01*
X1177620Y1255555*
X1177555Y1255490*
X1177473Y1255448*
X1177382Y1255433*
X1177382D02*
X1176201D01*
X1176201D02*
X1176110Y1255448D01*
X1176027Y1255490*
X1175962Y1255555*
X1175920Y1255637*
X1175905Y1255728*
X1175905D02*
Y1256910D01*
X1176103Y1255451D02*
Y1257187D01*
X1176398Y1255433D02*
Y1257205D01*
X1176694Y1255433D02*
Y1257205D01*
X1176989Y1255433D02*
Y1257205D01*
X1177285Y1255433D02*
Y1257205D01*
X1177580Y1255515D02*
Y1257123D01*
X1172165Y1256910D02*
X1172180Y1257001D01*
X1172222Y1257083*
X1172287Y1257148*
X1172369Y1257190*
X1172460Y1257205*
X1172460D02*
X1173641D01*
X1173641D02*
X1173732Y1257190D01*
X1173815Y1257148*
X1173880Y1257083*
X1173922Y1257001*
X1173937Y1256910*
X1173937D02*
Y1255728D01*
X1173937D02*
X1173922Y1255637D01*
X1173880Y1255555*
X1173815Y1255490*
X1173732Y1255448*
X1173641Y1255433*
X1173641D02*
X1172460D01*
X1172460D02*
X1172369Y1255448D01*
X1172287Y1255490*
X1172222Y1255555*
X1172180Y1255637*
X1172165Y1255728*
X1172165D02*
Y1256910D01*
X1172262Y1255515D02*
Y1257123D01*
X1172557Y1255433D02*
Y1257205D01*
X1172853Y1255433D02*
Y1257205D01*
X1173148Y1255433D02*
Y1257205D01*
X1173444Y1255433D02*
Y1257205D01*
X1173739Y1255451D02*
Y1257187D01*
X1164701Y1255728D02*
X1164686Y1255637D01*
X1164644Y1255555*
X1164579Y1255490*
X1164496Y1255448*
X1164405Y1255433*
X1163224*
X1163133Y1255448*
X1163051Y1255490*
X1162986Y1255555*
X1162944Y1255637*
X1162929Y1255728*
X1162929D02*
Y1256910D01*
X1162929D02*
X1162944Y1257001D01*
X1162986Y1257083*
X1163051Y1257148*
X1163133Y1257190*
X1163224Y1257204*
X1164405*
X1164496Y1257190*
X1164579Y1257148*
X1164644Y1257083*
X1164686Y1257001*
X1164701Y1256910*
X1164701D02*
Y1255728D01*
X1163026Y1255515D02*
Y1257122D01*
X1163321Y1255433D02*
Y1257204D01*
X1163617Y1255433D02*
Y1257204D01*
X1163912Y1255433D02*
Y1257204D01*
X1164208Y1255433D02*
Y1257204D01*
X1164503Y1255451D02*
Y1257187D01*
X1168441Y1255728D02*
X1168426Y1255637D01*
X1168384Y1255555*
X1168319Y1255490*
X1168237Y1255448*
X1168146Y1255433*
X1166965*
X1166874Y1255448*
X1166791Y1255490*
X1166726Y1255555*
X1166684Y1255637*
X1166669Y1255728*
X1166669D02*
Y1256910D01*
X1166669D02*
X1166684Y1257001D01*
X1166726Y1257083*
X1166791Y1257148*
X1166874Y1257190*
X1166965Y1257204*
X1168146*
X1168237Y1257190*
X1168319Y1257148*
X1168384Y1257083*
X1168426Y1257001*
X1168441Y1256910*
X1168441D02*
Y1255728D01*
X1166867Y1255451D02*
Y1257187D01*
X1167162Y1255433D02*
Y1257204D01*
X1167458Y1255433D02*
Y1257204D01*
X1167753Y1255433D02*
Y1257204D01*
X1168049Y1255433D02*
Y1257204D01*
X1168344Y1255515D02*
Y1257122D01*
X1175905Y1252599D02*
X1175920Y1252690D01*
X1175962Y1252772*
X1176027Y1252837*
X1176110Y1252879*
X1176201Y1252894*
X1176201D02*
X1177382D01*
X1177382D02*
X1177473Y1252879D01*
X1177555Y1252837*
X1177620Y1252772*
X1177662Y1252690*
X1177677Y1252599*
X1177677D02*
Y1251417D01*
X1177677D02*
X1177662Y1251326D01*
X1177620Y1251244*
X1177555Y1251179*
X1177473Y1251137*
X1177382Y1251122*
X1177382D02*
X1176201D01*
X1176201D02*
X1176110Y1251137D01*
X1176027Y1251179*
X1175962Y1251244*
X1175920Y1251326*
X1175905Y1251417*
X1175905D02*
Y1252599D01*
X1176103Y1251140D02*
Y1252876D01*
X1176398Y1251122D02*
Y1252894D01*
X1176694Y1251122D02*
Y1252894D01*
X1176989Y1251122D02*
Y1252894D01*
X1177285Y1251122D02*
Y1252894D01*
X1177580Y1251204D02*
Y1252812D01*
X1172165Y1252599D02*
X1172180Y1252690D01*
X1172222Y1252772*
X1172287Y1252837*
X1172369Y1252879*
X1172460Y1252894*
X1172460D02*
X1173641D01*
X1173641D02*
X1173732Y1252879D01*
X1173815Y1252837*
X1173880Y1252772*
X1173922Y1252690*
X1173937Y1252599*
X1173937D02*
Y1251417D01*
X1173937D02*
X1173922Y1251326D01*
X1173880Y1251244*
X1173815Y1251179*
X1173732Y1251137*
X1173641Y1251122*
X1173641D02*
X1172460D01*
X1172460D02*
X1172369Y1251137D01*
X1172287Y1251179*
X1172222Y1251244*
X1172180Y1251326*
X1172165Y1251417*
X1172165D02*
Y1252599D01*
X1172262Y1251204D02*
Y1252812D01*
X1172557Y1251122D02*
Y1252894D01*
X1172853Y1251122D02*
Y1252894D01*
X1173148Y1251122D02*
Y1252894D01*
X1173444Y1251122D02*
Y1252894D01*
X1173739Y1251140D02*
Y1252876D01*
X1175905Y1248461D02*
X1175920Y1248552D01*
X1175962Y1248634*
X1176027Y1248699*
X1176110Y1248741*
X1176201Y1248756*
X1176201D02*
X1177382D01*
X1177382D02*
X1177473Y1248741D01*
X1177555Y1248699*
X1177620Y1248634*
X1177662Y1248552*
X1177677Y1248461*
X1177677D02*
Y1247279D01*
X1177677D02*
X1177662Y1247188D01*
X1177620Y1247106*
X1177555Y1247041*
X1177473Y1246999*
X1177382Y1246984*
X1177382D02*
X1176201D01*
X1176201D02*
X1176110Y1246999D01*
X1176027Y1247041*
X1175962Y1247106*
X1175920Y1247188*
X1175905Y1247279*
X1175905D02*
Y1248461D01*
X1176103Y1247002D02*
Y1248738D01*
X1176398Y1246984D02*
Y1248756D01*
X1176694Y1246984D02*
Y1248756D01*
X1176989Y1246984D02*
Y1248756D01*
X1177285Y1246984D02*
Y1248756D01*
X1177580Y1247066D02*
Y1248674D01*
X1172165Y1248461D02*
X1172180Y1248552D01*
X1172222Y1248634*
X1172287Y1248699*
X1172369Y1248741*
X1172460Y1248756*
X1172460D02*
X1173641D01*
X1173641D02*
X1173732Y1248741D01*
X1173815Y1248699*
X1173880Y1248634*
X1173922Y1248552*
X1173937Y1248461*
X1173937D02*
Y1247279D01*
X1173937D02*
X1173922Y1247188D01*
X1173880Y1247106*
X1173815Y1247041*
X1173732Y1246999*
X1173641Y1246984*
X1173641D02*
X1172460D01*
X1172460D02*
X1172369Y1246999D01*
X1172287Y1247041*
X1172222Y1247106*
X1172180Y1247188*
X1172165Y1247279*
X1172165D02*
Y1248461D01*
X1172262Y1247066D02*
Y1248674D01*
X1172557Y1246984D02*
Y1248756D01*
X1172853Y1246984D02*
Y1248756D01*
X1173148Y1246984D02*
Y1248756D01*
X1173444Y1246984D02*
Y1248756D01*
X1173739Y1247002D02*
Y1248738D01*
X1173937Y1264618D02*
X1173922Y1264527D01*
X1173880Y1264445*
X1173815Y1264379*
X1173732Y1264338*
X1173641Y1264323*
X1172460*
X1172369Y1264338*
X1172287Y1264380*
X1172222Y1264445*
X1172180Y1264527*
X1172165Y1264618*
X1172165D02*
Y1265799D01*
X1172165D02*
X1172180Y1265890D01*
X1172222Y1265973*
X1172287Y1266038*
X1172369Y1266080*
X1172460Y1266094*
X1173641*
X1173732Y1266080*
X1173815Y1266038*
X1173880Y1265973*
X1173922Y1265891*
X1173937Y1265799*
X1173937D02*
Y1264618D01*
X1172262Y1264405D02*
Y1266012D01*
X1172557Y1264323D02*
Y1266094D01*
X1172853Y1264323D02*
Y1266094D01*
X1173148Y1264323D02*
Y1266094D01*
X1173444Y1264323D02*
Y1266094D01*
X1173739Y1264341D02*
Y1266076D01*
X1177677Y1264618D02*
X1177662Y1264527D01*
X1177620Y1264445*
X1177555Y1264380*
X1177473Y1264338*
X1177382Y1264323*
X1176201*
X1176110Y1264338*
X1176027Y1264379*
X1175962Y1264445*
X1175920Y1264527*
X1175905Y1264618*
X1175905D02*
Y1265799D01*
X1175905D02*
X1175920Y1265891D01*
X1175962Y1265973*
X1176027Y1266038*
X1176110Y1266080*
X1176201Y1266094*
X1177382*
X1177473Y1266080*
X1177555Y1266038*
X1177620Y1265973*
X1177662Y1265890*
X1177677Y1265799*
X1177677D02*
Y1264618D01*
X1176103Y1264341D02*
Y1266076D01*
X1176398Y1264323D02*
Y1266094D01*
X1176694Y1264323D02*
Y1266094D01*
X1176989Y1264323D02*
Y1266094D01*
X1177285Y1264323D02*
Y1266094D01*
X1177580Y1264405D02*
Y1266012D01*
X1091066Y1045954D02*
X1090975Y1045968D01*
X1090893Y1046010*
X1090828Y1046076*
X1090786Y1046158*
X1090771Y1046249*
Y1047430*
X1090786Y1047521*
X1090828Y1047603*
X1090893Y1047668*
X1090975Y1047710*
X1091066Y1047725*
X1092248*
X1092339Y1047710*
X1092421Y1047668*
X1092486Y1047603*
X1092528Y1047521*
X1092542Y1047430*
Y1046249*
X1092528Y1046158*
X1092486Y1046076*
X1092421Y1046010*
X1092339Y1045968*
X1092248Y1045954*
X1091066*
Y1047725*
X1091361Y1045954D02*
Y1047725D01*
X1091657Y1045954D02*
Y1047725D01*
X1091952Y1045954D02*
Y1047725D01*
X1092248Y1045954D02*
Y1047725D01*
X1091066Y1042214D02*
X1090975Y1042228D01*
X1090893Y1042270*
X1090828Y1042335*
X1090786Y1042417*
X1090771Y1042509*
Y1043690*
X1090786Y1043781*
X1090828Y1043863*
X1090893Y1043928*
X1090975Y1043970*
X1091066Y1043985*
X1092248*
X1092339Y1043970*
X1092421Y1043928*
X1092486Y1043863*
X1092528Y1043781*
X1092542Y1043690*
Y1042509*
X1092528Y1042417*
X1092486Y1042335*
X1092421Y1042270*
X1092339Y1042228*
X1092248Y1042214*
X1091066*
Y1043985*
X1091361Y1042214D02*
Y1043985D01*
X1091657Y1042214D02*
Y1043985D01*
X1091952Y1042214D02*
Y1043985D01*
X1092248Y1042214D02*
Y1043985D01*
X1071476Y1040901D02*
X1071462Y1040810D01*
X1071420Y1040728*
X1071354Y1040663*
X1071272Y1040621*
X1071181Y1040607*
X1070000*
X1069909Y1040621*
X1069827Y1040663*
X1069761Y1040728*
X1069761D02*
X1069720Y1040810D01*
X1069705Y1040901*
Y1042083*
X1069720Y1042174*
X1069761Y1042256*
X1069761D02*
X1069827Y1042321D01*
X1069909Y1042363*
X1070000Y1042378*
X1071181*
X1071272Y1042363*
X1071354Y1042321*
X1071420Y1042256*
X1071462Y1042174*
X1071476Y1042083*
Y1040901*
X1069801Y1040689D02*
Y1042296D01*
X1070097Y1040607D02*
Y1042378D01*
X1070392Y1040607D02*
Y1042378D01*
X1070688Y1040607D02*
Y1042378D01*
X1070983Y1040607D02*
Y1042378D01*
X1071279Y1040624D02*
Y1042360D01*
X1075216Y1040901D02*
X1075202Y1040810D01*
X1075160Y1040728*
X1075095Y1040663*
X1075012Y1040621*
X1074921Y1040607*
X1073740*
X1073649Y1040621*
X1073567Y1040663*
X1073502Y1040728*
X1073460Y1040810*
X1073445Y1040901*
Y1042083*
X1073460Y1042174*
X1073502Y1042256*
X1073567Y1042321*
X1073649Y1042363*
X1073740Y1042378*
X1074921*
X1075012Y1042363*
X1075095Y1042321*
X1075160Y1042256*
X1075202Y1042174*
X1075216Y1042083*
Y1040901*
X1073643Y1040624D02*
Y1042360D01*
X1073938Y1040607D02*
Y1042378D01*
X1074234Y1040607D02*
Y1042378D01*
X1074529Y1040607D02*
Y1042378D01*
X1074825Y1040607D02*
Y1042378D01*
X1075120Y1040689D02*
Y1042296D01*
X1092248Y1052705D02*
X1092339Y1052691D01*
X1092421Y1052649*
X1092486Y1052583*
X1092528Y1052501*
X1092542Y1052410*
Y1051229*
X1092528Y1051138*
X1092486Y1051056*
X1092421Y1050991*
X1092339Y1050949*
X1092248Y1050934*
X1091066*
X1090975Y1050949*
X1090893Y1050991*
X1090828Y1051056*
X1090786Y1051138*
X1090771Y1051229*
Y1052410*
X1090786Y1052501*
X1090828Y1052583*
X1090893Y1052649*
X1090975Y1052691*
X1091066Y1052705*
X1092248*
X1091066Y1050934D02*
Y1052705D01*
X1091361Y1050934D02*
Y1052705D01*
X1091657Y1050934D02*
Y1052705D01*
X1091952Y1050934D02*
Y1052705D01*
X1092248Y1050934D02*
Y1052705D01*
Y1056445D02*
X1092339Y1056431D01*
X1092421Y1056389*
X1092486Y1056324*
X1092528Y1056242*
X1092542Y1056150*
X1092542D02*
Y1054970D01*
X1092542D02*
X1092528Y1054878D01*
X1092486Y1054796*
X1092421Y1054731*
X1092339Y1054689*
X1092248Y1054674*
X1091066*
X1090975Y1054689*
X1090893Y1054731*
X1090828Y1054796*
X1090786Y1054878*
X1090771Y1054969*
X1090771D02*
Y1056150D01*
X1090771D02*
X1090786Y1056242D01*
X1090828Y1056324*
X1090893Y1056389*
X1090975Y1056431*
X1091066Y1056445*
X1092248*
X1091066Y1054674D02*
Y1056445D01*
X1091361Y1054674D02*
Y1056445D01*
X1091657Y1054674D02*
Y1056445D01*
X1091952Y1054674D02*
Y1056445D01*
X1092248Y1054674D02*
Y1056445D01*
X1049858Y1102090D02*
X1049844Y1101999D01*
X1049802Y1101917*
X1049736Y1101852*
X1049654Y1101810*
X1049563Y1101796*
X1048382*
X1048291Y1101810*
X1048209Y1101852*
X1048143Y1101917*
X1048102Y1101999*
X1048087Y1102090*
Y1103272*
X1048102Y1103363*
X1048143Y1103445*
X1048209Y1103510*
X1048291Y1103552*
X1048382Y1103567*
X1049563*
X1049654Y1103552*
X1049736Y1103510*
X1049802Y1103445*
X1049844Y1103363*
X1049858Y1103272*
Y1102090*
X1048183Y1101878D02*
Y1103485D01*
X1048479Y1101796D02*
Y1103567D01*
X1048774Y1101796D02*
Y1103567D01*
X1049070Y1101796D02*
Y1103567D01*
X1049365Y1101796D02*
Y1103567D01*
X1049661Y1101813D02*
Y1103549D01*
X1053598Y1102090D02*
X1053584Y1101999D01*
X1053542Y1101917*
X1053476Y1101852*
X1053394Y1101810*
X1053303Y1101796*
X1052122*
X1052031Y1101810*
X1051949Y1101852*
X1051884Y1101917*
X1051842Y1101999*
X1051827Y1102090*
Y1103272*
X1051842Y1103363*
X1051884Y1103445*
X1051949Y1103510*
X1052031Y1103552*
X1052122Y1103567*
X1053303*
X1053394Y1103552*
X1053476Y1103510*
X1053542Y1103445*
X1053584Y1103363*
X1053598Y1103272*
Y1102090*
X1052025Y1101813D02*
Y1103549D01*
X1052320Y1101796D02*
Y1103567D01*
X1052616Y1101796D02*
Y1103567D01*
X1052911Y1101796D02*
Y1103567D01*
X1053207Y1101796D02*
Y1103567D01*
X1053502Y1101878D02*
Y1103485D01*
X1058823Y1098103D02*
X1058838Y1098194D01*
X1058880Y1098276*
X1058945Y1098341*
X1059027Y1098383*
X1059118Y1098397*
X1060299*
X1060390Y1098383*
X1060473Y1098341*
X1060538Y1098276*
X1060580Y1098194*
X1060594Y1098103*
Y1096921*
X1060580Y1096830*
X1060538Y1096748*
X1060473Y1096683*
X1060390Y1096641*
X1060299Y1096626*
X1059118*
X1059027Y1096641*
X1058945Y1096683*
X1058880Y1096748*
X1058838Y1096830*
X1058823Y1096921*
Y1098103*
X1059021Y1096644D02*
Y1098380D01*
X1059316Y1096626D02*
Y1098397D01*
X1059612Y1096626D02*
Y1098397D01*
X1059907Y1096626D02*
Y1098397D01*
X1060203Y1096626D02*
Y1098397D01*
X1060498Y1096708D02*
Y1098315D01*
X1055083Y1098103D02*
X1055098Y1098194D01*
X1055139Y1098276*
X1055205Y1098341*
X1055287Y1098383*
X1055378Y1098397*
X1056559*
X1056650Y1098383*
X1056732Y1098341*
X1056798Y1098276*
X1056840Y1098194*
X1056854Y1098103*
Y1096921*
X1056840Y1096830*
X1056798Y1096748*
X1056732Y1096683*
X1056650Y1096641*
X1056559Y1096626*
X1055378*
X1055287Y1096641*
X1055205Y1096683*
X1055139Y1096748*
X1055098Y1096830*
X1055083Y1096921*
Y1098103*
X1055179Y1096708D02*
Y1098315D01*
X1055475Y1096626D02*
Y1098397D01*
X1055770Y1096626D02*
Y1098397D01*
X1056066Y1096626D02*
Y1098397D01*
X1056361Y1096626D02*
Y1098397D01*
X1056657Y1096644D02*
Y1098380D01*
X1052004Y1092776D02*
X1052019Y1092867D01*
X1052061Y1092949*
X1052126Y1093014*
X1052208Y1093056*
X1052299Y1093071*
X1053480*
X1053571Y1093056*
X1053654Y1093014*
X1053719Y1092949*
X1053761Y1092867*
X1053775Y1092776*
Y1091594*
X1053761Y1091503*
X1053719Y1091421*
X1053654Y1091356*
X1053571Y1091314*
X1053480Y1091300*
X1052299*
X1052208Y1091314*
X1052126Y1091356*
X1052061Y1091421*
X1052019Y1091503*
X1052004Y1091594*
Y1092776*
X1052202Y1091317D02*
Y1093053D01*
X1052497Y1091300D02*
Y1093071D01*
X1052793Y1091300D02*
Y1093071D01*
X1053088Y1091300D02*
Y1093071D01*
X1053384Y1091300D02*
Y1093071D01*
X1053679Y1091381D02*
Y1092989D01*
X1048264Y1092776D02*
X1048279Y1092867D01*
X1048321Y1092949*
X1048386Y1093014*
X1048468Y1093056*
X1048559Y1093071*
X1049740*
X1049831Y1093056*
X1049913Y1093014*
X1049979Y1092949*
X1050021Y1092867*
X1050035Y1092776*
Y1091594*
X1050021Y1091503*
X1049979Y1091421*
X1049913Y1091356*
X1049831Y1091314*
X1049740Y1091300*
X1048559*
X1048468Y1091314*
X1048386Y1091356*
X1048321Y1091421*
X1048279Y1091503*
X1048264Y1091594*
Y1092776*
X1048360Y1091381D02*
Y1092989D01*
X1048656Y1091300D02*
Y1093071D01*
X1048951Y1091300D02*
Y1093071D01*
X1049247Y1091300D02*
Y1093071D01*
X1049542Y1091300D02*
Y1093071D01*
X1049838Y1091317D02*
Y1093053D01*
X1055886Y1045551D02*
X1055794Y1045566D01*
X1055712Y1045608*
X1055647Y1045673*
X1055605Y1045756*
X1055591Y1045847*
Y1047028*
X1055605Y1047119*
X1055647Y1047201*
X1055712Y1047266*
X1055795Y1047308*
X1055886Y1047322*
X1057067*
X1057158Y1047308*
X1057240Y1047266*
X1057306Y1047201*
X1057347Y1047119*
X1057362Y1047028*
Y1045847*
X1057348Y1045756*
X1057306Y1045673*
X1057240Y1045608*
X1057158Y1045566*
X1057067Y1045551*
X1055886*
X1055885D02*
Y1047322D01*
X1056181Y1045551D02*
Y1047322D01*
X1056476Y1045551D02*
Y1047322D01*
X1056772Y1045551D02*
Y1047322D01*
X1057067Y1045551D02*
Y1047322D01*
X1055886Y1041811D02*
X1055795Y1041826D01*
X1055712Y1041868*
X1055647Y1041933*
X1055605Y1042015*
X1055591Y1042106*
Y1043287*
X1055605Y1043378*
X1055647Y1043461*
X1055712Y1043526*
X1055794Y1043568*
X1055886Y1043582*
X1057067*
X1057158Y1043568*
X1057240Y1043526*
X1057306Y1043461*
X1057348Y1043378*
X1057362Y1043287*
Y1042106*
X1057347Y1042015*
X1057306Y1041933*
X1057240Y1041868*
X1057158Y1041826*
X1057067Y1041811*
X1055886*
X1055885D02*
Y1043582D01*
X1056181Y1041811D02*
Y1043582D01*
X1056476Y1041811D02*
Y1043582D01*
X1056772Y1041811D02*
Y1043582D01*
X1057067Y1041811D02*
Y1043582D01*
X1055882Y1111665D02*
X1055867Y1111574D01*
X1055825Y1111492*
X1055760Y1111427*
X1055678Y1111385*
X1055586Y1111370*
X1054405*
X1054314Y1111385*
X1054232Y1111427*
X1054167Y1111492*
X1054125Y1111574*
X1054111Y1111665*
Y1112847*
X1054125Y1112938*
X1054167Y1113020*
X1054232Y1113085*
X1054314Y1113127*
X1054405Y1113141*
X1055586*
X1055678Y1113127*
X1055760Y1113085*
X1055825Y1113020*
X1055867Y1112938*
X1055882Y1112847*
Y1111665*
X1054207Y1111452D02*
Y1113059D01*
X1054502Y1111370D02*
Y1113141D01*
X1054798Y1111370D02*
Y1113141D01*
X1055093Y1111370D02*
Y1113141D01*
X1055389Y1111370D02*
Y1113141D01*
X1055684Y1111388D02*
Y1113124D01*
X1059622Y1111665D02*
X1059607Y1111574D01*
X1059565Y1111492*
X1059500Y1111427*
X1059418Y1111385*
X1059327Y1111370*
X1058146*
X1058055Y1111385*
X1057972Y1111427*
X1057907Y1111492*
X1057865Y1111574*
X1057851Y1111665*
Y1112847*
X1057865Y1112938*
X1057907Y1113020*
X1057972Y1113085*
X1058055Y1113127*
X1058146Y1113141*
X1059327*
X1059418Y1113127*
X1059500Y1113085*
X1059565Y1113020*
X1059607Y1112938*
X1059622Y1112847*
Y1111665*
X1058048Y1111388D02*
Y1113124D01*
X1058344Y1111370D02*
Y1113141D01*
X1058639Y1111370D02*
Y1113141D01*
X1058935Y1111370D02*
Y1113141D01*
X1059230Y1111370D02*
Y1113141D01*
X1059526Y1111452D02*
Y1113059D01*
X1173520Y1174744D02*
X1173611Y1174729D01*
X1173693Y1174687*
X1173758Y1174622*
X1173800Y1174540*
X1173815Y1174449*
Y1173268*
X1173800Y1173177*
X1173758Y1173094*
X1173693Y1173029*
X1173611Y1172987*
X1173520Y1172973*
X1172338*
X1172247Y1172987*
X1172165Y1173029*
X1172100Y1173094*
X1172058Y1173177*
X1172044Y1173268*
Y1174449*
X1172058Y1174540*
X1172100Y1174622*
X1172165Y1174687*
X1172247Y1174729*
X1172338Y1174744*
X1173520*
X1172338Y1172973D02*
Y1174744D01*
X1172634Y1172973D02*
Y1174744D01*
X1172929Y1172973D02*
Y1174744D01*
X1173225Y1172973D02*
Y1174744D01*
X1173520Y1172973D02*
Y1174744D01*
Y1178484D02*
X1173611Y1178469D01*
X1173693Y1178427*
X1173758Y1178362*
X1173800Y1178280*
X1173815Y1178189*
Y1177008*
X1173800Y1176917*
X1173758Y1176835*
X1173693Y1176769*
X1173611Y1176727*
X1173520Y1176713*
X1172338*
X1172247Y1176727*
X1172165Y1176769*
X1172100Y1176835*
X1172058Y1176917*
X1172044Y1177008*
Y1178189*
X1172058Y1178280*
X1172100Y1178362*
X1172165Y1178427*
X1172247Y1178469*
X1172338Y1178484*
X1173520*
X1172338Y1176713D02*
Y1178484D01*
X1172634Y1176713D02*
Y1178484D01*
X1172929Y1176713D02*
Y1178484D01*
X1173225Y1176713D02*
Y1178484D01*
X1173520Y1176713D02*
Y1178484D01*
G54D173*
X1113997Y1370514D02*
X1113983Y1370423D01*
X1113941Y1370341*
X1113876Y1370275*
X1113793Y1370233*
X1113702Y1370219*
X1112521*
X1112430Y1370233*
X1112347Y1370275*
X1112282Y1370341*
X1112240Y1370423*
X1112226Y1370514*
Y1371695*
X1112240Y1371786*
X1112282Y1371869*
X1112347Y1371934*
X1112430Y1371976*
X1112521Y1371990*
X1113702*
X1113793Y1371976*
X1113876Y1371934*
X1113941Y1371869*
X1113983Y1371786*
X1113997Y1371695*
Y1370514*
X1112324Y1370298D02*
Y1371911D01*
X1112619Y1370219D02*
Y1371990D01*
X1112915Y1370219D02*
Y1371990D01*
X1113210Y1370219D02*
Y1371990D01*
X1113505Y1370219D02*
Y1371990D01*
X1113800Y1370237D02*
Y1371972D01*
X1117737Y1370514D02*
X1117723Y1370423D01*
X1117681Y1370341*
X1117616Y1370275*
X1117533Y1370233*
X1117442Y1370219*
X1116261*
X1116170Y1370233*
X1116088Y1370275*
X1116022Y1370341*
X1115980Y1370423*
X1115966Y1370514*
Y1371695*
X1115980Y1371786*
X1116022Y1371869*
X1116088Y1371934*
X1116170Y1371976*
X1116261Y1371990*
X1117442*
X1117533Y1371976*
X1117616Y1371934*
X1117681Y1371869*
X1117723Y1371786*
X1117737Y1371695*
Y1370514*
X1116163Y1370237D02*
Y1371972D01*
X1116458Y1370219D02*
Y1371990D01*
X1116753Y1370219D02*
Y1371990D01*
X1117048Y1370219D02*
Y1371990D01*
X1117344Y1370219D02*
Y1371990D01*
X1117639Y1370298D02*
Y1371911D01*
X1114036Y1365709D02*
X1114021Y1365618D01*
X1114021D02*
X1113980Y1365536D01*
X1113914Y1365470*
X1113832Y1365428*
X1113741Y1365414*
X1112560*
X1112468Y1365428*
X1112386Y1365470*
X1112321Y1365536*
X1112279Y1365618*
X1112264Y1365709*
Y1366890*
X1112279Y1366982*
X1112321Y1367064*
X1112386Y1367129*
X1112468Y1367171*
X1112560Y1367186*
X1113741*
X1113832Y1367171*
X1113914Y1367129*
X1113980Y1367064*
X1114021Y1366982*
X1114021D02*
X1114036Y1366890D01*
Y1365709*
X1112363Y1365494D02*
Y1367106D01*
X1112658Y1365414D02*
Y1367186D01*
X1112953Y1365414D02*
Y1367186D01*
X1113249Y1365414D02*
Y1367186D01*
X1113544Y1365414D02*
Y1367186D01*
X1113839Y1365432D02*
Y1367168D01*
X1117776Y1365709D02*
X1117762Y1365618D01*
X1117720Y1365536*
X1117654Y1365470*
X1117572Y1365428*
X1117481Y1365414*
X1116300*
X1116208Y1365428*
X1116126Y1365470*
X1116061Y1365536*
X1116019Y1365618*
X1116004Y1365709*
Y1366890*
X1116019Y1366982*
X1116061Y1367064*
X1116126Y1367129*
X1116208Y1367171*
X1116300Y1367186*
X1117481*
X1117572Y1367171*
X1117654Y1367129*
X1117720Y1367064*
X1117762Y1366982*
X1117776Y1366890*
Y1365709*
X1116201Y1365432D02*
Y1367168D01*
X1116497Y1365414D02*
Y1367186D01*
X1116792Y1365414D02*
Y1367186D01*
X1117087Y1365414D02*
Y1367186D01*
X1117382Y1365414D02*
Y1367186D01*
X1117678Y1365494D02*
Y1367106D01*
X1088487Y1328647D02*
X1088396Y1328662D01*
X1088313Y1328704*
X1088248Y1328769*
X1088206Y1328851*
X1088192Y1328943*
Y1330124*
X1088206Y1330215*
X1088248Y1330297*
X1088313Y1330362*
X1088396Y1330404*
X1088487Y1330419*
X1089668*
X1089759Y1330404*
X1089842Y1330362*
X1089907Y1330297*
X1089949Y1330215*
X1089963Y1330124*
Y1328943*
X1089949Y1328851*
X1089907Y1328769*
X1089842Y1328704*
X1089759Y1328662*
X1089668Y1328647*
X1088487*
X1088192Y1328943D02*
Y1330124D01*
X1088487Y1328647D02*
Y1330419D01*
X1088782Y1328647D02*
Y1330419D01*
X1089077Y1328647D02*
Y1330419D01*
X1089373Y1328647D02*
Y1330419D01*
X1089668Y1328647D02*
Y1330419D01*
X1088487Y1324907D02*
X1088396Y1324922D01*
X1088313Y1324963*
X1088248Y1325029*
X1088206Y1325111*
X1088192Y1325202*
Y1326383*
X1088206Y1326475*
X1088248Y1326557*
X1088313Y1326622*
X1088396Y1326664*
X1088487Y1326679*
X1089668*
X1089759Y1326664*
X1089842Y1326622*
X1089907Y1326557*
X1089949Y1326475*
X1089963Y1326383*
Y1325202*
X1089949Y1325111*
X1089907Y1325029*
X1089842Y1324963*
X1089759Y1324922*
X1089668Y1324907*
X1088487*
X1088192Y1325202D02*
Y1326383D01*
X1088487Y1324907D02*
Y1326679D01*
X1088782Y1324907D02*
Y1326679D01*
X1089077Y1324907D02*
Y1326679D01*
X1089373Y1324907D02*
Y1326679D01*
X1089668Y1324907D02*
Y1326679D01*
X1110015Y1340277D02*
X1109924Y1340291D01*
X1109841Y1340333*
X1109776Y1340399*
X1109734Y1340481*
X1109720Y1340572*
Y1341753*
X1109734Y1341845*
X1109734D02*
X1109776Y1341927D01*
X1109841Y1341992*
X1109924Y1342034*
X1110015Y1342049*
X1111196*
X1111287Y1342034*
X1111370Y1341992*
X1111435Y1341927*
X1111477Y1341845*
X1111477D02*
X1111491Y1341753D01*
Y1340572*
X1111477Y1340481*
X1111435Y1340399*
X1111370Y1340333*
X1111287Y1340291*
X1111196Y1340277*
X1110015*
X1109720Y1340572D02*
Y1341753D01*
X1110015Y1340277D02*
Y1342049D01*
X1110310Y1340277D02*
Y1342049D01*
X1110605Y1340277D02*
Y1342049D01*
X1110901Y1340277D02*
Y1342049D01*
X1111196Y1340277D02*
Y1342049D01*
X1110015Y1336537D02*
X1109924Y1336551D01*
X1109841Y1336593*
X1109776Y1336658*
X1109734Y1336741*
X1109720Y1336832*
Y1338013*
X1109734Y1338104*
X1109776Y1338187*
X1109841Y1338252*
X1109924Y1338294*
X1110015Y1338308*
X1111196*
X1111287Y1338294*
X1111370Y1338252*
X1111435Y1338187*
X1111477Y1338104*
X1111491Y1338013*
Y1336832*
X1111477Y1336741*
X1111435Y1336658*
X1111370Y1336593*
X1111287Y1336551*
X1111196Y1336537*
X1110015*
X1109720Y1336832D02*
Y1338013D01*
X1110015Y1336537D02*
Y1338308D01*
X1110310Y1336537D02*
Y1338308D01*
X1110605Y1336537D02*
Y1338308D01*
X1110901Y1336537D02*
Y1338308D01*
X1111196Y1336537D02*
Y1338308D01*
X1094248Y1346579D02*
X1094233Y1346487D01*
X1094191Y1346405*
X1094126Y1346340*
X1094044Y1346298*
X1093952Y1346283*
X1092771*
X1092680Y1346298*
X1092598Y1346340*
X1092532Y1346405*
X1092490Y1346487*
X1092476Y1346579*
Y1347760*
X1092490Y1347851*
X1092532Y1347933*
X1092598Y1347999*
X1092680Y1348041*
X1092771Y1348055*
X1093952*
X1094044Y1348041*
X1094126Y1347999*
X1094191Y1347933*
X1094233Y1347851*
X1094248Y1347760*
Y1346579*
X1092574Y1346363D02*
Y1347975D01*
X1092870Y1346283D02*
Y1348055D01*
X1093165Y1346283D02*
Y1348055D01*
X1093460Y1346283D02*
Y1348055D01*
X1093755Y1346283D02*
Y1348055D01*
X1094051Y1346302D02*
Y1348037D01*
X1097988Y1346579D02*
X1097973Y1346487D01*
X1097931Y1346405*
X1097866Y1346340*
X1097784Y1346298*
X1097692Y1346283*
X1096511*
X1096420Y1346298*
X1096338Y1346340*
X1096273Y1346405*
X1096231Y1346487*
X1096216Y1346579*
Y1347760*
X1096231Y1347851*
X1096273Y1347933*
X1096338Y1347999*
X1096420Y1348041*
X1096511Y1348055*
X1097692*
X1097784Y1348041*
X1097866Y1347999*
X1097931Y1347933*
X1097973Y1347851*
X1097988Y1347760*
Y1346579*
X1096413Y1346302D02*
Y1348037D01*
X1096708Y1346283D02*
Y1348055D01*
X1097004Y1346283D02*
Y1348055D01*
X1097299Y1346283D02*
Y1348055D01*
X1097594Y1346283D02*
Y1348055D01*
X1097889Y1346363D02*
Y1347975D01*
X1034898Y1246811D02*
X1034806Y1246825D01*
X1034724Y1246867*
X1034659Y1246933*
X1034617Y1247015*
X1034602Y1247106*
Y1248287*
X1034617Y1248379*
X1034659Y1248461*
X1034724Y1248526*
X1034806Y1248568*
X1034898Y1248583*
X1036079*
X1036170Y1248568*
X1036252Y1248526*
X1036318Y1248461*
X1036360Y1248379*
X1036374Y1248287*
Y1247106*
X1036360Y1247015*
X1036318Y1246933*
X1036252Y1246867*
X1036170Y1246825*
X1036079Y1246811*
X1034898*
X1034602Y1247106D02*
Y1248287D01*
X1034898Y1246811D02*
Y1248583D01*
X1035193Y1246811D02*
Y1248583D01*
X1035488Y1246811D02*
Y1248583D01*
X1035783Y1246811D02*
Y1248583D01*
X1036079Y1246811D02*
Y1248583D01*
X1034898Y1243071D02*
X1034806Y1243085D01*
X1034724Y1243127*
X1034659Y1243193*
X1034617Y1243275*
X1034602Y1243366*
Y1244547*
X1034617Y1244638*
X1034659Y1244721*
X1034724Y1244786*
X1034806Y1244828*
X1034898Y1244843*
X1036079*
X1036170Y1244828*
X1036252Y1244786*
X1036318Y1244721*
X1036360Y1244638*
X1036374Y1244547*
Y1243366*
X1036360Y1243275*
X1036318Y1243193*
X1036252Y1243127*
X1036170Y1243085*
X1036079Y1243071*
X1034898*
X1034602Y1243366D02*
Y1244547D01*
X1034898Y1243071D02*
Y1244843D01*
X1035193Y1243071D02*
Y1244843D01*
X1035488Y1243071D02*
Y1244843D01*
X1035783Y1243071D02*
Y1244843D01*
X1036079Y1243071D02*
Y1244843D01*
X1167551Y1275236D02*
X1167460Y1275251D01*
X1167378Y1275293*
X1167312Y1275358*
X1167270Y1275440*
X1167256Y1275531*
Y1276713*
X1167270Y1276804*
X1167312Y1276886*
X1167378Y1276951*
X1167460Y1276993*
X1167551Y1277008*
X1168732*
X1168824Y1276993*
X1168906Y1276951*
X1168971Y1276886*
X1169013Y1276804*
X1169028Y1276713*
Y1275531*
X1169013Y1275440*
X1168971Y1275358*
X1168906Y1275293*
X1168824Y1275251*
X1168732Y1275236*
X1167551*
X1167256Y1275531D02*
Y1276713D01*
X1167551Y1275236D02*
Y1277008D01*
X1167846Y1275236D02*
Y1277008D01*
X1168142Y1275236D02*
Y1277008D01*
X1168437Y1275236D02*
Y1277008D01*
X1168732Y1275236D02*
Y1277008D01*
X1167551Y1271496D02*
X1167460Y1271511D01*
X1167378Y1271552*
X1167312Y1271618*
X1167270Y1271700*
X1167256Y1271791*
Y1272972*
X1167270Y1273064*
X1167312Y1273146*
X1167378Y1273211*
X1167460Y1273253*
X1167551Y1273268*
X1168732*
X1168824Y1273253*
X1168906Y1273211*
X1168971Y1273146*
X1169013Y1273064*
X1169028Y1272972*
Y1271791*
X1169013Y1271700*
X1168971Y1271618*
X1168906Y1271552*
X1168824Y1271511*
X1168732Y1271496*
X1167551*
X1167256Y1271791D02*
Y1272972D01*
X1167551Y1271496D02*
Y1273268D01*
X1167846Y1271496D02*
Y1273268D01*
X1168142Y1271496D02*
Y1273268D01*
X1168437Y1271496D02*
Y1273268D01*
X1168732Y1271496D02*
Y1273268D01*
X1148126Y1252547D02*
X1148112Y1252456D01*
X1148070Y1252374*
X1148004Y1252308*
X1147922Y1252266*
X1147831Y1252252*
X1146650*
X1146558Y1252266*
X1146476Y1252308*
X1146411Y1252374*
X1146369Y1252456*
X1146354Y1252547*
Y1253728*
X1146369Y1253820*
X1146411Y1253902*
X1146476Y1253967*
X1146558Y1254009*
X1146650Y1254024*
X1147831*
X1147922Y1254009*
X1148004Y1253967*
X1148070Y1253902*
X1148112Y1253820*
X1148126Y1253728*
Y1252547*
X1146453Y1252332D02*
Y1253944D01*
X1146748Y1252252D02*
Y1254024D01*
X1147043Y1252252D02*
Y1254024D01*
X1147339Y1252252D02*
Y1254024D01*
X1147634Y1252252D02*
Y1254024D01*
X1147929Y1252270D02*
Y1254006D01*
X1151866Y1252547D02*
X1151852Y1252456D01*
X1151810Y1252374*
X1151744Y1252308*
X1151662Y1252266*
X1151571Y1252252*
X1150390*
X1150299Y1252266*
X1150216Y1252308*
X1150151Y1252374*
X1150109Y1252456*
X1150094Y1252547*
Y1253728*
X1150109Y1253820*
X1150151Y1253902*
X1150216Y1253967*
X1150299Y1254009*
X1150390Y1254024*
X1151571*
X1151662Y1254009*
X1151744Y1253967*
X1151810Y1253902*
X1151852Y1253820*
X1151866Y1253728*
Y1252547*
X1150291Y1252270D02*
Y1254006D01*
X1150587Y1252252D02*
Y1254024D01*
X1150882Y1252252D02*
Y1254024D01*
X1151177Y1252252D02*
Y1254024D01*
X1151472Y1252252D02*
Y1254024D01*
X1151768Y1252332D02*
Y1253944D01*
X1136457Y1165658D02*
X1136443Y1165567D01*
X1136401Y1165485*
X1136336Y1165419*
X1136253Y1165377*
X1136162Y1165363*
X1134981*
X1134890Y1165377*
X1134807Y1165419*
X1134742Y1165485*
X1134700Y1165567*
X1134686Y1165658*
Y1166839*
X1134700Y1166930*
X1134742Y1167013*
X1134807Y1167078*
X1134890Y1167120*
X1134981Y1167134*
X1136162*
X1136253Y1167120*
X1136336Y1167078*
X1136401Y1167013*
X1136443Y1166930*
X1136457Y1166839*
Y1165658*
X1134784Y1165442D02*
Y1167055D01*
X1135079Y1165363D02*
Y1167134D01*
X1135375Y1165363D02*
Y1167134D01*
X1135670Y1165363D02*
Y1167134D01*
X1135965Y1165363D02*
Y1167134D01*
X1136260Y1165381D02*
Y1167116D01*
X1140197Y1165658D02*
X1140183Y1165567D01*
X1140141Y1165485*
X1140076Y1165419*
X1139993Y1165377*
X1139902Y1165363*
X1138721*
X1138630Y1165377*
X1138547Y1165419*
X1138482Y1165485*
X1138440Y1165567*
X1138426Y1165658*
Y1166839*
X1138440Y1166930*
X1138482Y1167013*
X1138547Y1167078*
X1138630Y1167120*
X1138721Y1167134*
X1139902*
X1139993Y1167120*
X1140076Y1167078*
X1140141Y1167013*
X1140183Y1166930*
X1140197Y1166839*
Y1165658*
X1138623Y1165381D02*
Y1167116D01*
X1138918Y1165363D02*
Y1167134D01*
X1139213Y1165363D02*
Y1167134D01*
X1139508Y1165363D02*
Y1167134D01*
X1139804Y1165363D02*
Y1167134D01*
X1140099Y1165442D02*
Y1167055D01*
X1087218Y1054674D02*
X1087127Y1054688D01*
X1087044Y1054730*
X1086979Y1054796*
X1086937Y1054878*
X1086923Y1054969*
Y1056150*
X1086937Y1056242*
X1086979Y1056324*
X1087044Y1056389*
X1087127Y1056431*
X1087218Y1056446*
X1088399*
X1088490Y1056431*
X1088572Y1056389*
X1088638Y1056324*
X1088680Y1056242*
X1088694Y1056150*
Y1054969*
X1088680Y1054878*
X1088638Y1054796*
X1088572Y1054730*
X1088490Y1054688*
X1088399Y1054674*
X1087218*
X1086923Y1054969D02*
Y1056150D01*
X1087218Y1054674D02*
Y1056446D01*
X1087513Y1054674D02*
Y1056446D01*
X1087808Y1054674D02*
Y1056446D01*
X1088104Y1054674D02*
Y1056446D01*
X1088399Y1054674D02*
Y1056446D01*
X1087218Y1050934D02*
X1087127Y1050948D01*
X1087044Y1050990*
X1086979Y1051056*
X1086937Y1051138*
X1086923Y1051229*
Y1052410*
X1086937Y1052501*
X1086979Y1052584*
X1087044Y1052649*
X1087127Y1052691*
X1087218Y1052705*
X1087218D02*
X1088399D01*
X1088399D02*
X1088490Y1052691D01*
X1088572Y1052649*
X1088638Y1052584*
X1088680Y1052501*
X1088694Y1052410*
Y1051229*
X1088680Y1051138*
X1088638Y1051056*
X1088572Y1050990*
X1088490Y1050948*
X1088399Y1050934*
X1087218*
X1086923Y1051229D02*
Y1052410D01*
X1087218Y1050934D02*
Y1052705D01*
X1087513Y1050934D02*
Y1052705D01*
X1087808Y1050934D02*
Y1052705D01*
X1088104Y1050934D02*
Y1052705D01*
X1088399Y1050934D02*
Y1052705D01*
X1073077Y1161902D02*
X1073091Y1161993D01*
X1073133Y1162076*
X1073199Y1162141*
X1073281Y1162183*
X1073372Y1162198*
X1074553*
X1074645Y1162183*
X1074727Y1162141*
X1074792Y1162076*
X1074834Y1161993*
X1074849Y1161902*
Y1160721*
X1074834Y1160630*
X1074792Y1160548*
X1074727Y1160482*
X1074645Y1160440*
X1074553Y1160426*
X1073372*
X1073281Y1160440*
X1073199Y1160482*
X1073133Y1160548*
X1073091Y1160630*
X1073077Y1160721*
Y1161902*
X1073274Y1160444D02*
Y1162179D01*
X1073569Y1160426D02*
Y1162198D01*
X1073864Y1160426D02*
Y1162198D01*
X1074160Y1160426D02*
Y1162198D01*
X1074455Y1160426D02*
Y1162198D01*
X1074750Y1160506D02*
Y1162118D01*
X1069337Y1161902D02*
X1069351Y1161993D01*
X1069393Y1162076*
X1069459Y1162141*
X1069541Y1162183*
X1069632Y1162198*
X1070813*
X1070905Y1162183*
X1070987Y1162141*
X1071052Y1162076*
X1071094Y1161993*
X1071109Y1161902*
Y1160721*
X1071094Y1160630*
X1071052Y1160548*
X1070987Y1160482*
X1070905Y1160440*
X1070813Y1160426*
X1069632*
X1069541Y1160440*
X1069459Y1160482*
X1069393Y1160548*
X1069351Y1160630*
X1069337Y1160721*
Y1161902*
X1069435Y1160506D02*
Y1162118D01*
X1069731Y1160426D02*
Y1162198D01*
X1070026Y1160426D02*
Y1162198D01*
X1070321Y1160426D02*
Y1162198D01*
X1070616Y1160426D02*
Y1162198D01*
X1070912Y1160444D02*
Y1162179D01*
X1073132Y1157780D02*
X1073147Y1157871D01*
X1073189Y1157954*
X1073254Y1158019*
X1073336Y1158061*
X1073427Y1158075*
X1074609*
X1074700Y1158061*
X1074782Y1158019*
X1074847Y1157954*
X1074889Y1157871*
X1074904Y1157780*
Y1156599*
X1074889Y1156508*
X1074847Y1156426*
X1074782Y1156360*
X1074700Y1156318*
X1074609Y1156304*
X1073427*
X1073336Y1156318*
X1073254Y1156360*
X1073189Y1156426*
X1073147Y1156508*
X1073132Y1156599*
Y1157780*
X1073329Y1156322D02*
Y1158057D01*
X1073624Y1156304D02*
Y1158075D01*
X1073920Y1156304D02*
Y1158075D01*
X1074215Y1156304D02*
Y1158075D01*
X1074510Y1156304D02*
Y1158075D01*
X1074805Y1156384D02*
Y1157996D01*
X1069392Y1157780D02*
X1069406Y1157871D01*
X1069448Y1157954*
X1069514Y1158019*
X1069596Y1158061*
X1069687Y1158075*
X1070868*
X1070960Y1158061*
X1071042Y1158019*
X1071107Y1157954*
X1071149Y1157871*
X1071164Y1157780*
Y1156599*
X1071149Y1156508*
X1071107Y1156426*
X1071042Y1156360*
X1070960Y1156318*
X1070868Y1156304*
X1069687*
X1069596Y1156318*
X1069514Y1156360*
X1069448Y1156426*
X1069406Y1156508*
X1069392Y1156599*
Y1157780*
X1069490Y1156384D02*
Y1157996D01*
X1069786Y1156304D02*
Y1158075D01*
X1070081Y1156304D02*
Y1158075D01*
X1070376Y1156304D02*
Y1158075D01*
X1070672Y1156304D02*
Y1158075D01*
X1070967Y1156322D02*
Y1158057D01*
G54D174*
X1072325Y1169040D02*
X1072349Y1169192D01*
X1072419Y1169329*
X1072528Y1169438*
X1072665Y1169508*
X1072818Y1169532*
X1075769*
X1075922Y1169508*
X1076059Y1169438*
X1076168Y1169329*
X1076238Y1169192*
X1076263Y1169039*
Y1165891*
X1076238Y1165739*
X1076168Y1165601*
X1076059Y1165492*
X1075922Y1165422*
X1075769Y1165398*
X1072818*
X1072666Y1165422*
X1072528Y1165492*
X1072419Y1165601*
X1072349Y1165739*
X1072325Y1165891*
Y1169040*
Y1165891D02*
Y1169040D01*
X1072817Y1165398D02*
Y1169532D01*
X1073309Y1165398D02*
Y1169532D01*
X1073801Y1165398D02*
Y1169532D01*
X1074293Y1165398D02*
Y1169532D01*
X1074785Y1165398D02*
Y1169532D01*
X1075277Y1165398D02*
Y1169532D01*
X1075769Y1165398D02*
Y1169532D01*
X1076261Y1165878D02*
Y1169052D01*
X1064451Y1169040D02*
X1064475Y1169192D01*
X1064545Y1169329*
X1064654Y1169438*
X1064791Y1169508*
X1064944Y1169532*
X1067895*
X1068048Y1169508*
X1068185Y1169438*
X1068294Y1169329*
X1068364Y1169192*
X1068389Y1169039*
Y1165891*
X1068364Y1165739*
X1068294Y1165601*
X1068185Y1165492*
X1068048Y1165422*
X1067895Y1165398*
X1064944*
X1064792Y1165422*
X1064654Y1165492*
X1064545Y1165601*
X1064475Y1165739*
X1064451Y1165891*
Y1169040*
X1064453Y1165879D02*
Y1169052D01*
X1064945Y1165398D02*
Y1169532D01*
X1065437Y1165398D02*
Y1169532D01*
X1065929Y1165398D02*
Y1169532D01*
X1066421Y1165398D02*
Y1169532D01*
X1066913Y1165398D02*
Y1169532D01*
X1067405Y1165398D02*
Y1169532D01*
X1067897Y1165398D02*
Y1169532D01*
X1134576Y1170139D02*
X1134552Y1169987D01*
X1134481Y1169849*
X1134372Y1169740*
X1134235Y1169670*
X1134083Y1169646*
X1131131*
X1130979Y1169670*
X1130841Y1169740*
X1130732Y1169849*
X1130662Y1169987*
X1130638Y1170139*
Y1173288*
X1130662Y1173440*
X1130732Y1173577*
X1130841Y1173686*
X1130979Y1173756*
X1131131Y1173780*
X1134082*
X1134235Y1173756*
X1134372Y1173686*
X1134481Y1173577*
X1134551Y1173440*
X1134576Y1173287*
Y1170139*
X1130640Y1170127D02*
Y1173300D01*
X1131132Y1169646D02*
Y1173780D01*
X1131624Y1169646D02*
Y1173780D01*
X1132116Y1169646D02*
Y1173780D01*
X1132608Y1169646D02*
Y1173780D01*
X1133100Y1169646D02*
Y1173780D01*
X1133592Y1169646D02*
Y1173780D01*
X1134084Y1169646D02*
Y1173780D01*
X1142450Y1170139D02*
X1142426Y1169987D01*
X1142355Y1169849*
X1142246Y1169740*
X1142109Y1169670*
X1141957Y1169646*
X1139005*
X1138853Y1169670*
X1138715Y1169740*
X1138606Y1169849*
X1138536Y1169987*
X1138512Y1170139*
Y1173288*
X1138536Y1173440*
X1138606Y1173577*
X1138715Y1173686*
X1138853Y1173756*
X1139005Y1173780*
X1141956*
X1142109Y1173756*
X1142246Y1173686*
X1142355Y1173577*
X1142425Y1173440*
X1142450Y1173287*
Y1170139*
X1138512D02*
Y1173288D01*
X1139004Y1169646D02*
Y1173780D01*
X1139496Y1169646D02*
Y1173780D01*
X1139988Y1169646D02*
Y1173780D01*
X1140480Y1169646D02*
Y1173780D01*
X1140972Y1169646D02*
Y1173780D01*
X1141464Y1169646D02*
Y1173780D01*
X1141956Y1169646D02*
Y1173780D01*
X1142448Y1170126D02*
Y1173300D01*
X1148090Y1307437D02*
X1148114Y1307589D01*
X1148184Y1307726*
X1148294Y1307835*
X1148431Y1307905*
X1148583Y1307929*
X1151535*
X1151687Y1307905*
X1151824Y1307835*
X1151934Y1307726*
X1152004Y1307589*
X1152028Y1307436*
Y1304288*
X1152004Y1304136*
X1151934Y1303998*
X1151825Y1303889*
X1151687Y1303819*
X1151535Y1303795*
X1148583*
X1148431Y1303819*
X1148294Y1303889*
X1148185Y1303998*
X1148114Y1304136*
X1148090Y1304288*
Y1307437*
Y1304288D02*
Y1307437D01*
X1148582Y1303795D02*
Y1307929D01*
X1149074Y1303795D02*
Y1307929D01*
X1149566Y1303795D02*
Y1307929D01*
X1150058Y1303795D02*
Y1307929D01*
X1150550Y1303795D02*
Y1307929D01*
X1151042Y1303795D02*
Y1307929D01*
X1151534Y1303795D02*
Y1307929D01*
X1152026Y1304275D02*
Y1307449D01*
X1140216Y1307437D02*
X1140240Y1307589D01*
X1140310Y1307726*
X1140420Y1307835*
X1140557Y1307905*
X1140709Y1307929*
X1143661*
X1143813Y1307905*
X1143950Y1307835*
X1144060Y1307726*
X1144130Y1307589*
X1144154Y1307436*
Y1304288*
X1144130Y1304136*
X1144060Y1303998*
X1143951Y1303889*
X1143813Y1303819*
X1143661Y1303795*
X1140709*
X1140557Y1303819*
X1140420Y1303889*
X1140311Y1303998*
X1140240Y1304136*
X1140216Y1304288*
Y1307437*
X1140218Y1304276D02*
Y1307449D01*
X1140710Y1303795D02*
Y1307929D01*
X1141202Y1303795D02*
Y1307929D01*
X1141694Y1303795D02*
Y1307929D01*
X1142186Y1303795D02*
Y1307929D01*
X1142678Y1303795D02*
Y1307929D01*
X1143170Y1303795D02*
Y1307929D01*
X1143662Y1303795D02*
Y1307929D01*
X1162615Y1043729D02*
X1162590Y1043577D01*
X1162520Y1043439*
X1162411Y1043330*
X1162274Y1043260*
X1162121Y1043236*
X1162121D02*
X1159170D01*
X1159018Y1043260*
X1158880Y1043330*
X1158771Y1043439*
X1158701Y1043577*
X1158677Y1043729*
Y1046877*
X1158701Y1047030*
X1158771Y1047167*
X1158880Y1047276*
X1159018Y1047346*
X1159170Y1047370*
X1162121*
X1162274Y1047346*
X1162411Y1047276*
X1162520Y1047167*
X1162590Y1047030*
X1162615Y1046877*
Y1043729*
X1158679Y1043717D02*
Y1046890D01*
X1159171Y1043236D02*
Y1047370D01*
X1159663Y1043236D02*
Y1047370D01*
X1160155Y1043236D02*
Y1047370D01*
X1160647Y1043236D02*
Y1047370D01*
X1161139Y1043236D02*
Y1047370D01*
X1161631Y1043236D02*
Y1047370D01*
X1162123Y1043236D02*
Y1047370D01*
X1170489Y1043729D02*
X1170464Y1043577D01*
X1170394Y1043439*
X1170285Y1043330*
X1170148Y1043260*
X1169995Y1043236*
X1167044*
X1166892Y1043260*
X1166754Y1043330*
X1166645Y1043439*
X1166575Y1043577*
X1166551Y1043729*
Y1046877*
X1166575Y1047030*
X1166645Y1047167*
X1166754Y1047276*
X1166892Y1047346*
X1167044Y1047370*
X1169995*
X1170148Y1047346*
X1170285Y1047276*
X1170394Y1047167*
X1170464Y1047030*
X1170489Y1046877*
Y1043729*
X1166551D02*
Y1046877D01*
X1167043Y1043236D02*
Y1047370D01*
X1167535Y1043236D02*
Y1047370D01*
X1168027Y1043236D02*
Y1047370D01*
X1168519Y1043236D02*
Y1047370D01*
X1169011Y1043236D02*
Y1047370D01*
X1169503Y1043236D02*
Y1047370D01*
X1169995Y1043236D02*
Y1047370D01*
X1170487Y1043716D02*
Y1046890D01*
X1162532Y1036319D02*
X1162508Y1036167D01*
X1162438Y1036030*
X1162328Y1035921*
X1162191Y1035851*
X1162039Y1035827*
X1159087*
X1158935Y1035851*
X1158798Y1035921*
X1158689Y1036030*
X1158618Y1036167*
X1158594Y1036320*
Y1039468*
X1158618Y1039620*
X1158688Y1039758*
X1158798Y1039867*
X1158935Y1039937*
X1159087Y1039961*
X1162039*
X1162191Y1039937*
X1162191D02*
X1162328Y1039866D01*
X1162437Y1039757*
X1162508Y1039620*
X1162532Y1039468*
Y1036319*
X1158596Y1036307D02*
Y1039481D01*
X1159088Y1035827D02*
Y1039961D01*
X1159580Y1035827D02*
Y1039961D01*
X1160072Y1035827D02*
Y1039961D01*
X1160564Y1035827D02*
Y1039961D01*
X1161056Y1035827D02*
Y1039961D01*
X1161548Y1035827D02*
Y1039961D01*
X1162040Y1035827D02*
Y1039960D01*
X1170406Y1036319D02*
X1170382Y1036167D01*
X1170312Y1036030*
X1170202Y1035921*
X1170065Y1035851*
X1169913Y1035827*
X1166961*
X1166809Y1035851*
X1166672Y1035921*
X1166563Y1036030*
X1166492Y1036167*
X1166468Y1036320*
Y1039468*
X1166492Y1039620*
X1166562Y1039758*
X1166672Y1039867*
X1166809Y1039937*
X1166961Y1039961*
X1169913*
X1170065Y1039937*
X1170065D02*
X1170202Y1039866D01*
X1170311Y1039757*
X1170382Y1039620*
X1170406Y1039468*
Y1036319*
X1166468Y1036320D02*
Y1039468D01*
X1166960Y1035827D02*
Y1039961D01*
X1167452Y1035827D02*
Y1039961D01*
X1167944Y1035827D02*
Y1039961D01*
X1168436Y1035827D02*
Y1039961D01*
X1168928Y1035827D02*
Y1039961D01*
X1169420Y1035827D02*
Y1039961D01*
X1169912Y1035827D02*
Y1039961D01*
X1170404Y1036307D02*
Y1039480D01*
G54D175*
X1057567Y1115606D02*
X1057554Y1115557D01*
X1057518Y1115521*
X1057469Y1115508*
X1053531*
X1053482Y1115521*
X1053446Y1115557*
X1053433Y1115606*
Y1118559*
X1053446Y1118608*
X1053482Y1118644*
X1053531Y1118657*
X1057469*
X1057518Y1118644*
X1057554Y1118608*
X1057567Y1118559*
Y1115606*
X1053728Y1115508D02*
Y1118657D01*
X1054122Y1115508D02*
Y1118657D01*
X1054516Y1115508D02*
Y1118657D01*
X1054909Y1115508D02*
Y1118657D01*
X1055303Y1115508D02*
Y1118657D01*
X1055697Y1115508D02*
Y1118657D01*
X1056091Y1115508D02*
Y1118657D01*
X1056484Y1115508D02*
Y1118657D01*
X1056878Y1115508D02*
Y1118657D01*
X1057272Y1115508D02*
Y1118657D01*
X1057567Y1126827D02*
X1057554Y1126778D01*
X1057518Y1126742*
X1057469Y1126728*
X1053531*
X1053482Y1126742*
X1053446Y1126778*
X1053433Y1126827*
Y1129780*
X1053446Y1129829*
X1053482Y1129865*
X1053531Y1129878*
X1057469*
X1057518Y1129865*
X1057554Y1129829*
X1057567Y1129780*
Y1126827*
X1053728Y1126728D02*
Y1129878D01*
X1054122Y1126728D02*
Y1129878D01*
X1054516Y1126728D02*
Y1129878D01*
X1054909Y1126728D02*
Y1129878D01*
X1055303Y1126728D02*
Y1129878D01*
X1055697Y1126728D02*
Y1129878D01*
X1056091Y1126728D02*
Y1129878D01*
X1056484Y1126728D02*
Y1129878D01*
X1056878Y1126728D02*
Y1129878D01*
X1057272Y1126728D02*
Y1129878D01*
X1065047Y1126827D02*
X1065034Y1126778D01*
X1064998Y1126742*
X1064949Y1126728*
X1061012*
X1060963Y1126742*
X1060927Y1126778*
X1060913Y1126827*
Y1129780*
X1060927Y1129829*
X1060963Y1129865*
X1061012Y1129878*
X1064949*
X1064998Y1129865*
X1065034Y1129829*
X1065047Y1129780*
Y1126827*
X1061209Y1126728D02*
Y1129878D01*
X1061602Y1126728D02*
Y1129878D01*
X1061996Y1126728D02*
Y1129878D01*
X1062390Y1126728D02*
Y1129878D01*
X1062783Y1126728D02*
Y1129878D01*
X1063177Y1126728D02*
Y1129878D01*
X1063571Y1126728D02*
Y1129878D01*
X1063965Y1126728D02*
Y1129878D01*
X1064358Y1126728D02*
Y1129878D01*
X1064752Y1126728D02*
Y1129878D01*
X1065047Y1115606D02*
X1065034Y1115557D01*
X1064998Y1115521*
X1064949Y1115508*
X1061012*
X1060963Y1115521*
X1060927Y1115557*
X1060913Y1115606*
Y1118559*
X1060927Y1118608*
X1060963Y1118644*
X1061012Y1118657*
X1064949*
X1064998Y1118644*
X1065034Y1118608*
X1065047Y1118559*
Y1115606*
X1061209Y1115508D02*
Y1118657D01*
X1061602Y1115508D02*
Y1118657D01*
X1061996Y1115508D02*
Y1118657D01*
X1062390Y1115508D02*
Y1118657D01*
X1062783Y1115508D02*
Y1118657D01*
X1063177Y1115508D02*
Y1118657D01*
X1063571Y1115508D02*
Y1118657D01*
X1063965Y1115508D02*
Y1118657D01*
X1064358Y1115508D02*
Y1118657D01*
X1064752Y1115508D02*
Y1118657D01*
G54D332*
X1117003Y1320646D03*
Y1308646D03*
X1145684Y1224986D03*
Y1236986D03*
X1134661Y1224978D03*
Y1236978D03*
X1160779Y1272513D03*
Y1284513D03*
G54D336*
X1100369Y1342412D03*
Y1338672D03*
Y1334932D03*
X1089739D03*
Y1338672D03*
Y1342412D03*
G54D427*
X1137073Y1313664D03*
X1150065D03*
G54D643*
X1086715Y1360309D03*
X1102857D03*
G54D644*
X1130266Y1261450D03*
Y1263419D03*
Y1265387D03*
Y1267356D03*
Y1269324D03*
Y1271293D03*
Y1273261D03*
Y1275230D03*
Y1277198D03*
Y1279167D03*
Y1281135D03*
Y1283104D03*
X1149558D03*
Y1281135D03*
Y1279167D03*
Y1277198D03*
Y1275230D03*
Y1273261D03*
Y1271293D03*
Y1269324D03*
Y1267356D03*
Y1265387D03*
Y1263419D03*
Y1261450D03*
G54D645*
X1133022Y1285860D03*
X1134991D03*
X1136959D03*
X1138928D03*
X1140896D03*
X1142865D03*
X1144833D03*
X1146802D03*
Y1258695D03*
X1144833D03*
X1142865D03*
X1140896D03*
X1138928D03*
X1136959D03*
X1134991D03*
X1133022D03*
G54D646*
X1139912Y1272277D03*
G54D647*
X1098051Y1277031D03*
Y1241598D03*
G54D648*
X1181059Y1152144D03*
X1178500D03*
X1175941D03*
X1173382D03*
Y1167499D03*
X1175941D03*
X1178500D03*
X1181059D03*
G54D649*
X1108996Y1054587D03*
Y1050650D03*
Y1046713D03*
X1097578D03*
Y1054587D03*
X1073815D03*
Y1050650D03*
Y1046713D03*
X1062398D03*
Y1054587D03*
G54D650*
X1046521Y1159608D03*
X1043962D03*
X1041403D03*
X1038844D03*
X1036285D03*
X1033726D03*
X1031167D03*
X1028608D03*
Y1183230D03*
X1031167D03*
X1033726D03*
X1036285D03*
X1038844D03*
X1041403D03*
X1043962D03*
X1046521D03*
X0Y0D02*
M02*
