*
*
G04 PADS 9.5 Build Number: 522968 generated Gerber (RS-274-X) file*
G04 PC Version=2.1*
*
%IN "bitaxeGamma601_V1.0.pcb"*%
*
%MOIN*%
*
%FSLAX35Y35*%
*
*
*
*
G04 PC Standard Apertures*
*
*
G04 Thermal Relief Aperture macro.*
%AMTER*
1,1,$1,0,0*
1,0,$1-$2,0,0*
21,0,$3,$4,0,0,45*
21,0,$3,$4,0,0,135*
%
*
*
G04 Annular Aperture macro.*
%AMANN*
1,1,$1,0,0*
1,0,$2,0,0*
%
*
*
G04 Odd Aperture macro.*
%AMODD*
1,1,$1,0,0*
1,0,$1-0.005,0,0*
%
*
*
G04 PC Custom Aperture Macros*
*
*
*
*
*
*
G04 PC Aperture Table*
*
%ADD010C,0.001*%
%ADD015R,0.02X0.02*%
%ADD020R,0.046X0.052*%
%ADD056R,0.03937X0.00984*%
%ADD060R,0.026X0.022*%
%ADD081C,0.04*%
%ADD122C,0.00591*%
%ADD332R,0.08X0.06*%
%ADD629R,0.02205X0.05*%
%ADD630R,0.03346X0.06299*%
%ADD631R,0.06299X0.03346*%
%ADD632R,0.14567X0.14567*%
%ADD633R,0.1063X0.05906*%
%ADD634R,0.05118X0.01181*%
%ADD638R,0.24803X0.07874*%
%ADD639R,0.24803X0.20866*%
%ADD640R,0.04134X0.07874*%
%ADD642R,0.09449X0.10236*%
*
*
*
*
G04 PC Circuitry*
G04 Layer Name bitaxeGamma601_V1.0.pcb - circuitry*
%LPD*%
*
*
G04 PC Custom Flashes*
G04 Layer Name bitaxeGamma601_V1.0.pcb - flashes*
%LPD*%
*
*
G04 PC Circuitry*
G04 Layer Name bitaxeGamma601_V1.0.pcb - circuitry*
%LPD*%
*
G54D10*
G54D15*
G01X1149317Y1353091D03*
X1145317D03*
X1140933Y1379722D03*
X1136933D03*
G54D20*
X1155453Y1378380D03*
X1147453D03*
G54D56*
X1095409Y1137299D03*
Y1135323D03*
Y1133346D03*
Y1131370D03*
Y1129394D03*
Y1127417D03*
Y1125441D03*
Y1123465D03*
Y1121488D03*
Y1119512D03*
Y1117535D03*
Y1115559D03*
Y1113583D03*
Y1111606D03*
Y1109630D03*
X1127031D03*
Y1111606D03*
Y1113583D03*
Y1115559D03*
Y1117535D03*
Y1119512D03*
Y1121488D03*
Y1123465D03*
Y1125441D03*
Y1127417D03*
Y1129394D03*
Y1131370D03*
Y1133346D03*
Y1135323D03*
Y1137299D03*
G54D60*
X1061393Y1364319D03*
X1056993D03*
X1149430Y1348477D03*
X1145030D03*
X1061425Y1369670D03*
X1057025D03*
G54D81*
X1009898Y1358291D03*
X1215071Y1036220D03*
G54D122*
X1164862Y1349594D02*
X1164771Y1349579D01*
X1164688Y1349537*
X1164688D02*
X1164623Y1349472D01*
X1164581Y1349390*
X1164567Y1349298*
Y1348117*
X1164582Y1348026*
X1164623Y1347944*
X1164689Y1347879*
X1164771Y1347837*
X1164862Y1347823*
X1166043*
X1166134Y1347837*
X1166217Y1347879*
X1166282Y1347944*
X1166324Y1348026*
X1166338Y1348117*
Y1349298*
X1166324Y1349390*
X1166282Y1349472*
X1166217Y1349537*
X1166134Y1349579*
X1166043Y1349594*
X1164862*
Y1347823D02*
Y1349594D01*
X1165157Y1347823D02*
Y1349594D01*
X1165453Y1347823D02*
Y1349594D01*
X1165748Y1347823D02*
Y1349594D01*
X1166044Y1347823D02*
Y1349594D01*
X1164862Y1353334D02*
X1164771Y1353319D01*
X1164689Y1353277*
X1164623Y1353212*
X1164582Y1353130*
X1164567Y1353039*
Y1351858*
X1164581Y1351767*
X1164623Y1351684*
X1164688Y1351619*
X1164688D02*
X1164771Y1351577D01*
X1164862Y1351563*
X1166043*
X1166134Y1351577*
X1166217Y1351619*
X1166282Y1351684*
X1166324Y1351767*
X1166338Y1351858*
Y1353039*
X1166324Y1353130*
X1166282Y1353212*
X1166217Y1353277*
X1166134Y1353319*
X1166043Y1353334*
X1164862*
Y1351563D02*
Y1353334D01*
X1165157Y1351563D02*
Y1353334D01*
X1165453Y1351563D02*
Y1353334D01*
X1165748Y1351563D02*
Y1353334D01*
X1166044Y1351563D02*
Y1353334D01*
X1165996Y1359065D02*
X1166087Y1359080D01*
X1166170Y1359122*
X1166235Y1359187*
X1166277Y1359269*
X1166291Y1359360*
Y1360541*
X1166277Y1360632*
X1166235Y1360715*
X1166169Y1360780*
X1166087Y1360822*
X1165996Y1360836*
X1164815*
X1164724Y1360822*
X1164642Y1360780*
X1164576Y1360715*
X1164535Y1360632*
X1164535D02*
X1164520Y1360541D01*
Y1359360*
X1164534Y1359269*
X1164576Y1359187*
X1164641Y1359122*
X1164724Y1359080*
X1164815Y1359065*
X1165996*
X1164815D02*
Y1360836D01*
X1165110Y1359065D02*
Y1360836D01*
X1165406Y1359065D02*
Y1360836D01*
X1165701Y1359065D02*
Y1360836D01*
X1165997Y1359065D02*
Y1360836D01*
X1165996Y1355325D02*
X1166087Y1355340D01*
X1166169Y1355381*
X1166235Y1355447*
X1166277Y1355529*
X1166291Y1355620*
Y1356801*
X1166277Y1356892*
X1166235Y1356974*
X1166170Y1357040*
X1166087Y1357082*
X1165996Y1357096*
X1164815*
X1164724Y1357082*
X1164641Y1357040*
X1164576Y1356974*
X1164534Y1356892*
X1164520Y1356801*
Y1355620*
X1164535Y1355529*
X1164535D02*
X1164576Y1355447D01*
X1164642Y1355381*
X1164724Y1355340*
X1164815Y1355325*
X1165996*
X1164815D02*
Y1357096D01*
X1165110Y1355325D02*
Y1357096D01*
X1165406Y1355325D02*
Y1357096D01*
X1165701Y1355325D02*
Y1357096D01*
X1165997Y1355325D02*
Y1357096D01*
X1006649Y1172232D02*
X1006635Y1172324D01*
X1006593Y1172406*
X1006528Y1172471*
X1006445Y1172513*
X1006354Y1172527*
X1005173*
X1005082Y1172513*
X1005000Y1172471*
X1004935Y1172406*
X1004893Y1172324*
X1004878Y1172232*
Y1171051*
X1004893Y1170960*
X1004935Y1170878*
X1005000Y1170813*
X1005082Y1170771*
X1005173Y1170756*
X1006354*
X1006445Y1170771*
X1006528Y1170812*
X1006593Y1170878*
X1006635Y1170960*
X1006649Y1171051*
Y1172232*
X1004974Y1170838D02*
Y1172445D01*
X1005270Y1170756D02*
Y1172527D01*
X1005565Y1170756D02*
Y1172527D01*
X1005861Y1170756D02*
Y1172527D01*
X1006156Y1170756D02*
Y1172527D01*
X1006452Y1170774D02*
Y1172510D01*
X1010389Y1172232D02*
X1010375Y1172324D01*
X1010333Y1172406*
X1010268Y1172471*
X1010186Y1172513*
X1010095Y1172527*
X1008914*
X1008822Y1172513*
X1008740Y1172471*
X1008675Y1172406*
X1008633Y1172324*
X1008618Y1172232*
Y1171051*
X1008633Y1170960*
X1008675Y1170878*
X1008740Y1170812*
X1008822Y1170771*
X1008914Y1170756*
X1010095*
X1010186Y1170771*
X1010268Y1170813*
X1010333Y1170878*
X1010375Y1170960*
X1010389Y1171051*
Y1172232*
X1008816Y1170774D02*
Y1172510D01*
X1009111Y1170756D02*
Y1172527D01*
X1009407Y1170756D02*
Y1172527D01*
X1009702Y1170756D02*
Y1172527D01*
X1009998Y1170756D02*
Y1172527D01*
X1010293Y1170838D02*
Y1172445D01*
X1006366Y1153319D02*
X1006351Y1153410D01*
X1006309Y1153492*
X1006244Y1153558*
X1006162Y1153599*
X1006071Y1153614*
X1004890*
X1004799Y1153599*
X1004716Y1153557*
X1004651Y1153492*
X1004609Y1153410*
X1004595Y1153319*
Y1152138*
X1004609Y1152047*
X1004651Y1151964*
X1004716Y1151899*
X1004799Y1151857*
X1004890Y1151843*
X1006071*
X1006162Y1151857*
X1006244Y1151899*
X1006309Y1151964*
X1006351Y1152046*
X1006366Y1152138*
Y1153319*
X1004691Y1151925D02*
Y1153532D01*
X1004986Y1151843D02*
Y1153614D01*
X1005282Y1151843D02*
Y1153614D01*
X1005577Y1151843D02*
Y1153614D01*
X1005873Y1151843D02*
Y1153614D01*
X1006168Y1151861D02*
Y1153596D01*
X1010106Y1153319D02*
X1010091Y1153410D01*
X1010050Y1153492*
X1009984Y1153557*
X1009902Y1153599*
X1009811Y1153614*
X1008630*
X1008539Y1153599*
X1008457Y1153558*
X1008391Y1153492*
X1008349Y1153410*
X1008335Y1153319*
Y1152138*
X1008349Y1152046*
X1008391Y1151964*
X1008457Y1151899*
X1008539Y1151857*
X1008630Y1151843*
X1009811*
X1009902Y1151857*
X1009984Y1151899*
X1010050Y1151964*
X1010091Y1152047*
X1010106Y1152138*
Y1153319*
X1008532Y1151861D02*
Y1153596D01*
X1008828Y1151843D02*
Y1153614D01*
X1009123Y1151843D02*
Y1153614D01*
X1009419Y1151843D02*
Y1153614D01*
X1009714Y1151843D02*
Y1153614D01*
X1010010Y1151925D02*
Y1153532D01*
G54D332*
X1129283Y1367464D03*
Y1355464D03*
G54D629*
X1145189Y1359323D03*
X1149126D03*
X1153063D03*
Y1370740D03*
X1145189D03*
G54D630*
X1032965Y1258024D03*
X1037965D03*
X1042965D03*
X1047965D03*
X1052965D03*
X1057965D03*
X1062965D03*
X1067965D03*
X1072965D03*
X1077965D03*
X1082965D03*
X1087965D03*
X1092965D03*
X1097965D03*
Y1328890D03*
X1092965D03*
X1087965D03*
X1082965D03*
X1077965D03*
X1072965D03*
X1067965D03*
X1062965D03*
X1057965D03*
X1052965D03*
X1047965D03*
X1042965D03*
X1037965D03*
X1032965D03*
G54D631*
X1103870Y1265957D03*
Y1270957D03*
Y1275957D03*
Y1280957D03*
Y1285957D03*
Y1290957D03*
Y1295957D03*
Y1300957D03*
Y1305957D03*
Y1310957D03*
Y1315957D03*
Y1320957D03*
G54D632*
X1063358Y1287551D03*
G54D633*
X1151227Y1317574D03*
X1134297D03*
G54D634*
X1194094Y1247047D03*
Y1249016D03*
Y1245079D03*
Y1243110D03*
Y1241142D03*
Y1239173D03*
Y1237992D03*
Y1236024D03*
Y1234843D03*
Y1250984D03*
Y1252953D03*
Y1254921D03*
Y1256890D03*
Y1258071D03*
Y1260039D03*
Y1261220D03*
G54D638*
X1111220Y1134764D03*
G54D639*
Y1118583D03*
G54D640*
X1005811Y1143571D03*
X1023331D03*
X1005803Y1162823D03*
X1023323D03*
G54D642*
X1201307Y1285303D03*
Y1331917D03*
X1177291D03*
Y1285461D03*
X0Y0D02*
M02*
