*
*
G04 PADS 9.5 Build Number: 522968 generated Gerber (RS-274-X) file*
G04 PC Version=2.1*
*
%IN "bitaxeGamma601_V1.0.pcb"*%
*
%MOIN*%
*
%FSLAX35Y35*%
*
*
*
*
G04 PC Standard Apertures*
*
*
G04 Thermal Relief Aperture macro.*
%AMTER*
1,1,$1,0,0*
1,0,$1-$2,0,0*
21,0,$3,$4,0,0,45*
21,0,$3,$4,0,0,135*
%
*
*
G04 Annular Aperture macro.*
%AMANN*
1,1,$1,0,0*
1,0,$2,0,0*
%
*
*
G04 Odd Aperture macro.*
%AMODD*
1,1,$1,0,0*
1,0,$1-0.005,0,0*
%
*
*
G04 PC Custom Aperture Macros*
*
*
*
*
*
*
G04 PC Aperture Table*
*
%ADD010C,0.001*%
%ADD016C,0.01*%
%ADD123C,0.004*%
%ADD131C,0.005*%
%ADD133C,0.006*%
%ADD172C,0.00394*%
%ADD173C,0.00591*%
%ADD175C,0.00787*%
%ADD289C,0.003*%
%ADD319C,0.00492*%
%ADD320C,0.00984*%
*
*
*
*
G04 PC Circuitry*
G04 Layer Name bitaxeGamma601_V1.0.pcb - circuitry*
%LPD*%
*
*
G04 PC Custom Flashes*
G04 Layer Name bitaxeGamma601_V1.0.pcb - flashes*
%LPD*%
*
*
G04 PC Circuitry*
G04 Layer Name bitaxeGamma601_V1.0.pcb - circuitry*
%LPD*%
*
G54D10*
G54D16*
G01X1077776Y1281953D02*
Y1236677D01*
X1118327*
Y1281953*
X1077776*
G54D123*
X1129222Y1389313D02*
X1127972D01*
X1128653Y1388063*
X1128312*
X1128085Y1387906*
X1127972Y1387750*
X1127858Y1387281*
Y1386969*
X1127972Y1386500*
X1128199Y1386188*
X1128540Y1386031*
X1128881*
X1129222Y1386188*
X1129335Y1386344*
X1129449Y1386656*
X1126835Y1389313D02*
X1125926Y1386031D01*
X1125017Y1389313D02*
X1125926Y1386031D01*
X1123767Y1389313D02*
X1122517D01*
X1123199Y1388063*
X1122858*
X1122631Y1387906*
X1122517Y1387750*
X1122403Y1387281*
Y1386969*
X1122517Y1386500*
X1122744Y1386188*
X1123085Y1386031*
X1123426*
X1123767Y1386188*
X1123881Y1386344*
X1123994Y1386656*
X1055583Y1109336D02*
Y1106055D01*
Y1109336D02*
X1054560D01*
X1054219Y1109180*
X1054105Y1109024*
X1053992Y1108711*
Y1108399*
X1054105Y1108086*
X1054219Y1107930*
X1054560Y1107774*
X1055583D02*
X1054560D01*
X1054219Y1107618*
X1054105Y1107461*
X1053992Y1107149*
Y1106680*
X1054105Y1106368*
X1054219Y1106211*
X1054560Y1106055*
X1055583*
X1052969Y1109336D02*
Y1106055D01*
X1077075Y1119043D02*
X1077189Y1119356D01*
X1077416Y1119668*
X1077643Y1119825*
X1078098*
X1078325Y1119668*
X1078552Y1119356*
X1078666Y1119043*
X1078780Y1118575*
Y1117793*
X1078666Y1117325*
X1078552Y1117012*
X1078325Y1116700*
X1078098Y1116543*
X1077643*
X1077416Y1116700*
X1077189Y1117012*
X1077075Y1117325*
X1076052Y1119825D02*
Y1116543D01*
X1074689*
X1073666Y1119825D02*
Y1116543D01*
X1072075Y1119825D02*
X1073666Y1117637D01*
X1073098Y1118418D02*
X1072075Y1116543D01*
X1071052Y1119825D02*
Y1116543D01*
X1053676Y1071884D02*
X1054017Y1071727D01*
X1054245Y1071259*
X1054358Y1070477*
Y1070009*
X1054245Y1069227*
X1054017Y1068759*
X1053676Y1068602*
X1053449*
X1053108Y1068759*
X1052881Y1069227*
X1052767Y1070009*
Y1070477*
X1052881Y1071259*
X1053108Y1071727*
X1053449Y1071884*
X1053676*
X1051745D02*
X1050836Y1068602D01*
X1049926Y1071884D02*
X1050836Y1068602D01*
X1048336Y1071884D02*
X1048676Y1071727D01*
X1048790Y1071415*
Y1071102*
X1048676Y1070790*
X1048449Y1070634*
X1047995Y1070477*
X1047654Y1070321*
X1047426Y1070009*
X1047313Y1069696*
Y1069227*
X1047426Y1068915*
X1047540Y1068759*
X1047881Y1068602*
X1048336*
X1048676Y1068759*
X1048790Y1068915*
X1048904Y1069227*
Y1069696*
X1048790Y1070009*
X1048563Y1070321*
X1048222Y1070477*
X1047767Y1070634*
X1047540Y1070790*
X1047426Y1071102*
Y1071415*
X1047540Y1071727*
X1047881Y1071884*
X1048336*
X1087106Y1073495D02*
X1086879Y1073651D01*
X1086538Y1074120*
Y1070839*
X1085515Y1074120D02*
X1084606Y1070839D01*
X1083697Y1074120D02*
X1084606Y1070839D01*
X1082561Y1073339D02*
Y1073495D01*
X1082447Y1073807*
X1082334Y1073964*
X1082106Y1074120*
X1081652*
X1081424Y1073964*
X1081311Y1073807*
X1081197Y1073495*
Y1073182*
X1081311Y1072870*
X1081538Y1072401*
X1082674Y1070839*
X1081084*
X1156882Y1108017D02*
Y1104736D01*
Y1108017D02*
X1155859D01*
X1155518Y1107861*
X1155405Y1107705*
X1155291Y1107392*
Y1106924*
X1155405Y1106611*
X1155518Y1106455*
X1155859Y1106299*
X1156882*
X1154268Y1108017D02*
Y1104736D01*
X1153246Y1108017D02*
Y1104736D01*
Y1108017D02*
X1151655Y1104736D01*
Y1108017D02*
Y1104736D01*
X1150632Y1104111D02*
X1148246D01*
X1147564Y1108017D02*
Y1104736D01*
Y1108017D02*
X1146655Y1104736D01*
X1145746Y1108017D02*
X1146655Y1104736D01*
X1145746Y1108017D02*
Y1104736D01*
X1144041Y1108017D02*
X1144268Y1107861D01*
X1144496Y1107549*
X1144609Y1107236*
X1144723Y1106767*
Y1105986*
X1144609Y1105517*
X1144496Y1105205*
X1144268Y1104892*
X1144041Y1104736*
X1143586*
X1143359Y1104892*
X1143132Y1105205*
X1143018Y1105517*
X1142905Y1105986*
Y1106767*
X1143018Y1107236*
X1143132Y1107549*
X1143359Y1107861*
X1143586Y1108017*
X1144041*
X1141882D02*
Y1104736D01*
Y1108017D02*
X1141086D01*
X1140746Y1107861*
X1140518Y1107549*
X1140405Y1107236*
X1140291Y1106767*
Y1105986*
X1140405Y1105517*
X1140518Y1105205*
X1140746Y1104892*
X1141086Y1104736*
X1141882*
X1139268Y1108017D02*
Y1104736D01*
Y1108017D02*
X1137791D01*
X1139268Y1106455D02*
X1138359D01*
X1139268Y1104736D02*
X1137791D01*
X1145602Y1125021D02*
Y1121740D01*
Y1125021D02*
X1144580D01*
X1144239Y1124865*
X1144125Y1124709*
X1144011Y1124396*
Y1124084*
X1144125Y1123771*
X1144239Y1123615*
X1144580Y1123459*
X1145602D02*
X1144580D01*
X1144239Y1123303*
X1144125Y1123146*
X1144011Y1122834*
Y1122365*
X1144125Y1122053*
X1144239Y1121896*
X1144580Y1121740*
X1145602*
X1142307Y1125021D02*
X1142534Y1124865D01*
X1142761Y1124553*
X1142875Y1124240*
X1142989Y1123771*
Y1122990*
X1142875Y1122521*
X1142761Y1122209*
X1142534Y1121896*
X1142307Y1121740*
X1141852*
X1141625Y1121896*
X1141398Y1122209*
X1141284Y1122521*
X1141171Y1122990*
Y1123771*
X1141284Y1124240*
X1141398Y1124553*
X1141625Y1124865*
X1141852Y1125021*
X1142307*
X1146764Y1136797D02*
Y1133516D01*
Y1136797D02*
X1145741D01*
X1145400Y1136641*
X1145287Y1136484*
X1145287D02*
X1145173Y1136172D01*
Y1135859*
X1145173D02*
X1145287Y1135547D01*
X1145400Y1135391*
X1145741Y1135234*
X1145741D02*
X1146764D01*
X1145968D02*
X1145173Y1133516D01*
X1144150Y1136797D02*
Y1133516D01*
X1163906Y1120705D02*
X1164019Y1121017D01*
X1164247Y1121330*
X1164474Y1121486*
X1164928*
X1165156Y1121330*
X1165383Y1121017*
X1165497Y1120705*
X1165610Y1120236*
Y1119455*
X1165497Y1118986*
X1165383Y1118673*
X1165156Y1118361*
X1164928Y1118205*
X1164474*
X1164247Y1118361*
X1164019Y1118673*
X1163906Y1118986*
X1162883Y1121486D02*
Y1118205D01*
X1161519*
X1160497Y1121486D02*
Y1118205D01*
X1158906Y1121486D02*
X1160497Y1119298D01*
X1159928Y1120080D02*
X1158906Y1118205D01*
X1157201Y1121486D02*
X1157428Y1121330D01*
X1157656Y1121017*
X1157769Y1120705*
X1157883Y1120236*
Y1119455*
X1157769Y1118986*
X1157656Y1118673*
X1157428Y1118361*
X1157201Y1118205*
X1156747*
X1156519Y1118361*
X1156292Y1118673*
X1156178Y1118986*
X1156065Y1119455*
Y1120236*
X1156178Y1120705*
X1156292Y1121017*
X1156519Y1121330*
X1156747Y1121486*
X1157201*
X1179000Y1126120D02*
Y1122839D01*
X1179795Y1126120D02*
X1178204D01*
X1177182D02*
Y1122839D01*
Y1126120D02*
X1175704D01*
X1177182Y1124557D02*
X1176273D01*
X1177182Y1122839D02*
X1175704D01*
X1174682Y1126120D02*
Y1122839D01*
Y1126120D02*
X1173773Y1122839D01*
X1172863Y1126120D02*
X1173773Y1122839D01*
X1172863Y1126120D02*
Y1122839D01*
X1171841Y1126120D02*
Y1122839D01*
Y1126120D02*
X1170818D01*
X1170477Y1125964*
X1170363Y1125807*
X1170250Y1125495*
Y1125026*
X1170363Y1124714*
X1170477Y1124557*
X1170818Y1124401*
X1171841*
X1169227Y1122214D02*
X1166841D01*
X1166159Y1126120D02*
Y1122839D01*
Y1126120D02*
X1164568Y1122839D01*
Y1126120D02*
Y1122839D01*
X1146791Y1149616D02*
Y1146335D01*
Y1149616D02*
X1145200Y1146335D01*
Y1149616D02*
Y1146335D01*
X1144178Y1149616D02*
Y1146335D01*
Y1149616D02*
X1143155D01*
X1142814Y1149460*
X1142700Y1149303*
X1142587Y1148991*
Y1148678*
X1142700Y1148366*
X1142814Y1148210*
X1143155Y1148053*
X1144178*
X1143382D02*
X1142587Y1146335D01*
X1139973Y1149147D02*
X1140200Y1149460D01*
X1140541Y1149616*
X1140996*
X1141337Y1149460*
X1141564Y1149147*
Y1148835*
X1141450Y1148522*
X1141337Y1148366*
X1141110Y1148210*
X1140428Y1147897*
X1140200Y1147741*
X1140087Y1147585*
X1139973Y1147272*
Y1146803*
X1140200Y1146491*
X1140541Y1146335*
X1140996*
X1141337Y1146491*
X1141564Y1146803*
X1138155Y1149616D02*
Y1146335D01*
X1138950Y1149616D02*
X1137360D01*
X1135655D02*
X1135882Y1149460D01*
X1136110Y1149147*
X1136223Y1148835*
X1136337Y1148366*
Y1147585*
X1136223Y1147116*
X1136110Y1146803*
X1135882Y1146491*
X1135655Y1146335*
X1135200*
X1134973Y1146491*
X1134746Y1146803*
X1134632Y1147116*
X1134519Y1147585*
Y1148366*
X1134632Y1148835*
X1134746Y1149147*
X1134973Y1149460*
X1135200Y1149616*
X1135655*
X1160083Y1146543D02*
X1160196Y1146856D01*
X1160424Y1147168*
X1160651Y1147325*
X1161106*
X1161333Y1147168*
X1161560Y1146856*
X1161674Y1146543*
X1161787Y1146075*
Y1145293*
X1161674Y1144825*
X1161560Y1144512*
X1161333Y1144200*
X1161106Y1144043*
X1160651*
X1160424Y1144200*
X1160196Y1144512*
X1160083Y1144825*
X1158378Y1147325D02*
X1158606Y1147168D01*
X1158833Y1146856*
X1158946Y1146543*
X1159060Y1146075*
Y1145293*
X1158946Y1144825*
X1158833Y1144512*
X1158606Y1144200*
X1158378Y1144043*
X1157924*
X1157696Y1144200*
X1157469Y1144512*
X1157356Y1144825*
X1157242Y1145293*
Y1146075*
X1157356Y1146543*
X1157469Y1146856*
X1157696Y1147168*
X1157924Y1147325*
X1158378*
X1197413Y1130305D02*
Y1127024D01*
X1198209Y1130305D02*
X1196618D01*
X1195595D02*
Y1127024D01*
Y1130305D02*
X1194118D01*
X1195595Y1128742D02*
X1194686D01*
X1195595Y1127024D02*
X1194118D01*
X1193095Y1130305D02*
Y1127024D01*
Y1130305D02*
X1192186Y1127024D01*
X1191277Y1130305D02*
X1192186Y1127024D01*
X1191277Y1130305D02*
Y1127024D01*
X1190254Y1130305D02*
Y1127024D01*
Y1130305D02*
X1189231D01*
X1188890Y1130149*
X1188777Y1129992*
X1188663Y1129680*
Y1129211*
X1188777Y1128899*
X1188890Y1128742*
X1189231Y1128586*
X1190254*
X1187640Y1126399D02*
X1185254D01*
X1184572Y1130305D02*
Y1127024D01*
Y1130305D02*
X1183550D01*
X1183209Y1130149*
X1183095Y1129992*
X1182981Y1129680*
Y1129211*
X1183095Y1128899*
X1183209Y1128742*
X1183550Y1128586*
X1184572*
X1031807Y1145356D02*
Y1142075D01*
Y1145356D02*
X1030784D01*
X1030443Y1145200*
X1030330Y1145044*
X1030216Y1144731*
Y1144419*
X1030330Y1144106*
X1030443Y1143950*
X1030784Y1143794*
X1031807*
X1031012D02*
X1030216Y1142075D01*
X1028512Y1145356D02*
X1028739Y1145200D01*
X1028966Y1144887*
X1029080Y1144575*
X1029193Y1144106*
Y1143325*
X1029080Y1142856*
X1028966Y1142544*
X1028739Y1142231*
X1028512Y1142075*
X1028057*
X1027830Y1142231*
X1027603Y1142544*
X1027489Y1142856*
X1027375Y1143325*
Y1144106*
X1027489Y1144575*
X1027603Y1144887*
X1027830Y1145200*
X1028057Y1145356*
X1028512*
X1041319Y1134091D02*
X1041433Y1134403D01*
X1041660Y1134716*
X1041887Y1134872*
X1042342*
X1042569Y1134716*
X1042796Y1134403*
X1042910Y1134091*
X1043024Y1133622*
Y1132841*
X1042910Y1132372*
X1042796Y1132059*
X1042569Y1131747*
X1042342Y1131591*
X1041887*
X1041660Y1131747*
X1041433Y1132059*
X1041319Y1132372*
X1040296Y1134872D02*
Y1131591D01*
X1053299Y1153325D02*
Y1150043D01*
Y1153325D02*
X1052276D01*
X1051936Y1153168*
X1051822Y1153012*
X1051708Y1152700*
Y1152387*
X1051822Y1152075*
X1051936Y1151918*
X1052276Y1151762*
X1053299*
X1052504D02*
X1051708Y1150043D01*
X1049095Y1152856D02*
X1049322Y1153168D01*
X1049663Y1153325*
X1050117*
X1050458Y1153168*
X1050686Y1152856*
Y1152543*
X1050572Y1152231*
X1050458Y1152075*
X1050231Y1151918*
X1049549Y1151606*
X1049322Y1151450*
X1049208Y1151293*
X1049095Y1150981*
Y1150512*
X1049322Y1150200*
X1049663Y1150043*
X1050117*
X1050458Y1150200*
X1050686Y1150512*
X1047276Y1153325D02*
Y1150043D01*
X1048072Y1153325D02*
X1046481D01*
X1045458Y1149418D02*
X1043072D01*
X1042390Y1153325D02*
Y1150043D01*
Y1153325D02*
X1040799Y1150043D01*
Y1153325D02*
Y1150043D01*
X1042464Y1319835D02*
X1061749D01*
Y1300550*
X1042464*
Y1319835*
Y1319629D02*
X1061749D01*
X1042464Y1319269D02*
X1061749D01*
X1042464Y1318909D02*
X1061749D01*
X1042464Y1318549D02*
X1061749D01*
X1042464Y1318189D02*
X1061749D01*
X1042464Y1317829D02*
X1061749D01*
X1042464Y1317469D02*
X1061749D01*
X1042464Y1317109D02*
X1061749D01*
X1042464Y1316749D02*
X1061749D01*
X1042464Y1316389D02*
X1061749D01*
X1042464Y1316029D02*
X1061749D01*
X1042464Y1315669D02*
X1061749D01*
X1042464Y1315309D02*
X1061749D01*
X1042464Y1314949D02*
X1061749D01*
X1042464Y1314589D02*
X1061749D01*
X1042464Y1314229D02*
X1061749D01*
X1042464Y1313869D02*
X1061749D01*
X1042464Y1313509D02*
X1061749D01*
X1042464Y1313149D02*
X1061749D01*
X1042464Y1312789D02*
X1061749D01*
X1042464Y1312429D02*
X1061749D01*
X1042464Y1312069D02*
X1061749D01*
X1042464Y1311709D02*
X1061749D01*
X1042464Y1311349D02*
X1061749D01*
X1042464Y1310989D02*
X1061749D01*
X1042464Y1310629D02*
X1061749D01*
X1042464Y1310269D02*
X1061749D01*
X1042464Y1309909D02*
X1061749D01*
X1042464Y1309549D02*
X1061749D01*
X1042464Y1309189D02*
X1061749D01*
X1042464Y1308829D02*
X1061749D01*
X1042464Y1308469D02*
X1061749D01*
X1042464Y1308109D02*
X1061749D01*
X1042464Y1307749D02*
X1061749D01*
X1042464Y1307389D02*
X1061749D01*
X1042464Y1307029D02*
X1061749D01*
X1042464Y1306669D02*
X1061749D01*
X1042464Y1306309D02*
X1061749D01*
X1042464Y1305949D02*
X1061749D01*
X1042464Y1305589D02*
X1061749D01*
X1042464Y1305229D02*
X1061749D01*
X1042464Y1304869D02*
X1061749D01*
X1042464Y1304509D02*
X1061749D01*
X1042464Y1304149D02*
X1061749D01*
X1042464Y1303789D02*
X1061749D01*
X1042464Y1303429D02*
X1061749D01*
X1042464Y1303069D02*
X1061749D01*
X1042464Y1302709D02*
X1061749D01*
X1042464Y1302349D02*
X1061749D01*
X1042464Y1301989D02*
X1061749D01*
X1042464Y1301629D02*
X1061749D01*
X1042464Y1301269D02*
X1061749D01*
X1042464Y1300909D02*
X1061749D01*
G54D131*
X1111733Y1304346D02*
Y1324976D01*
Y1325016*
X1122163*
Y1304346*
X1111733*
X1183047Y1154625D02*
X1182378Y1153955D01*
X1183165Y1154310D02*
X1182890Y1154034D01*
X1183086Y1155648D02*
X1181748Y1154310D01*
X1183008Y1155570D02*
X1181315Y1153877D01*
X1182929Y1155058D02*
X1182024Y1154152D01*
X1182988Y1156022D02*
X1181088Y1154123D01*
X1144421Y1151685D02*
X1123791D01*
X1123751*
Y1162115*
X1144421*
Y1151685*
X1150954Y1241286D02*
Y1220656D01*
Y1220616*
X1140524*
Y1241286*
X1150954*
X1139931Y1241278D02*
Y1220648D01*
Y1220608*
X1129501*
Y1241278*
X1139931*
X1068414Y1189078D02*
Y1183736D01*
X1077940Y1190648D02*
X1058889D01*
G75*
G03Y1182238I10513J-4205D01*
G01X1077940*
X1077943Y1182248D02*
G03X1077936Y1190658I-11402J4195D01*
G01X1068355Y1209601D02*
Y1204259D01*
X1077881Y1211171D02*
X1058830D01*
G03Y1202761I10513J-4205*
G01X1077881*
X1077884Y1202771D02*
G03X1077877Y1211181I-11402J4195D01*
G01X1068689Y1219865D02*
Y1214523D01*
X1078215Y1221435D02*
X1059164D01*
G03Y1213025I10514J-4205*
G01X1078215*
X1078219Y1213035D02*
G03X1078211Y1221445I-11402J4195D01*
G01X1068890Y1229357D02*
Y1224015D01*
X1078416Y1230927D02*
X1059365D01*
G03Y1222517I10513J-4205*
G01X1078416*
X1078420Y1222527D02*
G03X1078412Y1230937I-11402J4195D01*
G01X1068603Y1179578D02*
Y1174236D01*
X1078129Y1181148D02*
X1059078D01*
G03Y1172738I10513J-4205*
G01X1078129*
X1078132Y1172748D02*
G03X1078125Y1181158I-11402J4195D01*
G01X1068256Y1199019D02*
Y1193677D01*
X1077782Y1200589D02*
X1058731D01*
G03Y1192179I10514J-4205*
G01X1077782*
X1077786Y1192189D02*
G03X1077778Y1200599I-11402J4195D01*
G01X1140003Y1178798D02*
Y1184140D01*
X1130477Y1177228D02*
X1149527D01*
G03Y1185638I-10513J4205*
G01X1130477*
X1130473Y1185628D02*
G03X1130480Y1177218I11402J-4195D01*
G01X1140144Y1207931D02*
Y1213273D01*
X1130618Y1206361D02*
X1149669D01*
G03Y1214771I-10513J4205*
G01X1130618*
X1130615Y1214762D02*
G03X1130622Y1206352I11401J-4196D01*
G01X1140144Y1198140D02*
Y1203482D01*
X1130618Y1196570D02*
X1149669D01*
G03Y1204980I-10513J4205*
G01X1130618*
X1130615Y1204970D02*
G03X1130622Y1196560I11401J-4195D01*
G01X1140003Y1188301D02*
Y1193643D01*
X1130477Y1186732D02*
X1149527D01*
G03Y1195142I-10513J4205*
G01X1130477*
X1130473Y1195132D02*
G03X1130480Y1186722I11402J-4195D01*
G01X1166049Y1288813D02*
Y1268183D01*
Y1268143*
X1155619*
Y1288813*
X1166049*
X1163226Y1051021D02*
Y1056363D01*
X1153700Y1049451D02*
X1172751D01*
G03Y1057861I-10513J4205*
G01X1153700*
X1153697Y1057851D02*
G03X1153704Y1049441I11402J-4195D01*
G01X1000000Y1393701D02*
X1222441D01*
Y1000000*
X1000000*
Y1393701*
X1035394Y1041339D02*
G03X1035394I-6300J0D01*
G01X1199646D02*
G03X1199646I-6300J0D01*
G01Y1205591D02*
G03X1199646I-6300J0D01*
G01X1035394D02*
G03X1035394I-6300J0D01*
G54D133*
G01X1130069Y1258498D02*
Y1286057D01*
X1149754*
Y1258498*
X1130069*
X1129114Y1259036D02*
G03X1129114I-936J0D01*
G01X1027722Y1180080D02*
X1047407D01*
Y1173387*
X1045438*
Y1169450*
X1047407*
Y1162757*
X1027722*
Y1180080*
X1050716Y1162798D02*
G03X1050716I-600J0D01*
G54D172*
G01X1084943Y1352435D02*
G03X1086912Y1350467I1969J0D01*
G01X1102660*
G03X1104628Y1352435I-0J1968*
G01Y1368183*
G03X1102660Y1370152I-1968J0*
G01X1086912*
G03X1084943Y1368183I-0J-1969*
G01Y1352435*
X1102660Y1360309D02*
G03X1102660I-7874J0D01*
G54D173*
G01X1183126Y1153916D02*
Y1165727D01*
X1171315*
Y1153916*
X1183126*
X1106830Y1044725D02*
Y1056575D01*
X1099744*
Y1044725*
X1106830*
X1108020Y1057500D02*
G03X1108020I-835J0D01*
G01X1071650Y1044724D02*
Y1056575D01*
X1064563*
Y1044724*
X1071650*
X1072839Y1057500D02*
G03X1072839I-835J0D01*
G01X1153399Y1317365D02*
X1132450D01*
Y1309963*
X1153399*
Y1317365*
X1145389Y1317419D02*
Y1310000D01*
X1145185Y1313681D02*
X1142172Y1310668D01*
Y1316343*
X1145010Y1313505*
G54D175*
X1095842Y1332766D02*
X1094267D01*
Y1344577*
X1095842*
Y1332766*
X1054122Y1120626D02*
Y1124760D01*
X1064358Y1120626D02*
Y1124760D01*
G54D289*
X1048491Y1252165D02*
X1045866D01*
X1048491D02*
Y1252984D01*
X1048366Y1253256*
X1048241Y1253347*
X1047991Y1253438*
X1047741*
X1047491Y1253347*
X1047366Y1253256*
X1047241Y1252984*
Y1252165*
Y1252802D02*
X1045866Y1253438D01*
X1047991Y1254256D02*
X1048116Y1254438D01*
X1048491Y1254711*
X1045866*
X1048491Y1255984D02*
X1048366Y1255711D01*
X1048116Y1255620*
X1047866*
X1047616Y1255711*
X1047491Y1255893*
X1047366Y1256256*
X1047241Y1256529*
X1046991Y1256711*
X1046741Y1256802*
X1046366*
X1046116Y1256711*
X1045991Y1256620*
X1045866Y1256347*
Y1255984*
X1045991Y1255711*
X1046116Y1255620*
X1046366Y1255529*
X1046741*
X1046991Y1255620*
X1047241Y1255802*
X1047366Y1256074*
X1047491Y1256438*
X1047616Y1256620*
X1047866Y1256711*
X1048116*
X1048366Y1256620*
X1048491Y1256347*
Y1255984*
X1056046Y1244106D02*
X1053421D01*
X1056046D02*
Y1244924D01*
X1055921Y1245197*
X1055796Y1245288*
X1055546Y1245379*
X1055296*
X1055046Y1245288*
X1054921Y1245197*
X1054796Y1244924*
Y1244106*
Y1244743D02*
X1053421Y1245379D01*
X1055546Y1246197D02*
X1055671Y1246379D01*
X1056046Y1246652*
X1053421*
X1055171Y1248652D02*
X1054796Y1248561D01*
X1054546Y1248379*
X1054421Y1248106*
Y1248015*
X1054546Y1247743*
X1054796Y1247561*
X1055171Y1247470*
X1055296*
X1055671Y1247561*
X1055921Y1247743*
X1056046Y1248015*
Y1248106*
X1055921Y1248379*
X1055671Y1248561*
X1055171Y1248652*
X1054546*
X1053921Y1248561*
X1053546Y1248379*
X1053421Y1248106*
Y1247924*
X1053546Y1247652*
X1053796Y1247561*
X1043622Y1258330D02*
Y1255705D01*
Y1258330D02*
X1042804D01*
X1042531Y1258205*
X1042440Y1258080*
X1042349Y1257830*
Y1257580*
X1042440Y1257330*
X1042531Y1257205*
X1042804Y1257080*
X1043622*
X1042986D02*
X1042349Y1255705D01*
X1041531Y1257830D02*
X1041349Y1257955D01*
X1041077Y1258330*
Y1255705*
X1039713Y1258330D02*
X1039986Y1258205D01*
X1040168Y1257830*
X1040168D02*
X1040258Y1257205D01*
Y1256830*
X1040168Y1256205*
X1040168D02*
X1039986Y1255830D01*
X1039713Y1255705*
X1039531*
X1039258Y1255830*
X1039077Y1256205*
X1038986Y1256830*
Y1257205*
X1039077Y1257830*
X1039258Y1258205*
X1039531Y1258330*
X1039713*
X1054770Y1257205D02*
X1054861Y1257455D01*
X1055043Y1257705*
X1055225Y1257830*
X1055588*
X1055770Y1257705*
X1055952Y1257455*
X1056043Y1257205*
X1056134Y1256830*
Y1256205*
X1056043Y1255830*
X1055952Y1255580*
X1055770Y1255330*
X1055588Y1255205*
X1055225*
X1055043Y1255330*
X1054861Y1255580*
X1054770Y1255830*
X1053043Y1257830D02*
X1053952Y1256080D01*
X1052588*
X1053043Y1257830D02*
Y1255205D01*
X1051679Y1257205D02*
Y1257330D01*
X1051588Y1257580*
X1051497Y1257705*
X1051316Y1257830*
X1050952*
X1050770Y1257705*
X1050679Y1257580*
X1050588Y1257330*
Y1257080*
X1050679Y1256830*
X1050861Y1256455*
X1051770Y1255205*
X1050497*
X1042821Y1253807D02*
X1042912Y1254057D01*
X1043094Y1254307*
X1043276Y1254432*
X1043640*
X1043821Y1254307*
X1044003Y1254057*
X1044094Y1253807*
X1044185Y1253432*
Y1252807*
X1044094Y1252432*
X1044003Y1252182*
X1043821Y1251932*
X1043640Y1251807*
X1043276*
X1043094Y1251932*
X1042912Y1252182*
X1042821Y1252432*
X1041821Y1254432D02*
X1040821D01*
X1041367Y1253432*
X1041094*
X1040912Y1253307*
X1040821Y1253182*
X1040730Y1252807*
Y1252557*
X1040821Y1252182*
X1041003Y1251932*
X1041276Y1251807*
X1041549*
X1041821Y1251932*
X1041912Y1252057*
X1042003Y1252307*
X1038730Y1254432D02*
X1039640D01*
X1039730Y1253307*
X1039640Y1253432*
X1039367Y1253557*
X1039094*
X1038821Y1253432*
X1038640Y1253182*
X1038549Y1252807*
X1038640Y1252557*
X1038730Y1252182*
X1038912Y1251932*
X1039185Y1251807*
X1039458*
X1039730Y1251932*
X1039821Y1252057*
X1039912Y1252307*
X1051423Y1238164D02*
Y1235539D01*
X1052059Y1238164D02*
X1050786D01*
X1049968Y1237664D02*
X1049786Y1237789D01*
X1049514Y1238164*
Y1235539*
X1048605Y1237539D02*
Y1237664D01*
X1048514Y1237914*
X1048423Y1238039*
X1048241Y1238164*
X1047877*
X1047695Y1238039*
X1047605Y1237914*
X1047514Y1237664*
Y1237414*
X1047605Y1237164*
X1047786Y1236789*
X1048695Y1235539*
X1047423*
X1124443Y1371890D02*
X1124534Y1372140D01*
X1124716Y1372390*
X1124898Y1372515*
X1125262*
X1125443Y1372390*
X1125625Y1372140*
X1125716Y1371890*
X1125807Y1371515*
Y1370890*
X1125716Y1370515*
X1125625Y1370265*
X1125443Y1370015*
X1125262Y1369890*
X1124898*
X1124716Y1370015*
X1124534Y1370265*
X1124443Y1370515*
X1123534Y1371890D02*
Y1372015D01*
X1123443Y1372265*
X1123353Y1372390*
X1123171Y1372515*
X1122807*
X1122625Y1372390*
X1122534Y1372265*
X1122443Y1372015*
Y1371765*
X1122534Y1371515*
X1122716Y1371140*
X1123625Y1369890*
X1122353*
X1121443Y1371890D02*
Y1372015D01*
X1121353Y1372265*
X1121262Y1372390*
X1121080Y1372515*
X1120716*
X1120534Y1372390*
X1120443Y1372265*
X1120353Y1372015*
Y1371765*
X1120443Y1371515*
X1120625Y1371140*
X1121534Y1369890*
X1120262*
X1123794Y1366752D02*
X1123885Y1367002D01*
X1124067Y1367252*
X1124248Y1367377*
X1124612*
X1124794Y1367252*
X1124976Y1367002*
X1125067Y1366752*
X1125157Y1366377*
Y1365752*
X1125067Y1365377*
X1124976Y1365127*
X1124794Y1364877*
X1124612Y1364752*
X1124248*
X1124067Y1364877*
X1123885Y1365127*
X1123794Y1365377*
X1122885Y1366752D02*
Y1366877D01*
X1122794Y1367127*
X1122703Y1367252*
X1122521Y1367377*
X1122157*
X1121976Y1367252*
X1121885Y1367127*
X1121794Y1366877*
Y1366627*
X1121885Y1366377*
X1122067Y1366002*
X1122976Y1364752*
X1121703*
X1120885Y1366877D02*
X1120703Y1367002D01*
X1120430Y1367377*
Y1364752*
X1092571Y1328955D02*
X1092321Y1329046D01*
X1092071Y1329228*
X1091946Y1329410*
Y1329773*
X1092071Y1329955*
X1092321Y1330137*
X1092571Y1330228*
X1092946Y1330319*
X1093571*
X1093946Y1330228*
X1094196Y1330137*
X1094446Y1329955*
X1094571Y1329773*
Y1329410*
X1094446Y1329228*
X1094196Y1329046*
X1093946Y1328955*
X1092571Y1328046D02*
X1092446D01*
X1092196Y1327955*
X1092071Y1327864*
X1091946Y1327683*
Y1327319*
X1092071Y1327137*
X1092196Y1327046*
X1092446Y1326955*
X1092696*
X1092946Y1327046*
X1093321Y1327228*
X1094571Y1328137*
Y1326864*
X1091946Y1325592D02*
X1092071Y1325864D01*
X1092321Y1325955*
X1092571*
X1092821Y1325864*
X1092946Y1325683*
X1093071Y1325319*
X1093196Y1325046*
X1093446Y1324864*
X1093696Y1324773*
X1094071*
X1094321Y1324864*
X1094446Y1324955*
X1094571Y1325228*
Y1325592*
X1094446Y1325864*
X1094321Y1325955*
X1094071Y1326046*
X1093696*
X1093446Y1325955*
X1093196Y1325773*
X1093071Y1325501*
X1092946Y1325137*
X1092821Y1324955*
X1092571Y1324864*
X1092321*
X1092071Y1324955*
X1091946Y1325228*
Y1325592*
X1082597Y1341941D02*
X1079972D01*
X1082597D02*
Y1342759D01*
X1082472Y1343032*
X1082347Y1343123*
X1082097Y1343214*
X1081847*
X1081597Y1343123*
X1081472Y1343032*
X1081347Y1342759*
Y1341941*
Y1342577D02*
X1079972Y1343214D01*
X1082597Y1344032D02*
X1079972D01*
X1082597D02*
Y1344850D01*
X1082472Y1345123*
X1082347Y1345214*
X1082097Y1345305*
X1081722*
X1081472Y1345214*
X1081347Y1345123*
X1081222Y1344850*
Y1344032*
X1081972Y1346214D02*
X1082097D01*
X1082347Y1346305*
X1082472Y1346395*
X1082597Y1346577*
Y1346941*
X1082472Y1347123*
X1082347Y1347214*
X1082097Y1347305*
X1081847*
X1081597Y1347214*
X1081222Y1347032*
X1079972Y1346123*
Y1347395*
X1082597Y1349486D02*
X1079972Y1348577D01*
X1082597Y1348214D02*
Y1349486D01*
X1109736Y1333239D02*
X1109486Y1333330D01*
X1109236Y1333511*
X1109111Y1333693*
Y1334057*
X1109236Y1334239*
X1109486Y1334421*
X1109736Y1334511*
X1110111Y1334602*
X1110736*
X1111111Y1334511*
X1111361Y1334421*
X1111611Y1334239*
X1111736Y1334057*
Y1333693*
X1111611Y1333511*
X1111361Y1333330*
X1111111Y1333239*
X1109111Y1331511D02*
X1110861Y1332421D01*
Y1331057*
X1109111Y1331511D02*
X1111736D01*
X1109611Y1330239D02*
X1109486Y1330057D01*
X1109111Y1329784*
X1111736*
X1093238Y1312369D02*
Y1309744D01*
X1093874Y1312369D02*
X1092601D01*
X1091783Y1311869D02*
X1091601Y1311994D01*
X1091329Y1312369*
Y1309744*
X1089329Y1312369D02*
X1090238D01*
X1090329Y1311244*
X1090238Y1311369*
X1089965Y1311494*
X1089692*
X1089419Y1311369*
X1089238Y1311119*
X1089147Y1310744*
X1089238Y1310494*
X1089329Y1310119*
X1089510Y1309869*
X1089783Y1309744*
X1090056*
X1090329Y1309869*
X1090419Y1309994*
X1090510Y1310244*
X1083277Y1322413D02*
X1085902D01*
X1083277D02*
Y1321595D01*
X1083402Y1321322*
X1083527Y1321232*
X1083777Y1321141*
X1084027*
X1084277Y1321232*
X1084402Y1321322*
X1084527Y1321595*
Y1322413*
Y1321777D02*
X1085902Y1321141D01*
X1083277Y1320322D02*
X1085902D01*
X1083277D02*
Y1319504D01*
X1083402Y1319232*
X1083527Y1319141*
X1083777Y1319050*
X1084152*
X1084402Y1319141*
X1084527Y1319232*
X1084652Y1319504*
Y1320322*
X1083902Y1318141D02*
X1083777D01*
X1083527Y1318050*
X1083402Y1317959*
X1083277Y1317777*
Y1317413*
X1083402Y1317232*
X1083527Y1317141*
X1083777Y1317050*
X1084027*
X1084277Y1317141*
X1084652Y1317322*
X1085902Y1318232*
Y1316959*
X1083277Y1315959D02*
Y1314959D01*
X1084277Y1315504*
Y1315232*
X1084402Y1315050*
X1084527Y1314959*
X1084902Y1314868*
X1085152*
X1085527Y1314959*
X1085777Y1315141*
X1085902Y1315413*
Y1315686*
X1085777Y1315959*
X1085652Y1316050*
X1085402Y1316141*
X1076673Y1343041D02*
X1076923Y1342950D01*
X1077173Y1342768*
X1077298Y1342586*
Y1342223*
X1077173Y1342041*
X1076923Y1341859*
X1076673Y1341768*
X1076298Y1341677*
X1075673*
X1075298Y1341768*
X1075048Y1341859*
X1074798Y1342041*
X1074673Y1342223*
Y1342586*
X1074798Y1342768*
X1075048Y1342950*
X1075298Y1343041*
X1077298Y1344768D02*
X1075548Y1343859D01*
Y1345223*
X1077298Y1344768D02*
X1074673D01*
X1077298Y1346223D02*
Y1347223D01*
X1076298Y1346677*
Y1346950*
X1076173Y1347132*
X1076048Y1347223*
X1075673Y1347314*
X1075423*
X1075048Y1347223*
X1074798Y1347041*
X1074673Y1346768*
Y1346495*
X1074798Y1346223*
X1074923Y1346132*
X1075173Y1346041*
X1069343Y1343340D02*
X1069593Y1343249D01*
X1069843Y1343067*
X1069968Y1342885*
Y1342522*
X1069843Y1342340*
X1069593Y1342158*
X1069343Y1342067*
X1068968Y1341976*
X1068343*
X1067968Y1342067*
X1067718Y1342158*
X1067468Y1342340*
X1067343Y1342522*
Y1342885*
X1067468Y1343067*
X1067718Y1343249*
X1067968Y1343340*
X1069968Y1345067D02*
X1068218Y1344158D01*
Y1345522*
X1069968Y1345067D02*
X1067343D01*
X1069968Y1347249D02*
X1068218Y1346340D01*
Y1347704*
X1069968Y1347249D02*
X1067343D01*
X1115118Y1342912D02*
X1114868Y1343003D01*
X1114618Y1343185*
X1114493Y1343366*
X1114493D02*
Y1343730D01*
X1114618Y1343912*
X1114868Y1344094*
X1115118Y1344185*
X1115493Y1344276*
X1116118*
X1116493Y1344185*
X1116743Y1344094*
X1116993Y1343912*
X1117118Y1343730*
Y1343366*
X1117118D02*
X1116993Y1343185D01*
X1116743Y1343003*
X1116493Y1342912*
X1114493Y1340912D02*
Y1341821D01*
X1115618Y1341912*
X1115493Y1341821*
X1115368Y1341548*
Y1341276*
X1115493Y1341003*
X1115743Y1340821*
X1116118Y1340730*
X1116368Y1340821*
X1116743Y1340912*
X1116993Y1341094*
X1117118Y1341366*
X1117118D02*
Y1341639D01*
X1116993Y1341912*
X1116868Y1342003*
X1116618Y1342094*
X1115368Y1338730D02*
X1115743Y1338821D01*
X1115993Y1339003*
X1116118Y1339276*
Y1339366*
X1116118D02*
X1115993Y1339639D01*
X1115743Y1339821*
X1115368Y1339912*
X1115243*
X1114868Y1339821*
X1114618Y1339639*
X1114493Y1339366*
X1114493D02*
Y1339276D01*
X1114618Y1339003*
X1114868Y1338821*
X1115368Y1338730*
X1115993*
X1116618Y1338821*
X1116993Y1339003*
X1117118Y1339276*
Y1339457*
X1116993Y1339730*
X1116743Y1339821*
X1105174Y1329339D02*
X1107799D01*
X1105174D02*
Y1328520D01*
X1105299Y1328248*
X1105424Y1328157*
X1105674Y1328066*
X1105924*
X1106174Y1328157*
X1106299Y1328248*
X1106424Y1328520*
Y1329339*
Y1328702D02*
X1107799Y1328066D01*
X1105174Y1325975D02*
X1107799Y1326884D01*
X1105174Y1327248D02*
Y1325975D01*
Y1323884D02*
X1107799Y1324793D01*
X1105174Y1325157D02*
Y1323884D01*
X1107822Y1348949D02*
X1105197D01*
X1107822D02*
Y1349767D01*
X1107697Y1350040*
X1107572Y1350131*
X1107322Y1350222*
X1107072*
X1106822Y1350131*
X1106697Y1350040*
X1106572Y1349767*
Y1348949*
Y1349585D02*
X1105197Y1350222D01*
X1107322Y1351040D02*
X1107447Y1351222D01*
X1107822Y1351494*
X1105197*
X1107822Y1353585D02*
X1105197Y1352676D01*
X1107822Y1352312D02*
Y1353585D01*
X1101409Y1331444D02*
Y1329569D01*
X1101319Y1329194*
X1101137Y1328944*
X1100864Y1328819*
X1100682*
X1100409Y1328944*
X1100228Y1329194*
X1100137Y1329569*
Y1331444*
X1098228Y1331069D02*
X1098319Y1331319D01*
X1098591Y1331444*
X1098773*
X1099046Y1331319*
X1099228Y1330944*
X1099319Y1330319*
Y1329694*
X1099228Y1329194*
X1099046Y1328944*
X1098773Y1328819*
X1098682*
X1098409Y1328944*
X1098228Y1329194*
X1098137Y1329569*
Y1329694*
X1098228Y1330069*
X1098409Y1330319*
X1098682Y1330444*
X1098773*
X1099046Y1330319*
X1099228Y1330069*
X1099319Y1329694*
X1089298Y1347811D02*
X1089389Y1348061D01*
X1089571Y1348311*
X1089752Y1348436*
X1090116*
X1090298Y1348311*
X1090480Y1348061*
X1090571Y1347811*
X1090661Y1347436*
Y1346811*
X1090571Y1346436*
X1090480Y1346186*
X1090298Y1345936*
X1090116Y1345811*
X1089752*
X1089571Y1345936*
X1089389Y1346186*
X1089298Y1346436*
X1088480Y1347936D02*
X1088298Y1348061D01*
X1088025Y1348436*
Y1345811*
X1086116Y1348061D02*
X1086207Y1348311D01*
X1086480Y1348436*
X1086661*
X1086934Y1348311*
X1087116Y1347936*
X1087207Y1347311*
Y1346686*
X1087116Y1346186*
X1086934Y1345936*
X1086661Y1345811*
X1086571*
X1086298Y1345936*
X1086116Y1346186*
X1086025Y1346561*
Y1346686*
X1086116Y1347061*
X1086298Y1347311*
X1086571Y1347436*
X1086661*
X1086934Y1347311*
X1087116Y1347061*
X1087207Y1346686*
X1084116Y1348061D02*
X1084207Y1348311D01*
X1084480Y1348436*
X1084661*
X1084934Y1348311*
X1085116Y1347936*
X1085207Y1347311*
Y1346686*
X1085116Y1346186*
X1084934Y1345936*
X1084661Y1345811*
X1084571*
X1084298Y1345936*
X1084116Y1346186*
X1084025Y1346561*
Y1346686*
X1084116Y1347061*
X1084298Y1347311*
X1084571Y1347436*
X1084661*
X1084934Y1347311*
X1085116Y1347061*
X1085207Y1346686*
X1079453Y1368747D02*
Y1366122D01*
X1078362*
X1076362Y1368747D02*
X1077271D01*
X1077362Y1367622*
X1077271Y1367747*
X1076998Y1367872*
X1076725*
X1076453Y1367747*
X1076271Y1367497*
X1076180Y1367122*
X1076271Y1366872*
X1076362Y1366497*
X1076544Y1366247*
X1076816Y1366122*
X1077089*
X1077362Y1366247*
X1077453Y1366372*
X1077544Y1366622*
X1131465Y1343754D02*
X1131215Y1343845D01*
X1130965Y1344027*
X1130840Y1344209*
Y1344573*
X1130965Y1344754*
X1131215Y1344936*
X1131465Y1345027*
X1131840Y1345118*
X1132465*
X1132840Y1345027*
X1133090Y1344936*
X1133340Y1344754*
X1133465Y1344573*
Y1344209*
X1133340Y1344027*
X1133090Y1343845*
X1132840Y1343754*
X1131465Y1342845D02*
X1131340D01*
X1131090Y1342754*
X1130965Y1342664*
X1130840Y1342482*
Y1342118*
X1130965Y1341936*
X1131090Y1341845*
X1131340Y1341754*
X1131590*
X1131840Y1341845*
X1132215Y1342027*
X1133465Y1342936*
Y1341664*
X1131715Y1339664D02*
X1132090Y1339754D01*
X1132340Y1339936*
X1132465Y1340209*
Y1340300*
X1132340Y1340573*
X1132090Y1340754*
X1131715Y1340845*
X1131590*
X1131215Y1340754*
X1130965Y1340573*
X1130840Y1340300*
Y1340209*
X1130965Y1339936*
X1131215Y1339754*
X1131715Y1339664*
X1132340*
X1132965Y1339754*
X1133340Y1339936*
X1133465Y1340209*
Y1340391*
X1133340Y1340664*
X1133090Y1340754*
X1123591Y1343455D02*
X1123341Y1343546D01*
X1123091Y1343728*
X1122966Y1343910*
Y1344273*
X1123091Y1344455*
X1123341Y1344637*
X1123591Y1344728*
X1123966Y1344819*
X1124591*
X1124966Y1344728*
X1125216Y1344637*
X1125466Y1344455*
X1125591Y1344273*
Y1343910*
X1125466Y1343728*
X1125216Y1343546*
X1124966Y1343455*
X1122966Y1341455D02*
Y1342364D01*
X1124091Y1342455*
X1123966Y1342364*
X1123841Y1342092*
Y1341819*
X1123966Y1341546*
X1124216Y1341364*
X1124591Y1341273*
X1124841Y1341364*
X1125216Y1341455*
X1125466Y1341637*
X1125591Y1341910*
Y1342183*
X1125466Y1342455*
X1125341Y1342546*
X1125091Y1342637*
X1122966Y1339546D02*
X1124716Y1340455D01*
Y1339092*
X1122966Y1339546D02*
X1125591D01*
X1122158Y1254102D02*
X1124783D01*
X1122158D02*
Y1253284D01*
X1122283Y1253011*
X1122408Y1252921*
X1122658Y1252830*
X1122908*
X1123158Y1252921*
X1123283Y1253011*
X1123408Y1253284*
Y1254102*
Y1253466D02*
X1124783Y1252830D01*
X1122158Y1252011D02*
X1124783D01*
X1122158D02*
Y1251193D01*
X1122283Y1250921*
X1122408Y1250830*
X1122658Y1250739*
X1123033*
X1123283Y1250830*
X1123408Y1250921*
X1123533Y1251193*
Y1252011*
X1122158Y1249739D02*
Y1248739D01*
X1123158Y1249284*
Y1249011*
X1123283Y1248830*
X1123408Y1248739*
X1123783Y1248648*
X1124033*
X1124408Y1248739*
X1124658Y1248921*
X1124783Y1249193*
Y1249466*
X1124658Y1249739*
X1124533Y1249830*
X1124283Y1249921*
X1122533Y1246739D02*
X1122283Y1246830D01*
X1122158Y1247102*
Y1247284*
X1122283Y1247557*
X1122658Y1247739*
X1123283Y1247830*
X1123908*
X1124408Y1247739*
X1124658Y1247557*
X1124783Y1247284*
Y1247193*
X1124658Y1246921*
X1124408Y1246739*
X1124033Y1246648*
X1123908*
X1123533Y1246739*
X1123283Y1246921*
X1123158Y1247193*
Y1247284*
X1123283Y1247557*
X1123533Y1247739*
X1123908Y1247830*
X1131520Y1256570D02*
Y1254695D01*
X1131429Y1254320*
X1131247Y1254070*
X1130974Y1253945*
X1130792*
X1130520Y1254070*
X1130338Y1254320*
X1130247Y1254695*
Y1256570*
X1129247D02*
X1128247D01*
X1128792Y1255570*
X1128520*
X1128338Y1255445*
X1128247Y1255320*
X1128156Y1254945*
Y1254695*
X1128247Y1254320*
X1128429Y1254070*
X1128702Y1253945*
X1128974*
X1129247Y1254070*
X1129338Y1254195*
X1129429Y1254445*
X1035138Y1255172D02*
X1034888Y1255263D01*
X1034638Y1255445*
X1034513Y1255626*
Y1255990*
X1034638Y1256172*
X1034888Y1256354*
X1035138Y1256445*
X1035513Y1256535*
X1036138*
X1036513Y1256445*
X1036763Y1256354*
X1037013Y1256172*
X1037138Y1255990*
Y1255626*
X1037013Y1255445*
X1036763Y1255263*
X1036513Y1255172*
X1034888Y1253263D02*
X1034638Y1253354D01*
X1034513Y1253626*
Y1253808*
X1034638Y1254081*
X1035013Y1254263*
X1035638Y1254354*
X1036263*
X1036763Y1254263*
X1037013Y1254081*
X1037138Y1253808*
Y1253717*
X1037013Y1253445*
X1036763Y1253263*
X1036388Y1253172*
X1036263*
X1035888Y1253263*
X1035638Y1253445*
X1035513Y1253717*
Y1253808*
X1035638Y1254081*
X1035888Y1254263*
X1036263Y1254354*
X1034513Y1251808D02*
X1034638Y1252081D01*
X1035013Y1252263*
X1035638Y1252354*
X1036013*
X1036638Y1252263*
X1037013Y1252081*
X1037138Y1251808*
Y1251626*
X1037013Y1251354*
X1036638Y1251172*
X1036013Y1251081*
X1035638*
X1035013Y1251172*
X1034638Y1251354*
X1034513Y1251626*
Y1251808*
X1029063Y1255093D02*
X1028813Y1255184D01*
X1028563Y1255366*
X1028438Y1255548*
Y1255911*
X1028563Y1256093*
X1028813Y1256275*
X1029063Y1256366*
X1029438Y1256457*
X1030063*
X1030438Y1256366*
X1030688Y1256275*
X1030938Y1256093*
X1031063Y1255911*
Y1255548*
X1030938Y1255366*
X1030688Y1255184*
X1030438Y1255093*
X1028438Y1254093D02*
Y1253093D01*
X1029438Y1253639*
Y1253366*
X1029563Y1253184*
X1029688Y1253093*
X1030063Y1253002*
X1030313*
X1030688Y1253093*
X1030938Y1253275*
X1031063Y1253548*
Y1253820*
X1030938Y1254093*
X1030813Y1254184*
X1030563Y1254275*
X1028813Y1251093D02*
X1028563Y1251184D01*
X1028438Y1251457*
Y1251639*
X1028563Y1251911*
X1028938Y1252093*
X1029563Y1252184*
X1030188*
X1030688Y1252093*
X1030938Y1251911*
X1031063Y1251639*
Y1251548*
X1030938Y1251275*
X1030688Y1251093*
X1030313Y1251002*
X1030188*
X1029813Y1251093*
X1029563Y1251275*
X1029438Y1251548*
Y1251639*
X1029563Y1251911*
X1029813Y1252093*
X1030188Y1252184*
X1138990Y1381649D02*
Y1379024D01*
X1139626Y1381649D02*
X1138353D01*
X1137535D02*
Y1379024D01*
Y1381649D02*
X1136717D01*
X1136444Y1381524*
X1136353Y1381399*
X1136262Y1381149*
Y1380774*
X1136353Y1380524*
X1136444Y1380399*
X1136717Y1380274*
X1137535*
X1135444Y1381149D02*
X1135262Y1381274D01*
X1134990Y1381649*
Y1379024*
X1133990Y1381649D02*
X1132990D01*
X1133535Y1380649*
X1133262*
X1133081Y1380524*
X1132990Y1380399*
X1132899Y1380024*
Y1379774*
X1132990Y1379399*
X1133171Y1379149*
X1133444Y1379024*
X1133717*
X1133990Y1379149*
X1134081Y1379274*
X1134171Y1379524*
X1163564Y1162786D02*
X1163314Y1162876D01*
X1163064Y1163058*
X1162939Y1163240*
Y1163604*
X1163064Y1163786*
X1163314Y1163967*
X1163564Y1164058*
X1163939Y1164149*
X1164564*
X1164939Y1164058*
X1165189Y1163967*
X1165439Y1163786*
X1165564Y1163604*
Y1163240*
X1165439Y1163058*
X1165189Y1162876*
X1164939Y1162786*
X1163439Y1161967D02*
X1163314Y1161786D01*
X1162939Y1161513*
X1165564*
X1162939Y1159422D02*
X1165564Y1160331D01*
X1162939Y1160695D02*
Y1159422D01*
X1166743Y1164027D02*
X1169368D01*
X1166743D02*
Y1163209D01*
X1166868Y1162936*
X1166993Y1162845*
X1167243Y1162754*
X1167493*
X1167743Y1162845*
X1167868Y1162936*
X1167993Y1163209*
Y1164027*
Y1163391D02*
X1169368Y1162754D01*
X1167243Y1161936D02*
X1167118Y1161754D01*
X1166743Y1161482*
X1169368*
X1167368Y1160573D02*
X1167243D01*
X1166993Y1160482*
X1166868Y1160391*
X1166743Y1160209*
Y1159845*
X1166868Y1159664*
X1166993Y1159573*
X1167243Y1159482*
X1167493*
X1167743Y1159573*
X1168118Y1159754*
X1169368Y1160664*
Y1159391*
X1055194Y1059713D02*
X1057819D01*
X1055194D02*
Y1058894D01*
X1055319Y1058622*
X1055444Y1058531*
X1055694Y1058440*
X1055944*
X1056194Y1058531*
X1056319Y1058622*
X1056444Y1058894*
Y1059713*
Y1059076D02*
X1057819Y1058440D01*
X1055694Y1057622D02*
X1055569Y1057440D01*
X1055194Y1057167*
X1057819*
X1136943Y1117146D02*
X1137034Y1117396D01*
X1137216Y1117646*
X1137398Y1117771*
X1137762*
X1137943Y1117646*
X1138125Y1117396*
X1138216Y1117146*
X1138307Y1116771*
Y1116146*
X1138216Y1115771*
X1138125Y1115521*
X1137943Y1115271*
X1137762Y1115146*
X1137398*
X1137216Y1115271*
X1137034Y1115521*
X1136943Y1115771*
X1136034Y1117146D02*
Y1117271D01*
X1135943Y1117521*
X1135853Y1117646*
X1135671Y1117771*
X1135307*
X1135125Y1117646*
X1135034Y1117521*
X1134943Y1117271*
Y1117021*
X1135034Y1116771*
X1135216Y1116396*
X1136125Y1115146*
X1134853*
X1132762Y1117771D02*
X1133671Y1115146D01*
X1134034Y1117771D02*
X1132762D01*
X1169037Y1236385D02*
Y1233760D01*
Y1236385D02*
X1168218D01*
X1167946Y1236260*
X1167855Y1236135*
X1167764Y1235885*
Y1235635*
X1167855Y1235385*
X1167946Y1235260*
X1168218Y1235135*
X1169037*
X1168400D02*
X1167764Y1233760D01*
X1166946Y1236385D02*
Y1233760D01*
Y1236385D02*
X1166128D01*
X1165855Y1236260*
X1165764Y1236135*
X1165673Y1235885*
Y1235510*
X1165764Y1235260*
X1165855Y1235135*
X1166128Y1235010*
X1166946*
X1164855Y1235885D02*
X1164673Y1236010D01*
X1164400Y1236385*
Y1233760*
X1162491Y1236010D02*
X1162582Y1236260D01*
X1162855Y1236385*
X1163037*
X1163309Y1236260*
X1163491Y1235885*
X1163582Y1235260*
Y1234635*
X1163491Y1234135*
X1163309Y1233885*
X1163037Y1233760*
X1162946*
X1162673Y1233885*
X1162491Y1234135*
X1162400Y1234510*
Y1234635*
X1162491Y1235010*
X1162673Y1235260*
X1162946Y1235385*
X1163037*
X1163309Y1235260*
X1163491Y1235010*
X1163582Y1234635*
X1168969Y1245164D02*
Y1242539D01*
Y1245164D02*
X1168150D01*
X1167878Y1245039*
X1167787Y1244914*
X1167696Y1244664*
Y1244414*
X1167787Y1244164*
X1167878Y1244039*
X1168150Y1243914*
X1168969*
X1168332D02*
X1167696Y1242539D01*
X1166878Y1245164D02*
Y1242539D01*
Y1245164D02*
X1166059D01*
X1165787Y1245039*
X1165696Y1244914*
X1165605Y1244664*
Y1244289*
X1165696Y1244039*
X1165787Y1243914*
X1166059Y1243789*
X1166878*
X1164787Y1244664D02*
X1164605Y1244789D01*
X1164332Y1245164*
Y1242539*
X1162332Y1245164D02*
X1163241D01*
X1163332Y1244039*
X1163241Y1244164*
X1162969Y1244289*
X1162969D02*
X1162696D01*
X1162423Y1244164*
X1162241Y1243914*
X1162150Y1243539*
X1162241Y1243289*
X1162332Y1242914*
X1162514Y1242664*
X1162787Y1242539*
X1163059*
X1163332Y1242664*
X1163423Y1242789*
X1163514Y1243039*
X1042197Y1193829D02*
X1041947Y1193920D01*
X1041697Y1194102*
X1041572Y1194284*
Y1194647*
X1041697Y1194829*
X1041947Y1195011*
X1042197Y1195102*
X1042572Y1195193*
X1043197*
X1043572Y1195102*
X1043822Y1195011*
X1044072Y1194829*
X1044197Y1194647*
Y1194284*
X1044072Y1194102*
X1043822Y1193920*
X1043572Y1193829*
X1042072Y1193011D02*
X1041947Y1192829D01*
X1041572Y1192557*
X1044197*
X1041572Y1190557D02*
Y1191466D01*
X1042697Y1191557*
X1042572Y1191466*
X1042447Y1191193*
Y1190920*
X1042572Y1190647*
X1042822Y1190466*
X1043197Y1190375*
X1043447Y1190466*
X1043822Y1190557*
X1044072Y1190738*
X1044197Y1191011*
Y1191284*
X1044072Y1191557*
X1043947Y1191647*
X1043697Y1191738*
X1176666Y1188520D02*
X1179291D01*
X1176666D02*
Y1187702D01*
X1176791Y1187429*
X1176916Y1187338*
X1177166Y1187247*
X1177416*
X1177666Y1187338*
X1177791Y1187429*
X1177916Y1187702*
Y1188520*
Y1187883D02*
X1179291Y1187247D01*
X1176666Y1186429D02*
X1179291D01*
X1176666D02*
Y1185611D01*
X1176791Y1185338*
X1176916Y1185247*
X1177166Y1185156*
X1177541*
X1177791Y1185247*
X1177916Y1185338*
X1178041Y1185611*
Y1186429*
X1177291Y1184247D02*
X1177166D01*
X1176916Y1184156*
X1176791Y1184065*
X1176666Y1183883*
Y1183520*
X1176791Y1183338*
X1176916Y1183247*
X1177166Y1183156*
X1177416*
X1177666Y1183247*
X1178041Y1183429*
X1179291Y1184338*
Y1183065*
X1177291Y1182156D02*
X1177166D01*
X1176916Y1182065*
X1176791Y1181974*
X1176666Y1181792*
Y1181429*
X1176791Y1181247*
X1176916Y1181156*
X1177166Y1181065*
X1177416*
X1177666Y1181156*
X1178041Y1181338*
X1179291Y1182247*
Y1180974*
X1074280Y1282562D02*
Y1279937D01*
X1073189*
X1072370Y1282562D02*
Y1279937D01*
Y1282562D02*
X1071552D01*
X1071280Y1282437*
X1071189Y1282312*
X1071098Y1282062*
Y1281687*
X1071189Y1281437*
X1071280Y1281312*
X1071552Y1281187*
X1072370*
X1070280Y1282062D02*
X1070098Y1282187D01*
X1069825Y1282562*
Y1279937*
X1125933Y1268975D02*
X1125683Y1269066D01*
X1125433Y1269248*
X1125308Y1269429*
Y1269793*
X1125433Y1269975*
X1125683Y1270157*
X1125933Y1270248*
X1126308Y1270339*
X1126933*
X1127308Y1270248*
X1127558Y1270157*
X1127808Y1269975*
X1127933Y1269793*
Y1269429*
X1127808Y1269248*
X1127558Y1269066*
X1127308Y1268975*
X1125308Y1268157D02*
X1127933D01*
X1125308D02*
Y1267339D01*
X1125433Y1267066*
X1125558Y1266975*
X1125808Y1266884*
X1126183*
X1126433Y1266975*
X1126558Y1267066*
X1126683Y1267339*
Y1268157*
X1125808Y1266066D02*
X1125683Y1265884D01*
X1125308Y1265611*
X1127933*
X1125308Y1263611D02*
Y1264520D01*
X1126433Y1264611*
X1126308Y1264520*
X1126183Y1264248*
Y1263975*
X1126308Y1263702*
X1126558Y1263520*
X1126933Y1263429*
X1127183Y1263520*
X1127558Y1263611*
X1127808Y1263793*
X1127933Y1264066*
Y1264339*
X1127808Y1264611*
X1127683Y1264702*
X1127433Y1264793*
X1098815Y1296968D02*
Y1294343D01*
Y1296968D02*
X1097997D01*
X1097724Y1296843*
X1097633Y1296718*
X1097542Y1296468*
Y1296218*
X1097633Y1295968*
X1097724Y1295843*
X1097997Y1295718*
X1098815*
X1098179D02*
X1097542Y1294343D01*
X1096724Y1296968D02*
Y1294343D01*
Y1296968D02*
X1095906D01*
X1095633Y1296843*
X1095542Y1296718*
X1095451Y1296468*
Y1296093*
X1095542Y1295843*
X1095633Y1295718*
X1095906Y1295593*
X1096724*
X1094542Y1296343D02*
Y1296468D01*
X1094451Y1296718*
X1094360Y1296843*
X1094179Y1296968*
X1093815*
X1093633Y1296843*
X1093542Y1296718*
X1093451Y1296468*
Y1296218*
X1093542Y1295968*
X1093724Y1295593*
X1094633Y1294343*
X1093360*
X1091997Y1296968D02*
X1092270Y1296843D01*
X1092451Y1296468*
X1092542Y1295843*
Y1295468*
X1092451Y1294843*
X1092270Y1294468*
X1091997Y1294343*
X1091815*
X1091542Y1294468*
X1091360Y1294843*
X1091270Y1295468*
Y1295843*
X1091360Y1296468*
X1091542Y1296843*
X1091815Y1296968*
X1091997*
X1106469Y1318740D02*
X1109094D01*
X1106469D02*
Y1317922D01*
X1106594Y1317649*
X1106719Y1317558*
X1106969Y1317467*
X1107219*
X1107469Y1317558*
X1107594Y1317649*
X1107719Y1317922*
Y1318740*
Y1318104D02*
X1109094Y1317467D01*
X1106469Y1316649D02*
X1109094D01*
X1106469D02*
Y1315831D01*
X1106594Y1315558*
X1106719Y1315467*
X1106969Y1315377*
X1107344*
X1107594Y1315467*
X1107719Y1315558*
X1107844Y1315831*
Y1316649*
X1106469Y1314104D02*
X1106594Y1314377D01*
X1106844Y1314467*
X1107094*
X1107344Y1314377*
X1107469Y1314195*
X1107594Y1313831*
X1107719Y1313558*
X1107969Y1313377*
X1108219Y1313286*
X1108594*
X1108844Y1313377*
X1108969Y1313467*
X1109094Y1313740*
Y1314104*
X1108969Y1314377*
X1108844Y1314467*
X1108594Y1314558*
X1108219*
X1107969Y1314467*
X1107719Y1314286*
X1107594Y1314013*
X1107469Y1313649*
X1107344Y1313467*
X1107094Y1313377*
X1106844*
X1106594Y1313467*
X1106469Y1313740*
Y1314104*
X1189319Y1154361D02*
Y1152486D01*
X1189228Y1152111*
X1189046Y1151861*
X1188773Y1151736*
X1188592*
X1188319Y1151861*
X1188137Y1152111*
X1188046Y1152486*
Y1154361*
X1187137Y1153736D02*
Y1153861D01*
X1187046Y1154111*
X1186955Y1154236*
X1186773Y1154361*
X1186410*
X1186228Y1154236*
X1186137Y1154111*
X1186046Y1153861*
Y1153611*
X1186137Y1153361*
X1186319Y1152986*
X1187228Y1151736*
X1185955*
X1195008Y1142411D02*
X1195258Y1142320D01*
X1195508Y1142138*
X1195633Y1141956*
Y1141593*
X1195508Y1141411*
X1195258Y1141229*
X1195008Y1141138*
X1194633Y1141047*
X1194008*
X1193633Y1141138*
X1193383Y1141229*
X1193133Y1141411*
X1193008Y1141593*
Y1141956*
X1193133Y1142138*
X1193383Y1142320*
X1193633Y1142411*
X1195133Y1143229D02*
X1195258Y1143411D01*
X1195633Y1143684*
X1193008*
X1194758Y1145684D02*
X1194383Y1145593D01*
X1194133Y1145411*
X1194008Y1145138*
Y1145047*
X1194133Y1144775*
X1194383Y1144593*
X1194758Y1144502*
X1194883*
X1195258Y1144593*
X1195508Y1144775*
X1195633Y1145047*
Y1145138*
X1195508Y1145411*
X1195258Y1145593*
X1194758Y1145684*
X1194133*
X1193508Y1145593*
X1193133Y1145411*
X1193008Y1145138*
Y1144956*
X1193133Y1144684*
X1193383Y1144593*
X1190709Y1142123D02*
X1190959Y1142033D01*
X1191209Y1141851*
X1191334Y1141669*
Y1141305*
X1191209Y1141123*
X1190959Y1140942*
X1190709Y1140851*
X1190334Y1140760*
X1189709*
X1189334Y1140851*
X1189084Y1140942*
X1188834Y1141123*
X1188709Y1141305*
Y1141669*
X1188834Y1141851*
X1189084Y1142033*
X1189334Y1142123*
X1190709Y1143033D02*
X1190834D01*
X1191084Y1143123*
X1191209Y1143214*
X1191334Y1143396*
Y1143760*
X1191209Y1143942*
X1191084Y1144033*
X1190834Y1144123*
X1190584*
X1190334Y1144033*
X1189959Y1143851*
X1188709Y1142942*
Y1144214*
X1191334Y1145578D02*
X1191209Y1145305D01*
X1190834Y1145123*
X1190209Y1145033*
X1189834*
X1189209Y1145123*
X1188834Y1145305*
X1188709Y1145578*
Y1145760*
X1188834Y1146033*
X1189209Y1146214*
X1189834Y1146305*
X1190209*
X1190834Y1146214*
X1191209Y1146033*
X1191334Y1145760*
Y1145578*
X1180536Y1188043D02*
X1183161D01*
X1180536D02*
Y1187225D01*
X1180661Y1186952*
X1180786Y1186861*
X1181036Y1186771*
X1181286*
X1181536Y1186861*
X1181661Y1186952*
X1181786Y1187225*
Y1188043*
Y1187407D02*
X1183161Y1186771D01*
X1180536Y1185952D02*
X1183161D01*
X1180536D02*
Y1185134D01*
X1180661Y1184861*
X1180786Y1184771*
X1181036Y1184680*
X1181411*
X1181661Y1184771*
X1181786Y1184861*
X1181911Y1185134*
Y1185952*
X1181161Y1183771D02*
X1181036D01*
X1180786Y1183680*
X1180661Y1183589*
X1180536Y1183407*
Y1183043*
X1180661Y1182861*
X1180786Y1182771*
X1181036Y1182680*
X1181286*
X1181536Y1182771*
X1181911Y1182952*
X1183161Y1183861*
Y1182589*
X1181036Y1181771D02*
X1180911Y1181589D01*
X1180536Y1181316*
X1183161*
X1194210Y1136345D02*
Y1133720D01*
X1194846Y1136345D02*
X1193574D01*
X1192756D02*
Y1133720D01*
Y1136345D02*
X1191937D01*
X1191665Y1136220*
X1191574Y1136095*
X1191483Y1135845*
Y1135470*
X1191574Y1135220*
X1191665Y1135095*
X1191937Y1134970*
X1192756*
X1189574Y1135970D02*
X1189665Y1136220D01*
X1189937Y1136345*
X1190119*
X1190392Y1136220*
X1190574Y1135845*
X1190665Y1135220*
Y1134595*
X1190574Y1134095*
X1190392Y1133845*
X1190119Y1133720*
X1190028*
X1189756Y1133845*
X1189574Y1134095*
X1189483Y1134470*
Y1134595*
X1189574Y1134970*
X1189756Y1135220*
X1190028Y1135345*
X1190119*
X1190392Y1135220*
X1190574Y1134970*
X1190665Y1134595*
X1169104Y1142070D02*
Y1139445D01*
X1169740Y1142070D02*
X1168467D01*
X1167649D02*
Y1139445D01*
Y1142070D02*
X1166831D01*
X1166558Y1141945*
X1166467Y1141820*
X1166377Y1141570*
Y1141195*
X1166467Y1140945*
X1166558Y1140820*
X1166831Y1140695*
X1167649*
X1164377Y1142070D02*
X1165286D01*
X1165377Y1140945*
X1165286Y1141070*
X1165013Y1141195*
X1164740*
X1164467Y1141070*
X1164286Y1140820*
X1164195Y1140445*
X1164286Y1140195*
X1164377Y1139820*
X1164558Y1139570*
X1164831Y1139445*
X1165104*
X1165377Y1139570*
X1165467Y1139695*
X1165558Y1139945*
X1177601Y1148063D02*
X1177692Y1148313D01*
X1177874Y1148563*
X1178055Y1148688*
X1178419*
X1178601Y1148563*
X1178783Y1148313*
X1178874Y1148063*
X1178965Y1147688*
Y1147063*
X1178874Y1146688*
X1178783Y1146438*
X1178601Y1146188*
X1178419Y1146063*
X1178055*
X1177874Y1146188*
X1177692Y1146438*
X1177601Y1146688*
X1176783Y1148188D02*
X1176601Y1148313D01*
X1176328Y1148688*
Y1146063*
X1174419Y1148313D02*
X1174510Y1148563D01*
X1174783Y1148688*
X1174965*
X1175237Y1148563*
X1175419Y1148188*
X1175510Y1147563*
Y1146938*
X1175419Y1146438*
X1175237Y1146188*
X1174965Y1146063*
X1174874*
X1174601Y1146188*
X1174419Y1146438*
X1174328Y1146813*
Y1146938*
X1174419Y1147313*
X1174601Y1147563*
X1174874Y1147688*
X1174965*
X1175237Y1147563*
X1175419Y1147313*
X1175510Y1146938*
X1177182Y1132012D02*
X1179807D01*
X1177182D02*
Y1131194D01*
X1177307Y1130921*
X1177432Y1130830*
X1177682Y1130739*
X1177932*
X1178182Y1130830*
X1178307Y1130921*
X1178432Y1131194*
Y1132012*
Y1131375D02*
X1179807Y1130739D01*
X1177682Y1129921D02*
X1177557Y1129739D01*
X1177182Y1129466*
X1179807*
X1177182Y1127739D02*
X1178932Y1128648D01*
Y1127285*
X1177182Y1127739D02*
X1179807D01*
X1172934Y1132106D02*
X1175559D01*
X1172934D02*
Y1131288D01*
X1173059Y1131015*
X1173184Y1130924*
X1173434Y1130834*
X1173684*
X1173934Y1130924*
X1174059Y1131015*
X1174184Y1131288*
Y1132106*
Y1131470D02*
X1175559Y1130834D01*
X1173434Y1130015D02*
X1173309Y1129834D01*
X1172934Y1129561*
X1175559*
X1172934Y1127561D02*
Y1128470D01*
X1174059Y1128561*
X1173934Y1128470*
X1173809Y1128197*
Y1127924*
X1173934Y1127652*
X1174184Y1127470*
X1174559Y1127379*
X1174809Y1127470*
X1175184Y1127561*
X1175434Y1127743*
X1175559Y1128015*
Y1128288*
X1175434Y1128561*
X1175309Y1128652*
X1175059Y1128743*
X1153391Y1152101D02*
Y1149476D01*
X1154028Y1152101D02*
X1152755D01*
X1151937D02*
Y1149476D01*
Y1152101D02*
X1151118D01*
X1150846Y1151976*
X1150755Y1151851*
X1150664Y1151601*
Y1151226*
X1150755Y1150976*
X1150846Y1150851*
X1151118Y1150726*
X1151937*
X1149391Y1152101D02*
X1149664Y1151976D01*
X1149755Y1151726*
Y1151476*
X1149664Y1151226*
X1149482Y1151101*
X1149118Y1150976*
X1148846Y1150851*
X1148664Y1150601*
X1148573Y1150351*
Y1149976*
X1148664Y1149726*
X1148755Y1149601*
X1149028Y1149476*
X1149391*
X1149664Y1149601*
X1149755Y1149726*
X1149846Y1149976*
Y1150351*
X1149755Y1150601*
X1149573Y1150851*
X1149300Y1150976*
X1148937Y1151101*
X1148755Y1151226*
X1148664Y1151476*
Y1151726*
X1148755Y1151976*
X1149028Y1152101*
X1149391*
X1161679Y1152066D02*
Y1149441D01*
X1162315Y1152066D02*
X1161042D01*
X1160224D02*
Y1149441D01*
Y1152066D02*
X1159406D01*
X1159133Y1151941*
X1159042Y1151816*
X1158951Y1151566*
Y1151191*
X1159042Y1150941*
X1159133Y1150816*
X1159406Y1150691*
X1160224*
X1156951Y1151191D02*
X1157042Y1150816D01*
X1157224Y1150566*
X1157497Y1150441*
X1157588*
X1157860Y1150566*
X1158042Y1150816*
X1158133Y1151191*
Y1151316*
X1158042Y1151691*
X1157860Y1151941*
X1157588Y1152066*
X1157497*
X1157224Y1151941*
X1157042Y1151691*
X1156951Y1151191*
Y1150566*
X1157042Y1149941*
X1157224Y1149566*
X1157497Y1149441*
X1157679*
X1157951Y1149566*
X1158042Y1149816*
X1160962Y1136066D02*
Y1133441D01*
X1161598Y1136066D02*
X1160326D01*
X1159508D02*
Y1133441D01*
Y1136066D02*
X1158689D01*
X1158417Y1135941*
X1158326Y1135816*
X1158235Y1135566*
Y1135191*
X1158326Y1134941*
X1158417Y1134816*
X1158689Y1134691*
X1159508*
X1157417Y1135566D02*
X1157235Y1135691D01*
X1156962Y1136066*
Y1133441*
X1156144Y1135566D02*
X1155962Y1135691D01*
X1155689Y1136066*
Y1133441*
X1151962Y1140436D02*
Y1137811D01*
X1152598Y1140436D02*
X1151326D01*
X1150508D02*
Y1137811D01*
Y1140436D02*
X1149689D01*
X1149417Y1140311*
X1149326Y1140186*
X1149235Y1139936*
Y1139561*
X1149326Y1139311*
X1149417Y1139186*
X1149689Y1139061*
X1150508*
X1148417Y1139936D02*
X1148235Y1140061D01*
X1147962Y1140436*
Y1137811*
X1146598Y1140436D02*
X1146871Y1140311D01*
X1147053Y1139936*
X1147144Y1139311*
Y1138936*
X1147053Y1138311*
X1146871Y1137936*
X1146598Y1137811*
X1146417*
X1146144Y1137936*
X1145962Y1138311*
X1145871Y1138936*
Y1139311*
X1145962Y1139936*
X1146144Y1140311*
X1146417Y1140436*
X1146598*
X1153202Y1130408D02*
Y1127783D01*
X1153839Y1130408D02*
X1152566D01*
X1151748D02*
Y1127783D01*
Y1130408D02*
X1150929D01*
X1150657Y1130283*
X1150566Y1130158*
X1150475Y1129908*
Y1129533*
X1150566Y1129283*
X1150657Y1129158*
X1150929Y1129033*
X1151748*
X1149657Y1129908D02*
X1149475Y1130033D01*
X1149202Y1130408*
Y1127783*
X1148293Y1129783D02*
Y1129908D01*
X1148202Y1130158*
X1148111Y1130283*
X1147929Y1130408*
X1147566*
X1147384Y1130283*
X1147293Y1130158*
X1147202Y1129908*
Y1129658*
X1147293Y1129408*
X1147475Y1129033*
X1148384Y1127783*
X1147111*
X1121752Y1158219D02*
Y1155594D01*
Y1158219D02*
X1120934D01*
X1120661Y1158094*
X1120570Y1157969*
X1120479Y1157719*
Y1157469*
X1120570Y1157219*
X1120661Y1157094*
X1120934Y1156969*
X1121752*
X1121116D02*
X1120479Y1155594D01*
X1119207Y1158219D02*
X1119479Y1158094D01*
X1119570Y1157844*
Y1157594*
X1119479Y1157344*
X1119297Y1157219*
X1118934Y1157094*
X1118661Y1156969*
X1118479Y1156719*
X1118388Y1156469*
Y1156094*
X1118479Y1155844*
X1118570Y1155719*
X1118843Y1155594*
X1119207*
X1119479Y1155719*
X1119570Y1155844*
X1119661Y1156094*
Y1156469*
X1119570Y1156719*
X1119388Y1156969*
X1119116Y1157094*
X1118752Y1157219*
X1118570Y1157344*
X1118479Y1157594*
Y1157844*
X1118570Y1158094*
X1118843Y1158219*
X1119207*
X1121602Y1295034D02*
X1121352Y1295125D01*
X1121102Y1295307*
X1120977Y1295489*
Y1295852*
X1121102Y1296034*
X1121352Y1296216*
X1121602Y1296307*
X1121977Y1296398*
X1122602*
X1122977Y1296307*
X1123227Y1296216*
X1123477Y1296034*
X1123602Y1295852*
Y1295489*
X1123477Y1295307*
X1123227Y1295125*
X1122977Y1295034*
X1120977Y1294216D02*
X1123602D01*
X1120977D02*
Y1293398D01*
X1121102Y1293125*
X1121227Y1293034*
X1121477Y1292943*
X1121852*
X1122102Y1293034*
X1122227Y1293125*
X1122352Y1293398*
Y1294216*
X1121477Y1292125D02*
X1121352Y1291943D01*
X1120977Y1291670*
X1123602*
X1169774Y1265303D02*
X1169865Y1265553D01*
X1170047Y1265803*
X1170229Y1265928*
X1170592*
X1170774Y1265803*
X1170956Y1265553*
X1171047Y1265303*
X1171138Y1264928*
Y1264303*
X1171047Y1263928*
X1170956Y1263678*
X1170774Y1263428*
X1170592Y1263303*
X1170229*
X1170047Y1263428*
X1169865Y1263678*
X1169774Y1263928*
X1168956Y1265928D02*
Y1263303D01*
Y1265928D02*
X1168138D01*
X1167865Y1265803*
X1167774Y1265678*
X1167683Y1265428*
Y1265053*
X1167774Y1264803*
X1167865Y1264678*
X1168138Y1264553*
X1168956*
X1166774Y1265303D02*
Y1265428D01*
X1166683Y1265678*
X1166592Y1265803*
X1166411Y1265928*
X1166047*
X1165865Y1265803*
X1165774Y1265678*
X1165683Y1265428*
Y1265178*
X1165774Y1264928*
X1165956Y1264553*
X1166865Y1263303*
X1165592*
X1164774Y1265428D02*
X1164592Y1265553D01*
X1164320Y1265928*
Y1263303*
X1170524Y1281916D02*
X1170274Y1282007D01*
X1170024Y1282189*
X1169899Y1282370*
Y1282734*
X1170024Y1282916*
X1170274Y1283098*
X1170524Y1283189*
X1170899Y1283280*
X1171524*
X1171899Y1283189*
X1172149Y1283098*
X1172399Y1282916*
X1172524Y1282734*
Y1282370*
X1172399Y1282189*
X1172149Y1282007*
X1171899Y1281916*
X1170399Y1281098D02*
X1170274Y1280916D01*
X1169899Y1280643*
X1172524*
X1169899Y1278643D02*
Y1279552D01*
X1171024Y1279643*
X1170899Y1279552*
X1170774Y1279280*
Y1279007*
X1170899Y1278734*
X1171149Y1278552*
X1171524Y1278461*
X1171774Y1278552*
X1172149Y1278643*
X1172399Y1278825*
X1172524Y1279098*
Y1279370*
X1172399Y1279643*
X1172274Y1279734*
X1172024Y1279825*
X1170524Y1277552D02*
X1170399D01*
X1170149Y1277461*
X1170024Y1277370*
X1169899Y1277189*
Y1276825*
X1170024Y1276643*
X1170149Y1276552*
X1170399Y1276461*
X1170649*
X1170899Y1276552*
X1171274Y1276734*
X1172524Y1277643*
Y1276370*
X1185437Y1274495D02*
Y1271870D01*
Y1274495D02*
X1184619D01*
X1184346Y1274370*
X1184255Y1274245*
X1184164Y1273995*
Y1273745*
X1184255Y1273495*
X1184346Y1273370*
X1184619Y1273245*
X1185437*
X1184801D02*
X1184164Y1271870D01*
X1183346Y1274495D02*
Y1271870D01*
Y1274495D02*
X1182528D01*
X1182255Y1274370*
X1182164Y1274245*
X1182073Y1273995*
Y1273620*
X1182164Y1273370*
X1182255Y1273245*
X1182528Y1273120*
X1183346*
X1181255Y1273995D02*
X1181073Y1274120D01*
X1180801Y1274495*
Y1271870*
X1186425Y1262889D02*
Y1260264D01*
Y1262889D02*
X1185607D01*
X1185334Y1262764*
X1185243Y1262639*
X1185152Y1262389*
Y1262139*
X1185243Y1261889*
X1185334Y1261764*
X1185607Y1261639*
X1186425*
X1185789D02*
X1185152Y1260264D01*
X1184334Y1262889D02*
Y1260264D01*
Y1262889D02*
X1183516D01*
X1183243Y1262764*
X1183152Y1262639*
X1183062Y1262389*
Y1262014*
X1183152Y1261764*
X1183243Y1261639*
X1183516Y1261514*
X1184334*
X1182243Y1262389D02*
X1182062Y1262514D01*
X1181789Y1262889*
Y1260264*
X1180880Y1262264D02*
Y1262389D01*
X1180789Y1262639*
X1180698Y1262764*
X1180516Y1262889*
X1180152*
X1179971Y1262764*
X1179880Y1262639*
X1179789Y1262389*
Y1262139*
X1179880Y1261889*
X1180062Y1261514*
X1180971Y1260264*
X1179698*
X1143089Y1253953D02*
X1143180Y1254203D01*
X1143362Y1254453*
X1143544Y1254578*
X1143907*
X1144089Y1254453*
X1144271Y1254203*
X1144362Y1253953*
X1144453Y1253578*
Y1252953*
X1144362Y1252578*
X1144271Y1252328*
X1144089Y1252078*
X1143907Y1251953*
X1143544*
X1143362Y1252078*
X1143180Y1252328*
X1143089Y1252578*
X1140998Y1254578D02*
X1141907Y1251953D01*
X1142271Y1254578D02*
X1140998D01*
X1153036Y1235614D02*
X1155661D01*
X1153036D02*
Y1234796D01*
X1153161Y1234523*
X1153286Y1234432*
X1153536Y1234341*
X1153786*
X1154036Y1234432*
X1154161Y1234523*
X1154286Y1234796*
Y1235614*
Y1234978D02*
X1155661Y1234341D01*
X1153036Y1233523D02*
X1155661D01*
X1153036D02*
Y1232705D01*
X1153161Y1232432*
X1153286Y1232341*
X1153536Y1232251*
X1153911*
X1154161Y1232341*
X1154286Y1232432*
X1154411Y1232705*
Y1233523*
X1153036Y1231251D02*
Y1230251D01*
X1154036Y1230796*
Y1230523*
X1154161Y1230341*
X1154286Y1230251*
X1154661Y1230160*
X1154911*
X1155286Y1230251*
X1155536Y1230432*
X1155661Y1230705*
Y1230978*
X1155536Y1231251*
X1155411Y1231341*
X1155161Y1231432*
X1153036Y1229160D02*
Y1228160D01*
X1154036Y1228705*
Y1228432*
X1154161Y1228251*
X1154286Y1228160*
X1154661Y1228069*
X1154911*
X1155286Y1228160*
X1155536Y1228341*
X1155661Y1228614*
Y1228887*
X1155536Y1229160*
X1155411Y1229251*
X1155161Y1229341*
X1153111Y1250220D02*
X1155736D01*
X1153111D02*
Y1249402D01*
X1153236Y1249130*
X1153361Y1249039*
X1153611Y1248948*
X1153861*
X1154111Y1249039*
X1154236Y1249130*
X1154361Y1249402*
Y1250220*
Y1249584D02*
X1155736Y1248948D01*
X1153111Y1248130D02*
X1155736D01*
X1153111D02*
Y1247311D01*
X1153236Y1247039*
X1153361Y1246948*
X1153611Y1246857*
X1153986*
X1154236Y1246948*
X1154361Y1247039*
X1154486Y1247311*
Y1248130*
X1153111Y1244766D02*
X1155736Y1245675D01*
X1153111Y1246039D02*
Y1244766D01*
X1124993Y1235087D02*
X1127618D01*
X1124993D02*
Y1234268D01*
X1125118Y1233996*
X1125243Y1233905*
X1125493Y1233814*
X1125743*
X1125993Y1233905*
X1126118Y1233996*
X1126243Y1234268*
Y1235087*
Y1234450D02*
X1127618Y1233814D01*
X1124993Y1232996D02*
X1127618D01*
X1124993D02*
Y1232178D01*
X1125118Y1231905*
X1125243Y1231814*
X1125493Y1231723*
X1125868*
X1126118Y1231814*
X1126243Y1231905*
X1126368Y1232178*
Y1232996*
X1124993Y1230723D02*
Y1229723D01*
X1125993Y1230268*
Y1229996*
X1126118Y1229814*
X1126243Y1229723*
X1126618Y1229632*
X1126868*
X1127243Y1229723*
X1127493Y1229905*
X1127618Y1230178*
Y1230450*
X1127493Y1230723*
X1127368Y1230814*
X1127118Y1230905*
X1125618Y1228723D02*
X1125493D01*
X1125243Y1228632*
X1125118Y1228541*
X1124993Y1228359*
Y1227996*
X1125118Y1227814*
X1125243Y1227723*
X1125493Y1227632*
X1125743*
X1125993Y1227723*
X1126368Y1227905*
X1127618Y1228814*
Y1227541*
X1142769Y1249945D02*
X1145394D01*
X1142769D02*
Y1249127D01*
X1142894Y1248854*
X1143019Y1248763*
X1143269Y1248672*
X1143519*
X1143769Y1248763*
X1143894Y1248854*
X1144019Y1249127*
Y1249945*
Y1249309D02*
X1145394Y1248672D01*
X1142769Y1247854D02*
X1145394D01*
X1142769D02*
Y1247036D01*
X1142894Y1246763*
X1143019Y1246672*
X1143269Y1246581*
X1143644*
X1143894Y1246672*
X1144019Y1246763*
X1144144Y1247036*
Y1247854*
X1142769Y1244854D02*
X1144519Y1245763D01*
Y1244399*
X1142769Y1244854D02*
X1145394D01*
X1169003Y1232247D02*
Y1229622D01*
Y1232247D02*
X1168184D01*
X1167912Y1232122*
X1167821Y1231997*
X1167730Y1231747*
Y1231497*
X1167821Y1231247*
X1167912Y1231122*
X1168184Y1230997*
X1169003*
X1168366D02*
X1167730Y1229622D01*
X1166912Y1232247D02*
Y1229622D01*
Y1232247D02*
X1166093D01*
X1165821Y1232122*
X1165730Y1231997*
X1165639Y1231747*
Y1231372*
X1165730Y1231122*
X1165821Y1230997*
X1166093Y1230872*
X1166912*
X1164821Y1231747D02*
X1164639Y1231872D01*
X1164366Y1232247*
Y1229622*
X1163093Y1232247D02*
X1163366Y1232122D01*
X1163457Y1231872*
Y1231622*
X1163366Y1231372*
X1163184Y1231247*
X1162821Y1231122*
X1162548Y1230997*
X1162366Y1230747*
X1162275Y1230497*
Y1230122*
X1162366Y1229872*
X1162457Y1229747*
X1162730Y1229622*
X1163093*
X1163366Y1229747*
X1163457Y1229872*
X1163548Y1230122*
Y1230497*
X1163457Y1230747*
X1163275Y1230997*
X1163003Y1231122*
X1162639Y1231247*
X1162457Y1231372*
X1162366Y1231622*
Y1231872*
X1162457Y1232122*
X1162730Y1232247*
X1163093*
X1186531Y1257672D02*
Y1255047D01*
Y1257672D02*
X1185713D01*
X1185441Y1257547*
X1185350Y1257422*
X1185259Y1257172*
Y1256922*
X1185350Y1256672*
X1185441Y1256547*
X1185713Y1256422*
X1186531*
X1185895D02*
X1185259Y1255047D01*
X1184441Y1257672D02*
Y1255047D01*
Y1257672D02*
X1183622D01*
X1183350Y1257547*
X1183259Y1257422*
X1183168Y1257172*
Y1256797*
X1183259Y1256547*
X1183350Y1256422*
X1183622Y1256297*
X1184441*
X1182350Y1257172D02*
X1182168Y1257297D01*
X1181895Y1257672*
Y1255047*
X1181077Y1257172D02*
X1180895Y1257297D01*
X1180622Y1257672*
Y1255047*
X1169003Y1240696D02*
Y1238071D01*
Y1240696D02*
X1168184D01*
X1167912Y1240571*
X1167821Y1240446*
X1167730Y1240196*
Y1239946*
X1167821Y1239696*
X1167912Y1239571*
X1168184Y1239446*
X1169003*
X1168366D02*
X1167730Y1238071D01*
X1166912Y1240696D02*
Y1238071D01*
Y1240696D02*
X1166093D01*
X1165821Y1240571*
X1165730Y1240446*
X1165639Y1240196*
Y1239821*
X1165730Y1239571*
X1165821Y1239446*
X1166093Y1239321*
X1166912*
X1164821Y1240196D02*
X1164639Y1240321D01*
X1164366Y1240696*
Y1238071*
X1163003Y1240696D02*
X1163275Y1240571D01*
X1163457Y1240196*
X1163548Y1239571*
Y1239196*
X1163457Y1238571*
X1163275Y1238196*
X1163003Y1238071*
X1162821*
X1162548Y1238196*
X1162366Y1238571*
X1162275Y1239196*
Y1239571*
X1162366Y1240196*
X1162548Y1240571*
X1162821Y1240696*
X1163003*
X1186838Y1253361D02*
Y1250736D01*
Y1253361D02*
X1186020D01*
X1185747Y1253236*
X1185656Y1253111*
X1185566Y1252861*
Y1252611*
X1185656Y1252361*
X1185747Y1252236*
X1186020Y1252111*
X1186838*
X1186202D02*
X1185566Y1250736D01*
X1184747Y1253361D02*
Y1250736D01*
Y1253361D02*
X1183929D01*
X1183656Y1253236*
X1183566Y1253111*
X1183475Y1252861*
Y1252486*
X1183566Y1252236*
X1183656Y1252111*
X1183929Y1251986*
X1184747*
X1182656Y1252861D02*
X1182475Y1252986D01*
X1182202Y1253361*
Y1250736*
X1180111Y1253361D02*
X1181020Y1250736D01*
X1181384Y1253361D02*
X1180111D01*
X1186804Y1249223D02*
Y1246598D01*
Y1249223D02*
X1185986D01*
X1185713Y1249098*
X1185622Y1248973*
X1185531Y1248723*
Y1248473*
X1185622Y1248223*
X1185713Y1248098*
X1185986Y1247973*
X1186804*
X1186168D02*
X1185531Y1246598D01*
X1184713Y1249223D02*
Y1246598D01*
Y1249223D02*
X1183895D01*
X1183622Y1249098*
X1183531Y1248973*
X1183441Y1248723*
Y1248348*
X1183531Y1248098*
X1183622Y1247973*
X1183895Y1247848*
X1184713*
X1182622Y1248723D02*
X1182441Y1248848D01*
X1182168Y1249223*
Y1246598*
X1180168Y1248348D02*
X1180259Y1247973D01*
X1180441Y1247723*
X1180713Y1247598*
X1180804*
X1181077Y1247723*
X1181259Y1247973*
X1181350Y1248348*
Y1248473*
X1181259Y1248848*
X1181077Y1249098*
X1180804Y1249223*
X1180713*
X1180441Y1249098*
X1180259Y1248848*
X1180168Y1248348*
Y1247723*
X1180259Y1247098*
X1180441Y1246723*
X1180713Y1246598*
X1180895*
X1181168Y1246723*
X1181259Y1246973*
X1185476Y1267405D02*
Y1264780D01*
Y1267405D02*
X1184658D01*
X1184385Y1267280*
X1184295Y1267155*
X1184204Y1266905*
Y1266655*
X1184295Y1266405*
X1184385Y1266280*
X1184658Y1266155*
X1185476*
X1184840D02*
X1184204Y1264780D01*
X1183385Y1267405D02*
Y1264780D01*
Y1267405D02*
X1182567D01*
X1182295Y1267280*
X1182204Y1267155*
X1182113Y1266905*
Y1266530*
X1182204Y1266280*
X1182295Y1266155*
X1182567Y1266030*
X1183385*
X1181113Y1267405D02*
X1180113D01*
X1180658Y1266405*
X1180385*
X1180204Y1266280*
X1180113Y1266155*
X1180022Y1265780*
Y1265530*
X1180113Y1265155*
X1180295Y1264905*
X1180567Y1264780*
X1180840*
X1181113Y1264905*
X1181204Y1265030*
X1181295Y1265280*
X1184073Y1270303D02*
X1184164Y1270553D01*
X1184346Y1270803*
X1184528Y1270928*
X1184892*
X1185073Y1270803*
X1185255Y1270553*
X1185346Y1270303*
X1185437Y1269928*
Y1269303*
X1185346Y1268928*
X1185255Y1268678*
X1185073Y1268428*
X1184892Y1268303*
X1184528*
X1184346Y1268428*
X1184164Y1268678*
X1184073Y1268928*
X1183073Y1270928D02*
X1182073D01*
X1182619Y1269928*
X1182346*
X1182164Y1269803*
X1182073Y1269678*
X1181982Y1269303*
Y1269053*
X1182073Y1268678*
X1182255Y1268428*
X1182528Y1268303*
X1182801*
X1183073Y1268428*
X1183164Y1268553*
X1183255Y1268803*
X1146786Y1166622D02*
X1146877Y1166872D01*
X1147059Y1167122*
X1147241Y1167247*
X1147604*
X1147786Y1167122*
X1147968Y1166872*
X1148059Y1166622*
X1148150Y1166247*
Y1165622*
X1148059Y1165247*
X1147968Y1164997*
X1147786Y1164747*
X1147604Y1164622*
X1147241*
X1147059Y1164747*
X1146877Y1164997*
X1146786Y1165247*
X1145968Y1167247D02*
Y1164622D01*
Y1167247D02*
X1145150D01*
X1144877Y1167122*
X1144786Y1166997*
X1144695Y1166747*
Y1166372*
X1144786Y1166122*
X1144877Y1165997*
X1145150Y1165872*
X1145968*
X1143422Y1167247D02*
X1143695Y1167122D01*
X1143786Y1166872*
Y1166622*
X1143695Y1166372*
X1143513Y1166247*
X1143150Y1166122*
X1142877Y1165997*
X1142695Y1165747*
X1142604Y1165497*
Y1165122*
X1142695Y1164872*
X1142786Y1164747*
X1143059Y1164622*
X1143422*
X1143695Y1164747*
X1143786Y1164872*
X1143877Y1165122*
Y1165497*
X1143786Y1165747*
X1143604Y1165997*
X1143331Y1166122*
X1142968Y1166247*
X1142786Y1166372*
X1142695Y1166622*
Y1166872*
X1142786Y1167122*
X1143059Y1167247*
X1143422*
X1019371Y1183087D02*
X1021996D01*
X1019371D02*
Y1182268D01*
X1019496Y1181996*
X1019621Y1181905*
X1019871Y1181814*
X1020121*
X1020371Y1181905*
X1020496Y1181996*
X1020621Y1182268*
Y1183087*
Y1182450D02*
X1021996Y1181814D01*
X1019871Y1180996D02*
X1019746Y1180814D01*
X1019371Y1180541*
X1021996*
X1019871Y1179723D02*
X1019746Y1179541D01*
X1019371Y1179268*
X1021996*
X1090454Y1040717D02*
X1093079D01*
X1090454D02*
Y1039898D01*
X1090579Y1039626*
X1090704Y1039535*
X1090954Y1039444*
X1091204*
X1091454Y1039535*
X1091579Y1039626*
X1091704Y1039898*
Y1040717*
Y1040080D02*
X1093079Y1039444D01*
X1090829Y1037535D02*
X1090579Y1037626D01*
X1090454Y1037898*
Y1038080*
X1090579Y1038353*
X1090954Y1038535*
X1091579Y1038626*
X1092204*
X1092704Y1038535*
X1092954Y1038353*
X1093079Y1038080*
Y1037989*
X1092954Y1037717*
X1092704Y1037535*
X1092329Y1037444*
X1092204*
X1091829Y1037535*
X1091579Y1037717*
X1091454Y1037989*
Y1038080*
X1091579Y1038353*
X1091829Y1038535*
X1092204Y1038626*
X1090454Y1036080D02*
X1090579Y1036353D01*
X1090954Y1036535*
X1091579Y1036626*
X1091954*
X1092579Y1036535*
X1092954Y1036353*
X1093079Y1036080*
Y1035898*
X1092954Y1035626*
X1092579Y1035444*
X1091954Y1035353*
X1091579*
X1090954Y1035444*
X1090579Y1035626*
X1090454Y1035898*
Y1036080*
X1118819Y1042231D02*
Y1039606D01*
Y1042231D02*
X1118001D01*
X1117728Y1042106*
X1117637Y1041981*
X1117546Y1041731*
Y1041481*
X1117637Y1041231*
X1117728Y1041106*
X1118001Y1040981*
X1118819*
X1118183D02*
X1117546Y1039606D01*
X1116728Y1042231D02*
Y1039606D01*
Y1042231D02*
X1115910D01*
X1115637Y1042106*
X1115546Y1041981*
X1115455Y1041731*
Y1041356*
X1115546Y1041106*
X1115637Y1040981*
X1115910Y1040856*
X1116728*
X1113455Y1042231D02*
X1114364D01*
X1114455Y1041106*
X1114364Y1041231*
X1114092Y1041356*
X1113819*
X1113546Y1041231*
X1113364Y1040981*
X1113273Y1040606*
X1113364Y1040356*
X1113455Y1039981*
X1113637Y1039731*
X1113910Y1039606*
X1114183*
X1114455Y1039731*
X1114546Y1039856*
X1114637Y1040106*
X1075110Y1039094D02*
Y1036469D01*
Y1039094D02*
X1074292D01*
X1074019Y1038969*
X1073928Y1038844*
X1073838Y1038594*
Y1038344*
X1073928Y1038094*
X1074019Y1037969*
X1074292Y1037844*
X1075110*
X1074474D02*
X1073838Y1036469D01*
X1073019Y1039094D02*
Y1036469D01*
Y1039094D02*
X1072201D01*
X1071928Y1038969*
X1071838Y1038844*
X1071747Y1038594*
Y1038219*
X1071838Y1037969*
X1071928Y1037844*
X1072201Y1037719*
X1073019*
X1069838Y1038719D02*
X1069928Y1038969D01*
X1070201Y1039094*
X1070383*
X1070656Y1038969*
X1070838Y1038594*
X1070928Y1037969*
Y1037344*
X1070838Y1036844*
X1070656Y1036594*
X1070383Y1036469*
X1070292*
X1070019Y1036594*
X1069838Y1036844*
X1069747Y1037219*
Y1037344*
X1069838Y1037719*
X1070019Y1037969*
X1070292Y1038094*
X1070383*
X1070656Y1037969*
X1070838Y1037719*
X1070928Y1037344*
X1118583Y1057755D02*
Y1055880D01*
X1118492Y1055505*
X1118310Y1055255*
X1118037Y1055130*
X1117855*
X1117583Y1055255*
X1117401Y1055505*
X1117310Y1055880*
Y1057755*
X1116492D02*
Y1055880D01*
X1116401Y1055505*
X1116219Y1055255*
X1115946Y1055130*
X1115764*
X1115492Y1055255*
X1115310Y1055505*
X1115219Y1055880*
Y1057755*
X1114310Y1057130D02*
Y1057255D01*
X1114219Y1057505*
X1114128Y1057630*
X1113946Y1057755*
X1113583*
X1113401Y1057630*
X1113310Y1057505*
X1113219Y1057255*
Y1057005*
X1113310Y1056755*
X1113492Y1056380*
X1114401Y1055130*
X1113128*
X1065161Y1042964D02*
Y1041089D01*
X1065071Y1040714*
X1064889Y1040464*
X1064616Y1040339*
X1064434*
X1064161Y1040464*
X1063980Y1040714*
X1063889Y1041089*
Y1042964*
X1063071D02*
Y1041089D01*
X1062980Y1040714*
X1062798Y1040464*
X1062525Y1040339*
X1062343*
X1062071Y1040464*
X1061889Y1040714*
X1061798Y1041089*
Y1042964*
X1060980Y1042464D02*
X1060798Y1042589D01*
X1060525Y1042964*
Y1040339*
X1095068Y1069216D02*
Y1066591D01*
X1095705Y1069216D02*
X1094432D01*
X1093614D02*
Y1066591D01*
Y1069216D02*
X1092796D01*
X1092523Y1069091*
X1092432Y1068966*
X1092341Y1068716*
Y1068341*
X1092432Y1068091*
X1092523Y1067966*
X1092796Y1067841*
X1093614*
X1090250Y1069216D02*
X1091159Y1066591D01*
X1091523Y1069216D02*
X1090250D01*
X1108955Y1066587D02*
X1109046Y1066837D01*
X1109228Y1067087*
X1109410Y1067212*
X1109773*
X1109955Y1067087*
X1110137Y1066837*
X1110228Y1066587*
X1110319Y1066212*
Y1065587*
X1110228Y1065212*
X1110137Y1064962*
X1109955Y1064712*
X1109773Y1064587*
X1109410*
X1109228Y1064712*
X1109046Y1064962*
X1108955Y1065212*
X1108046Y1066587D02*
Y1066712D01*
X1107955Y1066962*
X1107864Y1067087*
X1107683Y1067212*
X1107319*
X1107137Y1067087*
X1107046Y1066962*
X1106955Y1066712*
Y1066462*
X1107046Y1066212*
X1107228Y1065837*
X1108137Y1064587*
X1106864*
X1105864Y1067212D02*
X1104864D01*
X1105410Y1066212*
X1105137*
X1104955Y1066087*
X1104864Y1065962*
X1104773Y1065587*
Y1065337*
X1104864Y1064962*
X1105046Y1064712*
X1105319Y1064587*
X1105592*
X1105864Y1064712*
X1105955Y1064837*
X1106046Y1065087*
X1090316Y1062646D02*
X1092941D01*
X1090316D02*
Y1061827D01*
X1090441Y1061555*
X1090566Y1061464*
X1090816Y1061373*
X1091066*
X1091316Y1061464*
X1091441Y1061555*
X1091566Y1061827*
Y1062646*
Y1062009D02*
X1092941Y1061373D01*
X1090816Y1060555D02*
X1090691Y1060373D01*
X1090316Y1060100*
X1092941*
X1090316Y1059100D02*
Y1058100D01*
X1091316Y1058646*
Y1058373*
X1091441Y1058191*
X1091566Y1058100*
X1091941Y1058009*
X1092191*
X1092566Y1058100*
X1092816Y1058282*
X1092941Y1058555*
Y1058827*
X1092816Y1059100*
X1092691Y1059191*
X1092441Y1059282*
X1080094Y1055231D02*
X1079844Y1055322D01*
X1079594Y1055504*
X1079469Y1055685*
Y1056049*
X1079594Y1056231*
X1079844Y1056413*
X1080094Y1056504*
X1080469Y1056594*
X1081094*
X1081469Y1056504*
X1081719Y1056413*
X1081969Y1056231*
X1082094Y1056049*
Y1055685*
X1081969Y1055504*
X1081719Y1055322*
X1081469Y1055231*
X1079969Y1054413D02*
X1079844Y1054231D01*
X1079469Y1053958*
X1082094*
X1079469Y1052958D02*
Y1051958D01*
X1080469Y1052504*
Y1052231*
X1080594Y1052049*
X1080719Y1051958*
X1081094Y1051867*
X1081344*
X1081719Y1051958*
X1081969Y1052140*
X1082094Y1052413*
Y1052685*
X1081969Y1052958*
X1081844Y1053049*
X1081594Y1053140*
X1080094Y1050958D02*
X1079969D01*
X1079719Y1050867*
X1079594Y1050776*
X1079469Y1050594*
Y1050231*
X1079594Y1050049*
X1079719Y1049958*
X1079969Y1049867*
X1080219*
X1080469Y1049958*
X1080844Y1050140*
X1082094Y1051049*
Y1049776*
X1087000Y1048203D02*
X1086750Y1048294D01*
X1086500Y1048476*
X1086375Y1048658*
Y1049021*
X1086500Y1049203*
X1086750Y1049385*
X1087000Y1049476*
X1087375Y1049567*
X1088000*
X1088375Y1049476*
X1088625Y1049385*
X1088875Y1049203*
X1089000Y1049021*
Y1048658*
X1088875Y1048476*
X1088625Y1048294*
X1088375Y1048203*
X1086875Y1047385D02*
X1086750Y1047203D01*
X1086375Y1046931*
X1089000*
X1086375Y1045931D02*
Y1044931D01*
X1087375Y1045476*
Y1045203*
X1087500Y1045021*
X1087625Y1044931*
X1088000Y1044840*
X1088250*
X1088625Y1044931*
X1088875Y1045112*
X1089000Y1045385*
Y1045658*
X1088875Y1045931*
X1088750Y1046021*
X1088500Y1046112*
X1086875Y1044021D02*
X1086750Y1043840D01*
X1086375Y1043567*
X1089000*
X1083530Y1167535D02*
X1083621Y1167785D01*
X1083803Y1168035*
X1083985Y1168160*
X1084348*
X1084530Y1168035*
X1084712Y1167785*
X1084803Y1167535*
X1084894Y1167160*
Y1166535*
X1084803Y1166160*
X1084712Y1165910*
X1084530Y1165660*
X1084348Y1165535*
X1083985*
X1083803Y1165660*
X1083621Y1165910*
X1083530Y1166160*
X1082712Y1168160D02*
Y1165535D01*
Y1168160D02*
X1081894D01*
X1081621Y1168035*
X1081530Y1167910*
X1081439Y1167660*
Y1167285*
X1081530Y1167035*
X1081621Y1166910*
X1081894Y1166785*
X1082712*
X1080621Y1167660D02*
X1080439Y1167785D01*
X1080166Y1168160*
Y1165535*
X1079348Y1167660D02*
X1079166Y1167785D01*
X1078894Y1168160*
Y1165535*
X1055546Y1186894D02*
X1055637Y1187144D01*
X1055819Y1187394*
X1056000Y1187519*
X1056364*
X1056546Y1187394*
X1056728Y1187144*
X1056819Y1186894*
X1056909Y1186519*
Y1185894*
X1056819Y1185519*
X1056728Y1185269*
X1056546Y1185019*
X1056364Y1184894*
X1056000*
X1055819Y1185019*
X1055637Y1185269*
X1055546Y1185519*
X1054728Y1187519D02*
Y1184894D01*
Y1187519D02*
X1053909D01*
X1053637Y1187394*
X1053546Y1187269*
X1053455Y1187019*
Y1186644*
X1053546Y1186394*
X1053637Y1186269*
X1053909Y1186144*
X1054728*
X1051455Y1186644D02*
X1051546Y1186269D01*
X1051728Y1186019*
X1052000Y1185894*
X1052091*
X1052364Y1186019*
X1052546Y1186269*
X1052637Y1186644*
Y1186769*
X1052546Y1187144*
X1052364Y1187394*
X1052091Y1187519*
X1052000*
X1051728Y1187394*
X1051546Y1187144*
X1051455Y1186644*
Y1186019*
X1051546Y1185394*
X1051728Y1185019*
X1052000Y1184894*
X1052182*
X1052455Y1185019*
X1052546Y1185269*
X1083164Y1161878D02*
X1083255Y1162128D01*
X1083437Y1162378*
X1083618Y1162503*
X1083982*
X1084164Y1162378*
X1084346Y1162128*
X1084437Y1161878*
X1084528Y1161503*
Y1160878*
X1084437Y1160503*
X1084346Y1160253*
X1084164Y1160003*
X1083982Y1159878*
X1083618*
X1083437Y1160003*
X1083255Y1160253*
X1083164Y1160503*
X1082164Y1162503D02*
X1081164D01*
X1081709Y1161503*
X1081437*
X1081255Y1161378*
X1081164Y1161253*
X1081073Y1160878*
Y1160628*
X1081164Y1160253*
X1081346Y1160003*
X1081618Y1159878*
X1081891*
X1082164Y1160003*
X1082255Y1160128*
X1082346Y1160378*
X1079800Y1162503D02*
X1080073Y1162378D01*
X1080164Y1162128*
Y1161878*
X1080073Y1161628*
X1079891Y1161503*
X1079528Y1161378*
X1079255Y1161253*
X1079073Y1161003*
X1078982Y1160753*
Y1160378*
X1079073Y1160128*
X1079164Y1160003*
X1079437Y1159878*
X1079800*
X1080073Y1160003*
X1080164Y1160128*
X1080255Y1160378*
Y1160753*
X1080164Y1161003*
X1079982Y1161253*
X1079709Y1161378*
X1079346Y1161503*
X1079164Y1161628*
X1079073Y1161878*
Y1162128*
X1079164Y1162378*
X1079437Y1162503*
X1079800*
X1083003Y1157398D02*
X1083093Y1157648D01*
X1083275Y1157898*
X1083457Y1158023*
X1083821*
X1084003Y1157898*
X1084184Y1157648*
X1084275Y1157398*
X1084366Y1157023*
Y1156398*
X1084275Y1156023*
X1084184Y1155773*
X1084003Y1155523*
X1083821Y1155398*
X1083457*
X1083275Y1155523*
X1083093Y1155773*
X1083003Y1156023*
X1082003Y1158023D02*
X1081003D01*
X1081548Y1157023*
X1081275*
X1081093Y1156898*
X1081003Y1156773*
X1080912Y1156398*
Y1156148*
X1081003Y1155773*
X1081184Y1155523*
X1081457Y1155398*
X1081730*
X1082003Y1155523*
X1082093Y1155648*
X1082184Y1155898*
X1078821Y1158023D02*
X1079730Y1155398D01*
X1080093Y1158023D02*
X1078821D01*
X1055589Y1208051D02*
X1055680Y1208301D01*
X1055862Y1208551*
X1056044Y1208676*
X1056407*
X1056589Y1208551*
X1056771Y1208301*
X1056862Y1208051*
X1056953Y1207676*
Y1207051*
X1056862Y1206676*
X1056771Y1206426*
X1056589Y1206176*
X1056407Y1206051*
X1056044*
X1055862Y1206176*
X1055680Y1206426*
X1055589Y1206676*
X1054771Y1208676D02*
Y1206051D01*
Y1208676D02*
X1053953D01*
X1053680Y1208551*
X1053589Y1208426*
X1053498Y1208176*
Y1207801*
X1053589Y1207551*
X1053680Y1207426*
X1053953Y1207301*
X1054771*
X1052589Y1208051D02*
Y1208176D01*
X1052498Y1208426*
X1052407Y1208551*
X1052225Y1208676*
X1051862*
X1051680Y1208551*
X1051589Y1208426*
X1051498Y1208176*
Y1207926*
X1051589Y1207676*
X1051771Y1207301*
X1052680Y1206051*
X1051407*
X1050407Y1208676D02*
X1049407D01*
X1049953Y1207676*
X1049680*
X1049498Y1207551*
X1049407Y1207426*
X1049316Y1207051*
Y1206801*
X1049407Y1206426*
X1049589Y1206176*
X1049862Y1206051*
X1050135*
X1050407Y1206176*
X1050498Y1206301*
X1050589Y1206551*
X1056030Y1218008D02*
X1056121Y1218258D01*
X1056303Y1218508*
X1056485Y1218633*
X1056848*
X1057030Y1218508*
X1057212Y1218258*
X1057303Y1218008*
X1057394Y1217633*
Y1217008*
X1057303Y1216633*
X1057212Y1216383*
X1057030Y1216133*
X1056848Y1216008*
X1056485*
X1056303Y1216133*
X1056121Y1216383*
X1056030Y1216633*
X1055212Y1218633D02*
Y1216008D01*
Y1218633D02*
X1054394D01*
X1054121Y1218508*
X1054030Y1218383*
X1053939Y1218133*
Y1217758*
X1054030Y1217508*
X1054121Y1217383*
X1054394Y1217258*
X1055212*
X1053030Y1218008D02*
Y1218133D01*
X1052939Y1218383*
X1052848Y1218508*
X1052666Y1218633*
X1052303*
X1052121Y1218508*
X1052030Y1218383*
X1051939Y1218133*
Y1217883*
X1052030Y1217633*
X1052212Y1217258*
X1053121Y1216008*
X1051848*
X1049939Y1218258D02*
X1050030Y1218508D01*
X1050303Y1218633*
X1050485*
X1050757Y1218508*
X1050939Y1218133*
X1051030Y1217508*
Y1216883*
X1050939Y1216383*
X1050757Y1216133*
X1050485Y1216008*
X1050394*
X1050121Y1216133*
X1049939Y1216383*
X1049848Y1216758*
Y1216883*
X1049939Y1217258*
X1050121Y1217508*
X1050394Y1217633*
X1050485*
X1050757Y1217508*
X1050939Y1217258*
X1051030Y1216883*
X1055936Y1227610D02*
X1056026Y1227860D01*
X1056208Y1228110*
X1056390Y1228235*
X1056754*
X1056936Y1228110*
X1057117Y1227860*
X1057208Y1227610*
X1057299Y1227235*
Y1226610*
X1057208Y1226235*
X1057117Y1225985*
X1056936Y1225735*
X1056754Y1225610*
X1056390*
X1056208Y1225735*
X1056026Y1225985*
X1055936Y1226235*
X1055117Y1228235D02*
Y1225610D01*
Y1228235D02*
X1054299D01*
X1054026Y1228110*
X1053936Y1227985*
X1053845Y1227735*
Y1227360*
X1053936Y1227110*
X1054026Y1226985*
X1054299Y1226860*
X1055117*
X1052936Y1227610D02*
Y1227735D01*
X1052845Y1227985*
X1052754Y1228110*
X1052572Y1228235*
X1052208*
X1052026Y1228110*
X1051936Y1227985*
X1051845Y1227735*
Y1227485*
X1051936Y1227235*
X1052117Y1226860*
X1053026Y1225610*
X1051754*
X1049663Y1228235D02*
X1050572Y1225610D01*
X1050936Y1228235D02*
X1049663D01*
X1054892Y1177209D02*
X1054983Y1177459D01*
X1055165Y1177709*
X1055347Y1177834*
X1055710*
X1055892Y1177709*
X1056074Y1177459*
X1056165Y1177209*
X1056256Y1176834*
Y1176209*
X1056165Y1175834*
X1056074Y1175584*
X1055892Y1175334*
X1055710Y1175209*
X1055347*
X1055165Y1175334*
X1054983Y1175584*
X1054892Y1175834*
X1054074Y1177834D02*
Y1175209D01*
Y1177834D02*
X1053256D01*
X1052983Y1177709*
X1052892Y1177584*
X1052801Y1177334*
Y1176959*
X1052892Y1176709*
X1052983Y1176584*
X1053256Y1176459*
X1054074*
X1051983Y1177334D02*
X1051801Y1177459D01*
X1051529Y1177834*
Y1175209*
X1050165Y1177834D02*
X1050438Y1177709D01*
X1050620Y1177334*
X1050710Y1176709*
Y1176334*
X1050620Y1175709*
X1050438Y1175334*
X1050165Y1175209*
X1049983*
X1049710Y1175334*
X1049529Y1175709*
X1049438Y1176334*
Y1176709*
X1049529Y1177334*
X1049710Y1177709*
X1049983Y1177834*
X1050165*
X1055499Y1197354D02*
X1055589Y1197604D01*
X1055771Y1197854*
X1055953Y1197979*
X1056317*
X1056499Y1197854*
X1056680Y1197604*
X1056771Y1197354*
X1056862Y1196979*
Y1196354*
X1056771Y1195979*
X1056680Y1195729*
X1056499Y1195479*
X1056317Y1195354*
X1055953*
X1055771Y1195479*
X1055589Y1195729*
X1055499Y1195979*
X1054680Y1197979D02*
Y1195354D01*
Y1197979D02*
X1053862D01*
X1053589Y1197854*
X1053499Y1197729*
X1053408Y1197479*
Y1197104*
X1053499Y1196854*
X1053589Y1196729*
X1053862Y1196604*
X1054680*
X1052408Y1197979D02*
X1051408D01*
X1051953Y1196979*
X1051680*
X1051499Y1196854*
X1051408Y1196729*
X1051317Y1196354*
Y1196104*
X1051408Y1195729*
X1051589Y1195479*
X1051862Y1195354*
X1052135*
X1052408Y1195479*
X1052499Y1195604*
X1052589Y1195854*
X1050408Y1197354D02*
Y1197479D01*
X1050317Y1197729*
X1050226Y1197854*
X1050044Y1197979*
X1049680*
X1049499Y1197854*
X1049408Y1197729*
X1049317Y1197479*
Y1197229*
X1049408Y1196979*
X1049589Y1196604*
X1050499Y1195354*
X1049226*
X1082715Y1153240D02*
X1082806Y1153490D01*
X1082988Y1153740*
X1083170Y1153865*
X1083533*
X1083715Y1153740*
X1083897Y1153490*
X1083988Y1153240*
X1084079Y1152865*
Y1152240*
X1083988Y1151865*
X1083897Y1151615*
X1083715Y1151365*
X1083533Y1151240*
X1083170*
X1082988Y1151365*
X1082806Y1151615*
X1082715Y1151865*
X1080988Y1153865D02*
X1081897Y1152115D01*
X1080533*
X1080988Y1153865D02*
Y1151240D01*
X1079170Y1153865D02*
X1079442Y1153740D01*
X1079624Y1153365*
X1079715Y1152740*
Y1152365*
X1079624Y1151740*
X1079442Y1151365*
X1079170Y1151240*
X1078988*
X1078715Y1151365*
X1078533Y1151740*
X1078442Y1152365*
Y1152740*
X1078533Y1153365*
X1078715Y1153740*
X1078988Y1153865*
X1079170*
X1082479Y1149610D02*
X1082570Y1149860D01*
X1082752Y1150110*
X1082933Y1150235*
X1083297*
X1083479Y1150110*
X1083661Y1149860*
X1083752Y1149610*
X1083843Y1149235*
Y1148610*
X1083752Y1148235*
X1083661Y1147985*
X1083479Y1147735*
X1083297Y1147610*
X1082933*
X1082752Y1147735*
X1082570Y1147985*
X1082479Y1148235*
X1081479Y1150235D02*
X1080479D01*
X1081024Y1149235*
X1080752*
X1080570Y1149110*
X1080479Y1148985*
X1080388Y1148610*
Y1148360*
X1080479Y1147985*
X1080661Y1147735*
X1080933Y1147610*
X1081206*
X1081479Y1147735*
X1081570Y1147860*
X1081661Y1148110*
X1078388Y1149360D02*
X1078479Y1148985D01*
X1078661Y1148735*
X1078933Y1148610*
X1079024*
X1079297Y1148735*
X1079479Y1148985*
X1079570Y1149360*
Y1149485*
X1079479Y1149860*
X1079297Y1150110*
X1079024Y1150235*
X1078933*
X1078661Y1150110*
X1078479Y1149860*
X1078388Y1149360*
Y1148735*
X1078479Y1148110*
X1078661Y1147735*
X1078933Y1147610*
X1079115*
X1079388Y1147735*
X1079479Y1147985*
X1148648Y1172114D02*
X1148739Y1172364D01*
X1148921Y1172614*
X1149103Y1172739*
X1149466*
X1149648Y1172614*
X1149830Y1172364*
X1149921Y1172114*
X1150012Y1171739*
Y1171114*
X1149921Y1170739*
X1149830Y1170489*
X1149648Y1170239*
X1149466Y1170114*
X1149103*
X1148921Y1170239*
X1148739Y1170489*
X1148648Y1170739*
X1147830Y1172739D02*
Y1170114D01*
Y1172739D02*
X1147012D01*
X1146739Y1172614*
X1146648Y1172489*
X1146557Y1172239*
Y1171864*
X1146648Y1171614*
X1146739Y1171489*
X1147012Y1171364*
X1147830*
X1144830Y1172739D02*
X1145739Y1170989D01*
X1144375*
X1144830Y1172739D02*
Y1170114D01*
X1158628Y1182138D02*
X1158719Y1182388D01*
X1158901Y1182638*
X1159083Y1182763*
X1159447*
X1159628Y1182638*
X1159810Y1182388*
X1159901Y1182138*
X1159992Y1181763*
Y1181138*
X1159901Y1180763*
X1159810Y1180513*
X1159628Y1180263*
X1159447Y1180138*
X1159083*
X1158901Y1180263*
X1158719Y1180513*
X1158628Y1180763*
X1157810Y1182763D02*
Y1180138D01*
Y1182763D02*
X1156992D01*
X1156719Y1182638*
X1156628Y1182513*
X1156538Y1182263*
Y1181888*
X1156628Y1181638*
X1156719Y1181513*
X1156992Y1181388*
X1157810*
X1155628Y1182138D02*
Y1182263D01*
X1155538Y1182513*
X1155447Y1182638*
X1155265Y1182763*
X1154901*
X1154719Y1182638*
X1154628Y1182513*
X1154538Y1182263*
Y1182013*
X1154628Y1181763*
X1154810Y1181388*
X1155719Y1180138*
X1154447*
X1152719Y1182763D02*
X1153628Y1181013D01*
X1152265*
X1152719Y1182763D02*
Y1180138D01*
X1158770Y1211272D02*
X1158861Y1211522D01*
X1159043Y1211772*
X1159225Y1211897*
X1159588*
X1159770Y1211772*
X1159952Y1211522*
X1160043Y1211272*
X1160134Y1210897*
Y1210272*
X1160043Y1209897*
X1159952Y1209647*
X1159770Y1209397*
X1159588Y1209272*
X1159225*
X1159043Y1209397*
X1158861Y1209647*
X1158770Y1209897*
X1157952Y1211897D02*
Y1209272D01*
Y1211897D02*
X1157134D01*
X1156861Y1211772*
X1156770Y1211647*
X1156679Y1211397*
Y1211022*
X1156770Y1210772*
X1156861Y1210647*
X1157134Y1210522*
X1157952*
X1155770Y1211272D02*
Y1211397D01*
X1155679Y1211647*
X1155588Y1211772*
X1155407Y1211897*
X1155043*
X1154861Y1211772*
X1154770Y1211647*
X1154679Y1211397*
Y1211147*
X1154770Y1210897*
X1154952Y1210522*
X1155861Y1209272*
X1154588*
X1152588Y1211897D02*
X1153497D01*
X1153588Y1210772*
X1153497Y1210897*
X1153225Y1211022*
X1152952*
X1152679Y1210897*
X1152497Y1210647*
X1152407Y1210272*
X1152497Y1210022*
X1152588Y1209647*
X1152770Y1209397*
X1153043Y1209272*
X1153316*
X1153588Y1209397*
X1153679Y1209522*
X1153770Y1209772*
X1158770Y1201480D02*
X1158861Y1201730D01*
X1159043Y1201980*
X1159225Y1202105*
X1159588*
X1159770Y1201980*
X1159952Y1201730*
X1160043Y1201480*
X1160134Y1201105*
Y1200480*
X1160043Y1200105*
X1159952Y1199855*
X1159770Y1199605*
X1159588Y1199480*
X1159225*
X1159043Y1199605*
X1158861Y1199855*
X1158770Y1200105*
X1157952Y1202105D02*
Y1199480D01*
Y1202105D02*
X1157134D01*
X1156861Y1201980*
X1156770Y1201855*
X1156679Y1201605*
Y1201230*
X1156770Y1200980*
X1156861Y1200855*
X1157134Y1200730*
X1157952*
X1155679Y1202105D02*
X1154679D01*
X1155225Y1201105*
X1154952*
X1154770Y1200980*
X1154679Y1200855*
X1154588Y1200480*
Y1200230*
X1154679Y1199855*
X1154861Y1199605*
X1155134Y1199480*
X1155407*
X1155679Y1199605*
X1155770Y1199730*
X1155861Y1199980*
X1158628Y1191642D02*
X1158719Y1191892D01*
X1158901Y1192142*
X1159083Y1192267*
X1159447*
X1159628Y1192142*
X1159810Y1191892*
X1159901Y1191642*
X1159992Y1191267*
Y1190642*
X1159901Y1190267*
X1159810Y1190017*
X1159628Y1189767*
X1159447Y1189642*
X1159083*
X1158901Y1189767*
X1158719Y1190017*
X1158628Y1190267*
X1157810Y1192267D02*
Y1189642D01*
Y1192267D02*
X1156992D01*
X1156719Y1192142*
X1156628Y1192017*
X1156538Y1191767*
Y1191392*
X1156628Y1191142*
X1156719Y1191017*
X1156992Y1190892*
X1157810*
X1155538Y1192267D02*
X1154538D01*
X1155083Y1191267*
X1154810*
X1154628Y1191142*
X1154538Y1191017*
X1154447Y1190642*
Y1190392*
X1154538Y1190017*
X1154719Y1189767*
X1154992Y1189642*
X1155265*
X1155538Y1189767*
X1155628Y1189892*
X1155719Y1190142*
X1153628Y1191767D02*
X1153447Y1191892D01*
X1153174Y1192267*
Y1189642*
X1156265Y1114546D02*
Y1111921D01*
X1156902Y1114546D02*
X1155629D01*
X1154811D02*
Y1111921D01*
Y1114546D02*
X1153992D01*
X1153720Y1114421*
X1153629Y1114296*
X1153538Y1114046*
Y1113671*
X1153629Y1113421*
X1153720Y1113296*
X1153992Y1113171*
X1154811*
X1152720Y1114046D02*
X1152538Y1114171D01*
X1152265Y1114546*
Y1111921*
X1150538Y1114546D02*
X1151447Y1112796D01*
X1150083*
X1150538Y1114546D02*
Y1111921D01*
X1128256Y1136034D02*
X1128006Y1136125D01*
X1127756Y1136307*
X1127631Y1136489*
Y1136852*
X1127756Y1137034*
X1128006Y1137216*
X1128256Y1137307*
X1128631Y1137398*
X1129256*
X1129631Y1137307*
X1129881Y1137216*
X1130131Y1137034*
X1130256Y1136852*
Y1136489*
X1130131Y1136307*
X1129881Y1136125*
X1129631Y1136034*
X1128131Y1135216D02*
X1128006Y1135034D01*
X1127631Y1134761*
X1130256*
X1128256Y1133852D02*
X1128131D01*
X1127881Y1133761*
X1127756Y1133670*
X1127631Y1133489*
Y1133125*
X1127756Y1132943*
X1127881Y1132852*
X1128131Y1132761*
X1128381*
X1128631Y1132852*
X1129006Y1133034*
X1130256Y1133943*
Y1132670*
X1135220Y1143274D02*
X1134970Y1143365D01*
X1134720Y1143547*
X1134595Y1143729*
Y1144092*
X1134720Y1144274*
X1134970Y1144456*
X1135220Y1144547*
X1135595Y1144638*
X1136220*
X1136595Y1144547*
X1136845Y1144456*
X1137095Y1144274*
X1137220Y1144092*
Y1143729*
X1137095Y1143547*
X1136845Y1143365*
X1136595Y1143274*
X1135095Y1142456D02*
X1134970Y1142274D01*
X1134595Y1142001*
X1137220*
X1135095Y1141183D02*
X1134970Y1141001D01*
X1134595Y1140729*
X1137220*
X1101419Y1142614D02*
X1101328Y1142364D01*
X1101146Y1142114*
X1100964Y1141989*
X1100601*
X1100419Y1142114*
X1100237Y1142364*
X1100146Y1142614*
X1100055Y1142989*
Y1143614*
X1100146Y1143989*
X1100237Y1144239*
X1100419Y1144489*
X1100601Y1144614*
X1100964*
X1101146Y1144489*
X1101328Y1144239*
X1101419Y1143989*
X1103419Y1142864D02*
X1103328Y1143239D01*
X1103146Y1143489*
X1102873Y1143614*
X1102782*
X1102510Y1143489*
X1102328Y1143239*
X1102237Y1142864*
Y1142739*
X1102328Y1142364*
X1102510Y1142114*
X1102782Y1141989*
X1102873*
X1103146Y1142114*
X1103328Y1142364*
X1103419Y1142864*
Y1143489*
X1103328Y1144114*
X1103146Y1144489*
X1102873Y1144614*
X1102691*
X1102419Y1144489*
X1102328Y1144239*
X1085350Y1142440D02*
X1085100Y1142530D01*
X1084850Y1142712*
X1084725Y1142894*
Y1143258*
X1084850Y1143440*
X1085100Y1143621*
X1085350Y1143712*
X1085725Y1143803*
X1086350*
X1086725Y1143712*
X1086975Y1143621*
X1087225Y1143440*
X1087350Y1143258*
Y1142894*
X1087225Y1142712*
X1086975Y1142530*
X1086725Y1142440*
X1085100Y1140530D02*
X1084850Y1140621D01*
X1084725Y1140894*
Y1141076*
X1084850Y1141349*
X1085225Y1141530*
X1085850Y1141621*
X1086475*
X1086975Y1141530*
X1087225Y1141349*
X1087350Y1141076*
Y1140985*
X1087225Y1140712*
X1086975Y1140530*
X1086600Y1140440*
X1086475*
X1086100Y1140530*
X1085850Y1140712*
X1085725Y1140985*
Y1141076*
X1085850Y1141349*
X1086100Y1141530*
X1086475Y1141621*
X1051894Y1047278D02*
X1051644Y1047369D01*
X1051394Y1047551*
X1051269Y1047733*
Y1048096*
X1051394Y1048278*
X1051644Y1048460*
X1051894Y1048551*
X1052269Y1048642*
X1052894*
X1053269Y1048551*
X1053519Y1048460*
X1053769Y1048278*
X1053894Y1048096*
Y1047733*
X1053769Y1047551*
X1053519Y1047369*
X1053269Y1047278*
X1051269Y1046278D02*
Y1045278D01*
X1052269Y1045824*
Y1045551*
X1052394Y1045369*
X1052519Y1045278*
X1052894Y1045187*
X1053144*
X1053519Y1045278*
X1053769Y1045460*
X1053894Y1045733*
Y1046005*
X1053769Y1046278*
X1053644Y1046369*
X1053394Y1046460*
X1051769Y1044369D02*
X1051644Y1044187D01*
X1051269Y1043914*
X1053894*
X1048114Y1047455D02*
X1047864Y1047546D01*
X1047614Y1047728*
X1047489Y1047910*
Y1048273*
X1047614Y1048455*
X1047864Y1048637*
X1048114Y1048728*
X1048489Y1048819*
X1049114*
X1049489Y1048728*
X1049739Y1048637*
X1049989Y1048455*
X1050114Y1048273*
Y1047910*
X1049989Y1047728*
X1049739Y1047546*
X1049489Y1047455*
X1047489Y1046455D02*
Y1045455D01*
X1048489Y1046001*
Y1045728*
X1048614Y1045546*
X1048739Y1045455*
X1049114Y1045364*
X1049364*
X1049739Y1045455*
X1049989Y1045637*
X1050114Y1045910*
Y1046183*
X1049989Y1046455*
X1049864Y1046546*
X1049614Y1046637*
X1047489Y1044001D02*
X1047614Y1044273D01*
X1047989Y1044455*
X1048614Y1044546*
X1048989*
X1049614Y1044455*
X1049989Y1044273*
X1050114Y1044001*
Y1043819*
X1049989Y1043546*
X1049614Y1043364*
X1048989Y1043273*
X1048614*
X1047989Y1043364*
X1047614Y1043546*
X1047489Y1043819*
Y1044001*
X1046102Y1103570D02*
Y1100945D01*
Y1103570D02*
X1045284D01*
X1045011Y1103445*
X1044921Y1103320*
X1044830Y1103070*
Y1102820*
X1044921Y1102570*
X1045011Y1102445*
X1045284Y1102320*
X1046102*
X1045466D02*
X1044830Y1100945D01*
X1042830Y1103570D02*
X1043739D01*
X1043830Y1102445*
X1043739Y1102570*
X1043466Y1102695*
X1043193*
X1042921Y1102570*
X1042739Y1102320*
X1042648Y1101945*
X1042739Y1101695*
X1042830Y1101320*
X1043011Y1101070*
X1043284Y1100945*
X1043557*
X1043830Y1101070*
X1043921Y1101195*
X1044011Y1101445*
X1053268Y1098554D02*
Y1095929D01*
Y1098554D02*
X1052450D01*
X1052177Y1098429*
X1052086Y1098304*
X1051995Y1098054*
Y1097804*
X1052086Y1097554*
X1052177Y1097429*
X1052450Y1097304*
X1053268*
X1052631D02*
X1051995Y1095929D01*
X1049995Y1097679D02*
X1050086Y1097304D01*
X1050268Y1097054*
X1050540Y1096929*
X1050631*
X1050904Y1097054*
X1051086Y1097304*
X1051177Y1097679*
Y1097804*
X1051086Y1098179*
X1050904Y1098429*
X1050631Y1098554*
X1050540*
X1050268Y1098429*
X1050086Y1098179*
X1049995Y1097679*
Y1097054*
X1050086Y1096429*
X1050268Y1096054*
X1050540Y1095929*
X1050722*
X1050995Y1096054*
X1051086Y1096304*
X1086896Y1114197D02*
X1086987Y1114447D01*
X1087169Y1114697*
X1087351Y1114822*
X1087714*
X1087896Y1114697*
X1088078Y1114447*
X1088169Y1114197*
X1088260Y1113822*
Y1113197*
X1088169Y1112822*
X1088078Y1112572*
X1087896Y1112322*
X1087714Y1112197*
X1087351*
X1087169Y1112322*
X1086987Y1112572*
X1086896Y1112822*
X1085987Y1114197D02*
Y1114322D01*
X1085896Y1114572*
X1085805Y1114697*
X1085623Y1114822*
X1085260*
X1085078Y1114697*
X1084987Y1114572*
X1084896Y1114322*
Y1114072*
X1084987Y1113822*
X1085169Y1113447*
X1086078Y1112197*
X1084805*
X1082805Y1114822D02*
X1083714D01*
X1083805Y1113697*
X1083714Y1113822*
X1083442Y1113947*
X1083169*
X1082896Y1113822*
X1082714Y1113572*
X1082623Y1113197*
X1082714Y1112947*
X1082805Y1112572*
X1082987Y1112322*
X1083260Y1112197*
X1083533*
X1083805Y1112322*
X1083896Y1112447*
X1083987Y1112697*
X1046343Y1093349D02*
Y1090724D01*
Y1093349D02*
X1045524D01*
X1045252Y1093224*
X1045161Y1093099*
X1045070Y1092849*
Y1092599*
X1045161Y1092349*
X1045252Y1092224*
X1045524Y1092099*
X1046343*
X1045706D02*
X1045070Y1090724D01*
X1043161Y1092974D02*
X1043252Y1093224D01*
X1043524Y1093349*
X1043706*
X1043979Y1093224*
X1044161Y1092849*
X1044252Y1092224*
Y1091599*
X1044161Y1091099*
X1043979Y1090849*
X1043706Y1090724*
X1043615*
X1043343Y1090849*
X1043161Y1091099*
X1043070Y1091474*
Y1091599*
X1043161Y1091974*
X1043343Y1092224*
X1043615Y1092349*
X1043706*
X1043979Y1092224*
X1044161Y1091974*
X1044252Y1091599*
X1053197Y1160901D02*
Y1159026D01*
X1053106Y1158651*
X1052924Y1158401*
X1052651Y1158276*
X1052470*
X1052197Y1158401*
X1052015Y1158651*
X1051924Y1159026*
Y1160901*
X1051106Y1160401D02*
X1050924Y1160526D01*
X1050651Y1160901*
Y1158276*
X1074840Y1086326D02*
Y1083701D01*
X1075476Y1086326D02*
X1074204D01*
X1073385D02*
Y1083701D01*
Y1086326D02*
X1072567D01*
X1072295Y1086201*
X1072204Y1086076*
X1072113Y1085826*
Y1085451*
X1072204Y1085201*
X1072295Y1085076*
X1072567Y1084951*
X1073385*
X1071204Y1085701D02*
Y1085826D01*
X1071113Y1086076*
X1071022Y1086201*
X1070840Y1086326*
X1070476*
X1070295Y1086201*
X1070204Y1086076*
X1070113Y1085826*
Y1085576*
X1070204Y1085326*
X1070385Y1084951*
X1071295Y1083701*
X1070022*
X1069395Y1093444D02*
Y1090819D01*
X1070031Y1093444D02*
X1068759D01*
X1067941D02*
Y1090819D01*
Y1093444D02*
X1067122D01*
X1066850Y1093319*
X1066759Y1093194*
X1066668Y1092944*
Y1092569*
X1066759Y1092319*
X1066850Y1092194*
X1067122Y1092069*
X1067941*
X1065668Y1093444D02*
X1064668D01*
X1065213Y1092444*
X1064941*
X1064759Y1092319*
X1064668Y1092194*
X1064577Y1091819*
Y1091569*
X1064668Y1091194*
X1064850Y1090944*
X1065122Y1090819*
X1065395*
X1065668Y1090944*
X1065759Y1091069*
X1065850Y1091319*
X1075746Y1098889D02*
Y1096264D01*
X1076382Y1098889D02*
X1075109D01*
X1074291D02*
Y1096264D01*
Y1098889D02*
X1073473D01*
X1073200Y1098764*
X1073109Y1098639*
X1073018Y1098389*
Y1098014*
X1073109Y1097764*
X1073200Y1097639*
X1073473Y1097514*
X1074291*
X1071291Y1098889D02*
X1072200Y1097139D01*
X1070836*
X1071291Y1098889D02*
Y1096264D01*
X1073191Y1112862D02*
X1073282Y1113112D01*
X1073464Y1113362*
X1073646Y1113487*
X1074010*
X1074191Y1113362*
X1074373Y1113112*
X1074464Y1112862*
X1074555Y1112487*
Y1111862*
X1074464Y1111487*
X1074373Y1111237*
X1074191Y1110987*
X1074010Y1110862*
X1073646*
X1073464Y1110987*
X1073282Y1111237*
X1073191Y1111487*
X1072373Y1112987D02*
X1072191Y1113112D01*
X1071919Y1113487*
Y1110862*
X1071101Y1112987D02*
X1070919Y1113112D01*
X1070646Y1113487*
Y1110862*
X1069828Y1112987D02*
X1069646Y1113112D01*
X1069373Y1113487*
Y1110862*
X1162997Y1381893D02*
Y1379268D01*
X1163634Y1381893D02*
X1162361D01*
X1161543Y1381393D02*
X1161361Y1381518D01*
X1161088Y1381893*
Y1379268*
X1163143Y1370527D02*
Y1367902D01*
X1163780Y1370527D02*
X1162507D01*
X1161598Y1369902D02*
Y1370027D01*
X1161507Y1370277*
X1161416Y1370402*
X1161234Y1370527*
X1160870*
X1160689Y1370402*
X1160598Y1370277*
X1160507Y1370027*
Y1369777*
X1160598Y1369527*
X1160780Y1369152*
X1161689Y1367902*
X1160416*
X1043466Y1353259D02*
Y1350634D01*
X1044102Y1353259D02*
X1042830D01*
X1042011Y1352759D02*
X1041830Y1352884D01*
X1041557Y1353259*
Y1350634*
X1040557Y1353259D02*
X1039557D01*
X1040102Y1352259*
X1039830*
X1039648Y1352134*
X1039557Y1352009*
X1039466Y1351634*
Y1351384*
X1039557Y1351009*
X1039739Y1350759*
X1040011Y1350634*
X1040284*
X1040557Y1350759*
X1040648Y1350884*
X1040739Y1351134*
X1048970Y1343893D02*
Y1341268D01*
X1049606Y1343893D02*
X1048334D01*
X1047515Y1343393D02*
X1047334Y1343518D01*
X1047061Y1343893*
Y1341268*
X1045334Y1343893D02*
X1046243Y1342143D01*
X1044879*
X1045334Y1343893D02*
Y1341268D01*
X1145252Y1321845D02*
Y1319220D01*
Y1321845D02*
X1144616D01*
X1144343Y1321720*
X1144161Y1321470*
X1144070Y1321220*
X1143979Y1320845*
Y1320220*
X1144070Y1319845*
X1144161Y1319595*
X1144343Y1319345*
X1144616Y1319220*
X1145252*
X1143070Y1321220D02*
Y1321345D01*
X1142979Y1321595*
X1142888Y1321720*
X1142707Y1321845*
X1142343*
X1142161Y1321720*
X1142070Y1321595*
X1141979Y1321345*
Y1321095*
X1142070Y1320845*
X1142252Y1320470*
X1143161Y1319220*
X1141888*
X1141070Y1321345D02*
X1140888Y1321470D01*
X1140616Y1321845*
Y1319220*
X1191262Y1297335D02*
X1191353Y1297585D01*
X1191535Y1297835*
X1191717Y1297960*
X1192081*
X1192262Y1297835*
X1192444Y1297585*
X1192535Y1297335*
X1192626Y1296960*
Y1296335*
X1192535Y1295960*
X1192444Y1295710*
X1192262Y1295460*
X1192081Y1295335*
X1191717*
X1191535Y1295460*
X1191353Y1295710*
X1191262Y1295960*
X1190353Y1297335D02*
Y1297460D01*
X1190262Y1297710*
X1190171Y1297835*
X1189990Y1297960*
X1189626*
X1189444Y1297835*
X1189353Y1297710*
X1189262Y1297460*
Y1297210*
X1189353Y1296960*
X1189535Y1296585*
X1190444Y1295335*
X1189171*
X1123882Y1281891D02*
X1124132Y1281800D01*
X1124382Y1281618*
X1124507Y1281437*
Y1281073*
X1124382Y1280891*
X1124132Y1280709*
X1123882Y1280618*
X1123507Y1280528*
X1122882*
X1122507Y1280618*
X1122257Y1280709*
X1122007Y1280891*
X1121882Y1281073*
Y1281437*
X1122007Y1281618*
X1122257Y1281800*
X1122507Y1281891*
X1124507Y1282709D02*
X1121882D01*
X1124507D02*
Y1283528D01*
X1124382Y1283800*
X1124257Y1283891*
X1124007Y1283982*
X1123632*
X1123382Y1283891*
X1123257Y1283800*
X1123132Y1283528*
Y1282709*
X1123882Y1284891D02*
X1124007D01*
X1124257Y1284982*
X1124382Y1285073*
X1124507Y1285255*
Y1285618*
X1124382Y1285800*
X1124257Y1285891*
X1124007Y1285982*
X1123757*
X1123507Y1285891*
X1123132Y1285709*
X1121882Y1284800*
Y1286073*
X1152284Y1286717D02*
X1154909D01*
X1152284D02*
Y1285898D01*
X1152409Y1285626*
X1152534Y1285535*
X1152784Y1285444*
X1153034*
X1153284Y1285535*
X1153409Y1285626*
X1153534Y1285898*
Y1286717*
Y1286080D02*
X1154909Y1285444D01*
X1152659Y1283535D02*
X1152409Y1283626D01*
X1152284Y1283898*
Y1284080*
X1152409Y1284353*
X1152784Y1284535*
X1153409Y1284626*
X1154034*
X1154534Y1284535*
X1154784Y1284353*
X1154909Y1284080*
Y1283989*
X1154784Y1283717*
X1154534Y1283535*
X1154159Y1283444*
X1154034*
X1153659Y1283535*
X1153409Y1283717*
X1153284Y1283989*
Y1284080*
X1153409Y1284353*
X1153659Y1284535*
X1154034Y1284626*
X1152284Y1282444D02*
Y1281444D01*
X1153284Y1281989*
Y1281717*
X1153409Y1281535*
X1153534Y1281444*
X1153909Y1281353*
X1154159*
X1154534Y1281444*
X1154784Y1281626*
X1154909Y1281898*
Y1282171*
X1154784Y1282444*
X1154659Y1282535*
X1154409Y1282626*
X1074349Y1065949D02*
X1074440Y1066199D01*
X1074622Y1066449*
X1074804Y1066574*
X1075167*
X1075349Y1066449*
X1075531Y1066199*
X1075622Y1065949*
X1075713Y1065574*
Y1064949*
X1075622Y1064574*
X1075531Y1064324*
X1075349Y1064074*
X1075167Y1063949*
X1074804*
X1074622Y1064074*
X1074440Y1064324*
X1074349Y1064574*
X1073349Y1066574D02*
X1072349D01*
X1072894Y1065574*
X1072622*
X1072440Y1065449*
X1072349Y1065324*
X1072258Y1064949*
Y1064699*
X1072349Y1064324*
X1072531Y1064074*
X1072804Y1063949*
X1073076*
X1073349Y1064074*
X1073440Y1064199*
X1073531Y1064449*
X1071349Y1065949D02*
Y1066074D01*
X1071258Y1066324*
X1071167Y1066449*
X1070985Y1066574*
X1070622*
X1070440Y1066449*
X1070349Y1066324*
X1070258Y1066074*
Y1065824*
X1070349Y1065574*
X1070531Y1065199*
X1071440Y1063949*
X1070167*
X1055162Y1040276D02*
X1057787D01*
X1055162D02*
Y1039457D01*
X1055287Y1039185*
X1055412Y1039094*
X1055662Y1039003*
X1055912*
X1056162Y1039094*
X1056287Y1039185*
X1056412Y1039457*
Y1040276*
Y1039639D02*
X1057787Y1039003D01*
X1055162Y1037276D02*
X1056912Y1038185D01*
Y1036821*
X1055162Y1037276D02*
X1057787D01*
X1045683Y1064735D02*
Y1062110D01*
X1046319Y1064735D02*
X1045046D01*
X1044228D02*
Y1062110D01*
Y1064735D02*
X1043410D01*
X1043137Y1064610*
X1043046Y1064485*
X1042955Y1064235*
Y1063860*
X1043046Y1063610*
X1043137Y1063485*
X1043410Y1063360*
X1044228*
X1042137Y1064235D02*
X1041955Y1064360D01*
X1041683Y1064735*
Y1062110*
X1067107Y1135657D02*
X1069732D01*
X1067107D02*
Y1134839D01*
X1067232Y1134567*
X1067357Y1134476*
X1067607Y1134385*
X1067857*
X1068107Y1134476*
X1068232Y1134567*
X1068357Y1134839*
Y1135657*
Y1135021D02*
X1069732Y1134385D01*
X1067107Y1133385D02*
Y1132385D01*
X1068107Y1132930*
Y1132657*
X1068232Y1132476*
X1068357Y1132385*
X1068732Y1132294*
X1068982*
X1069357Y1132385*
X1069607Y1132567*
X1069732Y1132839*
Y1133112*
X1069607Y1133385*
X1069482Y1133476*
X1069232Y1133567*
X1067607Y1131476D02*
X1067482Y1131294D01*
X1067107Y1131021*
X1069732*
X1084581Y1136949D02*
X1084672Y1137199D01*
X1084854Y1137449*
X1085036Y1137574*
X1085399*
X1085581Y1137449*
X1085763Y1137199*
X1085854Y1136949*
X1085945Y1136574*
Y1135949*
X1085854Y1135574*
X1085763Y1135324*
X1085581Y1135074*
X1085399Y1134949*
X1085036*
X1084854Y1135074*
X1084672Y1135324*
X1084581Y1135574*
X1083763Y1137074D02*
X1083581Y1137199D01*
X1083309Y1137574*
Y1134949*
X1081945Y1137574D02*
X1082218Y1137449D01*
X1082399Y1137074*
X1082490Y1136449*
Y1136074*
X1082399Y1135449*
X1082218Y1135074*
X1081945Y1134949*
X1081763*
X1081490Y1135074*
X1081309Y1135449*
X1081218Y1136074*
Y1136449*
X1081309Y1137074*
X1081490Y1137449*
X1081763Y1137574*
X1081945*
X1052488Y1113487D02*
Y1110862D01*
Y1113487D02*
X1051670D01*
X1051397Y1113362*
X1051306Y1113237*
X1051215Y1112987*
Y1112737*
X1051306Y1112487*
X1051397Y1112362*
X1051670Y1112237*
X1052488*
X1051852D02*
X1051215Y1110862D01*
X1050215Y1113487D02*
X1049215D01*
X1049761Y1112487*
X1049488*
X1049306Y1112362*
X1049215Y1112237*
X1049125Y1111862*
Y1111612*
X1049215Y1111237*
X1049397Y1110987*
X1049670Y1110862*
X1049943*
X1050215Y1110987*
X1050306Y1111112*
X1050397Y1111362*
X1045854Y1115170D02*
X1047127Y1117795D01*
Y1115170D02*
X1045854Y1117795D01*
X1047945Y1115670D02*
X1048127Y1115545D01*
X1048400Y1115170*
Y1117795*
X1093949Y1105581D02*
X1093699Y1105672D01*
X1093449Y1105854*
X1093324Y1106036*
Y1106399*
X1093449Y1106581*
X1093699Y1106763*
X1093949Y1106854*
X1094324Y1106945*
X1094949*
X1095324Y1106854*
X1095574Y1106763*
X1095824Y1106581*
X1095949Y1106399*
Y1106036*
X1095824Y1105854*
X1095574Y1105672*
X1095324Y1105581*
X1093949Y1104672D02*
X1093824D01*
X1093574Y1104581*
X1093449Y1104490*
X1093324Y1104309*
Y1103945*
X1093449Y1103763*
X1093574Y1103672*
X1093824Y1103581*
X1094074*
X1094324Y1103672*
X1094699Y1103854*
X1095949Y1104763*
Y1103490*
X1093324Y1101763D02*
X1095074Y1102672D01*
Y1101309*
X1093324Y1101763D02*
X1095949D01*
X1129031Y1108006D02*
X1128781Y1108097D01*
X1128781D02*
X1128531Y1108279D01*
X1128531D02*
X1128406Y1108461D01*
X1128406D02*
Y1108825D01*
X1128406D02*
X1128531Y1109006D01*
X1128531D02*
X1128781Y1109188D01*
X1128781D02*
X1129031Y1109279D01*
X1129031D02*
X1129406Y1109370D01*
X1129406D02*
X1130031D01*
X1130031D02*
X1130406Y1109279D01*
X1130406D02*
X1130656Y1109188D01*
X1130656D02*
X1130906Y1109006D01*
X1130906D02*
X1131031Y1108825D01*
X1131031D02*
Y1108461D01*
X1131031D02*
X1130906Y1108279D01*
X1130906D02*
X1130656Y1108097D01*
X1130656D02*
X1130406Y1108006D01*
X1129031Y1107097D02*
X1128906D01*
X1128906D02*
X1128656Y1107006D01*
X1128656D02*
X1128531Y1106916D01*
X1128531D02*
X1128406Y1106734D01*
X1128406D02*
Y1106370D01*
X1128406D02*
X1128531Y1106188D01*
X1128531D02*
X1128656Y1106097D01*
X1128656D02*
X1128906Y1106006D01*
X1128906D02*
X1129156D01*
X1129156D02*
X1129406Y1106097D01*
X1129406D02*
X1129781Y1106279D01*
X1129781D02*
X1131031Y1107188D01*
X1131031D02*
Y1105916D01*
X1128781Y1104006D02*
X1128531Y1104097D01*
X1128531D02*
X1128406Y1104370D01*
X1128406D02*
Y1104552D01*
X1128406D02*
X1128531Y1104825D01*
X1128531D02*
X1128906Y1105006D01*
X1128906D02*
X1129531Y1105097D01*
X1129531D02*
X1130156D01*
X1130156D02*
X1130656Y1105006D01*
X1130656D02*
X1130906Y1104825D01*
X1130906D02*
X1131031Y1104552D01*
X1131031D02*
Y1104461D01*
X1131031D02*
X1130906Y1104188D01*
X1130906D02*
X1130656Y1104006D01*
X1130656D02*
X1130281Y1103916D01*
X1130281D02*
X1130156D01*
X1130156D02*
X1129781Y1104006D01*
X1129781D02*
X1129531Y1104188D01*
X1129531D02*
X1129406Y1104461D01*
X1129406D02*
Y1104552D01*
X1129406D02*
X1129531Y1104825D01*
X1129531D02*
X1129781Y1105006D01*
X1129781D02*
X1130156Y1105097D01*
X1092555Y1135440D02*
X1092305Y1135530D01*
X1092055Y1135712*
X1091930Y1135894*
Y1136258*
X1092055Y1136440*
X1092305Y1136621*
X1092555Y1136712*
X1092930Y1136803*
X1093555*
X1093930Y1136712*
X1094180Y1136621*
X1094430Y1136440*
X1094555Y1136258*
Y1135894*
X1094430Y1135712*
X1094180Y1135530*
X1093930Y1135440*
X1091930Y1133440D02*
Y1134349D01*
X1093055Y1134440*
X1092930Y1134349*
X1092805Y1134076*
Y1133803*
X1092930Y1133530*
X1093180Y1133349*
X1093555Y1133258*
X1093805Y1133349*
X1094180Y1133440*
X1094430Y1133621*
X1094555Y1133894*
Y1134167*
X1094430Y1134440*
X1094305Y1134530*
X1094055Y1134621*
X1153684Y1292906D02*
X1153775Y1293156D01*
X1153956Y1293406*
X1154138Y1293531*
X1154502*
X1154684Y1293406*
X1154865Y1293156*
X1154956Y1292906*
X1155047Y1292531*
Y1291906*
X1154956Y1291531*
X1154865Y1291281*
X1154684Y1291031*
X1154502Y1290906*
X1154138*
X1153956Y1291031*
X1153775Y1291281*
X1153684Y1291531*
X1152865Y1293031D02*
X1152684Y1293156D01*
X1152411Y1293531*
Y1290906*
X1126172Y1147756D02*
X1126263Y1148006D01*
X1126445Y1148256*
X1126626Y1148381*
X1126990*
X1127172Y1148256*
X1127354Y1148006*
X1127445Y1147756*
X1127535Y1147381*
Y1146756*
X1127445Y1146381*
X1127354Y1146131*
X1127172Y1145881*
X1126990Y1145756*
X1126626*
X1126445Y1145881*
X1126263Y1146131*
X1126172Y1146381*
X1125354Y1147881D02*
X1125172Y1148006D01*
X1124899Y1148381*
Y1145756*
X1123172Y1148381D02*
X1124081Y1146631D01*
X1122717*
X1123172Y1148381D02*
Y1145756D01*
X1139416Y1129969D02*
X1139507Y1130219D01*
X1139689Y1130469*
X1139870Y1130594*
X1140234*
X1140416Y1130469*
X1140598Y1130219*
X1140689Y1129969*
X1140780Y1129594*
Y1128969*
X1140689Y1128594*
X1140598Y1128344*
X1140416Y1128094*
X1140234Y1127969*
X1139870*
X1139689Y1128094*
X1139507Y1128344*
X1139416Y1128594*
X1138598Y1130094D02*
X1138416Y1130219D01*
X1138143Y1130594*
Y1127969*
X1137143Y1130594D02*
X1136143D01*
X1136689Y1129594*
X1136416*
X1136234Y1129469*
X1136143Y1129344*
X1136052Y1128969*
Y1128719*
X1136143Y1128344*
X1136325Y1128094*
X1136598Y1127969*
X1136870*
X1137143Y1128094*
X1137234Y1128219*
X1137325Y1128469*
X1149333Y1054217D02*
X1149424Y1054467D01*
X1149606Y1054717*
X1149788Y1054842*
X1150151*
X1150333Y1054717*
X1150515Y1054467*
X1150606Y1054217*
X1150697Y1053842*
Y1053217*
X1150606Y1052842*
X1150515Y1052592*
X1150333Y1052342*
X1150151Y1052217*
X1149788*
X1149606Y1052342*
X1149424Y1052592*
X1149333Y1052842*
X1148515Y1054842D02*
Y1052217D01*
Y1054842D02*
X1147697D01*
X1147424Y1054717*
X1147333Y1054592*
X1147242Y1054342*
Y1053967*
X1147333Y1053717*
X1147424Y1053592*
X1147697Y1053467*
X1148515*
X1146424Y1054342D02*
X1146242Y1054467D01*
X1145970Y1054842*
Y1052217*
X1145060Y1054217D02*
Y1054342D01*
X1144970Y1054592*
X1144879Y1054717*
X1144697Y1054842*
X1144333*
X1144151Y1054717*
X1144060Y1054592*
X1143970Y1054342*
Y1054092*
X1144060Y1053842*
X1144242Y1053467*
X1145151Y1052217*
X1143879*
X1193026Y1280142D02*
X1193117Y1280392D01*
X1193299Y1280642*
X1193481Y1280767*
X1193844*
X1194026Y1280642*
X1194208Y1280392*
X1194299Y1280142*
X1194390Y1279767*
Y1279142*
X1194299Y1278767*
X1194208Y1278517*
X1194026Y1278267*
X1193844Y1278142*
X1193481*
X1193299Y1278267*
X1193117Y1278517*
X1193026Y1278767*
X1192208Y1280767D02*
Y1278142D01*
Y1280767D02*
X1191390D01*
X1191117Y1280642*
X1191026Y1280517*
X1190935Y1280267*
Y1279892*
X1191026Y1279642*
X1191117Y1279517*
X1191390Y1279392*
X1192208*
X1189026Y1280392D02*
X1189117Y1280642D01*
X1189390Y1280767*
X1189572*
X1189844Y1280642*
X1190026Y1280267*
X1190117Y1279642*
Y1279017*
X1190026Y1278517*
X1189844Y1278267*
X1189572Y1278142*
X1189481*
X1189208Y1278267*
X1189026Y1278517*
X1188935Y1278892*
Y1279017*
X1189026Y1279392*
X1189208Y1279642*
X1189481Y1279767*
X1189572*
X1189844Y1279642*
X1190026Y1279392*
X1190117Y1279017*
X1165774Y1029744D02*
X1165865Y1029994D01*
X1166047Y1030244*
X1166229Y1030369*
X1166592*
X1166774Y1030244*
X1166956Y1029994*
X1167047Y1029744*
X1167138Y1029369*
Y1028744*
X1167047Y1028369*
X1166956Y1028119*
X1166774Y1027869*
X1166592Y1027744*
X1166229*
X1166047Y1027869*
X1165865Y1028119*
X1165774Y1028369*
X1164956Y1029869D02*
X1164774Y1029994D01*
X1164501Y1030369*
Y1027744*
X1163229Y1030369D02*
X1163501Y1030244D01*
X1163592Y1029994*
Y1029744*
X1163501Y1029494*
X1163320Y1029369*
X1162956Y1029244*
X1162683Y1029119*
X1162501Y1028869*
X1162411Y1028619*
Y1028244*
X1162501Y1027994*
X1162592Y1027869*
X1162865Y1027744*
X1163229*
X1163501Y1027869*
X1163592Y1027994*
X1163683Y1028244*
Y1028619*
X1163592Y1028869*
X1163411Y1029119*
X1163138Y1029244*
X1162774Y1029369*
X1162592Y1029494*
X1162501Y1029744*
Y1029994*
X1162592Y1030244*
X1162865Y1030369*
X1163229*
X1193089Y1284209D02*
X1193180Y1284459D01*
X1193362Y1284709*
X1193544Y1284834*
X1193907*
X1194089Y1284709*
X1194271Y1284459*
X1194362Y1284209*
X1194453Y1283834*
Y1283209*
X1194362Y1282834*
X1194271Y1282584*
X1194089Y1282334*
X1193907Y1282209*
X1193544*
X1193362Y1282334*
X1193180Y1282584*
X1193089Y1282834*
X1192271Y1284834D02*
Y1282209D01*
Y1284834D02*
X1191453D01*
X1191180Y1284709*
X1191089Y1284584*
X1190998Y1284334*
Y1283959*
X1191089Y1283709*
X1191180Y1283584*
X1191453Y1283459*
X1192271*
X1188907Y1284834D02*
X1189816Y1282209D01*
X1190180Y1284834D02*
X1188907D01*
X1084903Y1125338D02*
Y1122713D01*
X1085539Y1125338D02*
X1084267D01*
X1083448D02*
Y1122713D01*
Y1125338D02*
X1082630D01*
X1082358Y1125213*
X1082267Y1125088*
X1082176Y1124838*
Y1124463*
X1082267Y1124213*
X1082358Y1124088*
X1082630Y1123963*
X1083448*
X1081358Y1124838D02*
X1081176Y1124963D01*
X1080903Y1125338*
Y1122713*
X1078903Y1125338D02*
X1079812D01*
X1079903Y1124213*
X1079812Y1124338*
X1079539Y1124463*
X1079267*
X1078994Y1124338*
X1078812Y1124088*
X1078721Y1123713*
X1078812Y1123463*
X1078903Y1123088*
X1079085Y1122838*
X1079358Y1122713*
X1079630*
X1079903Y1122838*
X1079994Y1122963*
X1080085Y1123213*
X1160672Y1297634D02*
X1160763Y1297884D01*
X1160945Y1298134*
X1161126Y1298259*
X1161490*
X1161672Y1298134*
X1161854Y1297884*
X1161945Y1297634*
X1162035Y1297259*
Y1296634*
X1161945Y1296259*
X1161854Y1296009*
X1161672Y1295759*
X1161490Y1295634*
X1161126*
X1160945Y1295759*
X1160763Y1296009*
X1160672Y1296259*
X1159854Y1298259D02*
Y1295634D01*
Y1298259D02*
X1159035D01*
X1158763Y1298134*
X1158672Y1298009*
X1158581Y1297759*
Y1297384*
X1158672Y1297134*
X1158763Y1297009*
X1159035Y1296884*
X1159854*
X1157763Y1297759D02*
X1157581Y1297884D01*
X1157308Y1298259*
Y1295634*
X1156035Y1298259D02*
X1156308Y1298134D01*
X1156399Y1297884*
Y1297634*
X1156308Y1297384*
X1156126Y1297259*
X1155763Y1297134*
X1155490Y1297009*
X1155308Y1296759*
X1155217Y1296509*
Y1296134*
X1155308Y1295884*
X1155399Y1295759*
X1155672Y1295634*
X1156035*
X1156308Y1295759*
X1156399Y1295884*
X1156490Y1296134*
Y1296509*
X1156399Y1296759*
X1156217Y1297009*
X1155945Y1297134*
X1155581Y1297259*
X1155399Y1297384*
X1155308Y1297634*
Y1297884*
X1155399Y1298134*
X1155672Y1298259*
X1156035*
X1194042Y1289701D02*
X1194133Y1289951D01*
X1194315Y1290201*
X1194496Y1290326*
X1194860*
X1195042Y1290201*
X1195224Y1289951*
X1195315Y1289701*
X1195406Y1289326*
Y1288701*
X1195315Y1288326*
X1195224Y1288076*
X1195042Y1287826*
X1194860Y1287701*
X1194496*
X1194315Y1287826*
X1194133Y1288076*
X1194042Y1288326*
X1193224Y1290326D02*
Y1287701D01*
Y1290326D02*
X1192406D01*
X1192133Y1290201*
X1192042Y1290076*
X1191951Y1289826*
Y1289451*
X1192042Y1289201*
X1192133Y1289076*
X1192406Y1288951*
X1193224*
X1190224Y1290326D02*
X1191133Y1288576D01*
X1189769*
X1190224Y1290326D02*
Y1287701D01*
X1188406Y1290326D02*
X1188678Y1290201D01*
X1188860Y1289826*
X1188951Y1289201*
Y1288826*
X1188860Y1288201*
X1188678Y1287826*
X1188406Y1287701*
X1188224*
X1187951Y1287826*
X1187769Y1288201*
X1187678Y1288826*
Y1289201*
X1187769Y1289826*
X1187951Y1290201*
X1188224Y1290326*
X1188406*
X1160432Y1306327D02*
X1160523Y1306577D01*
X1160704Y1306827*
X1160886Y1306952*
X1161250*
X1161432Y1306827*
X1161613Y1306577*
X1161704Y1306327*
X1161795Y1305952*
Y1305327*
X1161704Y1304952*
X1161613Y1304702*
X1161432Y1304452*
X1161250Y1304327*
X1160886*
X1160704Y1304452*
X1160523Y1304702*
X1160432Y1304952*
X1159613Y1306952D02*
Y1304327D01*
Y1306952D02*
X1158795D01*
X1158523Y1306827*
X1158432Y1306702*
X1158341Y1306452*
Y1306077*
X1158432Y1305827*
X1158523Y1305702*
X1158795Y1305577*
X1159613*
X1157523Y1306452D02*
X1157341Y1306577D01*
X1157068Y1306952*
Y1304327*
X1155159Y1306577D02*
X1155250Y1306827D01*
X1155523Y1306952*
X1155704*
X1155977Y1306827*
X1156159Y1306452*
X1156250Y1305827*
Y1305202*
X1156159Y1304702*
X1155977Y1304452*
X1155704Y1304327*
X1155613*
X1155341Y1304452*
X1155159Y1304702*
X1155068Y1305077*
Y1305202*
X1155159Y1305577*
X1155341Y1305827*
X1155613Y1305952*
X1155704*
X1155977Y1305827*
X1156159Y1305577*
X1156250Y1305202*
X1155605Y1046075D02*
X1155696Y1046325D01*
X1155878Y1046575*
X1156059Y1046700*
X1156423*
X1156605Y1046575*
X1156787Y1046325*
X1156878Y1046075*
X1156969Y1045700*
Y1045075*
X1156878Y1044700*
X1156787Y1044450*
X1156605Y1044200*
X1156423Y1044075*
X1156059*
X1155878Y1044200*
X1155696Y1044450*
X1155605Y1044700*
X1154787Y1046700D02*
Y1044075D01*
Y1046700D02*
X1153969D01*
X1153696Y1046575*
X1153605Y1046450*
X1153514Y1046200*
Y1045825*
X1153605Y1045575*
X1153696Y1045450*
X1153969Y1045325*
X1154787*
X1152696Y1046200D02*
X1152514Y1046325D01*
X1152241Y1046700*
Y1044075*
X1150514Y1046700D02*
X1151423Y1044950D01*
X1150059*
X1150514Y1046700D02*
Y1044075D01*
X1155888Y1038579D02*
X1155979Y1038829D01*
X1156161Y1039079*
X1156343Y1039204*
X1156707*
X1156888Y1039079*
X1157070Y1038829*
X1157161Y1038579*
X1157252Y1038204*
Y1037579*
X1157161Y1037204*
X1157070Y1036954*
X1156888Y1036704*
X1156707Y1036579*
X1156343*
X1156161Y1036704*
X1155979Y1036954*
X1155888Y1037204*
X1155070Y1039204D02*
Y1036579D01*
Y1039204D02*
X1154252D01*
X1153979Y1039079*
X1153888Y1038954*
X1153797Y1038704*
Y1038329*
X1153888Y1038079*
X1153979Y1037954*
X1154252Y1037829*
X1155070*
X1152979Y1038704D02*
X1152797Y1038829D01*
X1152525Y1039204*
Y1036579*
X1151525Y1039204D02*
X1150525D01*
X1151070Y1038204*
X1150797*
X1150616Y1038079*
X1150525Y1037954*
X1150434Y1037579*
Y1037329*
X1150525Y1036954*
X1150707Y1036704*
X1150979Y1036579*
X1151252*
X1151525Y1036704*
X1151616Y1036829*
X1151707Y1037079*
X1069537Y1106243D02*
Y1103618D01*
X1070173Y1106243D02*
X1068901D01*
X1068082D02*
Y1103618D01*
Y1106243D02*
X1067264D01*
X1066991Y1106118*
X1066901Y1105993*
X1066901D02*
X1066810Y1105743D01*
Y1105368*
X1066901Y1105118*
X1066901D02*
X1066991Y1104993D01*
X1067264Y1104868*
X1068082*
X1065991Y1105743D02*
X1065810Y1105868D01*
X1065537Y1106243*
Y1103618*
X1063628Y1105868D02*
X1063719Y1106118D01*
X1063991Y1106243*
X1064173*
X1064446Y1106118*
X1064628Y1105743*
X1064719Y1105118*
Y1104493*
X1064628Y1103993*
X1064446Y1103743*
X1064173Y1103618*
X1064082*
X1063810Y1103743*
X1063628Y1103993*
X1063537Y1104368*
Y1104493*
X1063628Y1104868*
X1063810Y1105118*
X1064082Y1105243*
X1064173*
X1064446Y1105118*
X1064628Y1104868*
X1064719Y1104493*
X1054635Y1146267D02*
Y1143642D01*
X1055272Y1146267D02*
X1053999D01*
X1053181D02*
Y1143642D01*
Y1146267D02*
X1052363D01*
X1052090Y1146142*
X1051999Y1146017*
X1051908Y1145767*
Y1145392*
X1051999Y1145142*
X1052090Y1145017*
X1052363Y1144892*
X1053181*
X1051090Y1145767D02*
X1050908Y1145892D01*
X1050635Y1146267*
Y1143642*
X1048544Y1146267D02*
X1049453Y1143642D01*
X1049817Y1146267D02*
X1048544D01*
X1051533Y1139845D02*
Y1137220D01*
X1052169Y1139845D02*
X1050897D01*
X1050078D02*
Y1137220D01*
Y1139845D02*
X1049260D01*
X1048987Y1139720*
X1048897Y1139595*
X1048806Y1139345*
Y1138970*
X1048897Y1138720*
X1048987Y1138595*
X1049260Y1138470*
X1050078*
X1047987Y1139345D02*
X1047806Y1139470D01*
X1047533Y1139845*
Y1137220*
X1046260Y1139845D02*
X1046533Y1139720D01*
X1046624Y1139470*
Y1139220*
X1046533Y1138970*
X1046351Y1138845*
X1045987Y1138720*
X1045715Y1138595*
X1045533Y1138345*
X1045442Y1138095*
Y1137720*
X1045533Y1137470*
X1045624Y1137345*
X1045897Y1137220*
X1046260*
X1046533Y1137345*
X1046624Y1137470*
X1046715Y1137720*
Y1138095*
X1046624Y1138345*
X1046442Y1138595*
X1046169Y1138720*
X1045806Y1138845*
X1045624Y1138970*
X1045533Y1139220*
Y1139470*
X1045624Y1139720*
X1045897Y1139845*
X1046260*
X1034013Y1150310D02*
Y1147685D01*
X1034650Y1150310D02*
X1033377D01*
X1032559D02*
Y1147685D01*
Y1150310D02*
X1031741D01*
X1031468Y1150185*
X1031377Y1150060*
X1031286Y1149810*
Y1149435*
X1031377Y1149185*
X1031468Y1149060*
X1031741Y1148935*
X1032559*
X1030468Y1149810D02*
X1030286Y1149935D01*
X1030013Y1150310*
Y1147685*
X1028013Y1149435D02*
X1028104Y1149060D01*
X1028286Y1148810*
X1028559Y1148685*
X1028650*
X1028922Y1148810*
X1029104Y1149060*
X1029195Y1149435*
Y1149560*
X1029104Y1149935*
X1028922Y1150185*
X1028650Y1150310*
X1028559*
X1028286Y1150185*
X1028104Y1149935*
X1028013Y1149435*
Y1148810*
X1028104Y1148185*
X1028286Y1147810*
X1028559Y1147685*
X1028741*
X1029013Y1147810*
X1029104Y1148060*
X1171670Y1188378D02*
X1174295D01*
X1171670D02*
Y1187560D01*
X1171795Y1187287*
X1171920Y1187196*
X1172170Y1187105*
X1172420*
X1172670Y1187196*
X1172795Y1187287*
X1172920Y1187560*
Y1188378*
Y1187742D02*
X1174295Y1187105D01*
X1172170Y1186287D02*
X1172045Y1186105D01*
X1171670Y1185832*
X1171670D02*
X1174295D01*
X1172045Y1183923D02*
X1171795Y1184014D01*
X1171670Y1184287*
Y1184469*
X1171795Y1184742*
X1172170Y1184923*
X1172795Y1185014*
X1173420*
X1173920Y1184923*
X1174170Y1184742*
X1174295Y1184469*
Y1184378*
X1174170Y1184105*
X1173920Y1183923*
X1173545Y1183832*
X1173545D02*
X1173420D01*
X1173420D02*
X1173045Y1183923D01*
X1172795Y1184105*
X1172670Y1184378*
Y1184469*
X1172795Y1184742*
X1173045Y1184923*
X1173420Y1185014*
X1062642Y1354305D02*
Y1351024D01*
Y1354305D02*
X1061619D01*
X1061278Y1354149*
X1061164Y1353992*
X1061051Y1353680*
Y1353211*
X1061164Y1352899*
X1061278Y1352742*
X1061619Y1352586*
X1062642*
X1060028Y1350399D02*
X1057642D01*
X1056164Y1354305D02*
Y1351024D01*
X1056960Y1354305D02*
X1055369D01*
X1054346D02*
X1052755Y1351024D01*
Y1354305D02*
X1054346Y1351024D01*
X1058650Y1337718D02*
Y1334437D01*
Y1337718D02*
X1057627D01*
X1057286Y1337562*
X1057172Y1337406*
X1057059Y1337093*
Y1336625*
X1057172Y1336312*
X1057286Y1336156*
X1057627Y1336000*
X1058650*
X1056036Y1333812D02*
X1053650D01*
X1052968Y1337718D02*
Y1334437D01*
Y1337718D02*
X1051945D01*
X1051604Y1337562*
X1051491Y1337406*
X1051377Y1337093*
Y1336781*
X1051491Y1336468*
X1051604Y1336312*
X1051945Y1336156*
X1052968*
X1052172D02*
X1051377Y1334437D01*
X1050354Y1337718D02*
X1048763Y1334437D01*
Y1337718D02*
X1050354Y1334437D01*
G54D319*
X1165685Y1251024D02*
Y1252992D01*
Y1259803D02*
Y1261771D01*
X1174921Y1271252D02*
Y1273220D01*
X1165685Y1246886D02*
Y1248854D01*
X1174921Y1257303D02*
Y1255335D01*
X1165685D02*
Y1257303D01*
X1174921Y1252992D02*
Y1251024D01*
Y1248854D02*
Y1246886D01*
X1173913Y1175728D02*
X1171945D01*
G54D320*
X1101846Y1345758D02*
G03X1101846I-492J0D01*
G01X1051465Y1117181D02*
G03X1051465I-493J0D01*
G74*
G01X0Y0D02*
M02*
