*
*
G04 PADS 9.5 Build Number: 522968 generated Gerber (RS-274-X) file*
G04 PC Version=2.1*
*
%IN "bitaxeGamma601_V1.0.pcb"*%
*
%MOIN*%
*
%FSLAX35Y35*%
*
*
*
*
G04 PC Standard Apertures*
*
*
G04 Thermal Relief Aperture macro.*
%AMTER*
1,1,$1,0,0*
1,0,$1-$2,0,0*
21,0,$3,$4,0,0,45*
21,0,$3,$4,0,0,135*
%
*
*
G04 Annular Aperture macro.*
%AMANN*
1,1,$1,0,0*
1,0,$2,0,0*
%
*
*
G04 Odd Aperture macro.*
%AMODD*
1,1,$1,0,0*
1,0,$1-0.005,0,0*
%
*
*
G04 PC Custom Aperture Macros*
*
*
*
*
*
*
G04 PC Aperture Table*
*
%ADD010C,0.001*%
%ADD122C,0.00591*%
%ADD123C,0.004*%
%ADD181R,0.03X0.03*%
%ADD185R,0.056X0.062*%
%ADD220R,0.04937X0.01984*%
%ADD224R,0.036X0.032*%
%ADD301C,0.08874*%
%ADD359R,0.09X0.07*%
%ADD623R,0.07394X0.07394*%
%ADD624C,0.07394*%
%ADD651R,0.03205X0.06*%
%ADD652R,0.04346X0.07299*%
%ADD653R,0.07299X0.04346*%
%ADD654R,0.15567X0.15567*%
%ADD655R,0.1163X0.06906*%
%ADD656R,0.06118X0.02181*%
%ADD657O,0.10055X0.04937*%
%ADD658O,0.08874X0.04937*%
%ADD659C,0.03559*%
%ADD660R,0.25803X0.08874*%
%ADD661R,0.25803X0.21866*%
%ADD662R,0.05134X0.08874*%
%ADD663C,0.24622*%
%ADD664R,0.10449X0.11236*%
*
*
*
*
G04 PC Circuitry*
G04 Layer Name bitaxeGamma601_V1.0.pcb - circuitry*
%LPD*%
*
*
G04 PC Custom Flashes*
G04 Layer Name bitaxeGamma601_V1.0.pcb - flashes*
%LPD*%
*
*
G04 PC Circuitry*
G04 Layer Name bitaxeGamma601_V1.0.pcb - circuitry*
%LPD*%
*
G54D10*
G54D122*
G01X1164861Y1350389D02*
X1164672Y1350372D01*
X1164489Y1350323*
X1164317Y1350242*
X1164161Y1350133*
X1164027Y1349999*
X1163918Y1349843*
X1163838Y1349671*
X1163789Y1349487*
X1163772Y1349298*
Y1348117*
X1163789Y1347928*
X1163838Y1347745*
X1163918Y1347573*
X1164027Y1347417*
X1164161Y1347283*
X1164317Y1347174*
X1164489Y1347094*
X1164672Y1347044*
X1164861Y1347028*
X1166044*
X1166233Y1347044*
X1166416Y1347094*
X1166588Y1347174*
X1166744Y1347283*
X1166878Y1347417*
X1166987Y1347573*
X1167067Y1347745*
X1167116Y1347928*
X1167133Y1348117*
Y1349298*
X1167117Y1349487*
X1167067Y1349671*
X1166987Y1349843*
X1166878Y1349999*
X1166744Y1350133*
X1166589Y1350242*
X1166416Y1350323*
X1166233Y1350372*
X1166044Y1350389*
X1164861*
X1163975Y1347491D02*
Y1349925D01*
X1164271Y1347206D02*
Y1350210D01*
X1164566Y1347073D02*
Y1350343D01*
X1164862Y1347028D02*
Y1350389D01*
X1165157Y1347028D02*
Y1350389D01*
X1165453Y1347028D02*
Y1350389D01*
X1165748Y1347028D02*
Y1350389D01*
X1166044Y1347028D02*
Y1350389D01*
X1166339Y1347073D02*
Y1350343D01*
X1166635Y1347206D02*
Y1350210D01*
X1166930Y1347491D02*
Y1349925D01*
X1164861Y1354129D02*
X1164672Y1354112D01*
X1164489Y1354063*
X1164317Y1353983*
X1164161Y1353874*
X1164027Y1353739*
X1163918Y1353584*
X1163838Y1353412*
X1163789Y1353228*
X1163772Y1353039*
Y1351858*
X1163789Y1351669*
X1163838Y1351485*
X1163918Y1351313*
X1164027Y1351158*
X1164161Y1351023*
X1164317Y1350914*
X1164489Y1350834*
X1164672Y1350784*
X1164861Y1350768*
X1166044*
X1166233Y1350784*
X1166416Y1350834*
X1166589Y1350914*
X1166744Y1351023*
X1166878Y1351158*
X1166987Y1351313*
X1167067Y1351485*
X1167117Y1351669*
X1167133Y1351858*
Y1353039*
X1167116Y1353228*
X1167067Y1353412*
X1166987Y1353584*
X1166878Y1353739*
X1166744Y1353874*
X1166588Y1353983*
X1166416Y1354063*
X1166233Y1354112*
X1166044Y1354129*
X1164861*
X1163975Y1351232D02*
Y1353665D01*
X1164271Y1350946D02*
Y1353950D01*
X1164566Y1350813D02*
Y1354084D01*
X1164862Y1350768D02*
Y1354129D01*
X1165157Y1350768D02*
Y1354129D01*
X1165453Y1350768D02*
Y1354129D01*
X1165748Y1350768D02*
Y1354129D01*
X1166044Y1350768D02*
Y1354129D01*
X1166339Y1350813D02*
Y1354084D01*
X1166635Y1350946D02*
Y1353950D01*
X1166930Y1351232D02*
Y1353665D01*
X1165997Y1358270D02*
X1166186Y1358287D01*
X1166369Y1358336*
X1166541Y1358417*
X1166697Y1358526*
X1166831Y1358660*
X1166940Y1358816*
X1167020Y1358988*
X1167069Y1359171*
X1167086Y1359361*
Y1360542*
X1167069Y1360731*
X1167020Y1360914*
X1166940Y1361086*
X1166831Y1361242*
X1166697Y1361376*
X1166541Y1361485*
X1166369Y1361565*
X1166186Y1361614*
X1165997Y1361631*
X1164814*
X1164625Y1361614*
X1164442Y1361565*
X1164270Y1361485*
X1164114Y1361376*
X1163980Y1361242*
X1163871Y1361086*
X1163791Y1360914*
X1163742Y1360731*
X1163725Y1360542*
Y1359361*
X1163742Y1359171*
X1163791Y1358988*
X1163871Y1358816*
X1163980Y1358660*
X1164114Y1358526*
X1164270Y1358417*
X1164442Y1358336*
X1164625Y1358287*
X1164814Y1358270*
X1165997*
X1163928Y1358734D02*
Y1361167D01*
X1164224Y1358449D02*
Y1361452D01*
X1164519Y1358315D02*
Y1361586D01*
X1164815Y1358270D02*
Y1361631D01*
X1165110Y1358270D02*
Y1361631D01*
X1165406Y1358270D02*
Y1361631D01*
X1165701Y1358270D02*
Y1361631D01*
X1165997Y1358270D02*
Y1361631D01*
X1166292Y1358315D02*
Y1361586D01*
X1166588Y1358449D02*
Y1361452D01*
X1166883Y1358734D02*
Y1361167D01*
X1165997Y1354530D02*
X1166186Y1354547D01*
X1166369Y1354596*
X1166541Y1354676*
X1166697Y1354785*
X1166831Y1354919*
X1166940Y1355075*
X1167020Y1355247*
X1167069Y1355430*
X1167086Y1355619*
Y1356801*
X1167069Y1356990*
X1167020Y1357173*
X1166940Y1357345*
X1166831Y1357501*
X1166697Y1357636*
X1166541Y1357745*
X1166369Y1357825*
X1166186Y1357874*
X1165997Y1357891*
X1164814*
X1164625Y1357874*
X1164442Y1357825*
X1164270Y1357745*
X1164114Y1357636*
X1164114D02*
X1163980Y1357501D01*
X1163871Y1357345*
X1163791Y1357173*
X1163742Y1356990*
X1163725Y1356801*
Y1355619*
X1163742Y1355430*
X1163791Y1355247*
X1163871Y1355075*
X1163980Y1354919*
X1164114Y1354785*
X1164270Y1354676*
X1164442Y1354596*
X1164625Y1354547*
X1164814Y1354530*
X1165997*
X1163928Y1354994D02*
Y1357427D01*
X1164224Y1354709D02*
Y1357712D01*
X1164519Y1354575D02*
Y1357846D01*
X1164815Y1354530D02*
Y1357891D01*
X1165110Y1354530D02*
Y1357891D01*
X1165406Y1354530D02*
Y1357891D01*
X1165701Y1354530D02*
Y1357891D01*
X1165997Y1354530D02*
Y1357891D01*
X1166292Y1354575D02*
Y1357846D01*
X1166588Y1354709D02*
Y1357712D01*
X1166883Y1354994D02*
Y1357427D01*
X1007444Y1172233D02*
X1007428Y1172422D01*
X1007378Y1172606*
X1007298Y1172778*
X1007189Y1172933*
X1007054Y1173067*
X1006899Y1173176*
X1006727Y1173257*
X1006543Y1173306*
X1006354Y1173322*
X1005173*
X1004984Y1173306*
X1004800Y1173256*
X1004628Y1173176*
X1004473Y1173067*
X1004338Y1172933*
X1004229Y1172777*
X1004149Y1172605*
X1004100Y1172422*
X1004083Y1172233*
Y1171051*
X1004100Y1170861*
X1004149Y1170678*
X1004229Y1170506*
X1004338Y1170351*
X1004473Y1170216*
X1004628Y1170107*
X1004800Y1170027*
X1004984Y1169978*
X1005173Y1169961*
X1006354*
X1006543Y1169978*
X1006727Y1170027*
X1006899Y1170107*
X1007054Y1170216*
X1007189Y1170350*
X1007298Y1170506*
X1007378Y1170678*
X1007428Y1170861*
X1007444Y1171051*
X1007444D02*
Y1172233D01*
X1004088Y1170999D02*
Y1172284D01*
X1004383Y1170306D02*
Y1172978D01*
X1004679Y1170084D02*
Y1173200D01*
X1004974Y1169980D02*
Y1173303D01*
X1005270Y1169961D02*
Y1173322D01*
X1005565Y1169961D02*
Y1173322D01*
X1005861Y1169961D02*
Y1173322D01*
X1006156Y1169961D02*
Y1173322D01*
X1006452Y1169970D02*
Y1173314D01*
X1006747Y1170037D02*
Y1173247D01*
X1007043Y1170208D02*
Y1173076D01*
X1007338Y1170592D02*
Y1172691D01*
X1011184Y1172233D02*
X1011168Y1172422D01*
X1011119Y1172605*
X1011038Y1172777*
X1010929Y1172933*
X1010795Y1173067*
X1010640Y1173176*
X1010467Y1173256*
X1010284Y1173306*
X1010095Y1173322*
X1008914*
X1008725Y1173306*
X1008541Y1173257*
X1008369Y1173176*
X1008213Y1173067*
X1008079Y1172933*
X1007970Y1172778*
X1007889Y1172606*
X1007840Y1172422*
X1007823Y1172233*
Y1171051*
X1007823D02*
X1007840Y1170861D01*
X1007889Y1170678*
X1007970Y1170506*
X1008079Y1170350*
X1008213Y1170216*
X1008369Y1170107*
X1008541Y1170027*
X1008725Y1169978*
X1008914Y1169961*
X1010095*
X1010284Y1169978*
X1010467Y1170027*
X1010640Y1170107*
X1010795Y1170216*
X1010929Y1170351*
X1011038Y1170506*
X1011119Y1170678*
X1011168Y1170861*
X1011184Y1171051*
Y1172233*
X1007929Y1170592D02*
Y1172691D01*
X1008225Y1170208D02*
Y1173076D01*
X1008520Y1170037D02*
Y1173247D01*
X1008816Y1169970D02*
Y1173314D01*
X1009111Y1169961D02*
Y1173322D01*
X1009407Y1169961D02*
Y1173322D01*
X1009702Y1169961D02*
Y1173322D01*
X1009998Y1169961D02*
Y1173322D01*
X1010293Y1169980D02*
Y1173303D01*
X1010589Y1170084D02*
Y1173200D01*
X1010884Y1170306D02*
Y1172978D01*
X1011180Y1170999D02*
Y1172284D01*
X1007161Y1153320D02*
X1007144Y1153509D01*
X1007095Y1153692*
X1007014Y1153864*
X1006905Y1154020*
X1006771Y1154154*
X1006615Y1154263*
X1006443Y1154343*
X1006260Y1154392*
X1006070Y1154409*
X1004889*
X1004700Y1154392*
X1004517Y1154343*
X1004345Y1154263*
X1004189Y1154154*
X1004055Y1154020*
X1003946Y1153864*
X1003866Y1153692*
X1003817Y1153509*
X1003800Y1153319*
Y1152137*
X1003817Y1151948*
X1003866Y1151765*
X1003946Y1151593*
X1004055Y1151437*
X1004189Y1151303*
X1004345Y1151194*
X1004517Y1151114*
X1004700Y1151064*
X1004889Y1151048*
X1006070*
X1006260Y1151064*
X1006443Y1151114*
X1006615Y1151194*
X1006771Y1151303*
X1006905Y1151437*
X1007014Y1151592*
X1007095Y1151764*
X1007144Y1151948*
X1007161Y1152137*
Y1153320*
X1003804Y1152086D02*
Y1153371D01*
X1004100Y1151392D02*
Y1154064D01*
X1004395Y1151170D02*
Y1154286D01*
X1004691Y1151067D02*
Y1154390D01*
X1004986Y1151048D02*
Y1154409D01*
X1005282Y1151048D02*
Y1154409D01*
X1005577Y1151048D02*
Y1154409D01*
X1005873Y1151048D02*
Y1154409D01*
X1006168Y1151056D02*
Y1154400D01*
X1006464Y1151123D02*
Y1154333D01*
X1006759Y1151295D02*
Y1154162D01*
X1007055Y1151679D02*
Y1153778D01*
X1010901Y1153319D02*
X1010884Y1153509D01*
X1010835Y1153692*
X1010755Y1153864*
X1010646Y1154020*
X1010512Y1154154*
X1010356Y1154263*
X1010184Y1154343*
X1010001Y1154392*
X1009812Y1154409*
X1008630*
X1008441Y1154392*
X1008258Y1154343*
X1008085Y1154263*
X1008085D02*
X1007930Y1154154D01*
X1007795Y1154020*
X1007686Y1153864*
X1007606Y1153692*
X1007557Y1153509*
X1007540Y1153320*
Y1152137*
X1007557Y1151948*
X1007606Y1151764*
X1007686Y1151592*
X1007795Y1151437*
X1007930Y1151303*
X1008086Y1151194*
X1008086D02*
X1008258Y1151114D01*
X1008441Y1151064*
X1008630Y1151048*
X1009812*
X1010001Y1151064*
X1010184Y1151114*
X1010356Y1151194*
X1010512Y1151303*
X1010646Y1151437*
X1010755Y1151593*
X1010835Y1151765*
X1010884Y1151948*
X1010901Y1152137*
Y1153319*
X1007646Y1151679D02*
Y1153778D01*
X1007941Y1151295D02*
Y1154162D01*
X1008237Y1151123D02*
Y1154333D01*
X1008532Y1151056D02*
Y1154400D01*
X1008828Y1151048D02*
Y1154409D01*
X1009123Y1151048D02*
Y1154409D01*
X1009419Y1151048D02*
Y1154409D01*
X1009714Y1151048D02*
Y1154409D01*
X1010010Y1151067D02*
Y1154390D01*
X1010305Y1151170D02*
Y1154286D01*
X1010601Y1151392D02*
Y1154064D01*
X1010896Y1152086D02*
Y1153371D01*
G54D123*
X1074165Y1246768D02*
X1074303Y1246724D01*
X1074339Y1246713*
X1074415Y1246686*
X1074635Y1246604*
X1074975Y1246477*
X1075415Y1246310*
X1075519Y1246271*
X1075723Y1246194*
X1075937Y1246113*
X1076521Y1245891*
X1076722Y1245814*
X1076723*
X1077149Y1245651*
X1079784Y1244646*
Y1244645*
X1079799Y1240885*
X1079805Y1239130*
X1079809Y1238027*
X1079811Y1237056*
Y1236230*
X1079810Y1235956*
X1079809Y1235538*
X1079805Y1234972*
X1079800Y1234652*
X1079798Y1234521*
X1079793Y1234326*
X1079789Y1234175*
X1079781Y1234026*
X1079777Y1233926*
X1079762Y1233763*
Y1233762*
X1079744Y1233674*
X1079744*
X1079723Y1233653*
X1079723*
X1079151Y1233874*
X1078664Y1234069*
X1078549Y1234117*
X1078289Y1234228*
X1078005Y1234361*
X1077953Y1234390*
X1077791Y1234479*
X1077624Y1234592*
X1077484Y1234709*
X1076947*
X1076874Y1234592*
X1076805Y1234479*
X1076750Y1234390*
X1076732Y1234361*
X1076647Y1234228*
X1076577Y1234117*
X1076544Y1234069*
X1076410Y1233874*
X1076259Y1233653*
X1076187Y1233548*
X1076161Y1233509*
X1076073Y1233391*
X1076009Y1233304*
X1075999Y1233290*
X1075999*
X1075967Y1233247*
X1075897Y1233153*
X1075797Y1233016*
X1075694Y1232877*
X1075669Y1232845*
X1075513Y1232647*
X1075342Y1232431*
X1075314Y1232395*
X1075220Y1232277*
X1075083Y1232117*
X1074895Y1231898*
X1074781Y1231765*
X1074754Y1231735*
X1074702Y1231679*
X1074649Y1231625*
X1074588Y1231562*
X1074570Y1231544*
X1074538Y1231510*
X1074490Y1231461*
X1074326Y1231309*
X1074240Y1231253*
X1074240*
X1074240*
X1074232Y1231289*
X1074220Y1231476*
X1074214Y1231657*
X1074209Y1231813*
X1074199Y1232294*
X1074195Y1232614*
X1074191Y1232910*
X1074183Y1233653*
Y1233713*
X1074177Y1234517*
X1074174Y1234963*
X1074172Y1235492*
X1074170Y1235861*
X1074168Y1236571*
X1074167Y1237170*
X1074166Y1237746*
X1074165Y1238325*
Y1239010*
Y1246767*
Y1246768*
X1074165*
X1074285Y1230168D02*
X1074310Y1230167D01*
X1074393Y1230138*
X1074616Y1230055*
X1074918Y1229940*
X1074958Y1229925*
X1075400Y1229755*
X1075773Y1229610*
X1075923Y1229552*
X1076509Y1229324*
X1076662Y1229264*
X1076663*
X1077140Y1229078*
X1079825Y1228026*
X1079825*
X1079825*
Y1220862*
Y1220346*
Y1220299*
X1079824Y1219248*
Y1219111*
X1079823Y1218340*
Y1218029*
X1079821Y1217577*
X1079820Y1217091*
X1079819Y1216964*
X1079817Y1216504*
X1079816Y1216287*
X1079816D02*
X1079815Y1216201D01*
X1079814Y1216060*
X1079812Y1215820*
X1079810Y1215611*
X1079809Y1215528*
X1079807Y1215342*
X1079804Y1215127*
X1079803Y1215052*
X1079802Y1214976*
X1079802D02*
X1079801Y1214926D01*
X1079800Y1214902*
X1079799Y1214844*
X1079797Y1214764*
X1079796Y1214672*
X1079794Y1214603*
Y1214588*
X1079784Y1214273*
Y1214255*
X1079772Y1213999*
X1079758Y1213827*
X1079757Y1213826*
X1079757D02*
X1079741Y1213730D01*
X1079723Y1213700*
X1079723*
X1079645Y1213723*
X1079575Y1213747*
X1079563Y1213751*
X1079431Y1213797*
X1079105Y1213915*
X1078717Y1214058*
X1078688Y1214069*
X1078203Y1214250*
X1077671Y1214450*
X1077113Y1214661*
X1076552Y1214874*
X1076337Y1214957*
X1076010Y1215082*
X1075506Y1215276*
X1075065Y1215448*
X1074707Y1215590*
X1074454Y1215692*
X1074355Y1215737*
X1074328Y1215748*
X1074300Y1215766*
X1074275Y1215794*
X1074253Y1215843*
X1074235Y1215923*
X1074219Y1216044*
X1074206Y1216217*
X1074197Y1216396*
X1074195Y1216451*
X1074186Y1216757*
X1074183Y1216933*
X1074179Y1217145*
X1074177Y1217347*
X1074174Y1217625*
Y1217636*
X1074173Y1217714*
Y1217715*
X1074173*
X1074170Y1218208*
X1074168Y1218904*
X1074166Y1219723*
X1074165Y1220675*
Y1221387*
Y1221771*
Y1222259*
Y1222983*
Y1223020*
Y1223528*
Y1223573*
Y1224046*
Y1224417*
Y1224701*
Y1224717*
Y1224914*
Y1225072*
Y1225189*
Y1225282*
X1074166Y1225365*
Y1225395*
Y1225757*
Y1225851*
X1074167Y1226209*
Y1226418*
Y1226518*
Y1226604*
Y1226654*
Y1226656*
Y1226706*
X1074168Y1226785*
Y1226857*
Y1227047*
X1074169Y1227338*
Y1227425*
X1074171Y1227690*
X1074173Y1228063*
Y1228075*
X1074174Y1228186*
X1074175Y1228288*
X1074176Y1228469*
X1074177Y1228614*
X1074179Y1228737*
X1074183Y1229053*
X1074185Y1229100*
X1074191Y1229402*
X1074197Y1229565*
X1074201Y1229671*
X1074213Y1229870*
X1074227Y1230009*
X1074243Y1230099*
X1074260Y1230141*
X1074263Y1230148*
X1074284Y1230167*
X1074285Y1230168*
X1067029Y1226654D02*
X1067090Y1226604D01*
X1067269Y1226518*
X1067524Y1226418*
X1067973Y1226209*
X1068440Y1225851*
X1068509Y1225757*
X1068776Y1225395*
X1068792Y1225365*
X1068792D02*
X1068832Y1225282D01*
X1068865Y1225189*
X1068892Y1225072*
X1068913Y1224914*
X1068929Y1224717*
X1068930Y1224701*
X1068943Y1224417*
X1068954Y1224046*
X1068961Y1223573*
X1068962Y1223528*
X1068967Y1223020*
X1068968Y1222983*
X1068974Y1222259*
X1068977Y1221771*
X1068979Y1221387*
X1068984Y1220675*
X1068990Y1219723*
X1068995Y1218904*
X1069000Y1218208*
X1069003Y1217715*
X1069003*
Y1217714*
X1068569Y1217754*
X1068095Y1217796*
X1068089*
X1067655Y1217828*
X1067629Y1217829*
X1067268Y1217844*
X1066892*
X1066563Y1217829*
X1066521Y1217828*
X1066094Y1217796*
X1066086*
X1065772Y1217754*
X1065474Y1217714*
X1064884Y1217636*
X1064839Y1217625*
X1063729Y1217347*
X1063217Y1217145*
X1062680Y1216933*
X1062371Y1216757*
X1061835Y1216451*
X1061738Y1216396*
X1061511Y1216217*
X1061293Y1216044*
X1061140Y1215923*
X1061039Y1215843*
X1060977Y1215794*
X1060941Y1215766*
X1060919Y1215748*
X1060904Y1215737*
X1060863Y1215692*
X1060768Y1215590*
X1060636Y1215448*
X1060477Y1215276*
X1060297Y1215082*
X1060180Y1214957*
X1060124Y1214874*
X1059979Y1214661*
X1059835Y1214450*
X1059699Y1214250*
X1059575Y1214069*
X1059568Y1214058*
X1059498Y1213915*
X1059440Y1213797*
X1059418Y1213751*
X1059415Y1213746*
X1059364Y1213642*
X1059262Y1213433*
X1059104Y1213112*
X1059070Y1213041*
X1058945Y1212673*
X1058923Y1212609*
X1058754Y1212109*
X1058686Y1211908*
X1058610Y1211614*
X1058601Y1211572*
X1058548Y1211324*
X1058506Y1211035*
X1058501Y1210970*
X1058481Y1210705*
X1058468Y1210294*
Y1210279*
X1058463Y1209759*
X1058462Y1209472*
Y1209431*
Y1209415*
X1058465Y1208995*
X1058476Y1208682*
X1058478Y1208662*
X1058500Y1208441*
X1058541Y1208237*
X1058602Y1208037*
X1058619Y1207990*
X1058688Y1207805*
X1058696Y1207785*
X1058895Y1207358*
X1059110Y1206897*
X1059223Y1206724*
X1059619Y1206116*
X1059642Y1206092*
X1060170Y1205503*
X1060214Y1205454*
X1060786Y1204999*
X1060881Y1204923*
X1061404Y1204645*
X1061612Y1204535*
X1061725Y1204490*
X1061779Y1204469*
X1062009Y1204391*
X1062009*
X1062052Y1204376*
X1062194Y1204351*
X1062196Y1204376*
X1062198Y1204391*
X1062198*
X1062088Y1204469*
X1062058Y1204490*
X1061974Y1204535*
X1061768Y1204645*
X1061315Y1204923*
X1061192Y1204999*
X1060661Y1205454*
X1060605Y1205503*
X1060099Y1206092*
X1060084Y1206116*
X1059715Y1206724*
X1059642Y1206897*
X1059445Y1207358*
X1059321Y1207785*
X1059315Y1207805*
X1059261Y1207990*
X1059254Y1208037*
X1059223Y1208237*
X1059191Y1208441*
X1059157Y1208662*
X1059156Y1208682*
X1059142Y1208995*
X1059123Y1209415*
X1059122Y1209431*
Y1209472*
X1059136Y1209759*
X1059163Y1210279*
X1059165Y1210294*
X1059244Y1210705*
X1059295Y1210970*
X1059320Y1211035*
X1059432Y1211324*
X1059528Y1211572*
X1059554Y1211614*
X1059743Y1211908*
X1059872Y1212109*
X1060336Y1212609*
X1060407Y1212673*
X1060896Y1213041*
X1060989Y1213112*
X1061627Y1213433*
X1062341Y1213642*
X1063150Y1213746*
X1064075Y1213751*
X1064167Y1213747*
X1064473Y1213723*
X1064757Y1213700*
X1064881Y1213690*
X1065550Y1213589*
X1066212Y1213434*
X1066745Y1213264*
X1066901Y1213214*
X1067653Y1212921*
X1068379Y1212599*
X1068504Y1212543*
X1068706Y1212451*
X1069094Y1212275*
X1069597Y1212050*
X1070054Y1211846*
X1070192Y1211784*
X1070860Y1211487*
X1071580Y1211168*
X1071916Y1211019*
X1072331Y1210835*
X1073092Y1210500*
X1073430Y1210351*
X1073927Y1210133*
X1074056Y1210076*
X1074200Y1210013*
X1074792Y1209754*
X1074837Y1209734*
X1075356Y1209510*
X1075463Y1209465*
X1075769Y1209335*
X1076012Y1209237*
X1076089Y1209205*
X1076329Y1209115*
X1076385Y1209097*
X1076441Y1209079*
X1076503Y1209059*
X1076556Y1209047*
X1076623Y1209032*
X1076703Y1209030*
X1076710Y1209032*
X1076755Y1209047*
X1076769Y1209059*
X1076793Y1209079*
X1076809Y1209097*
X1076826Y1209115*
X1076909Y1209205*
X1076937Y1209237*
X1077027Y1209335*
X1077144Y1209465*
X1077185Y1209510*
X1077387Y1209734*
X1077404Y1209754*
X1077638Y1210013*
X1077695Y1210076*
X1077745Y1210133*
X1077955Y1210351*
X1078098Y1210500*
X1078420Y1210835*
X1078597Y1211019*
X1078757Y1211168*
X1079100Y1211487*
X1079420Y1211784*
X1079487Y1211846*
X1079733Y1212050*
X1080006Y1212275*
X1080218Y1212451*
X1080329Y1212543*
X1080397Y1212599*
X1080837Y1212921*
X1081239Y1213214*
X1081307Y1213264*
X1081576Y1213434*
X1081822Y1213589*
X1081982Y1213690*
X1081998Y1213700*
X1081998*
X1082045Y1213730*
X1082198Y1213826*
X1082198D02*
Y1213827D01*
X1082527Y1213999*
X1083016Y1214255*
X1083016D02*
X1083050Y1214273D01*
X1083845Y1214588*
X1083897Y1214603*
X1084144Y1214672*
X1084544Y1214764*
X1084964Y1214844*
X1085343Y1214902*
X1085624Y1214926*
X1085636Y1214976*
X1085604Y1215052*
X1085572Y1215127*
X1085442Y1215342*
X1085326Y1215528*
X1085283Y1215611*
X1085173Y1215820*
X1085079Y1216060*
X1085062Y1216201*
X1085057Y1216287*
X1085046Y1216504*
X1085033Y1216964*
X1085030Y1217091*
X1085021Y1217577*
X1085015Y1218029*
X1085012Y1218340*
X1085012D02*
X1085005Y1219111D01*
X1085004Y1219248*
X1084998Y1220299*
Y1220346*
X1084997Y1220862*
X1084995Y1221489*
X1084994Y1222814*
X1084993Y1228026*
X1084993*
Y1229078*
Y1229264*
X1084994*
X1085085Y1229324*
X1085436Y1229552*
X1085525Y1229610*
X1085724Y1229755*
X1085959Y1229925*
X1085980Y1229940*
X1086098Y1230055*
X1086184Y1230138*
X1086214Y1230167*
Y1230168*
X1086465Y1230412*
X1086746Y1230836*
X1086807Y1230928*
X1086925Y1231253*
X1086945Y1231309*
X1087000Y1231461*
X1087018Y1231510*
X1087023Y1231544*
X1087026Y1231566*
X1087034Y1231625*
X1087046Y1231711*
X1087073Y1231910*
X1087110Y1232175*
Y1232187*
X1087114Y1232267*
X1087118Y1232483*
X1087120Y1232622*
X1087112Y1232708*
X1087101Y1232827*
X1087083Y1232852*
X1087083D02*
X1086997D01*
X1086997D02*
X1086990Y1232827D01*
X1086961Y1232708*
X1086942Y1232622*
X1086913Y1232483*
X1086803Y1232267*
X1086763Y1232187*
X1086754Y1232175*
X1086549Y1231910*
X1086309Y1231711*
X1086141Y1231625*
X1085959Y1231566*
X1085754Y1231544*
X1085508Y1231562*
X1085203Y1231625*
X1085016Y1231679*
X1084819Y1231735*
X1084732Y1231765*
X1084339Y1231898*
X1083745Y1232117*
X1083326Y1232277*
X1083018Y1232395*
X1082925Y1232431*
X1082369Y1232647*
X1081867Y1232845*
X1081786Y1232877*
X1081439Y1233016*
X1081103Y1233153*
X1080881Y1233247*
X1080792Y1233290*
X1080792*
X1080797Y1233304*
X1080903Y1233391*
X1081072Y1233509*
X1081127Y1233548*
X1081285Y1233653*
X1081285*
X1081317Y1233674*
X1081317*
X1081449Y1233762*
X1081451Y1233763*
X1081703Y1233926*
X1081859Y1234026*
X1082096Y1234175*
X1082335Y1234326*
X1082651Y1234521*
X1082863Y1234652*
X1083386Y1234972*
X1084311Y1235538*
X1084993Y1235956*
Y1245814*
X1084994*
X1085154Y1245891*
X1085622Y1246113*
X1085793Y1246194*
X1085952Y1246271*
X1086021Y1246310*
X1086312Y1246477*
X1086535Y1246604*
X1086678Y1246686*
X1086725Y1246713*
X1086745Y1246724*
X1086803Y1246768*
X1086803*
X1086912Y1246850*
X1087266Y1247118*
X1087405Y1247222*
X1087459Y1247278*
X1087511Y1247332*
X1087750Y1247577*
X1087806Y1247635*
X1087926Y1247759*
X1087950Y1247794*
X1088106Y1248030*
X1088149Y1248096*
X1088206Y1248180*
X1088302Y1248326*
X1088309Y1248344*
X1088332Y1248404*
X1088418Y1248631*
X1088527Y1248917*
X1088530Y1248948*
X1088569Y1249300*
X1088594Y1249523*
X1088593Y1249578*
X1088510*
X1088489Y1249523*
X1088404Y1249300*
X1088173Y1248948*
X1088144Y1248917*
X1087873Y1248631*
X1087548Y1248404*
X1087419Y1248344*
X1087361Y1248326*
X1086889Y1248180*
X1086286Y1248096*
X1085667Y1248099*
X1085623Y1248104*
X1085463Y1248126*
X1085278Y1248164*
X1085053Y1248223*
X1084776Y1248308*
X1084741Y1248320*
X1084431Y1248424*
X1084004Y1248576*
X1083829Y1248640*
X1083482Y1248768*
X1082952Y1248966*
X1082849Y1249005*
X1082136Y1249276*
X1082092Y1249293*
X1081433Y1249545*
X1081196Y1249635*
X1081022Y1249702*
X1080899Y1249750*
X1080895Y1249751*
X1080271Y1249991*
X1079669Y1250223*
X1079566Y1250263*
X1078923Y1250512*
X1078377Y1250724*
X1078357Y1250731*
X1077884Y1250916*
X1077519Y1251060*
X1077277Y1251157*
X1077182Y1251198*
X1077172Y1251202*
X1077106Y1251243*
X1076920Y1251384*
X1076740Y1251538*
X1076708Y1251566*
X1076303*
X1076294Y1251538*
X1076235Y1251384*
X1076180Y1251243*
X1076164Y1251202*
X1076163Y1251198*
X1076144Y1251157*
X1076098Y1251060*
X1076029Y1250916*
X1075942Y1250731*
X1075938Y1250724*
X1075822Y1250512*
X1075687Y1250263*
X1075665Y1250223*
X1075520Y1249991*
X1075371Y1249751*
X1075370Y1249750*
X1075334Y1249702*
X1075284Y1249635*
X1075216Y1249545*
X1075007Y1249293*
X1074993Y1249276*
X1074755Y1249005*
X1074721Y1248966*
X1074540Y1248768*
X1074424Y1248640*
X1074363Y1248576*
X1074221Y1248424*
X1074123Y1248320*
X1074111Y1248308*
X1074028Y1248223*
X1073970Y1248164*
X1073933Y1248126*
X1073911Y1248104*
X1073907Y1248099*
X1073904Y1248096*
X1073840Y1248030*
X1073598Y1247794*
X1073558Y1247759*
X1073419Y1247635*
X1073325Y1247577*
X1073294Y1247595*
X1073157Y1247708*
X1072986Y1247858*
X1072927Y1247909*
X1072621Y1248185*
X1072254Y1248519*
X1071844Y1248897*
X1071776Y1248961*
X1071406Y1249303*
X1070958Y1249722*
X1070615Y1250044*
X1070514Y1250139*
X1070092Y1250538*
X1069709Y1250904*
X1069649Y1250961*
X1069379Y1251221*
X1069354Y1251246*
X1069120Y1251475*
X1069103Y1251493*
X1068949Y1251650*
X1068919Y1251686*
X1068881Y1251731*
X1068856Y1251778*
X1068816Y1251807*
X1068766Y1251843*
X1068766*
X1068699Y1251807*
X1068656Y1251778*
X1068587Y1251731*
X1068520Y1251686*
X1068471Y1251650*
X1068252Y1251493*
X1068228Y1251475*
X1067920Y1251246*
X1067920D02*
X1067886Y1251221D01*
X1067543Y1250961*
X1067471Y1250904*
X1067011Y1250538*
X1066509Y1250139*
X1066390Y1250044*
X1066016Y1249722*
X1066016D02*
X1065528Y1249303D01*
X1065129Y1248961*
X1065062Y1248897*
X1064658Y1248519*
X1064300Y1248185*
X1064005Y1247909*
X1063950Y1247858*
X1063803Y1247708*
X1063693Y1247595*
X1063675Y1247577*
X1063435Y1247332*
X1063384Y1247280*
X1063229Y1247121*
X1062970Y1246857*
X1062862Y1246747*
X1062631Y1246488*
X1062235Y1246043*
X1061873Y1245637*
X1061371Y1245013*
X1060991Y1244539*
X1060636Y1244041*
X1060226Y1243464*
X1060010Y1243112*
X1059586Y1242421*
X1059479Y1242210*
X1059080Y1241422*
X1059042Y1241321*
X1058717Y1240475*
X1058703Y1240429*
X1058664Y1240302*
X1058559Y1239907*
X1058497Y1239670*
X1058453Y1239458*
X1058379Y1239105*
X1058366Y1239041*
X1058329Y1238789*
X1058281Y1238465*
X1058280Y1238450*
X1058254Y1238031*
X1058251Y1237991*
Y1237979*
X1058253Y1237908*
X1058293Y1237444*
X1058312Y1237334*
X1058380Y1236925*
X1058410Y1236797*
X1058501Y1236407*
X1058530Y1236314*
X1058644Y1235944*
X1058692Y1235833*
X1058781Y1235627*
X1058797Y1235590*
X1059008Y1235245*
X1059165Y1235059*
X1059500Y1234662*
X1059594Y1234588*
X1060057Y1234223*
X1060083Y1234203*
X1060536Y1233976*
X1060738Y1233875*
X1060811Y1233856*
X1061169Y1233760*
X1061448Y1233686*
X1062193Y1233645*
X1062464Y1233686*
X1062955Y1233760*
X1063248Y1233856*
X1063297Y1233872*
X1063315Y1233877*
X1063530Y1233947*
X1063751Y1234051*
X1064195Y1234258*
X1064359Y1234362*
X1064808Y1234645*
X1065018Y1234820*
X1065332Y1235083*
X1065556Y1235345*
X1065715Y1235531*
X1065729Y1235548*
X1065757Y1235592*
X1065720*
X1065666Y1235548*
X1065646Y1235531*
X1065458Y1235345*
X1065169Y1235083*
X1064880Y1234820*
X1064614Y1234645*
X1064186Y1234362*
X1063939Y1234258*
X1063444Y1234051*
X1062963Y1233947*
X1062639Y1233877*
X1062590Y1233872*
X1061841Y1233856*
X1061728Y1233875*
X1061131Y1233976*
X1060535Y1234203*
X1060480Y1234223*
X1059908Y1234588*
X1059833Y1234662*
X1059435Y1235059*
X1059320Y1235245*
X1059104Y1235590*
X1059081Y1235627*
X1058989Y1235833*
X1058948Y1235944*
X1058811Y1236314*
X1058789Y1236407*
X1058698Y1236797*
X1058684Y1236925*
X1058641Y1237334*
X1058638Y1237444*
X1058630Y1237908*
X1058628Y1237979*
Y1237991*
X1058629Y1238031*
X1058639Y1238450*
X1058640Y1238465*
X1058666Y1238789*
X1058708Y1239041*
X1058719Y1239105*
X1058807Y1239458*
X1058870Y1239670*
X1058941Y1239907*
X1059074Y1240302*
X1059117Y1240429*
X1059136Y1240475*
X1059491Y1241321*
X1059545Y1241422*
X1059962Y1242210*
X1060097Y1242421*
X1060539Y1243112*
X1060801Y1243464*
X1061232Y1244041*
X1061652Y1244539*
X1062051Y1245013*
X1062630Y1245637*
X1063008Y1246043*
X1063440Y1246488*
X1063709Y1246747*
X1063824Y1246857*
X1064152Y1247121*
X1064446Y1247280*
X1064729Y1247332*
X1065024Y1247278*
X1065138Y1247222*
X1065352Y1247118*
X1065736Y1246850*
X1065838Y1246768*
X1065838*
X1065838*
X1065839Y1246767*
X1066200Y1246475*
X1066764Y1245993*
X1066966Y1245818*
X1067387Y1245446*
X1067771Y1245097*
X1068096Y1244791*
X1068339Y1244550*
X1068479Y1244395*
X1068523Y1244337*
X1068604Y1244229*
X1068676Y1244126*
X1068738Y1244015*
X1068791Y1243886*
X1068837Y1243730*
X1068875Y1243535*
X1068907Y1243292*
X1068933Y1242989*
X1068953Y1242616*
X1068968Y1242162*
X1068980Y1241618*
X1068987Y1240973*
X1068992Y1240216*
X1068995Y1239337*
X1068996Y1239010*
Y1238325*
X1068997Y1237746*
Y1237170*
Y1236571*
Y1235861*
Y1235492*
X1068996Y1234963*
Y1234517*
X1068995Y1233713*
Y1233653*
X1068993Y1232910*
Y1232614*
X1068991Y1232294*
X1068989Y1231813*
Y1231657*
X1068987Y1231476*
X1068986Y1231289*
Y1231253*
X1068986*
X1068984Y1230928*
X1068983Y1230836*
X1068979Y1230412*
X1068977Y1230168*
Y1230167*
X1068976Y1230148*
Y1230141*
Y1230099*
X1068974Y1230009*
X1068972Y1229870*
X1068969Y1229671*
X1068968Y1229565*
X1068964Y1229402*
X1068957Y1229100*
X1068956Y1229053*
X1068945Y1228737*
X1068938Y1228614*
X1068931Y1228469*
X1068914Y1228288*
X1068896Y1228186*
X1068855Y1228075*
X1068851Y1228063*
X1068626Y1227690*
X1068379Y1227425*
X1068297Y1227338*
X1067907Y1227047*
X1067500Y1226857*
X1067286Y1226785*
X1067100Y1226706*
X1067029Y1226654*
X1148269Y1242875D02*
X1148248Y1242848D01*
X1148161Y1242731*
X1148140Y1242701*
X1147986Y1242483*
X1147981Y1242477*
X1147800Y1242216*
X1147771Y1242173*
X1147740Y1242129*
X1147448Y1241701*
X1147332Y1241530*
X1147117Y1241212*
X1146967Y1240987*
X1146758Y1240675*
X1146729Y1240632*
X1146678Y1240555*
X1146469Y1240242*
X1146346Y1240057*
X1146326Y1240027*
X1146314Y1240009*
X1146272Y1239945*
X1146164Y1239781*
X1146013Y1239552*
X1146007Y1239542*
X1145850Y1239300*
X1145761Y1239162*
X1145701Y1239066*
X1145592Y1238890*
X1145582Y1238873*
X1145554Y1238824*
X1145539Y1238799*
X1145514Y1238754*
X1145469Y1238675*
X1145459Y1238659*
X1145407Y1238550*
X1145386Y1238506*
X1145353Y1238398*
X1145352Y1238364*
Y1238322*
X1145374Y1238261*
X1145499Y1238105*
X1145523Y1238074*
X1145789Y1237845*
X1145909Y1237760*
X1146126Y1237608*
X1146494Y1237392*
X1146658Y1237315*
X1146850Y1237226*
X1147339Y1237037*
X1147340Y1237036*
Y1232463*
X1147339Y1231884*
Y1231068*
X1147337Y1230313*
X1147336Y1230062*
Y1229921*
Y1229804*
X1147335Y1229641*
Y1229633*
X1147334Y1229417*
X1147333Y1229122*
Y1229045*
X1147331Y1228743*
X1147330Y1228561*
X1147327Y1228267*
X1147326Y1228198*
X1147323Y1227969*
X1147319Y1227890*
X1147319*
X1147319*
X1147238Y1227920*
X1147146Y1227955*
X1147108Y1227970*
X1147088Y1227978*
X1147088*
X1147022Y1228003*
X1147006Y1228010*
X1146831Y1228078*
X1146688Y1228133*
X1146531Y1228195*
X1146252Y1228303*
X1146073Y1228373*
X1145733Y1228507*
X1145427Y1228626*
X1145146Y1228736*
X1144560Y1228966*
X1144509Y1228986*
X1143440Y1229406*
X1142035Y1229958*
X1141720Y1230082*
X1141720*
X1141724Y1230635*
X1141730Y1231450*
X1141737Y1232414*
X1141738Y1232513*
X1141751Y1234363*
X1141770Y1237054*
Y1237055*
X1141771Y1237201*
X1141772Y1237367*
X1141774Y1237575*
X1141775Y1237804*
X1141777Y1238035*
X1141779Y1238247*
X1141780Y1238420*
Y1238499*
X1141781Y1238613*
Y1238644*
X1141781*
X1141975Y1238838*
X1142291Y1239154*
X1142478Y1239341*
X1142486Y1239349*
X1142674Y1239540*
X1142752Y1239619*
X1142964Y1239845*
X1143079Y1239976*
X1143095Y1239993*
X1143102Y1240002*
X1143117Y1240024*
X1143141Y1240061*
X1143145Y1240068*
X1143036*
X1142952Y1240061*
X1142716Y1240024*
X1142517Y1240002*
X1142435Y1239993*
X1141845Y1240042*
X1141195Y1240229*
X1140728Y1240442*
X1140496Y1240548*
X1139884Y1240918*
X1139759Y1240994*
X1139233Y1241384*
X1138992Y1241562*
X1138699Y1241818*
X1138259Y1242202*
X1138209Y1242246*
X1137921Y1242506*
X1137911Y1242514*
X1137677Y1242706*
X1137635Y1242735*
X1137501Y1242827*
X1137444Y1242844*
X1137419Y1242851*
X1137419*
X1137413Y1242844*
X1137402Y1242827*
X1137402D02*
X1137337Y1242735D01*
X1137318Y1242706*
X1137187Y1242514*
X1137182Y1242506*
X1137006Y1242246*
X1136977Y1242202*
X1136719Y1241818*
X1136547Y1241562*
X1136428Y1241384*
X1136168Y1240994*
X1136117Y1240918*
X1135870Y1240548*
X1135800Y1240442*
X1135658Y1240229*
X1135534Y1240042*
X1135501Y1239993*
X1135489Y1239976*
X1135402Y1239845*
X1135252Y1239619*
X1135200Y1239540*
X1135073Y1239349*
X1135068Y1239341*
X1134944Y1239154*
X1134736Y1238838*
X1134609Y1238644*
X1134609*
X1134588Y1238613*
X1134516Y1238499*
X1134504Y1238420*
X1134589Y1238247*
X1134782Y1238035*
X1135056Y1237804*
X1135387Y1237575*
X1135751Y1237367*
X1136121Y1237201*
X1136511Y1237055*
Y1237054*
Y1232414*
Y1231450*
X1136510Y1230635*
X1136508Y1230082*
X1136508*
X1136507Y1229958*
X1136504Y1229406*
X1136498Y1228986*
Y1228966*
X1136492Y1228736*
X1136489Y1228626*
X1136484Y1228507*
X1136478Y1228373*
X1136473Y1228303*
X1136464Y1228195*
X1136455Y1228133*
X1136446Y1228078*
X1136425Y1228010*
X1136419Y1228003*
X1136399Y1227978*
X1136398*
X1136367Y1227970*
X1136254Y1227955*
X1136155Y1227920*
X1136072Y1227890*
X1136027Y1227874*
X1135968Y1227853*
X1135699Y1227707*
X1135645Y1227677*
X1135513Y1227584*
X1135451Y1227541*
X1135450Y1227540*
X1135389Y1227497*
X1135335Y1227459*
X1135280Y1227407*
X1135145Y1227279*
X1135089Y1227227*
X1135057Y1227188*
X1135017Y1227124*
X1134906Y1226951*
X1134809Y1226798*
X1134797Y1226769*
X1134723Y1226589*
X1134708Y1226553*
X1134703Y1226541*
X1134644Y1226399*
X1134622Y1226346*
X1134611Y1226308*
X1134558Y1226121*
X1134504Y1225930*
X1134496Y1225883*
X1134462Y1225700*
X1134468Y1225679*
X1134485Y1225617*
X1134573Y1225679*
X1134589Y1225700*
X1134727Y1225883*
X1134762Y1225930*
X1134909Y1226121*
X1135127Y1226308*
X1135171Y1226346*
X1135233Y1226399*
X1135604Y1226541*
X1136046Y1226553*
X1136580Y1226443*
X1136648Y1226422*
X1136654Y1226420*
X1136905Y1226336*
X1137087Y1226272*
X1137253Y1226212*
X1137414Y1226153*
X1137628Y1226075*
X1137666Y1226061*
X1137702Y1226048*
X1137718Y1226042*
X1138115Y1225893*
X1138574Y1225719*
X1138978Y1225562*
X1139014Y1225548*
X1139410Y1225392*
X1139734Y1225261*
X1139957Y1225165*
X1139974Y1225156*
X1140054Y1225115*
Y1225114*
X1140049Y1225084*
Y1225083*
X1139946Y1224969*
X1139809Y1224851*
X1139743Y1224794*
X1139695Y1224756*
X1139568Y1224656*
X1139541Y1224635*
X1139470Y1224579*
X1139466Y1224576*
X1139331Y1224476*
X1139139Y1224333*
X1139112Y1224313*
X1138787Y1224083*
X1138783Y1224080*
X1138434Y1223844*
X1138309Y1223764*
X1138105Y1223634*
X1137824Y1223471*
X1137801Y1223459*
X1137576Y1223354*
X1137417Y1223279*
X1136999Y1223115*
X1136634Y1223002*
X1136617Y1222998*
X1136320Y1222926*
X1136084Y1222867*
X1135963Y1222837*
X1135957Y1222835*
X1135945Y1222822*
X1135925Y1222746*
X1135908Y1222595*
X1135894Y1222358*
X1135889Y1222201*
X1135883Y1222026*
X1135873Y1221589*
X1135871Y1221436*
X1135866Y1221037*
X1135862Y1220529*
X1135861Y1220360*
X1135858Y1219620*
X1135857Y1219549*
X1135855Y1218594*
Y1217484*
Y1214540*
Y1214328*
Y1214087*
Y1213562*
Y1213072*
Y1212474*
Y1212160*
X1136183Y1211850*
X1136739Y1211326*
X1137216Y1210876*
X1137557Y1210554*
X1137634Y1210482*
X1137648Y1210469*
X1138012Y1210125*
X1138078Y1210063*
X1138371Y1209788*
X1138465Y1209699*
X1138728Y1209452*
X1138793Y1209391*
X1138801Y1209383*
X1139048Y1209153*
X1139052Y1209149*
X1139213Y1208999*
X1139223Y1208990*
X1139274Y1208944*
X1139302Y1208990*
X1139307Y1208999*
X1139382Y1209149*
X1139384Y1209153*
X1139492Y1209383*
X1139495Y1209391*
X1139524Y1209452*
X1139651Y1209699*
X1139697Y1209788*
X1139867Y1210063*
X1139905Y1210125*
X1140153Y1210469*
X1140162Y1210482*
X1140221Y1210554*
X1140482Y1210876*
X1140879Y1211326*
X1141369Y1211850*
X1141669Y1212160*
X1141966Y1212466*
X1141974Y1212474*
X1142556Y1213072*
X1143024Y1213562*
X1143378Y1213945*
X1143383Y1213951*
X1143426Y1214000*
X1143549Y1214141*
X1143638Y1214243*
X1143710Y1214335*
X1143779Y1214424*
X1143795Y1214445*
X1143852Y1214552*
X1143857Y1214562*
X1143756*
X1143737Y1214552*
X1143622Y1214445*
X1143599Y1214424*
X1143506Y1214335*
X1143360Y1214243*
X1143198Y1214141*
X1142833Y1214000*
X1142520Y1213951*
X1142484Y1213945*
X1142203Y1213967*
X1141824Y1214087*
X1141413Y1214328*
X1141105Y1214539*
Y1214540*
Y1219620*
Y1220360*
Y1220529*
Y1221037*
X1141106Y1221436*
Y1221589*
X1141107Y1222026*
Y1222201*
X1141108Y1222358*
X1141109Y1222595*
X1141110Y1222746*
Y1222822*
Y1222835*
Y1222837*
X1141111Y1222867*
Y1222926*
X1141112Y1222998*
Y1223002*
X1141113Y1223115*
X1141114Y1223279*
X1141115Y1223354*
X1141116Y1223459*
X1141117Y1223471*
X1141119Y1223634*
X1141121Y1223764*
X1141123Y1223844*
X1141130Y1224080*
Y1224083*
X1141141Y1224313*
X1141143Y1224333*
X1141155Y1224476*
X1141172Y1224576*
X1141173Y1224579*
X1141194Y1224635*
X1141219Y1224656*
X1141219*
X1141249Y1224653*
X1141299Y1224635*
X1141300*
X1141318Y1224628*
X1141530Y1224548*
X1141863Y1224423*
X1142297Y1224258*
X1142813Y1224061*
X1143393Y1223840*
X1144017Y1223601*
X1146642Y1222596*
X1146642*
X1146665Y1219644*
X1146683Y1217345*
X1146704Y1214652*
X1146704*
X1146706Y1214451*
X1146708Y1214179*
X1146709Y1214008*
X1146710Y1213950*
X1146712Y1213654*
X1146715Y1213271*
X1146718Y1212889*
X1146723Y1212239*
X1146724Y1212094*
X1147163Y1211683*
X1147673Y1211207*
X1148115Y1210794*
X1148400Y1210527*
X1148507Y1210427*
X1148866Y1210091*
X1149210Y1209770*
X1149431Y1209564*
X1150076Y1208960*
X1150380Y1209564*
X1150488Y1209770*
X1150681Y1210091*
X1150913Y1210427*
X1150990Y1210527*
X1151198Y1210794*
X1151550Y1211207*
X1151982Y1211683*
X1152370Y1212094*
X1152507Y1212239*
X1153140Y1212889*
X1153511Y1213271*
X1153877Y1213654*
X1154154Y1213950*
X1154188Y1213986*
X1154215Y1214016*
X1154250Y1214054*
X1154367Y1214183*
X1154429Y1214252*
X1154520Y1214358*
X1154547Y1214389*
X1154585Y1214434*
X1154632Y1214505*
X1154641Y1214517*
X1154572*
X1154534Y1214505*
X1154437Y1214434*
X1154374Y1214389*
X1154336Y1214358*
X1154184Y1214252*
X1154084Y1214183*
X1153843Y1214054*
X1153740Y1214016*
X1153540Y1213986*
X1153293Y1213950*
X1152825Y1214008*
X1152388Y1214179*
X1152035Y1214451*
X1151850Y1214652*
X1151850*
X1151862Y1217345*
X1151871Y1219644*
X1151884Y1222596*
X1151884*
X1151888Y1223601*
X1151889Y1223840*
X1151890Y1224061*
X1151891Y1224258*
X1151892Y1224423*
Y1224548*
Y1224628*
Y1224635*
X1151893*
X1151948Y1224653*
X1151956Y1224656*
X1152262Y1224756*
X1152359Y1224794*
X1152505Y1224851*
X1152702Y1224969*
X1152891Y1225083*
X1152892Y1225084*
X1152943Y1225114*
Y1225115*
X1153013Y1225156*
X1153021Y1225165*
X1153118Y1225261*
X1153251Y1225392*
X1153409Y1225548*
X1153423Y1225562*
X1153518Y1225719*
X1153623Y1225893*
X1153713Y1226042*
X1153715Y1226044*
X1153739Y1226129*
X1153784Y1226288*
X1153799Y1226338*
X1153849Y1226514*
X1153866Y1226576*
X1153879Y1226669*
X1153894Y1226764*
X1153914Y1226892*
X1153919Y1226927*
X1153946Y1227071*
X1153953Y1227110*
X1153921*
X1153889Y1227071*
X1153805Y1226927*
X1153784Y1226892*
X1153709Y1226764*
X1153641Y1226669*
X1153574Y1226576*
X1153530Y1226514*
X1153361Y1226338*
X1153291Y1226288*
X1152963Y1226129*
X1152611Y1226044*
X1152603Y1226042*
X1152285Y1226048*
X1152241Y1226061*
X1152195Y1226075*
X1151969Y1226153*
X1151806Y1226212*
X1151641Y1226272*
X1151466Y1226336*
X1151237Y1226420*
X1151232Y1226422*
X1151176Y1226443*
X1150879Y1226553*
X1150782Y1226589*
X1150302Y1226769*
X1150225Y1226798*
X1149822Y1226951*
X1149368Y1227124*
X1149203Y1227188*
X1149102Y1227227*
X1148966Y1227279*
X1148641Y1227407*
X1148513Y1227459*
X1148419Y1227497*
X1148326Y1227540*
Y1227541*
X1148344Y1227584*
X1148432Y1227677*
X1148459Y1227707*
X1148623Y1227853*
X1148647Y1227874*
X1148667Y1227890*
X1148667*
X1148763Y1227969*
X1149040Y1228198*
X1149124Y1228267*
X1149497Y1228561*
X1149727Y1228743*
X1150142Y1229045*
X1150248Y1229122*
X1150707Y1229417*
X1151111Y1229633*
X1151124Y1229641*
X1151518Y1229804*
X1151909Y1229921*
X1152483Y1230062*
X1152485Y1230313*
X1152493Y1231068*
X1152502Y1231884*
X1152508Y1232463*
X1152529Y1234403*
X1152538Y1235251*
X1152548Y1236074*
X1152558Y1236758*
X1152562Y1237036*
Y1237037*
X1152566Y1237226*
X1152567Y1237315*
X1152569Y1237392*
X1152574Y1237608*
X1152578Y1237760*
X1152581Y1237845*
X1152589Y1238074*
X1152590Y1238105*
X1152598Y1238261*
X1152602Y1238322*
X1152604Y1238364*
X1152607Y1238398*
X1152617Y1238506*
X1152621Y1238550*
X1152638Y1238659*
X1152641Y1238675*
X1152665Y1238754*
X1152693Y1238799*
X1152726Y1238824*
X1152797Y1238873*
X1152821Y1238890*
X1153023Y1239066*
X1153123Y1239162*
X1153264Y1239300*
X1153494Y1239542*
X1153503Y1239552*
X1153701Y1239781*
X1153819Y1239945*
X1153850Y1240009*
X1153853Y1240013*
X1153864Y1240037*
X1153866Y1240040*
X1153863Y1240063*
X1153725*
X1153613Y1240040*
X1153597Y1240037*
X1153334Y1240013*
X1153031Y1240009*
X1152867Y1240027*
X1152597Y1240057*
X1151963Y1240242*
X1151280Y1240555*
X1151152Y1240632*
X1151080Y1240675*
X1150565Y1240987*
X1150263Y1241212*
X1149835Y1241530*
X1149640Y1241701*
X1149156Y1242129*
X1149106Y1242173*
X1149061Y1242216*
X1148783Y1242477*
X1148776Y1242483*
X1148538Y1242701*
X1148503Y1242731*
X1148369Y1242848*
X1148331Y1242875*
X1148269*
X1122010Y1242842D02*
X1122007Y1242840D01*
X1121988Y1242784*
X1121964Y1242713*
X1121954Y1242681*
X1121954D02*
X1121923Y1242592D01*
X1121884Y1242479*
X1121861Y1242428*
X1121773Y1242228*
X1121739Y1242151*
X1121664Y1242000*
X1121543Y1241756*
X1121540Y1241749*
X1121398Y1241484*
X1121318Y1241334*
X1121247Y1241211*
X1121090Y1240937*
X1121082Y1240924*
X1120923Y1240670*
X1120856Y1240563*
X1120824Y1240515*
X1120747Y1240417*
X1120566Y1240184*
X1120406Y1239980*
X1120273Y1239810*
X1120263Y1239797*
X1120150Y1239683*
X1120073Y1239604*
X1120055Y1239587*
X1119978Y1239508*
X1119958Y1239487*
X1119587Y1239112*
X1119546Y1239078*
X1119011Y1238636*
X1118834Y1238490*
X1118559Y1238307*
X1118351Y1238169*
X1118313Y1238143*
X1118313*
X1118195Y1238064*
X1118043Y1237964*
X1117797Y1237839*
X1117252Y1237565*
X1117043Y1237487*
X1116852Y1237416*
X1116252Y1237233*
X1115612Y1237073*
X1115367Y1237025*
X1114997Y1236954*
X1114690Y1236905*
X1114689Y1236473*
Y1236314*
X1114679Y1236066*
X1114635Y1235847*
X1114580Y1235574*
X1114370Y1235186*
X1114352Y1235169*
X1114041Y1234885*
X1113763Y1234698*
X1114083Y1234697*
X1114269Y1234684*
X1114590Y1234639*
X1114922Y1234573*
X1114952Y1234566*
X1115438Y1234422*
X1115775Y1234276*
X1115888Y1234227*
X1116320Y1233967*
X1116755Y1233624*
X1116853Y1233529*
X1117212Y1233185*
X1117459Y1232912*
X1117710Y1232634*
X1117900Y1232405*
X1118241Y1231991*
X1118270Y1231955*
X1118442Y1231743*
X1118518Y1231654*
X1118758Y1231375*
X1118953Y1231147*
X1118964Y1231136*
X1119176Y1230921*
X1119305Y1230789*
X1119413Y1230679*
X1119809Y1230351*
X1119839Y1230326*
X1120248Y1230073*
X1120458Y1229989*
X1120658Y1229908*
X1120676Y1229904*
X1121089Y1229816*
X1121458Y1229767*
X1121369Y1229816*
X1121212Y1229904*
X1121205Y1229908*
X1121072Y1229989*
X1120973Y1230073*
X1120676Y1230326*
X1120647Y1230351*
X1120414Y1230679*
X1120337Y1230789*
X1120272Y1230921*
X1120184Y1231136*
X1120181Y1231147*
X1120111Y1231375*
X1120052Y1231654*
X1120039Y1231743*
X1120010Y1231955*
X1120005Y1231991*
X1119967Y1232405*
X1119954Y1232634*
X1119938Y1232912*
X1119928Y1233185*
X1119916Y1233529*
X1119913Y1233624*
X1119905Y1233967*
X1119899Y1234227*
X1119897Y1234276*
X1119895Y1234422*
X1119892Y1234566*
Y1234573*
X1119891Y1234639*
X1119890Y1234684*
Y1234697*
Y1234698*
X1119887Y1234885*
X1119882Y1235169*
Y1235186*
X1119877Y1235574*
X1119873Y1235847*
X1119871Y1236066*
X1119869Y1236314*
X1119868Y1236473*
X1119867Y1236905*
Y1236954*
Y1237025*
Y1237073*
X1119868Y1237233*
Y1237416*
X1119869Y1237487*
X1119870Y1237565*
X1119874Y1237839*
X1119879Y1237964*
X1119883Y1238064*
X1119896Y1238143*
X1119896*
X1119896*
X1119902Y1238142*
X1120020Y1238101*
X1120208Y1238031*
X1120209*
X1120265Y1238010*
X1120615Y1237877*
X1121050Y1237709*
X1121548Y1237517*
X1122088Y1237306*
X1122648Y1237087*
X1123209Y1236868*
X1123747Y1236655*
X1124243Y1236459*
X1124675Y1236287*
X1125022Y1236147*
X1125263Y1236049*
X1125376Y1235999*
X1125377Y1235998*
X1125411Y1235971*
X1125438Y1235920*
X1125460Y1235832*
X1125478Y1235693*
X1125491Y1235487*
X1125499Y1235202*
X1125505Y1234824*
X1125507Y1234337*
X1125506Y1233729*
X1125504Y1233154*
X1125503Y1232984*
X1125499Y1232090*
X1125498Y1232007*
X1125493Y1231018*
X1125488Y1230179*
X1125484Y1229484*
X1125481Y1228926*
X1125479Y1228498*
X1125477Y1228258*
X1125477*
X1125477*
X1124739Y1228207*
X1124617Y1228195*
X1124326Y1228165*
X1123865Y1228079*
X1123627Y1228008*
X1123464Y1227959*
X1123412Y1227944*
X1122951Y1227749*
X1122675Y1227600*
X1122464Y1227486*
X1122325Y1227397*
X1122323Y1227396*
X1122199Y1227316*
X1121933Y1227145*
X1121856Y1227089*
X1121359Y1226728*
X1121340Y1226715*
X1120746Y1226248*
X1120668Y1226187*
X1120033Y1225663*
X1119899Y1225552*
X1119304Y1225060*
X1119209Y1224985*
X1118535Y1224457*
X1118216Y1224230*
X1117835Y1223958*
X1117788Y1223929*
X1117315Y1223635*
X1117182Y1223552*
X1116854Y1223382*
X1116555Y1223227*
X1116371Y1223152*
X1115930Y1222972*
X1115778Y1222925*
X1115285Y1222775*
X1114861Y1222683*
X1114597Y1222626*
X1113844Y1222512*
X1113449Y1222463*
X1113502Y1222406*
X1113789Y1222094*
X1113804Y1222076*
X1113977Y1221860*
X1114101Y1221672*
X1114203Y1221519*
X1114389Y1221177*
X1114389*
X1114649Y1220629*
X1114649*
Y1213853*
X1114649*
X1114539Y1213809*
X1114479Y1213785*
X1114157Y1213655*
X1113924Y1213548*
X1113667Y1213365*
X1113434Y1213201*
X1113132Y1212827*
X1113060Y1212738*
X1113030Y1212672*
X1112953Y1212497*
X1112953*
X1112902Y1212384*
X1112867Y1212306*
X1112804Y1212164*
X1112780Y1212077*
X1112725Y1211883*
X1112685Y1211708*
X1112664Y1211620*
X1112652Y1211523*
X1112642Y1211453*
X1112650Y1211373*
X1112651Y1211361*
X1112689Y1211373*
X1112735Y1211453*
X1112775Y1211523*
X1112833Y1211620*
X1112885Y1211708*
X1113039Y1211883*
X1113210Y1212077*
X1113359Y1212164*
X1113598Y1212306*
X1114032Y1212384*
X1114221Y1212365*
X1114514Y1212308*
X1114834Y1212228*
X1114842Y1212226*
X1115036Y1212162*
X1115354Y1212050*
X1115686Y1211928*
X1115778Y1211895*
X1116291Y1211704*
X1116875Y1211485*
X1117514Y1211243*
X1117543Y1211232*
X1118190Y1210986*
X1118886Y1210719*
X1119476Y1210492*
X1119584Y1210450*
X1120268Y1210186*
X1120919Y1209933*
X1121351Y1209763*
X1121520Y1209697*
X1121930Y1209535*
X1122054Y1209486*
X1122505Y1209305*
X1122716Y1209219*
X1122853Y1209163*
X1123083Y1209064*
X1123141Y1209035*
X1123176Y1209017*
X1123230Y1208970*
X1123294Y1208960*
X1123294*
X1123294*
X1123303Y1208970*
X1123345Y1209017*
X1123360Y1209035*
X1123374Y1209064*
X1123420Y1209163*
X1123446Y1209219*
X1123479Y1209305*
X1123549Y1209486*
X1123568Y1209535*
X1123633Y1209697*
X1123659Y1209763*
X1123743Y1209933*
X1123868Y1210186*
X1123998Y1210450*
X1124019Y1210492*
X1124159Y1210719*
X1124323Y1210986*
X1124475Y1211232*
X1124483Y1211243*
X1124664Y1211485*
X1124828Y1211704*
X1124971Y1211895*
X1124996Y1211928*
X1125096Y1212050*
X1125189Y1212162*
X1125241Y1212226*
X1125243Y1212228*
X1125309Y1212308*
X1125356Y1212365*
X1125372Y1212384*
X1125465Y1212497*
X1125466*
X1125466*
X1125730Y1212225*
X1126154Y1211788*
X1126548Y1211382*
X1126890Y1211029*
X1127158Y1210753*
X1127212Y1210698*
X1127305Y1210602*
X1127385Y1210520*
X1127646Y1210255*
X1127812Y1210087*
X1128009Y1209892*
X1128191Y1209712*
X1128361Y1209547*
X1128508Y1209406*
X1128670Y1209257*
X1128750Y1209183*
X1128904Y1209056*
X1128906Y1209055*
X1128961Y1209033*
X1128963Y1209055*
Y1209056*
X1129003Y1209183*
X1129026Y1209257*
X1129098Y1209406*
X1129166Y1209547*
X1129166D02*
X1129258Y1209712D01*
X1129360Y1209892*
X1129484Y1210087*
X1129591Y1210255*
X1129780Y1210520*
X1129838Y1210602*
X1129916Y1210698*
X1129961Y1210753*
X1130204Y1211029*
X1130526Y1211382*
X1130906Y1211788*
X1131323Y1212225*
X1131588Y1212497*
X1131588*
X1131757Y1212672*
X1131822Y1212738*
X1131910Y1212827*
X1132273Y1213201*
X1132433Y1213365*
X1132606Y1213548*
X1132708Y1213655*
X1132832Y1213785*
X1132832*
X1132841Y1213795*
X1132904Y1213864*
X1132986Y1213954*
X1133004Y1213973*
X1133070Y1214045*
X1133138Y1214120*
X1133191Y1214183*
X1133303Y1214316*
X1133326Y1214344*
X1133398Y1214454*
X1133410Y1214472*
X1133410D02*
X1133313D01*
X1133273Y1214454*
X1133103Y1214344*
X1133060Y1214316*
X1132853Y1214183*
X1132741Y1214120*
X1132608Y1214045*
X1132435Y1213973*
X1132334Y1213954*
X1131939Y1213958*
X1131510Y1214060*
X1131435Y1214095*
X1131114Y1214244*
X1130755Y1214466*
X1130728Y1214483*
X1130728*
X1130726Y1214965*
X1130723Y1215580*
X1130720Y1216299*
X1130717Y1217110*
X1130714Y1218000*
X1130710Y1218958*
X1130706Y1219760*
Y1219972*
X1130705Y1220033*
X1130704Y1220588*
X1130703Y1221167*
Y1222179*
X1130707Y1223062*
X1130713Y1223811*
X1130723Y1224419*
X1130735Y1224881*
X1130750Y1225191*
X1130768Y1225343*
X1130786Y1225406*
X1130999Y1225843*
X1131321Y1226223*
X1131711Y1226494*
X1132094Y1226679*
X1131775Y1226822*
X1131550Y1226954*
X1131226Y1227246*
X1131109Y1227396*
Y1227397*
X1131040Y1227486*
X1130953Y1227600*
X1130882Y1227749*
X1130882D02*
X1130789Y1227944D01*
X1130782Y1227959*
X1130771Y1228008*
X1130763Y1228079*
X1130754Y1228165*
X1130754D02*
X1130750Y1228195D01*
Y1228207*
X1130747Y1228258*
X1130747*
X1130733Y1228498*
X1130718Y1228926*
X1130706Y1229484*
X1130698Y1230179*
X1130691Y1231018*
X1130688Y1232007*
Y1232090*
X1130687Y1232984*
Y1233154*
Y1238031*
X1130687*
X1130908Y1238101*
X1131038Y1238142*
X1131042Y1238143*
X1131122Y1238169*
X1131456Y1238307*
X1131717Y1238490*
X1131926Y1238636*
X1132304Y1239078*
X1132321Y1239112*
X1132510Y1239487*
X1132516Y1239499*
X1132570Y1239607*
X1132583Y1239662*
X1132649Y1239949*
X1132706Y1240199*
X1132716Y1240290*
X1132716D02*
X1132569D01*
X1132503Y1240199*
X1132320Y1239949*
X1131952Y1239662*
X1131809Y1239607*
X1131532Y1239499*
X1131431Y1239487*
X1131124Y1239508*
X1130753Y1239587*
X1130695Y1239604*
X1130467Y1239683*
X1130148Y1239797*
X1130113Y1239810*
X1129651Y1239980*
X1129101Y1240184*
X1128481Y1240417*
X1128221Y1240515*
X1128094Y1240563*
X1127810Y1240670*
X1127142Y1240924*
X1127106Y1240937*
X1126388Y1241211*
X1126066Y1241334*
X1125675Y1241484*
X1124984Y1241749*
X1124966Y1241756*
X1124335Y1242000*
X1123947Y1242151*
X1123747Y1242228*
X1123237Y1242428*
X1123110Y1242479*
X1122825Y1242592*
X1122607Y1242681*
X1122529Y1242713*
X1122368Y1242784*
X1122249Y1242840*
X1122246Y1242842*
X1122010*
X1125518Y1227397D02*
X1125518D01*
Y1227396*
Y1220588*
Y1220033*
Y1219972*
Y1219760*
X1125517Y1218958*
X1125514Y1218000*
X1125510Y1217110*
X1125505Y1216299*
X1125498Y1215580*
X1125491Y1214965*
X1125484Y1214483*
X1125484*
Y1214466*
X1125479Y1214244*
X1125475Y1214095*
X1125474Y1214060*
X1125470Y1213958*
Y1213954*
X1125466Y1213864*
X1125458Y1213795*
X1125457Y1213785*
X1125457*
X1125456*
X1125384Y1213809*
X1125266Y1213853*
X1125265*
X1125174Y1213886*
X1124845Y1214010*
X1124414Y1214175*
X1123899Y1214372*
X1123318Y1214596*
X1122688Y1214839*
X1119981Y1215888*
X1119981*
X1119972Y1217241*
X1119960Y1219157*
X1119955Y1219834*
X1119951Y1220570*
Y1220629*
X1119951*
X1119952Y1221177*
X1119952*
X1119957Y1221519*
X1119959Y1221672*
X1119967Y1221860*
X1119976Y1222076*
X1119977Y1222094*
X1120003Y1222406*
X1120012Y1222463*
X1120019Y1222512*
X1120036Y1222626*
X1120045Y1222683*
X1120067Y1222775*
X1120102Y1222925*
X1120118Y1222972*
X1120178Y1223152*
X1120209Y1223227*
X1120274Y1223382*
X1120354Y1223552*
X1120393Y1223635*
X1120537Y1223929*
X1120552Y1223958*
X1120694Y1224230*
X1120839Y1224457*
X1121175Y1224985*
X1121237Y1225060*
X1121644Y1225552*
X1121736Y1225663*
X1122293Y1226187*
X1122358Y1226248*
X1123003Y1226715*
X1123022Y1226728*
X1123710Y1227089*
X1123881Y1227145*
X1124405Y1227316*
X1125088Y1227396*
X1125518Y1227397*
X1165031Y1242861D02*
X1165014Y1242828D01*
X1164990Y1242780*
X1164940Y1242681*
X1164940*
X1164940D02*
X1164925Y1242632D01*
X1164888Y1242538*
X1164841Y1242417*
X1164813Y1242356*
X1164719Y1242144*
X1164710Y1242124*
X1164606Y1241908*
X1164554Y1241799*
X1164479Y1241653*
X1164453Y1241601*
X1164324Y1241387*
X1164162Y1241117*
X1164000Y1240849*
X1163844Y1240589*
X1163811Y1240534*
X1163662Y1240345*
X1163486Y1240122*
X1163333Y1239928*
X1163208Y1239769*
X1163116Y1239652*
X1163075Y1239601*
X1163057Y1239584*
X1163046Y1239573*
X1162977Y1239506*
X1162956Y1239487*
X1162531Y1239077*
X1162244Y1238802*
X1162013Y1238636*
X1161555Y1238307*
X1161363Y1238168*
X1161363D02*
X1161327Y1238143D01*
X1161327*
X1161319Y1238137*
X1161177Y1238063*
X1160734Y1237833*
X1160301Y1237607*
X1159900Y1237465*
X1159189Y1237212*
X1158075Y1236972*
X1157986Y1236953*
X1157680Y1236906*
X1157677Y1236369*
X1157674Y1235668*
X1157670Y1234882*
X1157666Y1234025*
X1157661Y1233111*
X1157658Y1232524*
X1157657Y1232411*
X1157652Y1231361*
X1157647Y1230320*
X1157642Y1229406*
X1157638Y1228626*
X1157635Y1227984*
Y1227917*
X1157635*
X1157386Y1227513*
X1157366Y1227487*
X1157366D02*
X1157153Y1227209D01*
X1157065Y1227138*
X1156823Y1226945*
X1156774Y1226905*
X1156773*
X1156709Y1226853*
X1156480Y1226715*
X1156281Y1226596*
X1156538Y1226490*
X1156737Y1226388*
X1156785Y1226364*
X1156820Y1226333*
X1156993Y1226185*
X1156993*
X1157183Y1226021*
X1157482Y1225554*
X1157674Y1225141*
X1157674*
X1157675Y1221059*
Y1219970*
Y1219461*
Y1219035*
Y1218243*
Y1217585*
Y1217050*
X1157676Y1216628*
Y1216309*
Y1216082*
Y1215937*
Y1215865*
Y1215854*
Y1215805*
Y1215708*
Y1215571*
Y1215402*
Y1215210*
Y1215002*
Y1214787*
Y1214574*
Y1214370*
Y1214183*
Y1214023*
Y1213896*
Y1213812*
Y1213782*
X1157676*
X1157676*
X1157664Y1213779*
X1157663*
X1157450Y1213728*
X1157175Y1213622*
X1156937Y1213530*
X1156468Y1213192*
X1156272Y1212960*
X1156088Y1212743*
X1155855Y1212285*
X1155815Y1212207*
X1155814Y1212203*
X1155767Y1212010*
X1155688Y1211683*
X1155669Y1211605*
X1155654Y1211482*
X1155619Y1211195*
X1155779Y1211482*
X1155853Y1211605*
X1155901Y1211683*
X1156183Y1212010*
X1156512Y1212203*
X1156528Y1212207*
X1156919Y1212285*
X1157364Y1212277*
X1157823Y1212192*
X1157833Y1212189*
X1157846Y1212184*
X1158018Y1212126*
X1158327Y1212014*
X1158744Y1211860*
X1158830Y1211828*
X1159249Y1211671*
X1159593Y1211541*
X1159827Y1211452*
X1160460Y1211211*
X1160546Y1211179*
X1161131Y1210955*
X1161609Y1210772*
X1161822Y1210690*
X1162515Y1210423*
X1162707Y1210348*
X1163194Y1210160*
X1163765Y1209938*
X1163841Y1209909*
X1164439Y1209675*
X1164706Y1209570*
X1164970Y1209466*
X1165417Y1209289*
X1165455Y1209273*
X1165762Y1209149*
X1165935Y1209077*
X1165989Y1209054*
X1166001Y1209049*
X1166080Y1209010*
X1166176Y1208954*
X1166180Y1208952*
X1166312Y1208954*
X1166348Y1209010*
X1166372Y1209049*
Y1209054*
X1166374Y1209077*
X1166397Y1209149*
X1166436Y1209273*
X1166443Y1209289*
X1166522Y1209466*
X1166568Y1209570*
X1166622Y1209675*
X1166741Y1209909*
X1166756Y1209938*
X1166877Y1210160*
X1166981Y1210348*
X1167024Y1210423*
X1167180Y1210690*
X1167228Y1210772*
X1167341Y1210955*
X1167480Y1211179*
X1167502Y1211211*
X1167662Y1211452*
X1167721Y1211541*
X1167817Y1211671*
X1167934Y1211828*
X1167962Y1211860*
X1168094Y1212014*
X1168190Y1212126*
X1168240Y1212184*
X1168245Y1212189*
X1168248Y1212192*
X1168337Y1212277*
X1168345Y1212285*
X1168822Y1212743*
X1169047Y1212960*
X1169363Y1213192*
X1169823Y1213530*
X1169948Y1213622*
X1170142Y1213728*
X1170235Y1213779*
X1170294Y1213812*
X1170295*
X1170494Y1213922*
X1170866Y1214126*
X1170922Y1214156*
X1171662Y1214442*
X1171947Y1214552*
X1173002Y1214796*
X1173592Y1214887*
X1173632Y1214893*
X1173641Y1215479*
Y1215481*
X1173652Y1216118*
X1173660Y1216613*
X1173666Y1216991*
X1173671Y1217273*
X1173674Y1217484*
X1173677Y1217646*
X1173679Y1217782*
X1173681Y1217916*
Y1217919*
X1173682Y1217925*
X1173685Y1218127*
X1173686Y1218198*
Y1218203*
X1173690Y1218400*
X1173696Y1218717*
X1173702Y1219028*
X1173705Y1219130*
X1173708Y1219265*
X1173714Y1219472*
X1173720Y1219712*
X1173723Y1219779*
X1173737Y1220153*
X1173742Y1220273*
X1173760Y1220562*
X1173770Y1220728*
X1173781Y1220833*
X1173807Y1221096*
X1173829Y1221234*
X1173854Y1221395*
X1173906Y1221611*
X1173914Y1221641*
X1173988Y1221853*
X1174025Y1221934*
X1174078Y1222049*
X1174148Y1222175*
X1174188Y1222246*
X1174196Y1222260*
X1174214Y1222282*
X1174432Y1222556*
X1174455Y1222586*
X1174705Y1222801*
X1174796Y1222879*
X1174986Y1222987*
X1175149Y1223080*
X1175153Y1223082*
X1175169Y1223094*
X1175027*
X1174903Y1223082*
X1174893Y1223080*
X1174505Y1222987*
X1174236Y1222879*
X1174042Y1222801*
X1173644Y1222586*
X1173589Y1222556*
X1173211Y1222282*
X1173189Y1222260*
X1173175Y1222246*
X1173102Y1222175*
X1172988Y1222049*
X1172883Y1221934*
X1172815Y1221853*
X1172635Y1221641*
X1172609Y1221611*
X1172434Y1221395*
X1172303Y1221234*
X1172196Y1221096*
X1171990Y1220833*
X1171909Y1220728*
X1171779Y1220562*
X1171545Y1220273*
X1171448Y1220153*
X1171130Y1219779*
X1171069Y1219712*
X1170854Y1219472*
X1170647Y1219265*
X1170488Y1219130*
X1170340Y1219028*
X1169888Y1218717*
X1169235Y1218400*
X1168585Y1218203*
X1168570Y1218198*
X1167935Y1218127*
X1167564*
X1167861Y1217925*
X1167869Y1217919*
X1167875Y1217916*
X1168057Y1217782*
X1168198Y1217646*
X1168302Y1217484*
X1168377Y1217273*
X1168427Y1216991*
X1168458Y1216613*
X1168477Y1216118*
X1168490Y1215481*
Y1215479*
X1168497Y1214893*
Y1214887*
Y1214796*
Y1214552*
Y1214442*
X1168490Y1214156*
X1168489Y1214126*
X1168473Y1213922*
X1168447Y1213812*
X1168447*
X1168411Y1213779*
X1168411*
X1168408*
X1168398Y1213782*
X1168398*
X1168397*
X1168294Y1213812*
X1168050Y1213896*
X1167699Y1214023*
X1167262Y1214183*
X1166761Y1214370*
X1166217Y1214574*
X1165653Y1214787*
X1165090Y1215002*
X1164549Y1215210*
X1164053Y1215402*
X1163623Y1215571*
X1163280Y1215708*
X1163048Y1215805*
X1162946Y1215854*
X1162938Y1215865*
X1162917Y1215937*
X1162900Y1216082*
X1162886Y1216309*
X1162875Y1216628*
X1162867Y1217050*
X1162862Y1217585*
X1162859Y1218243*
X1162858Y1219035*
X1162859Y1219461*
X1162860Y1219970*
X1162864Y1221059*
X1162881Y1225141*
X1162881*
X1162883Y1225554*
X1162884Y1226021*
X1162885Y1226185*
X1162885*
X1162885*
X1163469Y1226333*
X1163579Y1226364*
X1163667Y1226388*
X1163926Y1226490*
X1164196Y1226596*
X1164498Y1226715*
X1164736Y1226853*
X1164825Y1226905*
X1164873Y1226933*
X1164999Y1227005*
X1165119Y1227075*
X1165328Y1227196*
X1165561Y1227375*
X1166116Y1227800*
X1166143Y1227820*
X1166667Y1228326*
X1166930Y1228580*
X1166978Y1228632*
X1167212Y1228894*
X1167243Y1228929*
X1167520Y1229247*
X1167810Y1229585*
X1167876Y1229661*
X1168257Y1230109*
X1168390Y1230268*
X1168520Y1230423*
X1168637Y1230562*
X1169097Y1231107*
X1169113Y1231127*
X1169651Y1231742*
X1169752Y1231858*
X1170226Y1232369*
X1170323Y1232474*
X1170839Y1232986*
X1170884Y1233026*
X1171313Y1233406*
X1171758Y1233748*
X1171767Y1233753*
X1172188Y1234022*
X1172616Y1234242*
X1172645Y1234255*
X1173080Y1234426*
X1173542Y1234567*
X1173652Y1234591*
X1173974Y1234662*
X1174317Y1234698*
X1174599*
X1174449Y1234797*
X1174321Y1234883*
X1174242Y1234943*
X1174029Y1235171*
X1173975Y1235254*
X1173857Y1235434*
X1173814Y1235522*
X1173795Y1235573*
X1173752Y1235686*
X1173730Y1235781*
X1173710Y1235872*
X1173707Y1235907*
X1173700Y1235975*
X1173698Y1236000*
X1173693Y1236046*
X1173686Y1236115*
Y1236142*
X1173681Y1236279*
X1173675Y1236449*
Y1236451*
X1173674Y1236644*
X1173673Y1236855*
Y1236915*
Y1238031*
X1173673*
X1173880Y1238097*
X1174020Y1238141*
X1174028Y1238143*
X1174108Y1238168*
X1174108D02*
X1174442Y1238307D01*
X1174912Y1238636*
X1175054Y1238802*
X1175290Y1239077*
X1175496Y1239487*
X1175502Y1239499*
X1175556Y1239607*
X1175569Y1239662*
X1175635Y1239949*
X1175692Y1240199*
X1175702Y1240290*
X1175555*
X1175489Y1240199*
X1175307Y1239949*
X1174938Y1239662*
X1174795Y1239607*
X1174517Y1239499*
X1174395Y1239487*
X1174096Y1239506*
X1173752Y1239573*
X1173714Y1239584*
X1173662Y1239601*
X1173507Y1239652*
X1173177Y1239769*
X1172741Y1239928*
X1172218Y1240122*
X1171625Y1240345*
X1171123Y1240534*
X1170978Y1240589*
X1170294Y1240849*
X1169592Y1241117*
X1168888Y1241387*
X1168335Y1241601*
X1168200Y1241653*
X1167823Y1241799*
X1167544Y1241908*
X1166991Y1242124*
X1166939Y1242144*
X1166401Y1242356*
X1166249Y1242417*
X1165948Y1242538*
X1165718Y1242632*
X1165596Y1242681*
X1165364Y1242780*
X1165268Y1242828*
X1165216Y1242861*
X1165031*
X1162885Y1238143D02*
X1162895Y1238141D01*
X1163019Y1238097*
X1163193Y1238031*
X1163194*
X1163269Y1238002*
X1163624Y1237867*
X1164062Y1237698*
X1164561Y1237504*
X1165102Y1237293*
X1165662Y1237074*
X1166067Y1236915*
X1166221Y1236855*
X1166757Y1236644*
X1167245Y1236451*
X1167250Y1236449*
X1167677Y1236279*
X1168019Y1236142*
X1168086Y1236115*
X1168254Y1236046*
X1168360Y1236000*
X1168396Y1235975*
X1168444Y1235907*
X1168452Y1235872*
X1168475Y1235781*
X1168483Y1235686*
X1168493Y1235573*
X1168494Y1235522*
X1168496Y1235434*
X1168501Y1235254*
Y1235171*
Y1234943*
Y1234883*
X1168502Y1234797*
X1168501Y1234698*
Y1234662*
X1168500Y1234591*
X1168499Y1234567*
X1168493Y1234426*
X1168486Y1234255*
X1168485Y1234242*
X1168476Y1234022*
X1168465Y1233753*
X1168464Y1233748*
X1168421Y1233406*
X1168374Y1233026*
X1168365Y1232986*
X1168242Y1232474*
X1168217Y1232369*
X1168025Y1231858*
X1167982Y1231742*
X1167667Y1231127*
X1167657Y1231107*
X1167318Y1230562*
X1167231Y1230423*
X1167125Y1230268*
X1167003Y1230109*
X1166657Y1229661*
X1166598Y1229585*
X1166289Y1229247*
X1165999Y1228929*
X1165961Y1228894*
X1165682Y1228632*
X1165626Y1228580*
X1165355Y1228326*
X1164720Y1227820*
X1164695Y1227800*
X1164046Y1227375*
X1163681Y1227196*
X1163436Y1227075*
X1163251Y1227005*
X1163038Y1226933*
X1162923Y1226905*
X1162923*
X1162911Y1226945*
X1162896Y1227138*
X1162894Y1227209*
X1162883Y1227487*
X1162882Y1227513*
X1162873Y1227917*
X1162871Y1227984*
X1162862Y1228626*
X1162854Y1229406*
X1162849Y1230320*
X1162845Y1231361*
X1162844Y1232411*
Y1232524*
Y1233111*
X1162846Y1234025*
X1162848Y1234882*
X1162851Y1235668*
X1162855Y1236369*
X1162860Y1236906*
Y1236953*
Y1236972*
X1162863Y1237212*
X1162866Y1237465*
X1162868Y1237607*
X1162872Y1237833*
X1162878Y1238063*
X1162884Y1238137*
X1162885Y1238143*
X1162885*
X1162885*
X1092484Y1243023D02*
X1092477Y1243012D01*
X1092388Y1242880*
X1092384Y1242874*
X1092251Y1242676*
X1092210Y1242615*
X1092079Y1242418*
X1092019Y1242328*
X1091974Y1242262*
X1091687Y1241831*
X1091584Y1241676*
X1091359Y1241339*
X1091219Y1241130*
X1091001Y1240802*
X1090934Y1240701*
X1090781Y1240471*
X1090703Y1240354*
X1090656Y1240283*
X1090633Y1240248*
X1090626Y1240238*
X1090626*
X1090623Y1240233*
X1090614Y1240220*
X1090595Y1240192*
X1090563Y1240144*
X1090537Y1240106*
X1090415Y1239921*
X1090255Y1239681*
X1090087Y1239428*
X1089940Y1239209*
X1089845Y1239065*
X1089835Y1239051*
X1089759Y1238936*
X1089758*
X1089521Y1238580*
X1089719Y1238327*
X1089895Y1238143*
X1090247Y1237878*
X1090677Y1237631*
X1091136Y1237434*
X1091556Y1237284*
X1091556*
Y1232789*
Y1232526*
Y1232128*
Y1231607*
Y1231215*
X1091555Y1230827*
X1091554Y1230444*
X1091551Y1230173*
X1091548Y1229801*
X1091545Y1229634*
X1091539Y1229272*
X1091536Y1229197*
X1091524Y1228848*
X1091523Y1228844*
X1091506Y1228577*
X1091501Y1228503*
X1091486Y1228370*
X1091471Y1228236*
X1091467Y1228215*
X1091444Y1228100*
X1091430Y1228028*
X1091425Y1228011*
X1091402Y1227937*
X1091399Y1227930*
X1091379Y1227866*
X1091316Y1227737*
X1091239Y1227626*
X1091179Y1227558*
X1091147Y1227521*
X1091039Y1227407*
X1090984Y1227352*
X1090810Y1227212*
X1090727Y1227144*
X1090468Y1226989*
X1090401Y1226958*
X1090207Y1226870*
X1090160Y1226848*
X1090201Y1226830*
X1090210Y1226826*
X1090355Y1226760*
X1090493Y1226698*
X1090517Y1226687*
X1090658Y1226592*
X1090885Y1226440*
X1090962Y1226359*
X1091210Y1226096*
X1091213Y1226093*
X1091363Y1225839*
X1091443Y1225703*
X1091451Y1225680*
X1091463Y1225625*
X1091471Y1225588*
X1091486Y1225465*
X1091489Y1225441*
X1091504Y1225230*
X1091508Y1225147*
X1091517Y1224946*
X1091525Y1224671*
X1091528Y1224577*
X1091537Y1224115*
X1091538Y1224035*
X1091544Y1223549*
X1091547Y1223238*
X1091550Y1222868*
X1091553Y1222280*
X1091554Y1222064*
X1091557Y1221160*
Y1221125*
X1091559Y1220043*
Y1219967*
X1091561Y1218806*
X1091563Y1214630*
X1091563*
X1091564Y1214399*
Y1214187*
Y1214047*
Y1214000*
Y1213690*
Y1213197*
X1091565Y1212605*
Y1212589*
Y1212179*
X1091894Y1211867*
X1092554Y1211239*
X1093126Y1210695*
X1093222Y1210604*
X1093276Y1210552*
X1093620Y1210227*
X1093705Y1210147*
X1094050Y1209822*
X1094092Y1209782*
X1094424Y1209473*
X1094426Y1209471*
X1094601Y1209310*
X1094683Y1209235*
X1094805Y1209125*
X1094855Y1209080*
X1094919Y1209029*
X1094924Y1209025*
X1094924D02*
X1094924D01*
X1094924*
X1094933Y1209029*
X1094966Y1209080*
X1094995Y1209125*
X1095041Y1209235*
X1095073Y1209310*
X1095139Y1209471*
X1095140Y1209473*
X1095307Y1209782*
X1095328Y1209822*
X1095548Y1210147*
X1095602Y1210227*
X1095857Y1210552*
X1095898Y1210604*
X1095970Y1210695*
X1096439Y1211239*
X1097018Y1211867*
X1097319Y1212179*
X1097715Y1212589*
X1097731Y1212605*
X1098306Y1213197*
X1098778Y1213690*
X1099065Y1214000*
X1099083Y1214020*
X1099127Y1214067*
X1099142Y1214083*
X1099184Y1214130*
X1099277Y1214237*
X1099398Y1214374*
X1099430Y1214414*
X1099470Y1214465*
X1099544Y1214560*
X1099564Y1214607*
X1099496*
X1099430Y1214560*
X1099299Y1214465*
X1099234Y1214414*
X1099180Y1214374*
X1098994Y1214237*
X1098815Y1214130*
X1098686Y1214083*
X1098641Y1214067*
X1098418Y1214020*
X1098199Y1214000*
X1097773Y1214047*
X1097367Y1214187*
X1097048Y1214399*
X1096806Y1214630*
X1096806*
X1096807Y1218806*
Y1219967*
Y1220043*
X1096808Y1221125*
Y1221160*
X1096811Y1222064*
X1096812Y1222280*
X1096816Y1222868*
X1096819Y1223238*
X1096823Y1223549*
X1096829Y1224035*
X1096830Y1224115*
X1096840Y1224577*
X1096841Y1224671*
X1096850Y1224946*
X1096857Y1225147*
X1096862Y1225230*
X1096874Y1225441*
X1096875Y1225465*
X1096891Y1225588*
X1096896Y1225625*
X1096922Y1225680*
X1096933Y1225703*
X1096996Y1225839*
X1097174Y1226093*
X1097176Y1226096*
X1097400Y1226359*
X1097482Y1226440*
X1097637Y1226592*
X1097758Y1226687*
X1097772Y1226698*
X1097851Y1226760*
X1098011Y1226826*
X1098051Y1226830*
X1098054Y1226848*
X1098057Y1226870*
X1097914Y1226958*
X1097869Y1226989*
X1097643Y1227144*
X1097544Y1227212*
X1097405Y1227352*
X1097351Y1227407*
X1097238Y1227521*
X1097202Y1227558*
X1097158Y1227626*
X1097087Y1227737*
X1097003Y1227866*
X1096962Y1227930*
X1096959Y1227937*
X1096929Y1228011*
X1096924Y1228028*
X1096903Y1228100*
X1096881Y1228215*
X1096879Y1228236*
X1096863Y1228370*
X1096854Y1228503*
X1096848Y1228577*
X1096837Y1228844*
Y1228848*
X1096827Y1229197*
X1096826Y1229272*
X1096820Y1229634*
X1096819Y1229801*
X1096815Y1230173*
X1096814Y1230444*
X1096812Y1230827*
X1096811Y1231215*
X1096810Y1231607*
X1096809Y1232128*
Y1232526*
Y1232789*
X1096808Y1233597*
X1096807Y1237284*
X1096807*
Y1237434*
Y1237631*
Y1237878*
Y1238143*
Y1238327*
X1096806Y1238580*
Y1238936*
X1096807*
X1097021Y1239051*
X1097046Y1239065*
X1097228Y1239209*
X1097460Y1239428*
X1097700Y1239681*
X1097905Y1239921*
X1098033Y1240106*
X1098048Y1240144*
X1098027Y1240192*
X1097921Y1240220*
X1097705Y1240233*
X1097352Y1240238*
X1097331*
X1096934Y1240248*
X1096634Y1240283*
X1096367Y1240354*
X1096068Y1240471*
X1095602Y1240701*
X1095437Y1240802*
X1094902Y1241130*
X1094616Y1241339*
X1094616D02*
X1094154Y1241676D01*
X1093969Y1241831*
X1093455Y1242262*
X1093376Y1242328*
X1093274Y1242418*
X1093048Y1242615*
X1092978Y1242676*
X1092744Y1242874*
X1092737Y1242880*
X1092571Y1243012*
X1092553Y1243023*
X1092484*
X1111643Y1242942D02*
X1109967Y1242964D01*
X1108292Y1242987*
X1108291*
X1108291*
Y1242992*
Y1243027*
Y1243078*
Y1243138*
Y1243174*
Y1243512*
Y1244007*
Y1244652*
X1108290Y1245444*
Y1246082*
Y1246377*
Y1247447*
X1108289Y1248102*
X1107928*
X1107693Y1247447*
X1107230Y1246377*
X1107068Y1246082*
X1106719Y1245444*
X1106162Y1244652*
X1105563Y1244007*
X1104925Y1243512*
X1104253Y1243174*
X1104134Y1243138*
X1103820Y1243078*
X1103416Y1243027*
X1102972Y1242992*
X1102876Y1242987*
X1102871*
X1102869*
X1102456Y1242964*
X1102044Y1242942*
X1102042*
X1101311Y1241672*
X1101275Y1241609*
X1101100Y1241304*
X1100892Y1240934*
X1100728Y1240634*
X1100619Y1240428*
X1100580Y1240339*
X1100607Y1240327*
X1100766Y1240307*
X1101046Y1240291*
X1101418Y1240280*
X1101854Y1240276*
X1103128*
X1103128*
X1103128*
X1103105Y1234267*
Y1234144*
X1103101Y1233097*
X1103100Y1232922*
X1103097Y1232087*
X1103095Y1231735*
X1103093Y1231219*
X1103089Y1230707*
X1103088Y1230482*
X1103082Y1229864*
Y1229840*
X1103076Y1229353*
X1103072Y1229133*
X1103068Y1228938*
X1103058Y1228607*
X1103057Y1228588*
X1103045Y1228349*
X1103035Y1228205*
X1103031Y1228153*
X1103013Y1228006*
X1103009Y1227986*
X1103001Y1227945*
X1102992Y1227897*
X1102967Y1227815*
X1102938Y1227747*
X1102905Y1227684*
X1102870Y1227627*
X1102775Y1227474*
X1102619Y1227295*
X1102431Y1227080*
X1102323Y1227003*
X1102083Y1226833*
X1102032Y1226797*
X1101826Y1226690*
X1101803Y1226678*
X1102162Y1226468*
X1102200Y1226437*
X1102547Y1226156*
X1102595Y1226089*
X1102813Y1225785*
X1102852Y1225732*
X1102984Y1225387*
X1103038Y1225247*
X1103044Y1225208*
X1103059Y1224997*
X1103072Y1224633*
X1103084Y1224123*
X1103095Y1223476*
X1103104Y1222699*
X1103111Y1221800*
X1103111D02*
X1103116Y1220788D01*
X1103119Y1219941*
X1103120Y1219668*
X1103121Y1218859*
Y1218451*
Y1217930*
Y1217142*
X1103122Y1216481*
Y1215937*
Y1215497*
Y1215150*
Y1214883*
Y1214685*
Y1214544*
Y1214447*
Y1214384*
Y1214341*
Y1214333*
Y1214089*
Y1213915*
Y1213839*
Y1213838*
X1103123Y1213567*
Y1213263*
Y1212950*
Y1212753*
Y1212185*
Y1212006*
X1103564Y1211596*
X1104196Y1211008*
X1104803Y1210443*
X1104819Y1210428*
X1105363Y1209921*
X1105854Y1209465*
X1106132Y1209206*
X1106515Y1208849*
X1106651Y1209206*
X1106769Y1209465*
X1107043Y1209921*
X1107405Y1210428*
X1107416Y1210443*
X1107873Y1211008*
X1108394Y1211596*
X1108791Y1212006*
X1108964Y1212185*
X1109563Y1212753*
X1109775Y1212950*
X1110097Y1213263*
X1110391Y1213567*
X1110636Y1213838*
X1110646Y1213848*
X1110654Y1213858*
X1110719Y1213935*
X1110850Y1214090*
X1110853Y1214093*
X1110999Y1214287*
X1111001Y1214290*
X1111075Y1214418*
X1111074Y1214433*
X1110973*
X1110952Y1214418*
X1110773Y1214290*
X1110769Y1214287*
X1110506Y1214093*
X1110501Y1214090*
X1110225Y1213935*
X1109960Y1213858*
X1109813Y1213848*
X1109648Y1213838*
X1109585Y1213839*
X1109151Y1213915*
X1108745Y1214089*
X1108432Y1214333*
X1108425Y1214341*
X1108397Y1214384*
X1108374Y1214447*
X1108354Y1214544*
X1108337Y1214685*
X1108324Y1214883*
X1108315Y1215150*
X1108307Y1215497*
X1108303Y1215937*
X1108301Y1216481*
X1108300Y1217142*
X1108302Y1217930*
X1108304Y1218451*
X1108305Y1218859*
X1108308Y1219668*
X1108309Y1219941*
X1108313Y1220788*
X1108317Y1221800*
X1108317D02*
X1108321Y1222699D01*
X1108324Y1223476*
X1108327Y1224123*
X1108329Y1224633*
X1108331Y1224997*
Y1225208*
X1108332Y1225247*
Y1225387*
X1108332*
X1108535Y1225732*
X1108566Y1225785*
X1108791Y1226089*
X1108871Y1226156*
X1109208Y1226437*
X1109258Y1226468*
X1109596Y1226678*
X1109615Y1226690*
X1109407Y1226797*
X1109337Y1226833*
X1109080Y1227003*
X1109000Y1227080*
X1108776Y1227295*
X1108642Y1227474*
X1108527Y1227627*
X1108500Y1227684*
X1108471Y1227747*
X1108440Y1227815*
X1108401Y1227897*
X1108379Y1227945*
X1108371Y1227986*
X1108370Y1228006*
X1108357Y1228153*
X1108353Y1228205*
X1108347Y1228349*
X1108337Y1228588*
X1108336Y1228607*
X1108328Y1228938*
X1108323Y1229133*
X1108320Y1229353*
X1108312Y1229840*
Y1229864*
X1108305Y1230482*
X1108303Y1230707*
X1108300Y1231219*
X1108297Y1231735*
X1108296Y1232087*
X1108293Y1232922*
Y1233097*
X1108292Y1234144*
Y1234267*
X1108291Y1240276*
X1108291*
X1108292*
X1109491*
X1109495Y1240280*
X1109503Y1240291*
X1109516Y1240307*
X1109532Y1240327*
X1109543Y1240339*
X1109614Y1240428*
X1109780Y1240634*
X1110022Y1240934*
X1110321Y1241304*
X1110567Y1241609*
X1110618Y1241672*
X1111643Y1242942*
X1092644Y1250264D02*
X1091106Y1248726D01*
X1091106*
X1092622Y1247208*
X1093004Y1246828*
X1093030Y1246802*
X1093376Y1246459*
X1093400Y1246436*
X1093696Y1246146*
X1093715Y1246127*
X1093947Y1245903*
X1093962Y1245889*
X1094114Y1245746*
X1094123Y1245739*
X1094181Y1245690*
X1094240Y1245739*
X1094248Y1245746*
X1094401Y1245889*
X1094415Y1245903*
X1094647Y1246127*
X1094666Y1246146*
X1094963Y1246436*
X1094986Y1246459*
X1095332Y1246802*
X1095359Y1246828*
X1095740Y1247208*
X1097256Y1248726*
X1097256*
X1095719Y1250264*
X1092644*
X1065009Y1247921D02*
X1060470Y1243614D01*
X1064678Y1248094D02*
X1061182Y1244527D01*
X1060741Y1243850D02*
X1059088Y1240913D01*
X1064725Y1248102D02*
X1068718Y1251515D01*
X1068788Y1251586*
X1064788Y1247925D02*
X1068910Y1251385D01*
X1064816Y1247393D02*
X1069123Y1251212D01*
X1065013Y1247771D02*
X1068107Y1250310D01*
X1065170Y1247267D02*
X1069288Y1251003D01*
X1065489Y1247216D02*
X1069607Y1250952D01*
X1065631Y1246956D02*
X1069749Y1250692D01*
X1065871Y1246787D02*
X1069989Y1250523D01*
X1066166Y1246739D02*
X1070131Y1250263D01*
X1066284Y1246472D02*
X1070257Y1250117D01*
X1066536Y1246350D02*
X1070422Y1249909D01*
X1066623Y1246121D02*
X1070741Y1249858D01*
X1066977Y1246058D02*
X1070883Y1249598D01*
X1067198Y1245862D02*
X1071123Y1249428D01*
X1067395Y1245704D02*
X1071265Y1249169D01*
X1067954Y1245007D02*
X1071966Y1248637D01*
X1067615Y1245358D02*
X1071588Y1249003D01*
X1067867Y1245236D02*
X1071753Y1248795D01*
X1068308Y1244944D02*
X1072214Y1248484D01*
X1068529Y1244747D02*
X1072454Y1248314D01*
X1068725Y1244590D02*
X1072595Y1248054D01*
X1069214Y1243763D02*
X1073332Y1247499D01*
X1068875Y1244114D02*
X1072847Y1247759D01*
X1069127Y1243991D02*
X1073013Y1247551D01*
X1069568Y1243700D02*
X1073473Y1247239D01*
X1069788Y1243503D02*
X1073714Y1247070D01*
X1069985Y1243346D02*
X1073855Y1246810D01*
X1068745Y1244247D02*
X1072718Y1247893D01*
X1069072Y1243535D02*
X1074095Y1243547D01*
X1069178Y1243771D02*
X1074123Y1243814D01*
X1069162Y1244007D02*
X1074115Y1244086D01*
X1069131Y1244145D02*
X1074155Y1244157D01*
X1069237Y1244381D02*
X1074080Y1244397D01*
X1069221Y1244617D02*
X1074099Y1244641D01*
X1069013Y1244877D02*
X1074036Y1244889D01*
X1069119Y1245114D02*
X1074143Y1245125D01*
X1069103Y1245350D02*
X1074127Y1245362D01*
X1069068Y1245602D02*
X1074092Y1245614D01*
X1069174Y1245838D02*
X1074048Y1245854D01*
X1069158Y1246074D02*
X1074158Y1246070D01*
X1068985Y1246283D02*
X1074009Y1246295D01*
X1069092Y1246519D02*
X1074115Y1246531D01*
X1069076Y1246755D02*
X1074099Y1246767D01*
X1068993Y1242743D02*
X1074017Y1242755D01*
X1069052Y1243354D02*
X1074076Y1243365D01*
X1069084Y1243216D02*
X1074036Y1243295D01*
X1069099Y1242980D02*
X1074044Y1243023D01*
X1069033Y1241964D02*
X1074056Y1241976D01*
X1069092Y1242574D02*
X1074115Y1242586D01*
X1069123Y1242436D02*
X1074076Y1242515D01*
X1069139Y1242200D02*
X1074084Y1242243D01*
X1069092Y1241275D02*
X1074115Y1241287D01*
X1069182Y1241747D02*
X1074135Y1241826D01*
X1069198Y1241511D02*
X1074143Y1241554D01*
X1069131Y1240495D02*
X1074155Y1240507D01*
X1069190Y1241106D02*
X1074056Y1241114D01*
X1069221Y1240968D02*
X1074088Y1241015D01*
X1069237Y1240732D02*
X1074017Y1240759D01*
X1069107Y1239645D02*
X1074131Y1239657D01*
X1069166Y1240255D02*
X1074033Y1240263D01*
X1069214Y1239881D02*
X1073993Y1239909D01*
X1069198Y1240117D02*
X1074064Y1240165D01*
X1069052Y1239444D02*
X1074076Y1239456D01*
X1069029Y1238594D02*
X1074052Y1238606D01*
X1069088Y1239204D02*
X1073954Y1239212D01*
X1069135Y1238830D02*
X1073914Y1238858D01*
X1069119Y1239066D02*
X1073985Y1239114D01*
X1069139Y1238350D02*
X1074162Y1238362D01*
X1069115Y1237499D02*
X1074139Y1237511D01*
X1069174Y1238110D02*
X1074040Y1238117D01*
X1069221Y1237736D02*
X1074001Y1237763D01*
X1069206Y1237972D02*
X1074072Y1238019D01*
X1069099Y1236724D02*
X1074123Y1236736D01*
X1069158Y1237334D02*
X1074025Y1237342D01*
X1069206Y1236960D02*
X1073985Y1236988D01*
X1069190Y1237196D02*
X1074056Y1237243D01*
X1069210Y1236480D02*
X1074099Y1236488D01*
X1069186Y1235629D02*
X1074115Y1235751D01*
X1069245Y1236239D02*
X1074111Y1236247D01*
X1069292Y1235865D02*
X1074072Y1235893D01*
X1069277Y1236102D02*
X1074143Y1236149D01*
X1069084Y1235015D02*
X1074107Y1235027D01*
X1069143Y1235625D02*
X1074009Y1235633D01*
X1069190Y1235251D02*
X1073970Y1235279D01*
X1069174Y1235488D02*
X1074040Y1235535D01*
X1069068Y1234239D02*
X1074092Y1234251D01*
X1069127Y1234850D02*
X1073993Y1234858D01*
X1069174Y1234476D02*
X1073954Y1234503D01*
X1069158Y1234712D02*
X1074025Y1234759D01*
X1069178Y1233995D02*
X1074202Y1234007D01*
X1069155Y1233145D02*
X1074178Y1233157D01*
X1069214Y1233755D02*
X1074080Y1233763D01*
X1069261Y1233381D02*
X1074040Y1233409D01*
X1069245Y1233617D02*
X1074111Y1233665D01*
X1069076Y1232617D02*
X1074099Y1232629D01*
X1069135Y1233228D02*
X1074001Y1233236D01*
X1069182Y1232854D02*
X1073962Y1232881D01*
X1069166Y1233090D02*
X1074033Y1233137D01*
X1069060Y1231842D02*
X1074084Y1231854D01*
X1069119Y1232452D02*
X1073985Y1232460D01*
X1069166Y1232078D02*
X1073946Y1232106D01*
X1069151Y1232314D02*
X1074017Y1232362D01*
X1069170Y1231598D02*
X1074194Y1231610D01*
X1069147Y1230747D02*
X1074170Y1230759D01*
X1069206Y1231358D02*
X1074072Y1231365D01*
X1069253Y1230984D02*
X1074033Y1231011D01*
X1069237Y1231220D02*
X1074103Y1231267D01*
X1069068Y1230177D02*
X1074092Y1230188D01*
X1069127Y1230787D02*
X1073993Y1230795D01*
X1069174Y1230413D02*
X1073954Y1230440D01*
X1069158Y1230649D02*
X1074025Y1230696D01*
X1069052Y1229401D02*
X1074076Y1229413D01*
X1069111Y1230011D02*
X1073977Y1230019D01*
X1069158Y1229637D02*
X1073938Y1229665D01*
X1069143Y1229873D02*
X1074009Y1229921D01*
X1069162Y1229157D02*
X1074186Y1229169D01*
X1069139Y1228306D02*
X1074162Y1228318D01*
X1069198Y1228917D02*
X1074064Y1228925D01*
X1069245Y1228543D02*
X1074025Y1228570D01*
X1069229Y1228779D02*
X1074095Y1228826D01*
X1068918Y1227877D02*
X1073942Y1227889D01*
X1068977Y1228488D02*
X1073844Y1228495D01*
X1069025Y1228114D02*
X1073804Y1228141D01*
X1069009Y1228350D02*
X1073875Y1228397D01*
X1068186Y1227082D02*
X1073926Y1227114D01*
X1068962Y1227712D02*
X1073828Y1227720D01*
X1068446Y1227302D02*
X1073788Y1227365D01*
X1068580Y1227562D02*
X1073859Y1227621D01*
X1067938Y1226850D02*
X1074036Y1226869D01*
X1068218Y1226137D02*
X1074013Y1226019D01*
X1067623Y1226653D02*
X1073914Y1226625D01*
X1069095Y1226243D02*
X1073875Y1226271D01*
X1067922Y1226389D02*
X1073946Y1226527D01*
X1069013Y1225283D02*
X1074036Y1225295D01*
X1068485Y1225901D02*
X1073938D01*
X1068718Y1225606D02*
X1073899Y1225547D01*
X1069103Y1225755D02*
X1073970Y1225802D01*
X1068997Y1224507D02*
X1074021Y1224519D01*
X1069056Y1225117D02*
X1073922Y1225125D01*
X1069103Y1224743D02*
X1073883Y1224771D01*
X1069088Y1224980D02*
X1073954Y1225027D01*
X1069107Y1224263D02*
X1074131Y1224275D01*
X1069084Y1223413D02*
X1074107Y1223425D01*
X1069143Y1224023D02*
X1074009Y1224031D01*
X1069190Y1223649D02*
X1073970Y1223677D01*
X1069174Y1223885D02*
X1074040Y1223932D01*
X1069013Y1222649D02*
X1074036Y1222661D01*
X1069072Y1223259D02*
X1073938Y1223267D01*
X1069119Y1222885D02*
X1073899Y1222913D01*
X1069103Y1223121D02*
X1073970Y1223169D01*
X1068997Y1221873D02*
X1074021Y1221885D01*
X1069056Y1222484D02*
X1073922Y1222491D01*
X1069103Y1222110D02*
X1073883Y1222137D01*
X1069088Y1222346D02*
X1073954Y1222393D01*
X1069107Y1221629D02*
X1074131Y1221641D01*
X1069084Y1220779D02*
X1074107Y1220791D01*
X1069143Y1221389D02*
X1074009Y1221397D01*
X1069190Y1221015D02*
X1073970Y1221043D01*
X1069174Y1221251D02*
X1074040Y1221299D01*
X1069060Y1220035D02*
X1074084Y1220047D01*
X1069119Y1220645D02*
X1073985Y1220653D01*
X1069166Y1220271D02*
X1073946Y1220299D01*
X1069151Y1220507D02*
X1074017Y1220554D01*
X1069044Y1219259D02*
X1074068Y1219271D01*
X1069103Y1219869D02*
X1073970Y1219877D01*
X1069151Y1219495D02*
X1073930Y1219523D01*
X1069135Y1219732D02*
X1074001Y1219779D01*
X1069155Y1219015D02*
X1074178Y1219027D01*
X1069131Y1218165D02*
X1074155Y1218177D01*
X1069190Y1218775D02*
X1074056Y1218783D01*
X1069237Y1218401D02*
X1074017Y1218428D01*
X1069221Y1218637D02*
X1074088Y1218684D01*
X1064674Y1217472D02*
X1073989Y1217413D01*
X1069025Y1218011D02*
X1073891Y1218019D01*
X1069072Y1217637D02*
X1073851Y1217665D01*
X1069056Y1217873D02*
X1073922Y1217921D01*
X1062914Y1216783D02*
X1073973Y1216637D01*
X1063745Y1217204D02*
X1073875Y1217243D01*
X1063493Y1216984D02*
X1073836Y1216889D01*
X1069040Y1217098D02*
X1073907Y1217145D01*
X1062170Y1216566D02*
X1074084Y1216393D01*
X1060840Y1215507D02*
X1074442Y1215558D01*
X1061836Y1216259D02*
X1073962Y1216149D01*
X1061123Y1215736D02*
X1073922Y1215795D01*
X1061466Y1216015D02*
X1073993Y1216051D01*
X1060682Y1215212D02*
X1074859Y1215314D01*
X1060529Y1214932D02*
X1075249Y1215102D01*
X1060245Y1214704D02*
X1075690Y1214960D01*
X1060088Y1214409D02*
X1076084Y1214771D01*
X1059792Y1214161D02*
X1076958Y1214554D01*
X1059702Y1213885D02*
X1077611Y1214318D01*
X1059418Y1213480D02*
X1062033Y1213684D01*
X1059218Y1213165D02*
X1061033Y1213295D01*
X1059162Y1212818D02*
X1060627Y1212984D01*
X1059103Y1212452D02*
X1060194Y1212614D01*
X1058879Y1212137D02*
X1059745Y1212251D01*
X1058710Y1211680D02*
X1059670Y1211917D01*
X1058576Y1211291D02*
X1059414Y1211562D01*
X1058584Y1210909D02*
X1059178Y1211121D01*
X1058588Y1210464D02*
X1059229Y1210806D01*
X1058584Y1210114D02*
X1059155Y1210448D01*
X1058564Y1209673D02*
X1058977Y1209932D01*
X1058572Y1209180D02*
X1058989Y1209578D01*
X1058536Y1208712D02*
X1058989Y1209173D01*
X1058698Y1208192D02*
X1058954Y1208767D01*
X1058828Y1207594D02*
X1059052Y1208255D01*
X1059017Y1207314D02*
X1059119Y1207791D01*
X1059249Y1206747D02*
X1059328Y1207369D01*
X1059623Y1206263D02*
X1059414Y1206956D01*
X1065316Y1213810D02*
X1078076Y1214054D01*
X1066757Y1213299D02*
X1078536Y1213783D01*
X1066158Y1213531D02*
X1071777Y1213783D01*
X1067804Y1212988D02*
X1079158Y1213688D01*
X1068694Y1212543D02*
X1079564Y1213511D01*
X1068501Y1212720D02*
X1070903Y1212893D01*
X1070363Y1212952D02*
X1072009Y1213007D01*
X1071312Y1213551D02*
X1072552Y1213708D01*
X1076095Y1214267D02*
X1078769Y1213842D01*
X1069647Y1212177D02*
X1080009Y1213259D01*
X1069158Y1212369D02*
X1080127Y1213436D01*
X1070383Y1211806D02*
X1080631Y1212988D01*
X1070363Y1211806D02*
X1073946Y1212409D01*
X1069682Y1212310D02*
X1071040Y1211925D01*
X1071060Y1211535D02*
X1080340Y1212621D01*
X1071907Y1211023D02*
X1079753Y1212275D01*
X1072107Y1211440D02*
X1079312Y1212271D01*
X1071505Y1211401D02*
X1072533Y1211283D01*
X1072844Y1210917D02*
X1079198Y1211633D01*
X1073757Y1210468D02*
X1078655Y1211228D01*
X1073344Y1210684D02*
X1078887Y1211421D01*
X1077064Y1211440D02*
X1079560Y1211909D01*
X1074351Y1210082D02*
X1078269Y1210779D01*
X1075107Y1209810D02*
X1077725Y1210295D01*
X1075788Y1209558D02*
X1077493Y1209948D01*
X1075981Y1209306D02*
X1076812Y1209425D01*
X1075312Y1209621D02*
X1077009Y1209590D01*
X1074084Y1210232D02*
X1077442Y1210814D01*
X1074777Y1209869D02*
X1075139Y1210011D01*
X1072946Y1210633D02*
X1073462Y1210759D01*
X1074934Y1211259D02*
X1077678Y1211775D01*
X1077080Y1209881D02*
X1078174Y1210854D01*
X1072379Y1211094D02*
X1072824Y1210854D01*
X1073710Y1212393D02*
X1074907Y1212523D01*
X1075064Y1210039D02*
X1076580Y1210247D01*
X1072186Y1213739D02*
X1073194Y1213759D01*
X1071879Y1213078D02*
X1072721Y1213062D01*
X1076131Y1214826D02*
X1076560Y1214669D01*
X1080245Y1213023D02*
X1085261Y1215267D01*
X1079895Y1213184D02*
X1085135Y1215484D01*
X1079812Y1213495D02*
X1085056Y1215724D01*
X1079847Y1213783D02*
X1084962Y1215893D01*
X1079895Y1214066D02*
X1084934Y1216149D01*
X1079914Y1214417D02*
X1084844Y1216373D01*
X1079938Y1214759D02*
X1084840Y1216610D01*
X1079887Y1215066D02*
X1084918Y1216826D01*
X1079958Y1215318D02*
X1084997Y1217102D01*
X1079997Y1215688D02*
X1084887Y1217354D01*
X1080076Y1216011D02*
X1084918Y1217645D01*
X1079836Y1215873D02*
X1084737Y1217724D01*
X1079918Y1216200D02*
X1084816Y1217940D01*
X1079855Y1216432D02*
X1084895Y1218216D01*
X1079895Y1216802D02*
X1084784Y1218468D01*
X1079973Y1217125D02*
X1084816Y1218759D01*
X1079938Y1217239D02*
X1084840Y1219090D01*
X1079887Y1217547D02*
X1084918Y1219306D01*
X1079958Y1217799D02*
X1084997Y1219582D01*
X1079997Y1218169D02*
X1084887Y1219834D01*
X1080076Y1218491D02*
X1084918Y1220125D01*
X1079875Y1218468D02*
X1084777Y1220318D01*
X1079824Y1218775D02*
X1084855Y1220535D01*
X1079895Y1219027D02*
X1084934Y1220810D01*
X1079934Y1219397D02*
X1084824Y1221062D01*
X1080013Y1219720D02*
X1084855Y1221354D01*
X1079855Y1219771D02*
X1084674Y1221432D01*
X1079895Y1220243D02*
X1084832Y1221925D01*
X1079832Y1220511D02*
X1084721Y1222177D01*
X1079910Y1220834D02*
X1084753Y1222468D01*
X1079875Y1220948D02*
X1084777Y1222799D01*
X1079824Y1221255D02*
X1084855Y1223015D01*
X1079895Y1221507D02*
X1084934Y1223291D01*
X1079934Y1221877D02*
X1084824Y1223543D01*
X1080013Y1222200D02*
X1084855Y1223834D01*
X1079855Y1219909D02*
X1084753Y1221649D01*
X1079903Y1222232D02*
X1084804Y1224082D01*
X1079851Y1222539D02*
X1084883Y1224299D01*
X1079922Y1222791D02*
X1084962Y1224574D01*
X1079962Y1223161D02*
X1084851Y1224826D01*
X1080040Y1223484D02*
X1084883Y1225117D01*
X1079800Y1223346D02*
X1084702Y1225196D01*
X1079820Y1223905D02*
X1084859Y1225688D01*
X1079859Y1224275D02*
X1084749Y1225940D01*
X1079938Y1224598D02*
X1084781Y1226232D01*
X1079903Y1224712D02*
X1084804Y1226562D01*
X1079851Y1225019D02*
X1084883Y1226779D01*
X1079922Y1225271D02*
X1084962Y1227054D01*
X1079962Y1225641D02*
X1084851Y1227306D01*
X1080040Y1225964D02*
X1084883Y1227598D01*
X1079883Y1223673D02*
X1084781Y1225413D01*
X1079840Y1225940D02*
X1084741Y1227791D01*
X1079907Y1226259D02*
X1084820Y1228007D01*
X1079859Y1226499D02*
X1084899Y1228283D01*
X1079899Y1226869D02*
X1084788Y1228535D01*
X1079977Y1227192D02*
X1084820Y1228826D01*
X1079946Y1227129D02*
X1084639Y1228905D01*
X1079840Y1227684D02*
X1084796Y1229397D01*
X1079796Y1227984D02*
X1084686Y1229649D01*
X1079875Y1228306D02*
X1084718Y1229940D01*
X1079840Y1228421D02*
X1084741Y1230271D01*
X1079788Y1228728D02*
X1084820Y1230488D01*
X1079859Y1228980D02*
X1084899Y1230763D01*
X1079899Y1229350D02*
X1084788Y1231015D01*
X1079977Y1229673D02*
X1084820Y1231306D01*
X1079836Y1227417D02*
X1084718Y1229121D01*
X1076808Y1234239D02*
X1077757Y1234358D01*
X1076907Y1234417D02*
X1077513Y1234472D01*
X1076560Y1233976D02*
X1078064Y1234220D01*
X1076438Y1233661D02*
X1078332Y1234051D01*
X1076202Y1233310D02*
X1078690Y1233901D01*
X1075973Y1232964D02*
X1078989Y1233720D01*
X1075729Y1232602D02*
X1079351Y1233606D01*
X1075296Y1232153D02*
X1079800Y1233488D01*
X1074666Y1231381D02*
X1080674Y1233432D01*
X1074887Y1231767D02*
X1081292Y1233905D01*
X1073895Y1230700D02*
X1080721Y1233216D01*
X1074009Y1230649D02*
X1075796Y1231732D01*
X1073662Y1230633D02*
X1075033Y1231535D01*
X1073871Y1230106D02*
X1080918Y1232991D01*
X1073970Y1230365D02*
X1080907Y1233090D01*
X1074725Y1230106D02*
X1081367Y1232806D01*
X1075233Y1229956D02*
X1081599Y1232621D01*
X1075788Y1229747D02*
X1082080Y1232523D01*
X1075592Y1229810D02*
X1081836Y1232610D01*
X1076391Y1229511D02*
X1082379Y1232338D01*
X1076135Y1229551D02*
X1079871Y1231302D01*
X1076863Y1229291D02*
X1082847Y1232279D01*
X1077403Y1229117D02*
X1083143Y1232117D01*
X1077737Y1228897D02*
X1083564Y1231991D01*
X1078281Y1228661D02*
X1083859Y1231846D01*
X1078281Y1228869D02*
X1083379Y1231822D01*
X1078934Y1228598D02*
X1084131Y1231649D01*
X1078725Y1228511D02*
X1083501Y1231893D01*
X1079316Y1228428D02*
X1084536Y1231637D01*
X1079391Y1228267D02*
X1084993Y1231535D01*
X1084895Y1231007D02*
X1086658Y1231598D01*
X1084761Y1231141D02*
X1086784Y1231846D01*
X1084721Y1230562D02*
X1086820Y1231302D01*
X1084647Y1230239D02*
X1086572Y1230869D01*
X1084686Y1229858D02*
X1086103Y1230365D01*
X1084426Y1229551D02*
X1086316Y1230539D01*
X1084686Y1229279D02*
X1085918Y1230192D01*
X1080084Y1233700D02*
X1084745Y1236035D01*
X1081131Y1233700D02*
X1084784Y1235948D01*
X1080895Y1233925D02*
X1084784Y1236082D01*
X1079985Y1234011D02*
X1084721Y1236330D01*
X1080056Y1234295D02*
X1084784Y1236602D01*
X1080084Y1234625D02*
X1084847Y1236909D01*
X1080044Y1234909D02*
X1084721Y1237157D01*
X1079875Y1235302D02*
X1084816Y1237456D01*
X1079989Y1234956D02*
X1084930Y1237940D01*
X1079997Y1235653D02*
X1084725Y1237960D01*
X1080025Y1235984D02*
X1084788Y1238267D01*
X1079985Y1236267D02*
X1084662Y1238515D01*
X1079816Y1236661D02*
X1084757Y1238814D01*
X1079930Y1236314D02*
X1084871Y1239299D01*
X1080119Y1236936D02*
X1084796Y1239184D01*
X1079950Y1237330D02*
X1084891Y1239484D01*
X1080064Y1236984D02*
X1085005Y1239968D01*
X1080072Y1237680D02*
X1084800Y1239988D01*
X1080099Y1238011D02*
X1084863Y1240295D01*
X1080060Y1238295D02*
X1084737Y1240543D01*
X1079891Y1238688D02*
X1084832Y1240842D01*
X1080005Y1238342D02*
X1084946Y1241326D01*
X1080119Y1238972D02*
X1084796Y1241220D01*
X1079950Y1239365D02*
X1084891Y1241519D01*
X1080064Y1239019D02*
X1085005Y1242003D01*
X1080072Y1239716D02*
X1084800Y1242023D01*
X1080099Y1240047D02*
X1084863Y1242330D01*
X1080060Y1240330D02*
X1084737Y1242578D01*
X1079891Y1240724D02*
X1084832Y1242877D01*
X1080005Y1240377D02*
X1084946Y1243362D01*
X1080095Y1241117D02*
X1084773Y1243365D01*
X1079926Y1241511D02*
X1084867Y1243665D01*
X1080040Y1241165D02*
X1084981Y1244149D01*
X1080048Y1241862D02*
X1084777Y1244169D01*
X1080076Y1242192D02*
X1084840Y1244476D01*
X1080036Y1242476D02*
X1084714Y1244724D01*
X1079867Y1242869D02*
X1084808Y1245023D01*
X1079981Y1242523D02*
X1084922Y1245507D01*
X1080029Y1243149D02*
X1084792Y1245432D01*
X1079989Y1243432D02*
X1085151Y1246015D01*
X1079820Y1243826D02*
X1087273Y1247318D01*
X1079934Y1243480D02*
X1087737Y1247940D01*
X1073592Y1247275D02*
X1076572Y1251322D01*
X1073883Y1247062D02*
X1076824Y1251117D01*
X1074214Y1246834D02*
X1077123Y1251047D01*
X1074631Y1246747D02*
X1077410Y1250822D01*
X1074025Y1246976D02*
X1075344Y1248901D01*
X1074981Y1246653D02*
X1077670Y1250751D01*
X1075383Y1246495D02*
X1078017Y1250633D01*
X1075225Y1246629D02*
X1077505Y1250358D01*
X1075580Y1246385D02*
X1078292Y1250617D01*
X1075855Y1246342D02*
X1078560Y1250539D01*
X1076186Y1246121D02*
X1078781Y1250271D01*
X1076655Y1246039D02*
X1079064Y1250153D01*
X1076470Y1246208D02*
X1078946Y1250255D01*
X1076950Y1245751D02*
X1079387Y1250114D01*
X1076887Y1245893D02*
X1077458Y1247180D01*
X1076836Y1245925D02*
X1079615Y1249999D01*
X1077186Y1245830D02*
X1079875Y1249928D01*
X1077588Y1245673D02*
X1080221Y1249810D01*
X1077430Y1245806D02*
X1079710Y1249535D01*
X1077784Y1245562D02*
X1080497Y1249795D01*
X1078060Y1245519D02*
X1080765Y1249716D01*
X1078391Y1245299D02*
X1080985Y1249448D01*
X1078674Y1245385D02*
X1081151Y1249432D01*
X1079155Y1244928D02*
X1081592Y1249291D01*
X1079092Y1245070D02*
X1079662Y1246358D01*
X1078859Y1245216D02*
X1081269Y1249330D01*
X1079021Y1245035D02*
X1081800Y1249110D01*
X1079371Y1244940D02*
X1082060Y1249039D01*
X1079773Y1244783D02*
X1082407Y1248921D01*
X1079615Y1244917D02*
X1081895Y1248645D01*
X1079970Y1244673D02*
X1082682Y1248905D01*
X1079950Y1244188D02*
X1082950Y1248826D01*
X1080387Y1244330D02*
X1083170Y1248558D01*
X1080859Y1244495D02*
X1083336Y1248543D01*
X1081340Y1244039D02*
X1083777Y1248401D01*
X1081277Y1244180D02*
X1081847Y1245468D01*
X1081044Y1244326D02*
X1083454Y1248440D01*
X1082300Y1244814D02*
X1084111Y1248346D01*
X1082942Y1245401D02*
X1084410Y1248177D01*
X1083572Y1245716D02*
X1084773Y1248043D01*
X1083840Y1245889D02*
X1085111Y1248019D01*
X1084332Y1245976D02*
X1085410Y1247917D01*
X1085001Y1246428D02*
X1085741Y1247862D01*
X1085481Y1246562D02*
X1086210Y1247980D01*
X1086111Y1246956D02*
X1086548Y1247885D01*
Y1247011D02*
X1086997Y1248011D01*
X1087328Y1247484D02*
X1087682Y1248299D01*
X1087005Y1247161D02*
X1087273Y1248098D01*
X1087658Y1247570D02*
X1088194Y1248700D01*
X1085678Y1247381D02*
X1087233Y1248161D01*
X1083076Y1245196D02*
X1084009Y1246783D01*
X1081792Y1244842D02*
X1083320Y1246594D01*
X1082540Y1246114D02*
X1083588Y1246964D01*
X1077151Y1229133D02*
X1077367Y1229377D01*
X1076623Y1229334D02*
X1076879Y1229551D01*
X1092438Y1249826D02*
X1095733Y1249936D01*
X1092560Y1249901D02*
X1095820Y1249925D01*
X1092103Y1249295D02*
X1096052Y1249566D01*
X1092288Y1249421D02*
X1095336Y1249716D01*
X1092080Y1249491D02*
X1096092Y1249653D01*
X1091658Y1248925D02*
X1096375Y1249283D01*
X1091844Y1249121D02*
X1096359Y1249271D01*
X1091340Y1248704D02*
X1096682Y1249047D01*
X1091611Y1248468D02*
X1096954Y1248739D01*
X1091855Y1248086D02*
X1096832Y1248405D01*
X1092241Y1247751D02*
X1096359Y1248086D01*
X1092710Y1247358D02*
X1096174Y1247680D01*
X1092560Y1247507D02*
X1095832Y1247889D01*
X1093068Y1247074D02*
X1095658Y1247334D01*
X1093139Y1246704D02*
X1095261Y1246877D01*
X1093930Y1246791D02*
X1095324Y1247074D01*
X1093635Y1246369D02*
X1094745Y1246543D01*
X1093820Y1246086D02*
X1094497Y1246271D01*
X1094092Y1245952D02*
X1094521Y1246310D01*
X1092631Y1242527D02*
X1089840Y1238322D01*
X1092414Y1242625D02*
X1089666Y1238440D01*
X1092899Y1242432D02*
X1090225Y1238188D01*
X1093190Y1242255D02*
X1090477Y1237877D01*
X1093521Y1242003D02*
X1090729Y1237645D01*
X1093229Y1242003D02*
X1090926Y1238169D01*
X1093792Y1241657D02*
X1091080Y1237645D01*
X1093521Y1241736D02*
X1093017Y1240515D01*
X1094084Y1241484D02*
X1091351Y1237531D01*
X1094391Y1241251D02*
X1091584Y1237279D01*
X1094607Y1240921D02*
X1091662Y1236850D01*
X1094895Y1240767D02*
X1091698Y1236291D01*
X1095363Y1240669D02*
X1091777Y1235629D01*
X1095127Y1240747D02*
X1091930Y1235960D01*
X1095536Y1240397D02*
X1091718Y1235283D01*
X1096001Y1240224D02*
X1091662Y1234759D01*
X1095883Y1240279D02*
X1094548Y1238594D01*
X1096639Y1239991D02*
X1091603Y1234255D01*
X1093619Y1236484D02*
X1096155Y1240047D01*
X1095344Y1239913D02*
X1097513Y1240011D01*
X1094643Y1239275D02*
X1097434Y1239621D01*
X1094450Y1238885D02*
X1097281Y1239739D01*
X1094139Y1238110D02*
X1097068Y1239236D01*
X1094895Y1238751D02*
X1096851Y1239369D01*
X1092359Y1236850D02*
X1096599Y1238771D01*
X1092844Y1236869D02*
X1096544Y1238322D01*
X1092844Y1236598D02*
X1096678Y1237936D01*
X1093135Y1236464D02*
X1096619Y1237625D01*
X1094761Y1238401D02*
X1096584Y1238519D01*
X1092977Y1236291D02*
X1096544Y1237299D01*
X1092300Y1235862D02*
X1096584Y1236948D01*
X1092029Y1235436D02*
X1096678Y1236617D01*
X1091584Y1234739D02*
X1096599Y1236173D01*
X1092300Y1235397D02*
X1096021Y1236291D01*
X1095536Y1236019D02*
X1096544Y1236346D01*
X1092107Y1234991D02*
X1094158Y1235610D01*
X1091584Y1234409D02*
X1096757Y1235787D01*
X1091623Y1233964D02*
X1096639Y1235535D01*
X1093095Y1234799D02*
X1096777Y1235960D01*
X1091914Y1234177D02*
X1093619Y1234818D01*
X1091619Y1233677D02*
X1096599Y1235322D01*
X1091595Y1236007D02*
X1096344Y1236869D01*
X1095615Y1237539D02*
X1096556Y1238153D01*
X1091607Y1233488D02*
X1096678Y1233799D01*
X1092458Y1233787D02*
X1096556Y1234031D01*
X1092879Y1234117D02*
X1096544Y1234318D01*
X1093804Y1234267D02*
X1096592Y1234476D01*
X1094332Y1234342D02*
X1096753Y1234637D01*
X1094308Y1234586D02*
X1096655Y1234759D01*
X1094308Y1234736D02*
X1096714Y1234960D01*
X1091765Y1233106D02*
X1096666Y1233476D01*
X1091765Y1232724D02*
X1096631Y1233169D01*
X1091718Y1232318D02*
X1096631Y1232885D01*
X1091753Y1232551D02*
X1096702Y1232799D01*
X1091765Y1232019D02*
X1096690Y1232330D01*
X1093210Y1232365D02*
X1096048Y1232527D01*
X1094580Y1232677D02*
X1096690Y1232625D01*
X1091682Y1231724D02*
X1096529Y1231995D01*
X1091753Y1231452D02*
X1096615Y1231688D01*
X1091540Y1231539D02*
X1096556Y1233110D01*
X1091832Y1231751D02*
X1093536Y1232393D01*
X1091536Y1231251D02*
X1096517Y1232897D01*
X1091525Y1231062D02*
X1096595Y1231373D01*
X1092375Y1231362D02*
X1096473Y1231606D01*
X1092796Y1231692D02*
X1096462Y1231893D01*
X1093721Y1231842D02*
X1096509Y1232051D01*
X1094249Y1231917D02*
X1096670Y1232212D01*
X1094225Y1232161D02*
X1096572Y1232334D01*
X1091682Y1230680D02*
X1096584Y1231051D01*
X1091682Y1230299D02*
X1096548Y1230743D01*
X1091635Y1229893D02*
X1096548Y1230460D01*
X1091670Y1230125D02*
X1096619Y1230373D01*
X1091682Y1229594D02*
X1096607Y1229905D01*
X1093127Y1229940D02*
X1095966Y1230102D01*
X1094497Y1230251D02*
X1096607Y1230200D01*
X1091599Y1229299D02*
X1096446Y1229570D01*
X1091670Y1229027D02*
X1096533Y1229263D01*
X1091639Y1228440D02*
X1096655Y1230011D01*
X1091930Y1228653D02*
X1093635Y1229295D01*
X1091635Y1228153D02*
X1096615Y1229799D01*
X1091623Y1227964D02*
X1096694Y1228275D01*
X1092473Y1228263D02*
X1096572Y1228507D01*
X1092895Y1228594D02*
X1096560Y1228795D01*
X1093820Y1228743D02*
X1096607Y1228952D01*
X1094347Y1228818D02*
X1096769Y1229114D01*
X1094324Y1229062D02*
X1096670Y1229236D01*
X1091781Y1227582D02*
X1096682Y1227952D01*
X1091781Y1227200D02*
X1096647Y1227645D01*
X1091733Y1226795D02*
X1096647Y1227362D01*
X1091769Y1227027D02*
X1096718Y1227275D01*
X1091781Y1226495D02*
X1096706Y1226806D01*
X1093225Y1226842D02*
X1096064Y1227003D01*
X1094595Y1227153D02*
X1096706Y1227102D01*
X1091698Y1226200D02*
X1096544Y1226472D01*
X1091769Y1225928D02*
X1096631Y1226165D01*
X1091611Y1225716D02*
X1096627Y1227287D01*
X1091607Y1225428D02*
X1096588Y1227074D01*
X1091595Y1225239D02*
X1096666Y1225551D01*
X1092446Y1225539D02*
X1096544Y1225783D01*
X1092867Y1225869D02*
X1096533Y1226070D01*
X1093792Y1226019D02*
X1096580Y1226228D01*
X1091753Y1224858D02*
X1096655Y1225228D01*
X1091753Y1224476D02*
X1096619Y1224921D01*
X1091706Y1224070D02*
X1096619Y1224637D01*
X1091741Y1224302D02*
X1096690Y1224551D01*
X1091753Y1223771D02*
X1096678Y1224082D01*
X1093198Y1224117D02*
X1096036Y1224279D01*
X1091670Y1223476D02*
X1096517Y1223747D01*
X1091741Y1223204D02*
X1096603Y1223440D01*
X1091529Y1223291D02*
X1096544Y1224862D01*
X1091820Y1223503D02*
X1093525Y1224145D01*
X1091682Y1222925D02*
X1096505Y1224649D01*
X1091536Y1222771D02*
X1096584Y1223125D01*
X1092363Y1223114D02*
X1096462Y1223358D01*
X1092784Y1223444D02*
X1096450Y1223645D01*
X1093710Y1223594D02*
X1096497Y1223802D01*
X1094214Y1223913D02*
X1096560Y1224086D01*
X1091670Y1222432D02*
X1096572Y1222802D01*
X1091670Y1222051D02*
X1096536Y1222495D01*
X1091623Y1221645D02*
X1096536Y1222212D01*
X1091658Y1221877D02*
X1096607Y1222125D01*
X1091670Y1221346D02*
X1096595Y1221657D01*
X1093115Y1221692D02*
X1095954Y1221854D01*
X1091588Y1221051D02*
X1096434Y1221322D01*
X1091658Y1220779D02*
X1096521Y1221015D01*
X1091627Y1220192D02*
X1096643Y1221763D01*
X1091918Y1220405D02*
X1093623Y1221047D01*
X1091623Y1219905D02*
X1096603Y1221551D01*
X1091611Y1219716D02*
X1096682Y1220027D01*
X1092462Y1220015D02*
X1096560Y1220259D01*
X1092883Y1220346D02*
X1096548Y1220547D01*
X1093808Y1220495D02*
X1096595Y1220704D01*
X1091769Y1219334D02*
X1096670Y1219704D01*
X1091769Y1218952D02*
X1096635Y1219397D01*
X1091721Y1218547D02*
X1096635Y1219114D01*
X1091757Y1218779D02*
X1096706Y1219027D01*
X1091769Y1218247D02*
X1096694Y1218558D01*
X1093214Y1218594D02*
X1096052Y1218755D01*
X1091686Y1217952D02*
X1096533Y1218224D01*
X1091757Y1217680D02*
X1096619Y1217917D01*
X1091682Y1228854D02*
X1091588Y1225677D01*
X1091477Y1227680D02*
X1091288Y1226212D01*
X1090627Y1226661D02*
X1091351Y1227283D01*
X1090950Y1226432D02*
X1091470Y1227007D01*
X1096958Y1227838D02*
X1096784Y1225543D01*
X1097237Y1227283D02*
X1097107Y1226425D01*
X1097568Y1226928D02*
X1097403Y1226519D01*
X1095603Y1224287D02*
X1096698Y1224334D01*
X1094143Y1221574D02*
X1096525Y1221944D01*
X1091627Y1220338D02*
X1091832Y1220873D01*
X1096123Y1221117D02*
X1096761Y1221204D01*
X1095560Y1218720D02*
X1096635Y1218814D01*
X1091698Y1217456D02*
X1096682Y1217621D01*
X1091643Y1217015D02*
X1096588Y1217330D01*
X1091706Y1217283D02*
X1096359Y1217409D01*
X1091721Y1216700D02*
X1096674Y1217007D01*
X1091690Y1216291D02*
X1096658Y1216739D01*
X1091698Y1215944D02*
X1096580Y1216425D01*
X1091564Y1215535D02*
X1096658Y1216094D01*
X1091871Y1215743D02*
X1096796Y1216054D01*
X1091788Y1215448D02*
X1096635Y1215720D01*
X1091859Y1215177D02*
X1096721Y1215413D01*
X1091800Y1214952D02*
X1096784Y1215117D01*
X1091745Y1214511D02*
X1096690Y1214826D01*
X1091808Y1214779D02*
X1096462Y1214905D01*
X1091824Y1214196D02*
X1096777Y1214503D01*
X1091761Y1214200D02*
X1096729Y1214649D01*
X1091769Y1213854D02*
X1096651Y1214334D01*
X1091635Y1213444D02*
X1096993Y1214200D01*
X1091914Y1214153D02*
X1096761Y1214425D01*
X1091985Y1213881D02*
X1096847Y1214117D01*
X1091926Y1213657D02*
X1096910Y1213822D01*
X1091871Y1213216D02*
X1096816Y1213531D01*
X1091934Y1213484D02*
X1096588Y1213610D01*
X1091950Y1212901D02*
X1096903Y1213208D01*
X1091887Y1212905D02*
X1096855Y1213354D01*
X1091895Y1212558D02*
X1096777Y1213039D01*
X1091761Y1212149D02*
X1097119Y1212905D01*
X1096284Y1213621D02*
X1098655Y1213850D01*
X1096674Y1213787D02*
X1097355Y1213968D01*
X1096340Y1213405D02*
X1098548Y1213598D01*
X1096261Y1212991D02*
X1098186Y1213267D01*
X1096426Y1212728D02*
X1097851Y1212956D01*
X1091914Y1212161D02*
X1091733Y1213161D01*
X1092025Y1211877D02*
X1097576Y1212724D01*
X1092316Y1211649D02*
X1097328Y1212405D01*
X1092564Y1211381D02*
X1096851Y1212070D01*
X1092796Y1211086D02*
X1096765Y1211791D01*
X1093206Y1210838D02*
X1096450Y1211456D01*
X1093410Y1210531D02*
X1096281Y1211149D01*
X1093847Y1210322D02*
X1095926Y1210799D01*
X1094088Y1210027D02*
X1095540Y1210393D01*
X1094308Y1209732D02*
X1095288Y1210102D01*
X1094477Y1209491D02*
X1095233Y1209783D01*
X1094753Y1209283D02*
X1095072Y1209673D01*
X1106513Y1241299D02*
X1103316Y1236822D01*
X1106981Y1241200D02*
X1103395Y1236161D01*
X1106745Y1241279D02*
X1103548Y1236491D01*
X1107155Y1240928D02*
X1103336Y1235814D01*
X1107619Y1240755D02*
X1103281Y1235291D01*
X1107501Y1240810D02*
X1106166Y1239125D01*
X1108257Y1240523D02*
X1103221Y1234787D01*
X1105237Y1237015D02*
X1107773Y1240578D01*
X1105757Y1238641D02*
X1108158Y1239893D01*
X1103977Y1237381D02*
X1108218Y1239302D01*
X1104462Y1237401D02*
X1108162Y1238854D01*
X1104462Y1237129D02*
X1108296Y1238468D01*
X1104753Y1236995D02*
X1108237Y1238157D01*
X1106379Y1238932D02*
X1108202Y1239051D01*
X1104595Y1236822D02*
X1108162Y1237830D01*
X1103918Y1236393D02*
X1108202Y1237480D01*
X1103647Y1235968D02*
X1108296Y1237149D01*
X1103202Y1235271D02*
X1108218Y1236704D01*
X1103918Y1235928D02*
X1107639Y1236822D01*
X1103725Y1235523D02*
X1105777Y1236141D01*
X1103202Y1234940D02*
X1108131Y1236263D01*
X1103241Y1234495D02*
X1108257Y1236066D01*
X1104714Y1235330D02*
X1108265Y1236515D01*
X1103533Y1234708D02*
X1105237Y1235350D01*
X1103237Y1234208D02*
X1108218Y1235854D01*
X1103214Y1236539D02*
X1107962Y1237401D01*
X1103225Y1234019D02*
X1108296Y1234330D01*
X1104076Y1234318D02*
X1108174Y1234562D01*
X1104497Y1234649D02*
X1108162Y1234850D01*
X1105422Y1234799D02*
X1108210Y1235007D01*
X1105950Y1234873D02*
X1108017Y1235460D01*
X1105926Y1235117D02*
X1108273Y1235291D01*
X1105926Y1235267D02*
X1108103Y1235594D01*
X1103383Y1233637D02*
X1108284Y1234007D01*
X1103383Y1233255D02*
X1108249Y1233700D01*
X1103336Y1232850D02*
X1108249Y1233417D01*
X1103371Y1233082D02*
X1107989Y1233417D01*
X1103383Y1232551D02*
X1105080Y1233074D01*
X1104828Y1232897D02*
X1107666Y1233058D01*
X1106198Y1233208D02*
X1108084Y1233149D01*
X1103300Y1232255D02*
X1108147Y1232527D01*
X1103371Y1231984D02*
X1108233Y1232220D01*
X1103158Y1232070D02*
X1108174Y1233641D01*
X1103450Y1232283D02*
X1105155Y1232925D01*
X1103155Y1231783D02*
X1108135Y1233428D01*
X1103143Y1231594D02*
X1108214Y1231905D01*
X1103993Y1231893D02*
X1108092Y1232137D01*
X1104414Y1232224D02*
X1108080Y1232425D01*
X1105340Y1232373D02*
X1108127Y1232582D01*
X1105867Y1232448D02*
X1108288Y1232743D01*
X1105844Y1232692D02*
X1108190Y1232865D01*
X1103300Y1231212D02*
X1108202Y1231582D01*
X1103300Y1230830D02*
X1108166Y1231275D01*
X1103253Y1230425D02*
X1108166Y1230991D01*
X1103288Y1230657D02*
X1108237Y1230905D01*
X1103300Y1230125D02*
X1108225Y1230436D01*
X1104745Y1230472D02*
X1107584Y1230633D01*
X1106115Y1230783D02*
X1108225Y1230732D01*
X1103218Y1229830D02*
X1108064Y1230102D01*
X1103288Y1229558D02*
X1108151Y1229795D01*
X1103257Y1228972D02*
X1108273Y1230543D01*
X1103548Y1229184D02*
X1105253Y1229826D01*
X1103253Y1228684D02*
X1108233Y1230330D01*
X1103241Y1228495D02*
X1108312Y1228806D01*
X1104092Y1228795D02*
X1108190Y1229039D01*
X1104513Y1229125D02*
X1108178Y1229326D01*
X1105438Y1229275D02*
X1108225Y1229484D01*
X1105966Y1229350D02*
X1108076Y1229653D01*
X1105942Y1229594D02*
X1108288Y1229767D01*
X1103399Y1228114D02*
X1108300Y1228484D01*
X1103399Y1227732D02*
X1108265Y1228177D01*
X1103351Y1227326D02*
X1108265Y1227893D01*
X1103387Y1227558D02*
X1108336Y1227806D01*
X1103399Y1227027D02*
X1108324Y1227338D01*
X1104844Y1227373D02*
X1107682Y1227535D01*
X1106214Y1227684D02*
X1108324Y1227633D01*
X1103316Y1226732D02*
X1108162Y1227003D01*
X1103387Y1226460D02*
X1108249Y1226696D01*
X1103229Y1226247D02*
X1108245Y1227818D01*
X1103225Y1225960D02*
X1108206Y1227606D01*
X1103214Y1225771D02*
X1108284Y1226082D01*
X1104064Y1226070D02*
X1108162Y1226314D01*
X1104485Y1226401D02*
X1108151Y1226602D01*
X1105410Y1226551D02*
X1108198Y1226759D01*
X1103371Y1225389D02*
X1108273Y1225759D01*
X1103371Y1225007D02*
X1108237Y1225452D01*
X1103324Y1224602D02*
X1108237Y1225169D01*
X1103359Y1224834D02*
X1108308Y1225082D01*
X1103371Y1224302D02*
X1108296Y1224614D01*
X1104816Y1224649D02*
X1107655Y1224810D01*
X1103288Y1224007D02*
X1108135Y1224279D01*
X1103359Y1223736D02*
X1108221Y1223972D01*
X1103147Y1223822D02*
X1108162Y1225393D01*
X1103438Y1224035D02*
X1105143Y1224677D01*
X1103981Y1223645D02*
X1108080Y1223889D01*
X1104403Y1223976D02*
X1108068Y1224177D01*
X1105328Y1224125D02*
X1108115Y1224334D01*
X1105832Y1224444D02*
X1108178Y1224617D01*
X1103288Y1222964D02*
X1108190Y1223334D01*
X1103288Y1222582D02*
X1108155Y1223027D01*
X1103241Y1222177D02*
X1108155Y1222743D01*
X1103277Y1222409D02*
X1108225Y1222657D01*
X1103288Y1221877D02*
X1108214Y1222188D01*
X1104733Y1222224D02*
X1107572Y1222385D01*
X1103206Y1221582D02*
X1108052Y1221854D01*
X1103277Y1221310D02*
X1108139Y1221547D01*
X1103245Y1220724D02*
X1108261Y1222295D01*
X1103253Y1220995D02*
X1105241Y1221578D01*
X1103241Y1220436D02*
X1108221Y1222082D01*
X1103229Y1220247D02*
X1108300Y1220558D01*
X1104080Y1220547D02*
X1108178Y1220791D01*
X1104501Y1220877D02*
X1108166Y1221078D01*
X1105426Y1221027D02*
X1108214Y1221236D01*
X1103387Y1219865D02*
X1108288Y1220236D01*
X1103387Y1219484D02*
X1108253Y1219928D01*
X1103340Y1219078D02*
X1108253Y1219645D01*
X1103375Y1219310D02*
X1108158Y1219385D01*
X1103387Y1218779D02*
X1108312Y1219090D01*
X1104832Y1219125D02*
X1107670Y1219287D01*
X1103304Y1218484D02*
X1108151Y1218755D01*
X1103375Y1218212D02*
X1108237Y1218448D01*
X1103155Y1223302D02*
X1108202Y1223657D01*
X1103300Y1223456D02*
X1108123Y1225180D01*
X1105761Y1222106D02*
X1108143Y1222476D01*
X1103316Y1217988D02*
X1108300Y1218153D01*
X1103261Y1217547D02*
X1108206Y1217862D01*
X1103324Y1217814D02*
X1107977Y1217940D01*
X1103340Y1217232D02*
X1108292Y1217539D01*
X1103308Y1216822D02*
X1108277Y1217271D01*
X1103316Y1216476D02*
X1108198Y1216956D01*
X1103182Y1216066D02*
X1108277Y1216625D01*
X1103489Y1216275D02*
X1108241Y1216684D01*
X1103407Y1215980D02*
X1108253Y1216251D01*
X1103477Y1215708D02*
X1108166Y1215952D01*
X1103418Y1215484D02*
X1108170Y1215700D01*
X1103363Y1215043D02*
X1108308Y1215358D01*
X1103426Y1215310D02*
X1108080Y1215436D01*
X1103442Y1214728D02*
X1108202Y1215074D01*
X1103379Y1214732D02*
X1108174Y1215173D01*
X1103387Y1214385D02*
X1108269Y1214865D01*
X1103253Y1213976D02*
X1108206Y1214810D01*
X1103533Y1214684D02*
X1108127Y1214991D01*
X1103603Y1214413D02*
X1108190Y1214586D01*
X1103544Y1214188D02*
X1108257Y1214385D01*
X1103489Y1213747D02*
X1108434Y1214062D01*
X1103552Y1214015D02*
X1108206Y1214141D01*
X1103568Y1213432D02*
X1108521Y1213739D01*
X1103505Y1213436D02*
X1108473Y1213885D01*
X1103513Y1213090D02*
X1108395Y1213570D01*
X1103379Y1212680D02*
X1108737Y1213436D01*
X1103643Y1212409D02*
X1109194Y1213255D01*
X1103934Y1212180D02*
X1108946Y1212936D01*
X1128540Y1240212D02*
X1125690Y1235980D01*
X1129048Y1240039D02*
X1125769Y1235318D01*
X1128753Y1240039D02*
X1125922Y1235649D01*
X1129257Y1239854D02*
X1125710Y1234972D01*
X1129170Y1239322D02*
X1125655Y1234448D01*
X1129529Y1239842D02*
X1128540Y1238283D01*
X1130367Y1239531D02*
X1125595Y1233944D01*
X1127611Y1236173D02*
X1130147Y1239736D01*
X1128131Y1237799D02*
X1131060Y1238925D01*
X1126351Y1236539D02*
X1130592Y1238460D01*
X1126836Y1236558D02*
X1130536Y1238011D01*
X1126836Y1236287D02*
X1130670Y1237625D01*
X1127127Y1236153D02*
X1130611Y1237314D01*
X1128753Y1238090D02*
X1130576Y1238208D01*
X1126970Y1235980D02*
X1130536Y1236988D01*
X1126292Y1235551D02*
X1130576Y1236637D01*
X1126021Y1235125D02*
X1130670Y1236306D01*
X1125576Y1234428D02*
X1130592Y1235862D01*
X1126292Y1235086D02*
X1130013Y1235980D01*
X1126099Y1234680D02*
X1128151Y1235299D01*
X1125576Y1234098D02*
X1130655Y1235444D01*
X1125615Y1233653D02*
X1130631Y1235224D01*
X1127088Y1234488D02*
X1130509Y1235629D01*
X1125907Y1233865D02*
X1127611Y1234507D01*
X1125611Y1233365D02*
X1130592Y1235011D01*
X1125588Y1235696D02*
X1130336Y1236558D01*
X1125599Y1233177D02*
X1130670Y1233488D01*
X1126450Y1233476D02*
X1130548Y1233720D01*
X1126871Y1233806D02*
X1130536Y1234007D01*
X1127796Y1233956D02*
X1130584Y1234165D01*
X1128324Y1234031D02*
X1130296Y1233988D01*
X1128300Y1234275D02*
X1130647Y1234448D01*
X1128300Y1234425D02*
X1130493Y1234712D01*
X1125757Y1232795D02*
X1130658Y1233165D01*
X1125757Y1232413D02*
X1130623Y1232858D01*
X1125710Y1232007D02*
X1130623Y1232574D01*
X1125745Y1232239D02*
X1130694Y1232488D01*
X1125757Y1231708D02*
X1130682Y1232019D01*
X1127202Y1232054D02*
X1130040Y1232216D01*
X1128572Y1232365D02*
X1130682Y1232314D01*
X1125674Y1231413D02*
X1130521Y1231684D01*
X1125745Y1231141D02*
X1130607Y1231377D01*
X1125533Y1231228D02*
X1130548Y1232799D01*
X1125824Y1231440D02*
X1127529Y1232082D01*
X1125529Y1230940D02*
X1130509Y1232586D01*
X1125517Y1230751D02*
X1130588Y1231062D01*
X1126367Y1231051D02*
X1130466Y1231295D01*
X1126788Y1231381D02*
X1130454Y1231582D01*
X1127714Y1231531D02*
X1130501Y1231739D01*
X1128241Y1231606D02*
X1130662Y1231901D01*
X1128218Y1231850D02*
X1130564Y1232023D01*
X1125674Y1230369D02*
X1130576Y1230739D01*
X1125674Y1229988D02*
X1130540Y1230432D01*
X1125627Y1229582D02*
X1130540Y1230149D01*
X1125662Y1229814D02*
X1130611Y1230062D01*
X1125674Y1229283D02*
X1130599Y1229594D01*
X1127119Y1229629D02*
X1129958Y1229791D01*
X1128489Y1229940D02*
X1130599Y1229889D01*
X1125592Y1228988D02*
X1130438Y1229259D01*
X1125662Y1228716D02*
X1130525Y1228952D01*
X1125631Y1228129D02*
X1130647Y1229700D01*
X1125922Y1228342D02*
X1127627Y1228984D01*
X1125627Y1227842D02*
X1130607Y1229488D01*
X1125615Y1227653D02*
X1130686Y1227964D01*
X1126466Y1227952D02*
X1130564Y1228196D01*
X1126887Y1228283D02*
X1130552Y1228484D01*
X1127812Y1228432D02*
X1130599Y1228641D01*
X1128340Y1228507D02*
X1130662Y1228810D01*
X1128316Y1228751D02*
X1130662Y1228925D01*
X1125773Y1227271D02*
X1130674Y1227641D01*
X1125773Y1226889D02*
X1130639Y1227334D01*
X1125725Y1226484D02*
X1130639Y1227051D01*
X1125761Y1226716D02*
X1130710Y1226964D01*
X1125773Y1226184D02*
X1130698Y1226495D01*
X1127218Y1226531D02*
X1130056Y1226692D01*
X1128588Y1226842D02*
X1130698Y1226791D01*
X1125690Y1225889D02*
X1130536Y1226161D01*
X1125761Y1225617D02*
X1130623Y1225854D01*
X1125603Y1225405D02*
X1130619Y1226976D01*
X1125599Y1225117D02*
X1130580Y1226763D01*
X1125588Y1224928D02*
X1130658Y1225239D01*
X1126438Y1225228D02*
X1130536Y1225472D01*
X1126859Y1225558D02*
X1130525Y1225759D01*
X1127784Y1225708D02*
X1130572Y1225917D01*
X1125745Y1224547D02*
X1130647Y1224917D01*
X1125745Y1224165D02*
X1130611Y1224610D01*
X1125698Y1223759D02*
X1130611Y1224326D01*
X1125733Y1223991D02*
X1130682Y1224239D01*
X1125745Y1223460D02*
X1130670Y1223771D01*
X1127190Y1223806D02*
X1130029Y1223968D01*
X1125662Y1223165D02*
X1130509Y1223436D01*
X1125733Y1222893D02*
X1130595Y1223129D01*
X1125521Y1222980D02*
X1130536Y1224551D01*
X1125812Y1223192D02*
X1127517Y1223834D01*
X1126355Y1222802D02*
X1130454Y1223047D01*
X1126777Y1223133D02*
X1130442Y1223334D01*
X1127702Y1223283D02*
X1130489Y1223491D01*
X1128206Y1223602D02*
X1130552Y1223775D01*
X1125662Y1222121D02*
X1130564Y1222491D01*
X1125662Y1221739D02*
X1130529Y1222184D01*
X1125615Y1221334D02*
X1130529Y1221901D01*
X1125651Y1221566D02*
X1130599Y1221814D01*
X1125662Y1221035D02*
X1130588Y1221346D01*
X1127107Y1221381D02*
X1129946Y1221543D01*
X1125580Y1220739D02*
X1130426Y1221011D01*
X1125651Y1220468D02*
X1130513Y1220704D01*
X1125619Y1219881D02*
X1130635Y1221452D01*
X1125910Y1220094D02*
X1127615Y1220736D01*
X1125615Y1219594D02*
X1130595Y1221239D01*
X1125603Y1219405D02*
X1130674Y1219716D01*
X1126454Y1219704D02*
X1130552Y1219948D01*
X1126875Y1220035D02*
X1130540Y1220236D01*
X1127800Y1220184D02*
X1130588Y1220393D01*
X1125761Y1219023D02*
X1130662Y1219393D01*
X1125761Y1218641D02*
X1130627Y1219086D01*
X1125714Y1218236D02*
X1130627Y1218802D01*
X1125749Y1218468D02*
X1130698Y1218716D01*
X1125761Y1217936D02*
X1130686Y1218247D01*
X1127206Y1218283D02*
X1130044Y1218444D01*
X1125678Y1217641D02*
X1130525Y1217913D01*
X1125749Y1217369D02*
X1130611Y1217606D01*
X1125529Y1222460D02*
X1130576Y1222814D01*
X1125674Y1222614D02*
X1130497Y1224338D01*
X1128135Y1221263D02*
X1130517Y1221633D01*
X1125690Y1217145D02*
X1130674Y1217310D01*
X1125635Y1216704D02*
X1130580Y1217019D01*
X1125698Y1216972D02*
X1130351Y1217098D01*
X1125714Y1216389D02*
X1130666Y1216696D01*
X1125682Y1215980D02*
X1130651Y1216428D01*
X1125690Y1215633D02*
X1130572Y1216114D01*
X1125556Y1215224D02*
X1130651Y1215783D01*
X1125863Y1215432D02*
X1130493Y1215684D01*
X1125781Y1215137D02*
X1130627Y1215409D01*
X1125851Y1214865D02*
X1130714Y1215102D01*
X1125792Y1214641D02*
X1130517Y1214869D01*
X1125737Y1214200D02*
X1130682Y1214515D01*
X1125800Y1214468D02*
X1130454Y1214594D01*
X1125816Y1213885D02*
X1130769Y1214192D01*
X1125753Y1213889D02*
X1130721Y1214338D01*
X1125761Y1213543D02*
X1130643Y1214023D01*
X1125627Y1213133D02*
X1130985Y1213889D01*
X1125907Y1213842D02*
X1130753Y1214114D01*
X1125977Y1213570D02*
X1130840Y1213806D01*
X1125918Y1213346D02*
X1130903Y1213511D01*
X1125863Y1212905D02*
X1130808Y1213220D01*
X1125926Y1213173D02*
X1130580Y1213299D01*
X1125942Y1212590D02*
X1130895Y1212897D01*
X1125879Y1212594D02*
X1130847Y1213043D01*
X1125887Y1212247D02*
X1130769Y1212728D01*
X1126111Y1211948D02*
X1131111Y1212594D01*
X1126529Y1211625D02*
X1131540Y1212432D01*
X1126615Y1211310D02*
X1131025Y1212074D01*
X1103619Y1232657D02*
X1103249Y1224401D01*
X1103076Y1225216D02*
X1103328Y1227523D01*
X1103288Y1227598*
X1103056Y1225547*
X1102958Y1227365*
X1102379Y1226417D02*
X1103308Y1227598D01*
X1102186Y1226554D02*
X1103347Y1227830D01*
X1102651Y1226436D02*
X1103115Y1225759D01*
X1108501Y1225602D02*
X1108403Y1226999D01*
X1106658Y1226263D02*
X1109099Y1226590D01*
X1107836Y1226700D02*
X1108997Y1226795D01*
X1108241Y1227476D02*
X1108757Y1226369D01*
X1108446Y1227306D02*
X1108824Y1226865D01*
X1107859Y1224362D02*
X1108158Y1225421D01*
X1107099Y1239106D02*
X1108123Y1239554D01*
X1107840Y1238373D02*
X1108166Y1238649D01*
X1105454Y1238531D02*
X1108127Y1240716D01*
X1100918Y1240377D02*
X1102253Y1242743D01*
X1101277Y1240385D02*
X1102529Y1242799D01*
X1101686Y1240425D02*
X1102836Y1242783D01*
X1101970Y1240401D02*
X1103119Y1242775D01*
X1102371Y1240362D02*
X1103438Y1242869D01*
X1102781Y1240401D02*
X1103721Y1242862D01*
X1103048Y1240330D02*
X1104013Y1242956D01*
X1103292Y1240220D02*
X1104288Y1242956D01*
X1103261Y1239306D02*
X1104729Y1243145D01*
X1103363Y1238696D02*
X1105036Y1243381D01*
X1103379Y1237988D02*
X1105407Y1243594D01*
X1103202Y1237688D02*
X1104029Y1240885D01*
X1103363Y1237157D02*
X1105792Y1243893D01*
X1103733Y1237539D02*
X1106225Y1244377D01*
X1104375Y1238216D02*
X1106670Y1244980D01*
X1105001Y1239440D02*
X1107076Y1245488D01*
X1105312Y1240082D02*
X1108052Y1246338D01*
X1106891Y1243846D02*
X1108025Y1247177D01*
X1106942Y1244165D02*
X1108099Y1247743D01*
X1107088Y1245488D02*
X1108013Y1246830D01*
X1106017Y1240551D02*
X1108076Y1245834D01*
X1106151Y1240354D02*
X1108111Y1244905D01*
X1105560Y1240228D02*
X1108076Y1245377D01*
X1106658Y1240562D02*
X1108064Y1244228D01*
X1107139Y1240515D02*
X1108162Y1243452D01*
X1106844Y1240869D02*
X1107977Y1243043D01*
X1107312Y1240377D02*
X1108284Y1242822D01*
X1107509Y1240314D02*
X1108533Y1242846D01*
X1107470Y1240216D02*
X1109001Y1242736D01*
X1107977Y1240342D02*
X1109162Y1242649D01*
X1108359Y1240440D02*
X1109718Y1242736D01*
X1108521Y1240799D02*
X1110052Y1242759D01*
X1109458Y1240377D02*
X1111162Y1242673D01*
X1109076Y1240389D02*
X1110863Y1242736D01*
X1108989Y1240562D02*
X1110481Y1242625D01*
X1108544Y1240330D02*
X1110296Y1242759D01*
X1108336Y1241799D02*
X1108792Y1242783D01*
X1108643Y1241377D02*
X1109434Y1242795D01*
X1108025Y1244094D02*
X1108139Y1242932D01*
X1103288Y1212051D02*
X1109599Y1212960D01*
X1103407Y1213854D02*
X1103454Y1212078D01*
X1107493Y1213625D02*
X1110143Y1213551D01*
X1108281Y1213751D02*
X1110190Y1213767D01*
X1108592Y1213110D02*
X1109788Y1213243D01*
X1103859Y1211649D02*
X1109103Y1212558D01*
X1103312Y1211802D02*
X1108710Y1212558D01*
X1104025Y1211389D02*
X1108875Y1212204D01*
X1104395Y1211090D02*
X1108340Y1211818D01*
X1104576Y1210846D02*
X1108174Y1211491D01*
X1105033Y1210468D02*
X1107721Y1211106D01*
X1104859Y1210673D02*
X1106729Y1210980D01*
X1105379Y1210129D02*
X1107533Y1210743D01*
X1105158Y1210255D02*
X1106580Y1210570D01*
X1105670Y1209854D02*
X1107131Y1210310D01*
X1105958Y1209633D02*
X1106808Y1209980D01*
X1106139Y1209389D02*
X1106666Y1209728D01*
X1106336Y1209228D02*
X1106816Y1209783D01*
X1128962Y1239306D02*
X1131887Y1239259D01*
X1129056Y1238925D02*
X1131643Y1239019D01*
X1128773Y1238562D02*
X1131595Y1238759D01*
X1128710Y1238287D02*
X1132336Y1239558D01*
X1130698Y1238114D02*
X1132265Y1239259D01*
X1130489Y1238397D02*
X1131517Y1238838D01*
X1128962Y1239739D02*
X1129899Y1239464D01*
X1129158Y1239818D02*
X1129970Y1239614D01*
X1127847Y1237397D02*
X1128678Y1237822D01*
X1130119Y1235598D02*
X1130403Y1236243D01*
X1125930Y1226712D02*
X1125599Y1229365D01*
X1130800Y1227440D02*
X1130745Y1225834D01*
X1131044Y1227161D02*
X1130985Y1226035D01*
X1131340Y1226917D02*
Y1226440D01*
X1131501Y1226775D02*
X1131619Y1226527D01*
X1129887Y1218236D02*
X1130556Y1218480D01*
X1129855Y1223980D02*
X1130548Y1223956D01*
X1125808Y1219692D02*
Y1220511D01*
X1130812Y1213932D02*
X1132489Y1213767D01*
X1130777Y1213617D02*
X1132324Y1213562D01*
X1130627Y1213232D02*
X1132143Y1213346D01*
X1130647Y1212873D02*
X1131765Y1213011D01*
X1130993Y1212551D02*
X1131568Y1212787D01*
X1126922Y1211098D02*
X1130536Y1211625D01*
X1127367Y1210732D02*
X1130182Y1211232D01*
X1127351Y1210795D02*
X1129076Y1211263D01*
X1127690Y1210456D02*
X1129922Y1210925D01*
X1127887Y1210110D02*
X1129623Y1210590D01*
X1128312Y1209787D02*
X1129399Y1210212D01*
X1128556Y1209566D02*
X1129092Y1209850D01*
X1128729Y1209283D02*
X1128966Y1209574D01*
X1128044Y1209944D02*
X1128517Y1210039D01*
X1125399Y1236192D02*
X1128225Y1240153D01*
X1113875Y1212858D02*
X1121336Y1214988D01*
X1127796Y1240586D02*
X1124946Y1236354D01*
X1128009Y1240413D02*
X1125099Y1236133D01*
X1124655Y1236566D02*
X1127481Y1240527D01*
X1127466Y1240736D02*
X1124615Y1236503D01*
X1124324Y1236716D02*
X1127151Y1240677D01*
X1126674Y1240925D02*
X1123871Y1236877D01*
X1126934Y1240936D02*
X1124103Y1236547D01*
X1123580Y1237090D02*
X1126407Y1241051D01*
X1123206Y1236932D02*
X1126033Y1240893D01*
X1125603Y1241326D02*
X1122753Y1237094D01*
X1125816Y1241153D02*
X1123021Y1237078D01*
X1122462Y1237306D02*
X1125288Y1241267D01*
X1125273Y1241476D02*
X1122422Y1237243D01*
X1122131Y1237456D02*
X1124958Y1241417D01*
X1124529Y1241850D02*
X1121678Y1237617D01*
X1124741Y1241677D02*
X1121903Y1237507D01*
X1121387Y1237830D02*
X1124214Y1241791D01*
X1121288Y1237822D02*
X1124115Y1241783D01*
X1123686Y1242216D02*
X1120836Y1237984D01*
X1123899Y1242043D02*
X1121029Y1237905D01*
X1120544Y1238196D02*
X1123371Y1242157D01*
X1123355Y1242365D02*
X1120505Y1238133D01*
X1120214Y1238346D02*
X1123040Y1242306D01*
X1122592Y1242543D02*
X1119761Y1238507D01*
X1122824Y1242566D02*
X1119993Y1238177D01*
X1119470Y1238720D02*
X1122296Y1242680D01*
X1125572Y1241267D02*
X1126418Y1240980D01*
X1114765Y1236523D02*
X1119529Y1238519D01*
X1114844Y1236153D02*
X1119812Y1238287D01*
X1114757Y1235755D02*
X1119725Y1237909D01*
X1114670Y1235409D02*
X1119781Y1237578D01*
X1114497Y1234889D02*
X1119694Y1237177D01*
X1114568Y1235054D02*
X1119198Y1236980D01*
X1114993Y1234716D02*
X1119678Y1236799D01*
X1115497Y1234558D02*
X1119639Y1236539D01*
X1116143Y1234401D02*
X1119615Y1236117D01*
X1115812Y1234464D02*
X1118658Y1235842D01*
X1116269Y1234149D02*
X1119686Y1235905D01*
X1116553Y1233989D02*
X1119541Y1235768D01*
X1116749Y1233814D02*
X1119725Y1235574D01*
X1117001Y1233645D02*
X1119718Y1235247D01*
X1117107Y1233373D02*
X1119658Y1234940D01*
X1117340Y1233145D02*
X1119682Y1234673D01*
X1117595Y1232913D02*
X1119706Y1234381D01*
X1117871Y1232665D02*
X1119773Y1234121D01*
X1118005Y1232464D02*
X1119694Y1233795D01*
X1118249Y1232247D02*
X1119761Y1233527D01*
X1118426Y1231948D02*
X1119729Y1233169D01*
X1118662Y1231657D02*
X1119847Y1232960D01*
X1118981Y1231468D02*
X1119808Y1232551D01*
X1119084Y1231133D02*
X1119820Y1232117D01*
X1119284Y1230893D02*
X1119903Y1231802D01*
X1119505Y1230661D02*
X1119914Y1231393D01*
X1119761Y1230480D02*
X1120056Y1231090D01*
X1120025Y1230259D02*
X1120155Y1230716D01*
X1120536Y1230125D02*
X1120233Y1230460D01*
X1121084Y1226247D02*
X1125076Y1227960D01*
X1121808Y1226830D02*
X1124414Y1227905D01*
X1122796Y1227535D02*
X1125477Y1228015D01*
X1123371Y1227425D02*
X1125595Y1227716D01*
X1120414Y1225948D02*
X1122544Y1226602D01*
X1119997Y1225617D02*
X1121934Y1226177D01*
X1119615Y1225295D02*
X1121548Y1225838D01*
X1119249Y1224897D02*
X1121540Y1225641D01*
X1118773Y1224543D02*
X1121367Y1225350D01*
X1118284Y1224173D02*
X1120934Y1224952D01*
X1117836Y1223787D02*
X1120792Y1224621D01*
X1117025Y1223263D02*
X1120481Y1224212D01*
X1116123Y1222806D02*
X1120383Y1223865D01*
X1113879Y1222200D02*
X1120170Y1223507D01*
X1114162Y1221842D02*
X1120025Y1223212D01*
X1114025Y1221956D02*
X1120135Y1223547D01*
X1114328Y1221562D02*
X1119973Y1222905D01*
X1114568Y1221177D02*
X1119887Y1222598D01*
X1114655Y1220968D02*
X1119741Y1222224D01*
X1114631Y1220570D02*
X1119690Y1221881D01*
X1114914Y1220188D02*
X1119765Y1221582D01*
X1114741Y1220314D02*
X1118989Y1221570D01*
X1114729Y1219633D02*
X1119840Y1221350D01*
X1114682Y1219905D02*
X1119643Y1221299D01*
X1114903Y1219350D02*
X1119702Y1220991D01*
X1114655Y1219090D02*
X1119666Y1220708D01*
X1114781Y1218673D02*
X1119643Y1220373D01*
X1114808Y1218795D02*
X1119560Y1220472D01*
X1114800Y1218263D02*
X1119910Y1219980D01*
X1114753Y1218535D02*
X1119714Y1219928D01*
X1114973Y1217980D02*
X1119773Y1219621D01*
X1114725Y1217720D02*
X1119737Y1219338D01*
X1114851Y1217302D02*
X1119714Y1219003D01*
X1114879Y1217425D02*
X1119631Y1219102D01*
X1114777Y1217043D02*
X1119887Y1218759D01*
X1114729Y1217314D02*
X1119690Y1218708D01*
X1114950Y1216759D02*
X1119749Y1218401D01*
X1114702Y1216499D02*
X1119714Y1218117D01*
X1114828Y1216082D02*
X1119690Y1217783D01*
X1114855Y1216204D02*
X1119607Y1217881D01*
X1114863Y1215846D02*
X1119973Y1217562D01*
X1114816Y1216117D02*
X1119777Y1217511D01*
X1115036Y1215562D02*
X1119836Y1217204D01*
X1114788Y1215302D02*
X1119800Y1216921D01*
X1114914Y1214885D02*
X1119777Y1216586D01*
X1114942Y1215007D02*
X1119694Y1216684D01*
X1114812Y1214637D02*
X1119922Y1216354D01*
X1114765Y1214909D02*
X1119725Y1216302D01*
X1114985Y1214354D02*
X1119784Y1215995D01*
X1114737Y1214094D02*
X1119749Y1215712D01*
X1114863Y1213677D02*
X1119725Y1215377D01*
X1114891Y1213799D02*
X1119643Y1215476D01*
X1118840Y1219877D02*
X1119812Y1220208D01*
X1113840Y1213243D02*
X1120292Y1215428D01*
X1113446Y1212913D02*
X1120847Y1215220D01*
X1119812Y1215834D02*
X1125674Y1213405D01*
X1119812Y1215330D02*
X1125576Y1213110D01*
X1119702Y1215551D02*
X1122095Y1214625D01*
X1118072Y1215602D02*
X1125749Y1212739D01*
X1118395Y1214838D02*
X1125281Y1212554D01*
X1119407Y1214751D02*
X1123564Y1213452D01*
X1117332Y1214503D02*
X1124958Y1212318D01*
X1118552Y1214330D02*
X1122899Y1213157D01*
X1117367Y1214232D02*
X1124883Y1212058D01*
X1117036Y1213897D02*
X1124588Y1211763D01*
X1116643Y1213653D02*
X1124281Y1211428D01*
X1115875Y1213330D02*
X1124170Y1211070D01*
X1116269Y1213503D02*
X1123749Y1211393D01*
X1117418Y1213984D02*
X1124611Y1211491D01*
X1115257Y1213330D02*
X1124033Y1210775D01*
X1114851Y1213220D02*
X1123714Y1210554D01*
X1114631Y1213011D02*
X1123674Y1210232D01*
X1113973Y1212925D02*
X1123466Y1209936D01*
X1113544Y1212700D02*
X1123379Y1209665D01*
X1112875Y1212271D02*
X1113481Y1212850D01*
X1119678Y1210728D02*
X1123403Y1209232D01*
X1136875Y1241822D02*
X1138296Y1241964D01*
X1136623Y1241417D02*
X1138517Y1241673D01*
X1136363Y1241015D02*
X1138840Y1241491D01*
X1136040Y1240629D02*
X1138997Y1241220D01*
X1135662Y1240110D02*
X1139265Y1240991D01*
X1135466Y1239747D02*
X1139607Y1240842D01*
X1135922Y1240338D02*
X1138863Y1240968D01*
X1135245Y1239393D02*
X1139851Y1240755D01*
X1135056Y1238972D02*
X1140056Y1240551D01*
X1134757Y1238720D02*
X1140395Y1240362D01*
X1134658Y1238338D02*
X1140840Y1240239D01*
X1135064Y1237968D02*
X1141371Y1240015D01*
X1134769Y1238141D02*
X1140753Y1239968D01*
X1135509Y1237708D02*
X1141816Y1239846D01*
X1136013Y1237535D02*
X1142690Y1239759D01*
X1136151Y1237204D02*
X1142076Y1239239D01*
X1136607Y1237078D02*
X1141741Y1238818D01*
X1145572Y1238802D02*
X1151210Y1240444D01*
X1145473Y1238421D02*
X1151655Y1240322D01*
X1145879Y1238051D02*
X1152186Y1240098D01*
X1145584Y1238224D02*
X1151568Y1240051D01*
X1146324Y1237791D02*
X1152631Y1239928D01*
X1146828Y1237617D02*
X1153505Y1239842D01*
X1146966Y1237287D02*
X1152891Y1239322D01*
X1147422Y1237161D02*
X1152556Y1238901D01*
X1147690Y1241905D02*
X1149111Y1242047D01*
X1147438Y1241499D02*
X1149332Y1241755D01*
X1147178Y1241098D02*
X1149655Y1241574D01*
X1146855Y1240712D02*
X1149812Y1241302D01*
X1146477Y1240192D02*
X1150080Y1241074D01*
X1146281Y1239830D02*
X1150422Y1240925D01*
X1146737Y1240421D02*
X1149678Y1241051D01*
X1146060Y1239476D02*
X1150666Y1240838D01*
X1145871Y1239054D02*
X1150871Y1240633D01*
X1145836Y1238212D02*
X1146812Y1237480D01*
X1140651Y1240173D02*
X1142288Y1239771D01*
X1137033Y1242086D02*
X1137997Y1242149D01*
X1137147Y1242291D02*
X1137855Y1242365D01*
X1137296Y1242436D02*
X1137529Y1242535D01*
X1147828Y1242082D02*
X1148773Y1242247D01*
X1147816Y1242216D02*
X1148564Y1242413D01*
X1147946Y1242350D02*
X1148422Y1242602D01*
X1152816Y1239456D02*
X1153296Y1239503D01*
X1152414Y1239964D02*
X1153029Y1239775D01*
X1147521Y1236732D02*
X1152395Y1238472D01*
X1147529Y1236995D02*
X1152001Y1238519D01*
X1147651Y1236369D02*
X1152407Y1238129D01*
X1147470Y1235968D02*
X1152422Y1237736D01*
X1147595Y1235606D02*
X1152304Y1237310D01*
X1147517Y1235188D02*
X1152367Y1236964D01*
X1147525Y1234779D02*
X1152351Y1236669D01*
X1147548Y1234326D02*
X1152344Y1236314D01*
X1147556Y1234570D02*
X1149009Y1235133D01*
X1147501Y1233806D02*
X1152375Y1235976D01*
X1147359Y1234121D02*
X1150800Y1235330D01*
X1147328Y1233428D02*
X1152414Y1235684D01*
X1147477Y1233082D02*
X1152399Y1235291D01*
X1147477Y1232665D02*
X1152383Y1234976D01*
X1147391Y1232263D02*
X1152312Y1234641D01*
X1147533Y1231877D02*
X1152336Y1234275D01*
X1147540Y1231665D02*
X1152273Y1233921D01*
X1147477Y1231200D02*
X1152328Y1233590D01*
X1147422Y1230728D02*
X1152304Y1233259D01*
X1147517Y1230318D02*
X1152344Y1232913D01*
X1147517Y1229999D02*
X1152257Y1232606D01*
X1147462Y1229708D02*
X1152273Y1232295D01*
X1147422Y1229291D02*
X1152351Y1232035D01*
X1136670Y1237027D02*
X1141544Y1238767D01*
X1136800Y1236665D02*
X1141556Y1238425D01*
X1136619Y1236263D02*
X1141572Y1238031D01*
X1136745Y1235901D02*
X1141454Y1237606D01*
X1136666Y1235484D02*
X1141517Y1237259D01*
X1136674Y1235074D02*
X1141501Y1236964D01*
X1136698Y1234621D02*
X1141493Y1236610D01*
X1136706Y1234865D02*
X1138158Y1235428D01*
X1136651Y1234102D02*
X1141525Y1236271D01*
X1136509Y1234417D02*
X1139950Y1235625D01*
X1136572Y1233724D02*
X1141564Y1235980D01*
X1136627Y1233377D02*
X1141548Y1235586D01*
X1136627Y1232960D02*
X1141533Y1235271D01*
X1136540Y1232558D02*
X1141462Y1234936D01*
X1136682Y1232173D02*
X1141485Y1234570D01*
X1136690Y1231960D02*
X1141422Y1234216D01*
X1136627Y1231495D02*
X1141477Y1233885D01*
X1136572Y1231023D02*
X1141454Y1233554D01*
X1136666Y1230614D02*
X1141493Y1233208D01*
X1136666Y1230295D02*
X1141407Y1232901D01*
X1136611Y1230003D02*
X1141422Y1232590D01*
X1136572Y1229586D02*
X1141501Y1232330D01*
X1136745Y1229503D02*
X1141572Y1232098D01*
X1136745Y1229184D02*
X1141485Y1231791D01*
X1136690Y1228893D02*
X1141501Y1231480D01*
X1136651Y1228476D02*
X1141580Y1231220D01*
X1136607Y1228299D02*
X1141434Y1230893D01*
X1136607Y1227980D02*
X1141603Y1230724D01*
X1136552Y1227688D02*
X1141623Y1230440D01*
X1136513Y1227271D02*
X1141666Y1230070D01*
X1134714Y1226436D02*
X1136544Y1227736D01*
X1134989Y1226720D02*
X1136115Y1227704D01*
X1135375Y1226625D02*
X1136678Y1227436D01*
X1136257Y1226637D02*
X1141808Y1229806D01*
X1136698Y1226480D02*
X1142076Y1229649D01*
X1137501Y1226511D02*
X1142359Y1229476D01*
X1137761Y1226078D02*
X1142769Y1229381D01*
X1138194Y1225948D02*
X1143151Y1229302D01*
X1138718Y1225767D02*
X1143481Y1229216D01*
X1139190Y1225602D02*
X1143749Y1229090D01*
X1138934Y1225712D02*
X1144312Y1228881D01*
X1139737Y1225743D02*
X1144595Y1228708D01*
X1139997Y1225310D02*
X1145005Y1228614D01*
X1140430Y1225180D02*
X1145387Y1228535D01*
X1140954Y1224999D02*
X1145718Y1228448D01*
X1141426Y1224834D02*
X1145985Y1228322D01*
X1141292Y1224830D02*
X1146300Y1228133D01*
X1141725Y1224700D02*
X1146682Y1228054D01*
X1142249Y1224519D02*
X1147013Y1227968D01*
X1142721Y1224354D02*
X1147281Y1227842D01*
X1142466Y1224464D02*
X1147844Y1227633D01*
X1143269Y1224495D02*
X1148127Y1227460D01*
X1143529Y1224062D02*
X1148536Y1227365D01*
X1143962Y1223932D02*
X1148918Y1227287D01*
X1144485Y1223751D02*
X1149249Y1227200D01*
X1144958Y1223586D02*
X1149517Y1227074D01*
X1144584Y1223621D02*
X1149304Y1226736D01*
X1145064Y1223401D02*
X1149686Y1226657D01*
X1145253Y1223121D02*
X1150017Y1226570D01*
X1145725Y1222956D02*
X1150284Y1226444D01*
X1145470Y1223066D02*
X1150847Y1226236D01*
X1146273Y1223098D02*
X1151131Y1226062D01*
X1146533Y1222665D02*
X1151540Y1225968D01*
X1146966Y1222535D02*
X1151922Y1225889D01*
X1147489Y1222354D02*
X1152253Y1225802D01*
X1147962Y1222188D02*
X1152521Y1225677D01*
X1135993Y1226688D02*
X1137399Y1227614D01*
X1137769Y1226271D02*
X1140186Y1227885D01*
X1136914Y1226342D02*
X1137647Y1226677D01*
X1138658Y1226070D02*
X1142718Y1229011D01*
X1142127Y1229712D02*
X1144025Y1228948D01*
X1142631Y1228873D02*
X1143753Y1228787D01*
X1139706Y1225393D02*
X1142568Y1227220D01*
X1139261Y1225468D02*
X1140607Y1226271D01*
X1140225Y1225074D02*
X1142470Y1226700D01*
X1140544Y1224787D02*
X1142804Y1226614D01*
X1141840Y1224617D02*
X1144544Y1226590D01*
X1143040Y1224011D02*
X1147607Y1226885D01*
X1143237Y1224393D02*
X1148422Y1227972D01*
X1142855Y1224086D02*
X1148851Y1228503D01*
X1144237Y1223653D02*
X1145741Y1224739D01*
X1143658Y1223787D02*
X1144595Y1224677D01*
X1145198Y1223196D02*
X1146139Y1224110D01*
X1146237Y1222889D02*
X1151359Y1226184D01*
X1148619Y1226035D02*
X1149568Y1226862D01*
X1149284Y1225444D02*
X1150741Y1226456D01*
X1146954Y1222133D02*
X1149804Y1224602D01*
X1147017Y1221562D02*
X1148584Y1223031D01*
X1146718Y1221464D02*
X1148792Y1222968D01*
X1146844Y1221897D02*
X1147844Y1222413D01*
X1146694Y1222153D02*
X1147410Y1222637D01*
X1139174Y1209310D02*
X1142777Y1213669D01*
X1138966Y1209495D02*
X1142505Y1213645D01*
X1138891Y1209669D02*
X1142284Y1213669D01*
X1138643Y1209767D02*
X1142174Y1213743D01*
X1138753Y1210078D02*
X1142001Y1213680D01*
X1138383Y1210015D02*
X1141804Y1213964D01*
X1138296Y1210224D02*
X1141544Y1213964D01*
X1138296Y1210436D02*
X1141308Y1214051D01*
X1137977Y1210299D02*
X1141088Y1214322D01*
X1137718Y1210830D02*
X1141025Y1214507D01*
X1137753Y1210338D02*
X1138851Y1211791D01*
X1137296Y1210755D02*
X1140792Y1214791D01*
X1137174Y1211212D02*
X1140741Y1215114D01*
X1136792Y1211484D02*
X1140753Y1215669D01*
X1136891Y1211287D02*
X1140804Y1215432D01*
X1136544Y1211779D02*
X1140753Y1216015D01*
X1136273Y1212062D02*
X1140765Y1216484D01*
X1136040Y1212310D02*
X1140718Y1216767D01*
X1136162Y1212767D02*
X1140753Y1217196D01*
X1136076Y1212976D02*
X1140816Y1217629D01*
X1135977Y1213161D02*
X1140938Y1218011D01*
X1136029Y1213558D02*
X1140903Y1218369D01*
X1136312Y1214031D02*
X1140903Y1218460D01*
X1136225Y1214239D02*
X1140966Y1218893D01*
X1136127Y1214425D02*
X1141088Y1219275D01*
X1136178Y1214822D02*
X1141052Y1219633D01*
X1136044Y1215054D02*
X1140635Y1219484D01*
X1135958Y1215263D02*
X1140698Y1219917D01*
X1135859Y1215448D02*
X1140820Y1220299D01*
X1135910Y1215846D02*
X1140784Y1220657D01*
X1136300Y1216314D02*
X1140891Y1220743D01*
X1136214Y1216523D02*
X1140954Y1221177D01*
X1136115Y1216708D02*
X1141076Y1221558D01*
X1136166Y1217106D02*
X1141040Y1221917D01*
X1136056Y1217239D02*
X1140647Y1221669D01*
X1135970Y1217448D02*
X1140710Y1222102D01*
X1135871Y1217633D02*
X1140832Y1222484D01*
X1135922Y1218031D02*
X1140796Y1222842D01*
X1136229Y1218755D02*
X1140820Y1223184D01*
X1136143Y1218964D02*
X1140883Y1223617D01*
X1136044Y1219149D02*
X1141005Y1223999D01*
X1136095Y1219547D02*
X1140970Y1224358D01*
X1148466Y1210968D02*
X1151773Y1214645D01*
X1148044Y1210893D02*
X1151540Y1214928D01*
X1147922Y1211350D02*
X1151489Y1215251D01*
X1147540Y1211621D02*
X1151501Y1215806D01*
X1147639Y1211425D02*
X1151552Y1215570D01*
X1147292Y1211917D02*
X1151501Y1216153D01*
X1147021Y1212200D02*
X1151513Y1216621D01*
X1146788Y1212448D02*
X1151466Y1216905D01*
X1146910Y1212905D02*
X1151501Y1217334D01*
X1146824Y1213114D02*
X1151564Y1217767D01*
X1146725Y1213299D02*
X1151686Y1218149D01*
X1146777Y1213696D02*
X1151651Y1218507D01*
X1147060Y1214169D02*
X1151651Y1218598D01*
X1146973Y1214377D02*
X1151714Y1219031D01*
X1146875Y1214562D02*
X1151836Y1219413D01*
X1146926Y1214960D02*
X1151800Y1219771D01*
X1146792Y1215192D02*
X1151383Y1219621D01*
X1146706Y1215401D02*
X1151446Y1220054D01*
X1146674Y1215629D02*
X1151568Y1220436D01*
X1146729Y1216043D02*
X1151533Y1220795D01*
X1147048Y1216452D02*
X1151639Y1220881D01*
X1146962Y1216661D02*
X1151702Y1221314D01*
X1146863Y1216846D02*
X1151824Y1221696D01*
X1146914Y1217243D02*
X1151788Y1222054D01*
X1146804Y1217377D02*
X1151395Y1221806D01*
X1146718Y1217586D02*
X1151458Y1222239D01*
X1146725Y1217897D02*
X1151580Y1222621D01*
X1146670Y1218169D02*
X1151544Y1222980D01*
X1146977Y1218893D02*
X1151568Y1223322D01*
X1146891Y1219102D02*
X1151631Y1223755D01*
X1146792Y1219287D02*
X1151753Y1224137D01*
X1146844Y1219684D02*
X1151718Y1224495D01*
X1136005Y1219606D02*
X1140981Y1224814D01*
X1135993Y1219854D02*
X1140560Y1224677D01*
X1136056Y1220102D02*
X1140288Y1224791D01*
X1136021Y1220456D02*
X1139855Y1224421D01*
X1136044Y1220582D02*
X1139426Y1224220D01*
X1136005Y1220641D02*
X1138525Y1223641D01*
X1136832Y1221791D02*
X1140584Y1225086D01*
X1135859Y1221149D02*
X1138670Y1223692D01*
X1136033Y1221334D02*
X1137721Y1223121D01*
X1135993Y1221543D02*
X1137883Y1223161D01*
X1135847Y1221739D02*
X1137328Y1223051D01*
X1136056Y1222369D02*
X1136674Y1222814D01*
X1140658Y1222936D02*
X1140907Y1215594D01*
X1140942Y1222507D02*
X1140781Y1221570D01*
X1136080Y1221814D02*
X1136068Y1213633D01*
X1142422Y1213696D02*
X1143040Y1213905D01*
X1151682Y1224350D02*
X1151564Y1215999D01*
X1148410Y1210547D02*
X1151855Y1214346D01*
X1148769Y1210385D02*
X1152076Y1214149D01*
X1149103Y1210137D02*
X1152277Y1213925D01*
X1149375Y1209854D02*
X1152544Y1213814D01*
X1149647Y1209472D02*
X1152903Y1213767D01*
X1149844Y1209247D02*
X1153371Y1213767D01*
X1149568Y1209708D02*
X1153804Y1213767D01*
X1148895Y1210149D02*
X1150769Y1211102D01*
X1151694Y1215964D02*
X1151706Y1214554D01*
X1149127Y1210495D02*
X1149485Y1210952D01*
X1147210Y1211677D02*
X1147099Y1212346D01*
X1146836Y1220180D02*
X1152958Y1225818D01*
X1146875Y1220665D02*
X1150304Y1223649D01*
X1147048Y1221208D02*
X1150245Y1223724D01*
X1146702Y1220877D02*
X1150729Y1223936D01*
X1152580Y1225239D02*
X1153509Y1226149D01*
X1152249Y1225499D02*
X1152784Y1225893D01*
X1151962Y1224862D02*
X1152481Y1225114D01*
X1150662Y1226299D02*
X1151863Y1225980D01*
X1146985Y1221862D02*
X1146899Y1218432D01*
X1147363Y1232023D02*
X1148383Y1232602D01*
X1147674Y1228968D02*
X1152155Y1231586D01*
X1147477Y1228661D02*
X1152241Y1231188D01*
X1147576Y1228279D02*
X1152288Y1230783D01*
X1147454Y1227736D02*
X1152115Y1230389D01*
X1152340Y1232263D02*
X1152190Y1230019D01*
X1147749Y1231928D02*
X1147588Y1228054D01*
X1148013Y1229047D02*
X1148225Y1229956D01*
X1157678Y1233909D02*
X1162639Y1238759D01*
X1157863Y1233515D02*
X1162454Y1237944D01*
X1157777Y1233724D02*
X1162517Y1238377D01*
X1158021Y1232799D02*
X1162761Y1237452D01*
X1157922Y1232984D02*
X1162883Y1237834D01*
X1157666Y1231724D02*
X1162627Y1236574D01*
X1157718Y1232121D02*
X1162592Y1236932D01*
X1157871Y1233204D02*
X1160308Y1235617D01*
X1157816Y1232417D02*
X1158847Y1233877D01*
X1157871Y1234468D02*
X1161847Y1238342D01*
X1157808Y1234932D02*
X1160773Y1237566D01*
X1157816Y1235247D02*
X1160135Y1237338D01*
X1157714Y1235657D02*
X1159623Y1237110D01*
X1157698Y1236212D02*
X1159052Y1237023D01*
X1157784Y1236669D02*
X1158493Y1236787D01*
X1157855Y1236062D02*
X1158351Y1236385D01*
X1157721Y1231637D02*
X1162588Y1236354D01*
X1157812Y1231110D02*
X1162403Y1235539D01*
X1157725Y1231318D02*
X1162466Y1235972D01*
X1157970Y1230393D02*
X1162710Y1235047D01*
X1157871Y1230578D02*
X1162832Y1235428D01*
X1157718Y1229228D02*
X1162576Y1234169D01*
X1157666Y1229716D02*
X1162540Y1234527D01*
X1157820Y1230799D02*
X1160257Y1233212D01*
X1157690Y1229295D02*
X1162281Y1233724D01*
X1157710Y1229503D02*
X1162344Y1234157D01*
X1157847Y1228578D02*
X1162588Y1233232D01*
X1157749Y1228763D02*
X1162710Y1233614D01*
X1157493Y1227503D02*
X1162454Y1232354D01*
X1157773Y1228200D02*
X1162418Y1232712D01*
X1157698Y1228984D02*
X1160135Y1231397D01*
X1157454Y1227283D02*
X1162414Y1232133D01*
X1157639Y1226889D02*
X1162229Y1231318D01*
X1157552Y1227098D02*
X1162292Y1231751D01*
X1157796Y1226173D02*
X1162536Y1230826D01*
X1157698Y1226358D02*
X1162658Y1231208D01*
X1157631Y1225413D02*
X1162403Y1229948D01*
X1157493Y1225495D02*
X1162367Y1230306D01*
X1157647Y1226578D02*
X1160084Y1228991D01*
X1157844Y1225051D02*
X1162434Y1229480D01*
X1157757Y1225259D02*
X1162497Y1229913D01*
X1158001Y1224334D02*
X1162741Y1228988D01*
X1157903Y1224519D02*
X1162627Y1229287D01*
X1157875Y1224149D02*
X1162607Y1228110D01*
X1157698Y1223657D02*
X1162572Y1228468D01*
X1157851Y1224739D02*
X1160288Y1227153D01*
X1157765Y1223228D02*
X1162568Y1227889D01*
X1157792Y1222645D02*
X1162383Y1227074D01*
X1157706Y1222854D02*
X1162446Y1227507D01*
X1157950Y1221928D02*
X1162690Y1226582D01*
X1157851Y1222114D02*
X1162812Y1226964D01*
X1157855Y1221180D02*
X1162556Y1225704D01*
X1157784Y1221511D02*
X1162521Y1226062D01*
X1157800Y1222334D02*
X1160237Y1224747D01*
X1157808Y1220885D02*
X1162399Y1225314D01*
X1157721Y1221094D02*
X1162462Y1225747D01*
X1157966Y1220169D02*
X1162706Y1224822D01*
X1157867Y1220354D02*
X1162828Y1225204D01*
X1157745Y1219192D02*
X1162572Y1223944D01*
X1157662Y1219491D02*
X1162536Y1224302D01*
X1157816Y1220574D02*
X1160253Y1222988D01*
X1157883Y1219279D02*
X1162533Y1223724D01*
X1157757Y1218480D02*
X1162347Y1222909D01*
X1157670Y1218688D02*
X1162410Y1223342D01*
X1157914Y1217763D02*
X1162655Y1222417D01*
X1157816Y1217948D02*
X1162777Y1222799D01*
X1157832Y1216720D02*
X1162521Y1221539D01*
X1157753Y1217239D02*
X1162485Y1221897D01*
X1157765Y1218169D02*
X1160202Y1220582D01*
X1157942Y1216602D02*
X1162533Y1221031D01*
X1157855Y1216810D02*
X1162595Y1221464D01*
X1158099Y1215885D02*
X1162840Y1220539D01*
X1158001Y1216070D02*
X1162753Y1220846D01*
X1157745Y1214810D02*
X1162706Y1219661D01*
X1157796Y1215208D02*
X1162670Y1220019D01*
X1157950Y1216291D02*
X1160387Y1218704D01*
X1157706Y1214590D02*
X1162666Y1219440D01*
X1157891Y1214196D02*
X1162481Y1218625D01*
X1157804Y1214405D02*
X1162544Y1219058D01*
X1158048Y1213480D02*
X1162788Y1218133D01*
X1157950Y1213665D02*
X1162678Y1218417D01*
X1157694Y1212405D02*
X1162655Y1217255D01*
X1157745Y1212802D02*
X1162619Y1217614D01*
X1157899Y1213885D02*
X1160336Y1216299D01*
X1156131Y1212397D02*
X1157973Y1213661D01*
X1156320Y1212838D02*
X1157332Y1213476D01*
X1155895Y1212007D02*
X1157981Y1213417D01*
X1156836Y1212405D02*
X1157761Y1212885D01*
X1157009Y1212263D02*
X1157765Y1212523D01*
X1158186Y1212153D02*
X1162694Y1216795D01*
X1157792Y1212365D02*
X1161666Y1215968D01*
X1158670Y1212129D02*
X1162741Y1216350D01*
X1159076Y1211932D02*
X1162792Y1215917D01*
X1159556Y1211736D02*
X1162914Y1215535D01*
X1159914Y1211551D02*
X1163284Y1215413D01*
X1160371Y1211365D02*
X1163619Y1215314D01*
X1160910Y1211165D02*
X1163899Y1215090D01*
X1161367Y1211165D02*
X1164257Y1215078D01*
X1161678Y1210869D02*
X1164615Y1214917D01*
X1162194Y1210720D02*
X1164875Y1214708D01*
X1162615Y1210598D02*
X1165206Y1214783D01*
X1162962Y1210464D02*
X1165379Y1214472D01*
X1162072Y1210905D02*
X1163847Y1213570D01*
X1162505Y1210562D02*
X1163245Y1211747D01*
X1161564Y1210818D02*
X1163564Y1213708D01*
X1160639Y1211314D02*
X1163021Y1214460D01*
X1160072Y1211401D02*
X1163233Y1215153D01*
X1159407Y1211795D02*
X1163135Y1215484D01*
X1159863Y1212523D02*
X1162060Y1214854D01*
X1158851Y1212043D02*
X1160233Y1213511D01*
X1157973Y1212228D02*
X1159060Y1213326D01*
X1158072Y1215054D02*
X1157875Y1216275D01*
X1162556Y1210539D02*
X1165926Y1214401D01*
X1163013Y1210354D02*
X1166261Y1214302D01*
X1163552Y1210153D02*
X1166540Y1214078D01*
X1164009Y1210153D02*
X1166899Y1214066D01*
X1164320Y1209858D02*
X1167257Y1213905D01*
X1164836Y1209708D02*
X1167517Y1213696D01*
X1165257Y1209586D02*
X1167847Y1213771D01*
X1165603Y1209452D02*
X1168021Y1213460D01*
X1164714Y1209893D02*
X1166489Y1212558D01*
X1164206Y1209806D02*
X1166206Y1212696D01*
X1163281Y1210302D02*
X1165662Y1213448D01*
X1162714Y1210389D02*
X1165875Y1214141D01*
X1156658Y1226543D02*
X1157670Y1227188D01*
X1156832Y1226393D02*
X1157584Y1226739D01*
X1157107Y1226212D02*
X1157529Y1226425D01*
X1157099Y1226606D02*
X1157788Y1225680D01*
X1162592Y1227854D02*
X1162670Y1222846D01*
X1162639Y1223692D02*
X1162627Y1221098D01*
X1162765Y1228948D02*
X1162505Y1234145D01*
Y1236491D02*
X1162544Y1230862D01*
X1157879Y1229295D02*
X1157930Y1231936D01*
X1157804Y1231417*
X1162438Y1232173D02*
X1162379Y1229558D01*
X1163658Y1215519D02*
X1166710Y1213940D01*
X1164450Y1214495D02*
X1167670Y1213617D01*
X1162513Y1219826D02*
X1162588Y1218330D01*
X1165017Y1209586D02*
X1165603Y1210850D01*
X1165800Y1209263D02*
X1168418Y1213539D01*
X1166092Y1209051D02*
X1168592Y1213405D01*
X1167481Y1213680D02*
X1168560Y1213617D01*
X1168466Y1217858D02*
X1173599Y1220724D01*
X1168361Y1217525D02*
X1173574Y1220158D01*
X1168505Y1217365D02*
X1173450Y1219791D01*
X1168560Y1217137D02*
X1173399Y1219468D01*
X1168686Y1216802D02*
X1173399Y1219125D01*
X1168588Y1216275D02*
X1173450Y1218767D01*
X1168513Y1216558D02*
X1172930Y1218802D01*
X1168773Y1216570*
X1168627Y1215850D02*
X1173410Y1218334D01*
X1168773Y1215570D02*
X1173351Y1218027D01*
X1168733Y1215212D02*
X1173485Y1217606D01*
X1168710Y1214818D02*
X1173509Y1217287D01*
X1168820Y1214397D02*
X1173351Y1216952D01*
X1168611Y1213964D02*
X1173410Y1216645D01*
X1168560Y1213507D02*
X1173473Y1216310D01*
X1168674Y1213066D02*
X1173497Y1215917D01*
X1168721Y1213125D02*
X1172769Y1215558D01*
X1168253Y1212397D02*
X1169155Y1213362D01*
X1171584Y1214421D02*
X1173497Y1215421D01*
X1172552Y1214854D02*
X1173584Y1215102D01*
X1171832Y1217051D02*
X1173375Y1217755D01*
X1172981Y1215310D02*
X1173399Y1215617D01*
X1168647Y1214594D02*
X1169647Y1215062D01*
X1171623Y1219495D02*
X1173993Y1222421D01*
X1172241Y1219680D02*
X1173694Y1221578D01*
X1173017Y1219779D02*
X1173635Y1221035D01*
X1171784Y1219212D02*
X1173560Y1220432D01*
X1171363Y1219456D02*
X1173694Y1222306D01*
X1173895Y1222184D02*
X1174277Y1222606D01*
X1173942Y1222121D02*
X1173387Y1221184D01*
X1167918Y1217928D02*
X1168473Y1217842D01*
X1173363Y1219224D02*
X1173387Y1217964D01*
X1162320Y1238558D02*
X1165174Y1242472D01*
X1162592Y1238314D02*
X1165458Y1242421D01*
X1162592Y1237771D02*
X1165666Y1242322D01*
X1163284Y1238302D02*
X1165926Y1242212D01*
X1163619Y1238216D02*
X1166198Y1242078D01*
X1164025Y1237928D02*
X1166481Y1242027D01*
X1163777Y1238031D02*
X1164926Y1239991D01*
X1164434Y1237673D02*
X1166875Y1241917D01*
X1164221Y1237795D02*
X1166481Y1241720D01*
X1164643Y1238094D02*
X1167221Y1241956D01*
X1165048Y1237806D02*
X1167505Y1241905D01*
X1164800Y1237909D02*
X1165950Y1239869D01*
X1165458Y1237551D02*
X1167867Y1241614D01*
X1165245Y1237673D02*
X1167505Y1241598D01*
X1165702Y1237428D02*
X1168158Y1241527D01*
X1166111Y1237173D02*
X1168552Y1241417D01*
X1165899Y1237295D02*
X1168158Y1241220D01*
X1166320Y1237594D02*
X1168781Y1241267D01*
X1166725Y1237306D02*
X1168977Y1241114D01*
X1166477Y1237409D02*
X1167627Y1239369D01*
X1167135Y1237051D02*
X1169438Y1240468D01*
X1166922Y1237173D02*
X1169182Y1241098D01*
X1167344Y1236677D02*
X1169800Y1240775D01*
X1167753Y1236421D02*
X1170194Y1240665D01*
X1167540Y1236543D02*
X1169800Y1240468D01*
X1167962Y1236842D02*
X1170540Y1240704D01*
X1168367Y1236554D02*
X1170824Y1240653D01*
X1168119Y1236657D02*
X1169269Y1238617D01*
X1168777Y1236299D02*
X1171103Y1240295D01*
X1168564Y1236421D02*
X1170824Y1240346D01*
X1168592Y1236058D02*
X1171048Y1240157D01*
X1169001Y1235802D02*
X1171442Y1240047D01*
X1168788Y1235925D02*
X1171048Y1239850D01*
X1169210Y1236224D02*
X1171788Y1240086D01*
X1169615Y1235936D02*
X1172072Y1240035D01*
X1169367Y1236039D02*
X1170517Y1237999D01*
X1170025Y1235680D02*
X1172466Y1239925D01*
X1169812Y1235802D02*
X1172072Y1239728D01*
X1170147Y1235562D02*
X1172603Y1239661D01*
X1170556Y1235306D02*
X1172997Y1239551D01*
X1170344Y1235428D02*
X1172603Y1239354D01*
X1170765Y1235728D02*
X1173344Y1239590D01*
X1171170Y1235440D02*
X1173627Y1239539D01*
X1170922Y1235543D02*
X1172072Y1237503D01*
X1171580Y1235184D02*
X1174021Y1239428D01*
X1171367Y1235306D02*
X1173627Y1239232D01*
X1168158Y1232232D02*
X1170615Y1236330D01*
X1168568Y1231976D02*
X1171009Y1236220D01*
X1168355Y1232098D02*
X1170615Y1236023D01*
X1168777Y1232397D02*
X1171355Y1236259D01*
X1169182Y1232110D02*
X1171639Y1236208D01*
X1168934Y1232212D02*
X1170084Y1234173D01*
X1169592Y1231854D02*
X1172033Y1236098D01*
X1169379Y1231976D02*
X1171639Y1235901D01*
X1164284Y1237877D02*
X1168863Y1236051D01*
X1166544Y1236964D02*
X1169371Y1240901D01*
X1168804Y1239397D02*
X1169592Y1240743D01*
X1166347Y1241976D02*
X1173013Y1239582D01*
X1168635Y1233354D02*
X1169875Y1235736D01*
X1168580Y1233850D02*
X1169572Y1235846D01*
X1168580Y1234464D02*
X1169320Y1236019D01*
X1168603Y1234680D02*
X1168792Y1236011D01*
X1173784Y1238822D02*
X1175229Y1239562D01*
X1173493Y1238381D02*
X1175095Y1239200D01*
X1173375Y1238129D02*
X1174694Y1238704D01*
X1173351Y1239035D02*
X1175403Y1239704D01*
X1170568Y1232944D02*
X1173399Y1237834D01*
X1171119Y1233586D02*
X1173462Y1237519D01*
X1171442Y1233720D02*
X1173430Y1237047D01*
X1171910Y1234035D02*
X1173430Y1236614D01*
X1172351Y1234224D02*
X1173493Y1236196D01*
X1172572Y1234263D02*
X1173643Y1235625D01*
X1173257Y1234531D02*
X1173761Y1235192D01*
X1172950Y1234413D02*
X1173926Y1234925D01*
X1173430Y1235889D02*
X1173753Y1235358D01*
X1162777Y1226452D02*
X1167139Y1229299D01*
X1163521Y1226499D02*
X1166698Y1228826D01*
X1163072Y1226302D02*
X1164229Y1227153D01*
X1164489Y1227019D02*
X1166918Y1228944D01*
X1166446Y1228976D02*
X1168387Y1231838D01*
X1167013Y1229204D02*
X1168907Y1232051D01*
X1167383Y1229275D02*
X1169261Y1231964D01*
X1169040Y1231090D02*
X1169458Y1231806D01*
X1114469Y1221386D02*
X1115728Y1221724D01*
X1113094Y1212098D02*
X1113701Y1212803D01*
X1032480Y1202205D02*
X1189961D01*
Y1044724*
X1032480*
Y1202205*
G54D181*
X1149317Y1353091D03*
X1145317D03*
X1140933Y1379722D03*
X1136933D03*
G54D185*
X1155453Y1378380D03*
X1147453D03*
G54D220*
X1095409Y1137299D03*
Y1135323D03*
Y1133346D03*
Y1131370D03*
Y1129394D03*
Y1127417D03*
Y1125441D03*
Y1123465D03*
Y1121488D03*
Y1119512D03*
Y1117535D03*
Y1115559D03*
Y1113583D03*
Y1111606D03*
Y1109630D03*
X1127031D03*
Y1111606D03*
Y1113583D03*
Y1115559D03*
Y1117535D03*
Y1119512D03*
Y1121488D03*
Y1123465D03*
Y1125441D03*
Y1127417D03*
Y1129394D03*
Y1131370D03*
Y1133346D03*
Y1135323D03*
Y1137299D03*
G54D224*
X1061393Y1364319D03*
X1056993D03*
X1149430Y1348477D03*
X1145030D03*
X1061425Y1369670D03*
X1057025D03*
G54D301*
X1009898Y1358291D03*
X1215071Y1036220D03*
G54D359*
X1129283Y1367464D03*
Y1355464D03*
G54D623*
X1161417Y1016780D03*
X1111413Y1379583D03*
X1181102Y1379921D03*
G54D624*
X1151417Y1016780D03*
X1141417D03*
X1131417D03*
X1101413Y1379583D03*
X1091413D03*
X1081413D03*
X1071413D03*
X1061413D03*
X1181102Y1369921D03*
Y1359921D03*
Y1349921D03*
G54D651*
X1145189Y1359323D03*
X1149126D03*
X1153063D03*
Y1370740D03*
X1145189D03*
G54D652*
X1032965Y1258024D03*
X1037965D03*
X1042965D03*
X1047965D03*
X1052965D03*
X1057965D03*
X1062965D03*
X1067965D03*
X1072965D03*
X1077965D03*
X1082965D03*
X1087965D03*
X1092965D03*
X1097965D03*
Y1328890D03*
X1092965D03*
X1087965D03*
X1082965D03*
X1077965D03*
X1072965D03*
X1067965D03*
X1062965D03*
X1057965D03*
X1052965D03*
X1047965D03*
X1042965D03*
X1037965D03*
X1032965D03*
G54D653*
X1103870Y1265957D03*
Y1270957D03*
Y1275957D03*
Y1280957D03*
Y1285957D03*
Y1290957D03*
Y1295957D03*
Y1300957D03*
Y1305957D03*
Y1310957D03*
Y1315957D03*
Y1320957D03*
G54D654*
X1063358Y1287551D03*
G54D655*
X1151227Y1317574D03*
X1134297D03*
G54D656*
X1194094Y1247047D03*
Y1249016D03*
Y1245079D03*
Y1243110D03*
Y1241142D03*
Y1239173D03*
Y1237992D03*
Y1236024D03*
Y1234843D03*
Y1250984D03*
Y1252953D03*
Y1254921D03*
Y1256890D03*
Y1258071D03*
Y1260039D03*
Y1261220D03*
G54D657*
X1197126Y1231024D03*
Y1265039D03*
G54D658*
X1213583Y1231024D03*
Y1265039D03*
G54D659*
X1199094Y1236654D03*
Y1259409D03*
G54D660*
X1111220Y1134764D03*
G54D661*
Y1118583D03*
G54D662*
X1005811Y1143571D03*
X1023331D03*
X1005803Y1162823D03*
X1023323D03*
G54D663*
X1013780Y1379921D03*
X1208661D03*
X1013780Y1013780D03*
X1208661D03*
G54D664*
X1201307Y1285303D03*
Y1331917D03*
X1177291D03*
Y1285461D03*
X0Y0D02*
M02*
