*
*
G04 PADS 9.5 Build Number: 522968 generated Gerber (RS-274-X) file*
G04 PC Version=2.1*
*
%IN "bitaxeGamma601_V1.0.pcb"*%
*
%MOIN*%
*
%FSLAX35Y35*%
*
*
*
*
G04 PC Standard Apertures*
*
*
G04 Thermal Relief Aperture macro.*
%AMTER*
1,1,$1,0,0*
1,0,$1-$2,0,0*
21,0,$3,$4,0,0,45*
21,0,$3,$4,0,0,135*
%
*
*
G04 Annular Aperture macro.*
%AMANN*
1,1,$1,0,0*
1,0,$2,0,0*
%
*
*
G04 Odd Aperture macro.*
%AMODD*
1,1,$1,0,0*
1,0,$1-0.005,0,0*
%
*
*
G04 PC Custom Aperture Macros*
*
*
*
*
*
*
G04 PC Aperture Table*
*
%ADD010C,0.001*%
%ADD122C,0.00591*%
%ADD152C,0.07*%
%ADD173C,0.00591*%
%ADD174C,0.00984*%
%ADD175C,0.00787*%
%ADD181R,0.03X0.03*%
%ADD184R,0.062X0.056*%
%ADD185R,0.056X0.062*%
%ADD186R,0.07X0.07*%
%ADD223R,0.032X0.036*%
%ADD224R,0.036X0.032*%
%ADD228R,0.07X0.09*%
%ADD301C,0.08874*%
%ADD359R,0.09X0.07*%
%ADD364O,0.05921X0.03756*%
%ADD559R,0.06512X0.06512*%
%ADD623R,0.07394X0.07394*%
%ADD624C,0.07394*%
%ADD657O,0.10055X0.04937*%
%ADD658O,0.08874X0.04937*%
%ADD659C,0.03559*%
%ADD663C,0.24622*%
%ADD665R,0.0848X0.10843*%
%ADD666R,0.03756X0.01984*%
%ADD667R,0.01984X0.03756*%
%ADD668R,0.13992X0.21866*%
%ADD669R,0.15961X0.1163*%
%ADD670R,0.02772X0.0474*%
%ADD671R,0.06X0.03205*%
%ADD672O,0.02575X0.06906*%
*
*
*
*
G04 PC Circuitry*
G04 Layer Name bitaxeGamma601_V1.0.pcb - circuitry*
%LPD*%
*
*
G04 PC Custom Flashes*
G04 Layer Name bitaxeGamma601_V1.0.pcb - flashes*
%LPD*%
*
*
G04 PC Circuitry*
G04 Layer Name bitaxeGamma601_V1.0.pcb - circuitry*
%LPD*%
*
G54D10*
G54D122*
G01X1041662Y1248717D02*
X1041679Y1248906D01*
X1041728Y1249090*
X1041808Y1249262*
X1041918Y1249417*
X1042052Y1249552*
X1042208Y1249661*
X1042380Y1249741*
X1042563Y1249790*
X1042752Y1249806*
X1043934*
X1044123Y1249790*
X1044306Y1249741*
X1044478Y1249660*
X1044634Y1249551*
X1044768Y1249417*
X1044877Y1249262*
X1044957Y1249090*
X1045006Y1248906*
X1045023Y1248717*
Y1247535*
X1045006Y1247346*
X1044957Y1247162*
X1044877Y1246990*
X1044768Y1246835*
X1044634Y1246701*
X1044478Y1246592*
X1044306Y1246511*
X1044123Y1246462*
X1043934Y1246445*
X1042752*
X1042563Y1246462*
X1042380Y1246511*
X1042208Y1246591*
X1042052Y1246700*
X1041918Y1246835*
X1041918D02*
X1041808Y1246990D01*
X1041728Y1247162*
X1041679Y1247346*
X1041662Y1247535*
Y1248717*
X1041768Y1247077D02*
Y1249175D01*
X1042063Y1246692D02*
Y1249560D01*
X1042359Y1246521D02*
Y1249731D01*
X1042654Y1246454D02*
Y1249798D01*
X1042950Y1246445D02*
Y1249806D01*
X1043245Y1246445D02*
Y1249806D01*
X1043541Y1246445D02*
Y1249806D01*
X1043836Y1246445D02*
Y1249806D01*
X1044132Y1246465D02*
Y1249787D01*
X1044427Y1246568D02*
Y1249684D01*
X1044723Y1246790D02*
Y1249462D01*
X1045018Y1247484D02*
Y1248768D01*
X1037922Y1248717D02*
X1037939Y1248906D01*
X1037988Y1249090*
X1038068Y1249262*
X1038177Y1249417*
X1038311Y1249551*
X1038467Y1249660*
X1038639Y1249741*
X1038822Y1249790*
X1039011Y1249806*
X1040192*
X1040382Y1249790*
X1040565Y1249741*
X1040737Y1249661*
X1040893Y1249552*
X1041027Y1249417*
X1041136Y1249262*
X1041217Y1249090*
X1041266Y1248906*
X1041283Y1248717*
Y1247535*
X1041266Y1247346*
X1041217Y1247162*
X1041136Y1246990*
X1041027Y1246835*
X1040893Y1246700*
X1040737Y1246591*
X1040565Y1246511*
X1040382Y1246462*
X1040192Y1246445*
X1039011*
X1038822Y1246462*
X1038639Y1246511*
X1038467Y1246592*
X1038311Y1246701*
X1038177Y1246835*
X1038068Y1246990*
X1037988Y1247162*
X1037939Y1247346*
X1037922Y1247535*
Y1248717*
X1037926Y1247484D02*
Y1248768D01*
X1038222Y1246790D02*
Y1249462D01*
X1038517Y1246568D02*
Y1249684D01*
X1038813Y1246465D02*
Y1249787D01*
X1039108Y1246445D02*
Y1249806D01*
X1039404Y1246445D02*
Y1249806D01*
X1039699Y1246445D02*
Y1249806D01*
X1039995Y1246445D02*
Y1249806D01*
X1040290Y1246454D02*
Y1249798D01*
X1040586Y1246521D02*
Y1249731D01*
X1040881Y1246692D02*
Y1249560D01*
X1041177Y1247077D02*
Y1249175D01*
X1122751Y1258516D02*
X1122562Y1258533D01*
X1122379Y1258582*
X1122207Y1258663*
X1122051Y1258772*
X1121917Y1258906*
X1121808Y1259062*
X1121728Y1259234*
X1121679Y1259418*
X1121662Y1259607*
Y1260788*
X1121679Y1260977*
X1121728Y1261160*
X1121808Y1261332*
X1121917Y1261488*
X1122051Y1261622*
X1122207Y1261731*
X1122379Y1261811*
X1122562Y1261861*
X1122751Y1261877*
X1123934*
X1124123Y1261861*
X1124306Y1261811*
X1124478Y1261731*
X1124634Y1261622*
X1124768Y1261488*
X1124877Y1261332*
X1124957Y1261160*
X1125006Y1260977*
X1125023Y1260788*
Y1259607*
X1125006Y1259418*
X1124957Y1259234*
X1124877Y1259062*
X1124768Y1258906*
X1124634Y1258772*
X1124478Y1258663*
X1124306Y1258582*
X1124123Y1258533*
X1123934Y1258516*
X1122751*
X1121865Y1258980D02*
Y1261414D01*
X1122161Y1258695D02*
Y1261699D01*
X1122456Y1258562D02*
Y1261832D01*
X1122752Y1258516D02*
Y1261877D01*
X1123047Y1258516D02*
Y1261877D01*
X1123343Y1258516D02*
Y1261877D01*
X1123638Y1258516D02*
Y1261877D01*
X1123934Y1258516D02*
Y1261877D01*
X1124229Y1258562D02*
Y1261832D01*
X1124525Y1258695D02*
Y1261699D01*
X1124820Y1258980D02*
Y1261414D01*
X1122751Y1254776D02*
X1122562Y1254793D01*
X1122379Y1254842*
X1122207Y1254922*
X1122051Y1255031*
X1121917Y1255166*
X1121808Y1255321*
X1121728Y1255493*
X1121679Y1255677*
X1121662Y1255866*
Y1257047*
X1121679Y1257236*
X1121728Y1257419*
X1121808Y1257592*
X1121917Y1257747*
X1122051Y1257882*
X1122207Y1257991*
X1122379Y1258071*
X1122562Y1258121*
X1122751Y1258137*
X1123934*
X1124123Y1258121*
X1124306Y1258071*
X1124478Y1257991*
X1124634Y1257882*
X1124768Y1257747*
X1124877Y1257592*
X1124957Y1257419*
X1125006Y1257236*
X1125023Y1257047*
Y1255866*
X1125006Y1255677*
X1124957Y1255493*
X1124877Y1255321*
X1124768Y1255166*
X1124634Y1255031*
X1124478Y1254922*
X1124306Y1254842*
X1124123Y1254793*
X1123934Y1254776*
X1122751*
X1121865Y1255240D02*
Y1257673D01*
X1122161Y1254955D02*
Y1257958D01*
X1122456Y1254821D02*
Y1258092D01*
X1122752Y1254776D02*
Y1258137D01*
X1123047Y1254776D02*
Y1258137D01*
X1123343Y1254776D02*
Y1258137D01*
X1123638Y1254776D02*
Y1258137D01*
X1123934Y1254776D02*
Y1258137D01*
X1124229Y1254821D02*
Y1258092D01*
X1124525Y1254955D02*
Y1257958D01*
X1124820Y1255240D02*
Y1257673D01*
X1168363Y1153924D02*
X1168552Y1153908D01*
X1168736Y1153858*
X1168908Y1153778*
X1169063Y1153669*
X1169198Y1153534*
X1169306Y1153379*
X1169387Y1153207*
X1169436Y1153023*
X1169452Y1152834*
Y1151653*
X1169436Y1151464*
X1169386Y1151280*
X1169306Y1151108*
X1169197Y1150953*
X1169063Y1150818*
X1168908Y1150709*
X1168735Y1150629*
X1168552Y1150580*
X1168363Y1150563*
X1167181*
X1166992Y1150580*
X1166808Y1150629*
X1166636Y1150709*
X1166481Y1150818*
X1166346Y1150953*
X1166237Y1151108*
X1166157Y1151280*
X1166108Y1151464*
X1166091Y1151653*
Y1152834*
X1166108Y1153023*
X1166157Y1153207*
X1166237Y1153379*
X1166346Y1153534*
X1166480Y1153669*
X1166636Y1153778*
X1166808Y1153858*
X1166991Y1153908*
X1167181Y1153924*
X1168363*
X1166294Y1151027D02*
Y1153460D01*
X1166590Y1150742D02*
Y1153746D01*
X1166885Y1150608D02*
Y1153879D01*
X1167181Y1150563D02*
Y1153924D01*
X1167476Y1150563D02*
Y1153924D01*
X1167772Y1150563D02*
Y1153924D01*
X1168067Y1150563D02*
Y1153924D01*
X1168363Y1150563D02*
Y1153924D01*
X1168658Y1150608D02*
Y1153879D01*
X1168954Y1150742D02*
Y1153746D01*
X1169249Y1151027D02*
Y1153460D01*
X1168363Y1157664D02*
X1168552Y1157648D01*
X1168735Y1157598*
X1168908Y1157518*
X1169063Y1157409*
X1169197Y1157275*
X1169306Y1157119*
X1169386Y1156947*
X1169436Y1156764*
X1169452Y1156575*
Y1155394*
X1169436Y1155205*
X1169387Y1155021*
X1169306Y1154849*
X1169198Y1154693*
X1169063Y1154559*
X1168908Y1154450*
X1168736Y1154369*
X1168552Y1154320*
X1168363Y1154303*
X1167181*
X1166991Y1154320*
X1166808Y1154369*
X1166636Y1154450*
X1166480Y1154559*
X1166346Y1154693*
X1166237Y1154849*
X1166157Y1155021*
X1166108Y1155205*
X1166091Y1155394*
Y1156575*
X1166108Y1156764*
X1166157Y1156947*
X1166237Y1157119*
X1166346Y1157275*
X1166481Y1157409*
X1166636Y1157518*
X1166808Y1157598*
X1166992Y1157648*
X1167181Y1157664*
X1168363*
X1166294Y1154767D02*
Y1157201D01*
X1166590Y1154482D02*
Y1157486D01*
X1166885Y1154349D02*
Y1157619D01*
X1167181Y1154303D02*
Y1157664D01*
X1167476Y1154303D02*
Y1157664D01*
X1167772Y1154303D02*
Y1157664D01*
X1168067Y1154303D02*
Y1157664D01*
X1168363Y1154303D02*
Y1157664D01*
X1168658Y1154349D02*
Y1157619D01*
X1168954Y1154482D02*
Y1157486D01*
X1169249Y1154767D02*
Y1157201D01*
X1057068Y1052519D02*
X1057257Y1052502D01*
X1057440Y1052453*
X1057612Y1052373*
X1057768Y1052264*
X1057902Y1052129*
X1058011Y1051974*
X1058091Y1051801*
X1058140Y1051618*
X1058157Y1051429*
Y1050248*
X1058140Y1050058*
X1058091Y1049875*
X1058011Y1049703*
X1057902Y1049547*
X1057768Y1049413*
X1057612Y1049304*
X1057440Y1049224*
X1057257Y1049175*
X1057067Y1049158*
X1055885*
X1055696Y1049175*
X1055513Y1049224*
X1055341Y1049304*
X1055185Y1049413*
X1055051Y1049547*
X1054942Y1049703*
X1054862Y1049875*
X1054813Y1050058*
X1054796Y1050248*
Y1051429*
X1054812Y1051618*
X1054862Y1051801*
X1054942Y1051974*
X1055051Y1052129*
X1055185Y1052264*
X1055340Y1052373*
X1055513Y1052453*
X1055696Y1052502*
X1055885Y1052519*
X1057068*
X1054999Y1049622D02*
Y1052055D01*
X1055294Y1049337D02*
Y1052340D01*
X1055590Y1049203D02*
Y1052474D01*
X1055885Y1049158D02*
Y1052519D01*
X1056181Y1049158D02*
Y1052519D01*
X1056476Y1049158D02*
Y1052519D01*
X1056772Y1049158D02*
Y1052519D01*
X1057067Y1049158D02*
Y1052519D01*
X1057363Y1049203D02*
Y1052474D01*
X1057658Y1049337D02*
Y1052340D01*
X1057954Y1049622D02*
Y1052055D01*
X1057067Y1056259D02*
X1057257Y1056243D01*
X1057440Y1056193*
X1057612Y1056113*
X1057768Y1056004*
X1057902Y1055870*
X1058011Y1055714*
X1058091Y1055542*
X1058140Y1055359*
X1058157Y1055170*
Y1053989*
X1058140Y1053799*
X1058091Y1053616*
X1058011Y1053444*
X1057902Y1053288*
X1057768Y1053154*
X1057612Y1053045*
X1057440Y1052964*
X1057257Y1052915*
X1057068Y1052898*
X1055885*
X1055696Y1052915*
X1055513Y1052964*
X1055340Y1053045*
X1055185Y1053154*
X1055051Y1053288*
X1054942Y1053444*
X1054862Y1053616*
X1054812Y1053799*
X1054796Y1053989*
Y1055170*
X1054813Y1055359*
X1054862Y1055542*
X1054942Y1055714*
X1055051Y1055870*
X1055185Y1056004*
X1055341Y1056113*
X1055513Y1056193*
X1055696Y1056243*
X1055885Y1056259*
X1057067*
X1054999Y1053362D02*
Y1055796D01*
X1055294Y1053077D02*
Y1056081D01*
X1055590Y1052943D02*
Y1056214D01*
X1055885Y1052898D02*
Y1056259D01*
X1056181Y1052898D02*
Y1056259D01*
X1056476Y1052898D02*
Y1056259D01*
X1056772Y1052898D02*
Y1056259D01*
X1057067Y1052898D02*
Y1056259D01*
X1057363Y1052943D02*
Y1056214D01*
X1057658Y1053077D02*
Y1056081D01*
X1057954Y1053362D02*
Y1055796D01*
X1165495Y1251417D02*
X1165479Y1251227D01*
X1165429Y1251044*
X1165349Y1250872*
X1165240Y1250716*
X1165106Y1250582*
X1164950Y1250473*
X1164778Y1250393*
X1164594Y1250344*
X1164405Y1250327*
X1163224*
X1163035Y1250344*
X1162851Y1250393*
X1162679Y1250474*
X1162524Y1250582*
X1162390Y1250717*
X1162281Y1250872*
X1162200Y1251044*
X1162151Y1251228*
X1162135Y1251417*
X1162135D02*
Y1252599D01*
X1162135D02*
X1162151Y1252788D01*
X1162200Y1252971*
X1162281Y1253144*
X1162390Y1253299*
X1162524Y1253433*
X1162679Y1253542*
X1162851Y1253623*
X1163035Y1253672*
X1163224Y1253688*
X1164405*
X1164594Y1253672*
X1164778Y1253623*
X1164950Y1253542*
X1165106Y1253434*
X1165240Y1253299*
X1165349Y1253144*
X1165429Y1252972*
X1165479Y1252788*
X1165495Y1252599*
X1165495D02*
Y1251417D01*
X1162139Y1251365D02*
Y1252650D01*
X1162435Y1250672D02*
Y1253344D01*
X1162730Y1250450D02*
Y1253566D01*
X1163026Y1250346D02*
Y1253669D01*
X1163321Y1250327D02*
Y1253688D01*
X1163617Y1250327D02*
Y1253688D01*
X1163912Y1250327D02*
Y1253688D01*
X1164208Y1250327D02*
Y1253688D01*
X1164503Y1250336D02*
Y1253680D01*
X1164799Y1250403D02*
Y1253613D01*
X1165094Y1250574D02*
Y1253442D01*
X1165390Y1250959D02*
Y1253057D01*
X1169235Y1251417D02*
X1169219Y1251228D01*
X1169170Y1251044*
X1169089Y1250872*
X1168980Y1250717*
X1168846Y1250582*
X1168691Y1250474*
X1168519Y1250393*
X1168335Y1250344*
X1168146Y1250327*
X1166965*
X1166776Y1250344*
X1166592Y1250393*
X1166420Y1250473*
X1166264Y1250582*
X1166130Y1250716*
X1166021Y1250872*
X1165941Y1251044*
X1165891Y1251227*
X1165875Y1251417*
X1165875D02*
Y1252599D01*
X1165875D02*
X1165891Y1252788D01*
X1165941Y1252972*
X1166021Y1253144*
X1166130Y1253299*
X1166264Y1253434*
X1166420Y1253542*
X1166592Y1253623*
X1166776Y1253672*
X1166965Y1253688*
X1168146*
X1168335Y1253672*
X1168519Y1253623*
X1168691Y1253542*
X1168846Y1253433*
X1168980Y1253299*
X1169089Y1253144*
X1169170Y1252971*
X1169219Y1252788*
X1169235Y1252599*
X1169235D02*
Y1251417D01*
X1165980Y1250959D02*
Y1253057D01*
X1166276Y1250574D02*
Y1253442D01*
X1166571Y1250403D02*
Y1253613D01*
X1166867Y1250336D02*
Y1253680D01*
X1167162Y1250327D02*
Y1253688D01*
X1167458Y1250327D02*
Y1253688D01*
X1167753Y1250327D02*
Y1253688D01*
X1168049Y1250327D02*
Y1253688D01*
X1168344Y1250346D02*
Y1253669D01*
X1168640Y1250450D02*
Y1253566D01*
X1168935Y1250672D02*
Y1253344D01*
X1169231Y1251365D02*
Y1252650D01*
X1165496Y1260196D02*
X1165479Y1260007D01*
X1165429Y1259824*
X1165349Y1259651*
X1165240Y1259496*
X1165106Y1259362*
X1164950Y1259253*
X1164778Y1259173*
X1164594Y1259123*
X1164405Y1259107*
X1163224*
X1163035Y1259124*
X1162851Y1259173*
X1162679Y1259253*
X1162524Y1259362*
X1162390Y1259496*
X1162281Y1259652*
X1162200Y1259824*
X1162151Y1260007*
X1162135Y1260196*
Y1261379*
X1162151Y1261568*
X1162200Y1261751*
X1162281Y1261923*
X1162390Y1262079*
X1162524Y1262213*
X1162679Y1262322*
X1162851Y1262402*
X1163035Y1262451*
X1163224Y1262468*
X1164405*
X1164594Y1262451*
X1164778Y1262402*
X1164950Y1262322*
X1165106Y1262213*
X1165240Y1262079*
X1165349Y1261923*
X1165429Y1261751*
X1165479Y1261568*
X1165496Y1261379*
Y1260196*
X1162139Y1260145D02*
Y1261430D01*
X1162435Y1259451D02*
Y1262124D01*
X1162730Y1259229D02*
Y1262345D01*
X1163026Y1259126D02*
Y1262449D01*
X1163321Y1259107D02*
Y1262468D01*
X1163617Y1259107D02*
Y1262468D01*
X1163912Y1259107D02*
Y1262468D01*
X1164208Y1259107D02*
Y1262468D01*
X1164503Y1259115D02*
Y1262459D01*
X1164799Y1259182D02*
Y1262393D01*
X1165094Y1259354D02*
Y1262221D01*
X1165390Y1259738D02*
Y1261837D01*
X1169236Y1260196D02*
X1169219Y1260007D01*
X1169170Y1259824*
X1169089Y1259652*
X1168980Y1259496*
X1168846Y1259362*
X1168691Y1259253*
X1168519Y1259173*
X1168335Y1259124*
X1168146Y1259107*
X1166965*
X1166776Y1259123*
X1166592Y1259173*
X1166420Y1259253*
X1166264Y1259362*
X1166130Y1259496*
X1166021Y1259651*
X1165941Y1259824*
X1165891Y1260007*
X1165875Y1260196*
Y1261379*
X1165891Y1261568*
X1165941Y1261751*
X1166021Y1261923*
X1166130Y1262079*
X1166265Y1262213*
X1166265D02*
X1166420Y1262322D01*
X1166592Y1262402*
X1166776Y1262451*
X1166965Y1262468*
X1168146*
X1168335Y1262451*
X1168519Y1262402*
X1168691Y1262322*
X1168846Y1262213*
X1168980Y1262079*
X1169089Y1261923*
X1169170Y1261751*
X1169219Y1261568*
X1169236Y1261379*
Y1260196*
X1165981Y1259738D02*
Y1261837D01*
X1166276Y1259354D02*
Y1262221D01*
X1166572Y1259182D02*
Y1262393D01*
X1166867Y1259115D02*
Y1262459D01*
X1167163Y1259107D02*
Y1262468D01*
X1167458Y1259107D02*
Y1262468D01*
X1167754Y1259107D02*
Y1262468D01*
X1168049Y1259107D02*
Y1262468D01*
X1168345Y1259126D02*
Y1262449D01*
X1168640Y1259229D02*
Y1262345D01*
X1168936Y1259451D02*
Y1262124D01*
X1169231Y1260145D02*
Y1261430D01*
X1177248Y1176123D02*
X1177058Y1176139D01*
X1176875Y1176189*
X1176703Y1176269*
X1176547Y1176378*
X1176413Y1176513*
X1176304Y1176668*
X1176224Y1176840*
X1176175Y1177024*
X1176158Y1177213*
Y1178394*
X1176175Y1178583*
X1176224Y1178767*
X1176305Y1178939*
X1176413Y1179094*
X1176548Y1179229*
X1176703Y1179337*
X1176875Y1179418*
X1177059Y1179467*
X1177248Y1179484*
X1178430*
X1178619Y1179467*
X1178803Y1179418*
X1178975Y1179337*
X1179130Y1179229*
X1179264Y1179094*
X1179373Y1178939*
X1179454Y1178767*
X1179503Y1178583*
X1179519Y1178394*
Y1177213*
X1179503Y1177024*
X1179454Y1176840*
X1179373Y1176668*
X1179265Y1176513*
X1179130Y1176378*
X1178975Y1176269*
X1178803Y1176189*
X1178619Y1176139*
X1178430Y1176123*
X1177248*
X1176361Y1176587D02*
Y1179020D01*
X1176657Y1176301D02*
Y1179305D01*
X1176952Y1176168D02*
Y1179438D01*
X1177248Y1176123D02*
Y1179484D01*
X1177543Y1176123D02*
Y1179484D01*
X1177839Y1176123D02*
Y1179484D01*
X1178134Y1176123D02*
Y1179484D01*
X1178430Y1176123D02*
Y1179484D01*
X1178725Y1176168D02*
Y1179438D01*
X1179021Y1176301D02*
Y1179305D01*
X1179316Y1176587D02*
Y1179020D01*
X1177248Y1172383D02*
X1177059Y1172399D01*
X1176875Y1172448*
X1176703Y1172529*
X1176548Y1172638*
X1176413Y1172772*
X1176305Y1172927*
X1176224Y1173099*
X1176175Y1173283*
X1176158Y1173472*
Y1174653*
X1176175Y1174842*
X1176224Y1175026*
X1176304Y1175198*
X1176413Y1175354*
X1176547Y1175488*
X1176703Y1175597*
X1176875Y1175678*
X1177058Y1175727*
X1177248Y1175744*
X1178430*
X1178619Y1175727*
X1178803Y1175678*
X1178975Y1175597*
X1179130Y1175488*
X1179265Y1175354*
X1179373Y1175198*
X1179454Y1175026*
X1179503Y1174842*
X1179519Y1174653*
Y1173472*
X1179503Y1173283*
X1179454Y1173099*
X1179373Y1172927*
X1179264Y1172772*
X1179130Y1172638*
X1178975Y1172529*
X1178803Y1172448*
X1178619Y1172399*
X1178430Y1172383*
X1177248*
X1176361Y1172846D02*
Y1175280D01*
X1176657Y1172561D02*
Y1175565D01*
X1176952Y1172428D02*
Y1175698D01*
X1177248Y1172383D02*
Y1175744D01*
X1177543Y1172383D02*
Y1175744D01*
X1177839Y1172383D02*
Y1175744D01*
X1178134Y1172383D02*
Y1175744D01*
X1178430Y1172383D02*
Y1175744D01*
X1178725Y1172428D02*
Y1175698D01*
X1179021Y1172561D02*
Y1175565D01*
X1179316Y1172846D02*
Y1175280D01*
X1103468Y1295381D02*
X1103451Y1295192D01*
X1103402Y1295009*
X1103321Y1294836*
X1103212Y1294681*
X1103078Y1294547*
X1102922Y1294438*
X1102750Y1294358*
X1102567Y1294308*
X1102377Y1294292*
X1101196*
X1101007Y1294309*
X1100824Y1294358*
X1100652Y1294438*
X1100496Y1294547*
X1100362Y1294681*
X1100253Y1294837*
X1100173Y1295009*
X1100124Y1295192*
X1100107Y1295381*
Y1296564*
X1100124Y1296753*
X1100173Y1296936*
X1100253Y1297108*
X1100362Y1297264*
X1100496Y1297398*
X1100652Y1297507*
X1100824Y1297587*
X1101007Y1297636*
X1101196Y1297653*
X1102377*
X1102567Y1297636*
X1102750Y1297587*
X1102922Y1297507*
X1103078Y1297398*
X1103212Y1297264*
X1103321Y1297108*
X1103402Y1296936*
X1103451Y1296753*
X1103468Y1296564*
Y1295381*
X1100111Y1295330D02*
Y1296615D01*
X1100407Y1294636D02*
Y1297309D01*
X1100702Y1294414D02*
Y1297530D01*
X1100998Y1294311D02*
Y1297634D01*
X1101293Y1294292D02*
Y1297653D01*
X1101589Y1294292D02*
Y1297653D01*
X1101884Y1294292D02*
Y1297653D01*
X1102180Y1294292D02*
Y1297653D01*
X1102475Y1294301D02*
Y1297644D01*
X1102771Y1294367D02*
Y1297578D01*
X1103066Y1294539D02*
Y1297406D01*
X1103362Y1294923D02*
Y1297022D01*
X1107208Y1295381D02*
X1107191Y1295192D01*
X1107142Y1295009*
X1107062Y1294837*
X1106953Y1294681*
X1106819Y1294547*
X1106663Y1294438*
X1106491Y1294358*
X1106308Y1294309*
X1106119Y1294292*
X1104937*
X1104748Y1294308*
X1104565Y1294358*
X1104393Y1294438*
X1104237Y1294547*
X1104103Y1294681*
X1103993Y1294836*
X1103913Y1295009*
X1103864Y1295192*
X1103847Y1295381*
Y1296564*
X1103864Y1296753*
X1103913Y1296936*
X1103993Y1297108*
X1104103Y1297264*
X1104237Y1297398*
X1104393Y1297507*
X1104565Y1297587*
X1104748Y1297636*
X1104937Y1297653*
X1106119*
X1106308Y1297636*
X1106491Y1297587*
X1106663Y1297507*
X1106819Y1297398*
X1106953Y1297264*
X1107062Y1297108*
X1107142Y1296936*
X1107191Y1296753*
X1107208Y1296564*
Y1295381*
X1103953Y1294923D02*
Y1297022D01*
X1104248Y1294539D02*
Y1297406D01*
X1104544Y1294367D02*
Y1297578D01*
X1104839Y1294301D02*
Y1297644D01*
X1105135Y1294292D02*
Y1297653D01*
X1105430Y1294292D02*
Y1297653D01*
X1105726Y1294292D02*
Y1297653D01*
X1106021Y1294292D02*
Y1297653D01*
X1106317Y1294311D02*
Y1297634D01*
X1106612Y1294414D02*
Y1297530D01*
X1106908Y1294636D02*
Y1297309D01*
X1107203Y1295330D02*
Y1296615D01*
X1181085Y1176123D02*
X1180896Y1176139D01*
X1180712Y1176189*
X1180540Y1176269*
X1180385Y1176378*
X1180251Y1176513*
X1180142Y1176668*
X1180062Y1176840*
X1180012Y1177024*
X1179996Y1177213*
Y1178394*
X1180013Y1178583*
X1180013D02*
X1180062Y1178767D01*
X1180142Y1178939*
X1180251Y1179094*
X1180385Y1179229*
X1180541Y1179337*
X1180713Y1179418*
X1180896Y1179467*
X1181085Y1179484*
X1182267*
X1182457Y1179467*
X1182640Y1179418*
X1182812Y1179337*
X1182968Y1179229*
X1183102Y1179094*
X1183211Y1178939*
X1183291Y1178767*
X1183340Y1178583*
X1183357Y1178394*
Y1177213*
X1183340Y1177024*
X1183291Y1176840*
X1183211Y1176668*
X1183102Y1176513*
X1182968Y1176378*
X1182812Y1176269*
X1182640Y1176189*
X1182457Y1176139*
X1182268Y1176123*
X1181085*
X1180199Y1176587D02*
Y1179020D01*
X1180494Y1176301D02*
Y1179305D01*
X1180790Y1176168D02*
Y1179438D01*
X1181085Y1176123D02*
Y1179484D01*
X1181381Y1176123D02*
Y1179484D01*
X1181676Y1176123D02*
Y1179484D01*
X1181972Y1176123D02*
Y1179484D01*
X1182267Y1176123D02*
Y1179484D01*
X1182563Y1176168D02*
Y1179438D01*
X1182858Y1176301D02*
Y1179305D01*
X1183154Y1176587D02*
Y1179020D01*
X1181085Y1172383D02*
X1180896Y1172399D01*
X1180713Y1172448*
X1180541Y1172529*
X1180385Y1172638*
X1180251Y1172772*
X1180142Y1172927*
X1180062Y1173099*
X1180013Y1173283*
X1180013D02*
X1179996Y1173472D01*
Y1174653*
X1180012Y1174842*
X1180062Y1175026*
X1180142Y1175198*
X1180251Y1175354*
X1180385Y1175488*
X1180540Y1175597*
X1180712Y1175678*
X1180896Y1175727*
X1181085Y1175744*
X1182268*
X1182457Y1175727*
X1182640Y1175678*
X1182812Y1175597*
X1182968Y1175488*
X1183102Y1175354*
X1183211Y1175198*
X1183291Y1175026*
X1183340Y1174842*
X1183357Y1174653*
Y1173472*
X1183340Y1173283*
X1183291Y1173099*
X1183211Y1172927*
X1183102Y1172772*
X1182968Y1172638*
X1182812Y1172529*
X1182640Y1172448*
X1182457Y1172399*
X1182267Y1172383*
X1181085*
X1180199Y1172846D02*
Y1175280D01*
X1180494Y1172561D02*
Y1175565D01*
X1180790Y1172428D02*
Y1175698D01*
X1181085Y1172383D02*
Y1175744D01*
X1181381Y1172383D02*
Y1175744D01*
X1181676Y1172383D02*
Y1175744D01*
X1181972Y1172383D02*
Y1175744D01*
X1182267Y1172383D02*
Y1175744D01*
X1182563Y1172428D02*
Y1175698D01*
X1182858Y1172561D02*
Y1175565D01*
X1183154Y1172846D02*
Y1175280D01*
X1174732Y1271645D02*
X1174715Y1271456D01*
X1174666Y1271272*
X1174585Y1271100*
X1174476Y1270945*
X1174342Y1270811*
X1174342D02*
X1174186Y1270702D01*
X1174014Y1270621*
X1173830Y1270572*
X1173641Y1270556*
X1172460*
X1172271Y1270572*
X1172088Y1270622*
X1171916Y1270702*
X1171760Y1270811*
X1171626Y1270945*
X1171517Y1271101*
X1171437Y1271273*
X1171387Y1271456*
X1171371Y1271645*
Y1272827*
X1171387Y1273016*
X1171437Y1273200*
X1171517Y1273372*
X1171626Y1273527*
X1171760Y1273662*
X1171916Y1273771*
X1172088Y1273851*
X1172271Y1273900*
X1172460Y1273917*
X1173641*
X1173830Y1273900*
X1174014Y1273851*
X1174186Y1273771*
X1174342Y1273662*
X1174476Y1273528*
X1174585Y1273372*
X1174666Y1273200*
X1174715Y1273017*
X1174732Y1272827*
Y1271645*
X1171375Y1271594D02*
Y1272879D01*
X1171671Y1270900D02*
Y1273572D01*
X1171966Y1270678D02*
Y1273794D01*
X1172262Y1270575D02*
Y1273898D01*
X1172557Y1270556D02*
Y1273917D01*
X1172853Y1270556D02*
Y1273917D01*
X1173148Y1270556D02*
Y1273917D01*
X1173444Y1270556D02*
Y1273917D01*
X1173739Y1270564D02*
Y1273908D01*
X1174035Y1270631D02*
Y1273841D01*
X1174330Y1270802D02*
Y1273670D01*
X1174626Y1271187D02*
Y1273285D01*
X1178472Y1271645D02*
X1178455Y1271456D01*
X1178406Y1271273*
X1178326Y1271101*
X1178217Y1270945*
X1178082Y1270811*
X1177927Y1270702*
X1177755Y1270622*
X1177572Y1270572*
X1177382Y1270556*
X1176201*
X1176012Y1270572*
X1175829Y1270621*
X1175656Y1270702*
X1175501Y1270810*
X1175501D02*
X1175366Y1270945D01*
X1175257Y1271100*
X1175177Y1271272*
X1175128Y1271456*
X1175111Y1271645*
Y1272827*
X1175128Y1273017*
X1175177Y1273200*
X1175257Y1273372*
X1175366Y1273528*
X1175501Y1273662*
X1175656Y1273771*
X1175829Y1273851*
X1176012Y1273900*
X1176201Y1273917*
X1177382*
X1177572Y1273900*
X1177755Y1273851*
X1177927Y1273771*
X1178082Y1273662*
X1178217Y1273527*
X1178326Y1273372*
X1178406Y1273200*
X1178455Y1273016*
X1178472Y1272827*
Y1271645*
X1175217Y1271187D02*
Y1273285D01*
X1175512Y1270802D02*
Y1273670D01*
X1175808Y1270631D02*
Y1273841D01*
X1176103Y1270564D02*
Y1273908D01*
X1176399Y1270556D02*
Y1273917D01*
X1176694Y1270556D02*
Y1273917D01*
X1176990Y1270556D02*
Y1273917D01*
X1177285Y1270556D02*
Y1273917D01*
X1177581Y1270575D02*
Y1273898D01*
X1177876Y1270678D02*
Y1273794D01*
X1178172Y1270900D02*
Y1273572D01*
X1178467Y1271594D02*
Y1272879D01*
X1175111Y1261378D02*
X1175127Y1261567D01*
X1175177Y1261751*
X1175257Y1261923*
X1175366Y1262078*
X1175500Y1262213*
X1175656Y1262322*
X1175828Y1262402*
X1176012Y1262451*
X1176201Y1262467*
X1176201D02*
X1177382D01*
X1177382D02*
X1177571Y1262451D01*
X1177755Y1262402*
X1177927Y1262321*
X1178082Y1262212*
X1178216Y1262078*
X1178325Y1261923*
X1178406Y1261751*
X1178455Y1261567*
X1178471Y1261378*
X1178471D02*
Y1260196D01*
X1178471D02*
X1178455Y1260007D01*
X1178406Y1259823*
X1178325Y1259651*
X1178216Y1259496*
X1178082Y1259362*
X1177927Y1259253*
X1177755Y1259172*
X1177571Y1259123*
X1177382Y1259107*
X1177382D02*
X1176201D01*
X1176201D02*
X1176012Y1259123D01*
X1175828Y1259172*
X1175656Y1259252*
X1175500Y1259361*
X1175366Y1259496*
X1175257Y1259651*
X1175177Y1259823*
X1175127Y1260007*
X1175111Y1260196*
X1175111D02*
Y1261378D01*
X1175216Y1259738D02*
Y1261836D01*
X1175512Y1259353D02*
Y1262221D01*
X1175807Y1259182D02*
Y1262392D01*
X1176103Y1259115D02*
Y1262459D01*
X1176398Y1259107D02*
Y1262467D01*
X1176694Y1259107D02*
Y1262467D01*
X1176989Y1259107D02*
Y1262467D01*
X1177285Y1259107D02*
Y1262467D01*
X1177580Y1259126D02*
Y1262448D01*
X1177876Y1259229D02*
Y1262345D01*
X1178171Y1259451D02*
Y1262123D01*
X1178467Y1260145D02*
Y1261429D01*
X1171371Y1261378D02*
X1171387Y1261567D01*
X1171436Y1261751*
X1171517Y1261923*
X1171626Y1262078*
X1171760Y1262212*
X1171915Y1262321*
X1172087Y1262402*
X1172271Y1262451*
X1172460Y1262467*
X1172460D02*
X1173641D01*
X1173641D02*
X1173830Y1262451D01*
X1174014Y1262402*
X1174186Y1262322*
X1174342Y1262213*
X1174476Y1262078*
X1174585Y1261923*
X1174665Y1261751*
X1174715Y1261567*
X1174731Y1261378*
X1174731D02*
Y1260196D01*
X1174731D02*
X1174715Y1260007D01*
X1174665Y1259823*
X1174585Y1259651*
X1174476Y1259496*
X1174342Y1259361*
X1174186Y1259252*
X1174014Y1259172*
X1173830Y1259123*
X1173641Y1259107*
X1173641D02*
X1172460D01*
X1172460D02*
X1172271Y1259123D01*
X1172087Y1259172*
X1171915Y1259253*
X1171760Y1259362*
X1171626Y1259496*
X1171517Y1259651*
X1171436Y1259823*
X1171387Y1260007*
X1171371Y1260196*
X1171371D02*
Y1261378D01*
X1171375Y1260145D02*
Y1261429D01*
X1171671Y1259451D02*
Y1262123D01*
X1171966Y1259229D02*
Y1262345D01*
X1172262Y1259126D02*
Y1262448D01*
X1172557Y1259107D02*
Y1262467D01*
X1172853Y1259107D02*
Y1262467D01*
X1173148Y1259107D02*
Y1262467D01*
X1173444Y1259107D02*
Y1262467D01*
X1173739Y1259115D02*
Y1262459D01*
X1174035Y1259182D02*
Y1262392D01*
X1174330Y1259353D02*
Y1262221D01*
X1174626Y1259738D02*
Y1261836D01*
X1150692Y1247682D02*
X1150503Y1247698D01*
X1150320Y1247748*
X1150148Y1247828*
X1149992Y1247937*
X1149858Y1248072*
X1149749Y1248227*
X1149669Y1248399*
X1149620Y1248583*
X1149603Y1248772*
Y1249953*
X1149620Y1250142*
X1149669Y1250326*
X1149749Y1250498*
X1149858Y1250653*
X1149992Y1250788*
X1150148Y1250896*
X1150320Y1250977*
X1150503Y1251026*
X1150692Y1251043*
X1151875*
X1152064Y1251026*
X1152247Y1250977*
X1152419Y1250896*
X1152575Y1250788*
X1152709Y1250653*
X1152818Y1250498*
X1152898Y1250326*
X1152947Y1250142*
X1152964Y1249953*
Y1248772*
X1152947Y1248583*
X1152898Y1248399*
X1152818Y1248227*
X1152709Y1248072*
X1152575Y1247937*
X1152419Y1247828*
X1152247Y1247748*
X1152064Y1247698*
X1151875Y1247682*
X1150692*
X1149806Y1248146D02*
Y1250579D01*
X1150101Y1247860D02*
Y1250864D01*
X1150397Y1247727D02*
Y1250997D01*
X1150692Y1247682D02*
Y1251043D01*
X1150988Y1247682D02*
Y1251043D01*
X1151283Y1247682D02*
Y1251043D01*
X1151579Y1247682D02*
Y1251043D01*
X1151874Y1247682D02*
Y1251043D01*
X1152170Y1247727D02*
Y1250997D01*
X1152465Y1247860D02*
Y1250864D01*
X1152761Y1248146D02*
Y1250579D01*
X1150692Y1243942D02*
X1150503Y1243958D01*
X1150320Y1244007*
X1150148Y1244088*
X1149992Y1244197*
X1149858Y1244331*
X1149749Y1244486*
X1149669Y1244659*
X1149620Y1244842*
X1149603Y1245031*
Y1246212*
X1149620Y1246401*
X1149669Y1246585*
X1149749Y1246757*
X1149858Y1246913*
X1149992Y1247047*
X1150148Y1247156*
X1150320Y1247237*
X1150503Y1247286*
X1150692Y1247303*
X1151875*
X1152064Y1247286*
X1152247Y1247237*
X1152419Y1247156*
X1152575Y1247047*
X1152709Y1246913*
X1152818Y1246757*
X1152898Y1246585*
X1152947Y1246401*
X1152964Y1246212*
Y1245031*
X1152947Y1244842*
X1152898Y1244659*
X1152818Y1244486*
X1152709Y1244331*
X1152575Y1244197*
X1152419Y1244088*
X1152247Y1244007*
X1152064Y1243958*
X1151875Y1243942*
X1150692*
X1149806Y1244405D02*
Y1246839D01*
X1150101Y1244120D02*
Y1247124D01*
X1150397Y1243987D02*
Y1247257D01*
X1150692Y1243942D02*
Y1247303D01*
X1150988Y1243942D02*
Y1247303D01*
X1151283Y1243942D02*
Y1247303D01*
X1151579Y1243942D02*
Y1247303D01*
X1151874Y1243942D02*
Y1247303D01*
X1152170Y1243987D02*
Y1247257D01*
X1152465Y1244120D02*
Y1247124D01*
X1152761Y1244405D02*
Y1246839D01*
X1146684Y1247682D02*
X1146495Y1247698D01*
X1146312Y1247748*
X1146140Y1247828*
X1145984Y1247937*
X1145850Y1248071*
X1145741Y1248227*
X1145661Y1248399*
X1145612Y1248583*
X1145595Y1248772*
Y1249953*
X1145612Y1250142*
X1145661Y1250326*
X1145741Y1250498*
X1145850Y1250653*
X1145984Y1250787*
X1146140Y1250896*
X1146312Y1250977*
X1146495Y1251026*
X1146684Y1251042*
X1146684D02*
X1147867D01*
X1147867D02*
X1148056Y1251026D01*
X1148239Y1250977*
X1148411Y1250896*
X1148567Y1250787*
X1148701Y1250653*
X1148810Y1250498*
X1148890Y1250326*
X1148939Y1250142*
X1148956Y1249953*
Y1248772*
X1148940Y1248583*
X1148890Y1248399*
X1148810Y1248227*
X1148701Y1248071*
X1148567Y1247937*
X1148412Y1247828*
X1148239Y1247748*
X1148056Y1247698*
X1147867Y1247682*
X1147867D02*
X1146684D01*
X1145798Y1248145D02*
Y1250579D01*
X1146094Y1247860D02*
Y1250864D01*
X1146389Y1247727D02*
Y1250997D01*
X1146685Y1247682D02*
Y1251042D01*
X1146980Y1247682D02*
Y1251042D01*
X1147276Y1247682D02*
Y1251042D01*
X1147571Y1247682D02*
Y1251042D01*
X1147867Y1247682D02*
Y1251042D01*
X1148162Y1247727D02*
Y1250997D01*
X1148458Y1247860D02*
Y1250864D01*
X1148753Y1248145D02*
Y1250579D01*
X1146684Y1243942D02*
X1146495Y1243958D01*
X1146312Y1244007*
X1146140Y1244088*
X1145984Y1244197*
X1145850Y1244331*
X1145741Y1244486*
X1145661Y1244658*
X1145612Y1244842*
X1145595Y1245031*
Y1246212*
X1145612Y1246401*
X1145661Y1246585*
X1145741Y1246757*
X1145850Y1246913*
X1145984Y1247047*
X1146140Y1247156*
X1146312Y1247236*
X1146495Y1247286*
X1146684Y1247302*
X1146684D02*
X1147867D01*
X1147867D02*
X1148056Y1247286D01*
X1148239Y1247236*
X1148412Y1247156*
X1148567Y1247047*
X1148701Y1246913*
X1148810Y1246757*
X1148890Y1246585*
X1148940Y1246401*
X1148956Y1246212*
Y1245031*
X1148939Y1244842*
X1148890Y1244658*
X1148810Y1244486*
X1148701Y1244331*
X1148567Y1244197*
X1148411Y1244088*
X1148239Y1244007*
X1148056Y1243958*
X1147867Y1243942*
X1147867D02*
X1146684D01*
X1145798Y1244405D02*
Y1246839D01*
X1146094Y1244120D02*
Y1247124D01*
X1146389Y1243987D02*
Y1247257D01*
X1146685Y1243942D02*
Y1247302D01*
X1146980Y1243942D02*
Y1247302D01*
X1147276Y1243942D02*
Y1247302D01*
X1147571Y1243942D02*
Y1247302D01*
X1147867Y1243942D02*
Y1247302D01*
X1148162Y1243987D02*
Y1247257D01*
X1148458Y1244120D02*
Y1247124D01*
X1148753Y1244405D02*
Y1246839D01*
X1165495Y1247279D02*
X1165479Y1247090D01*
X1165429Y1246906*
X1165349Y1246734*
X1165240Y1246579*
X1165106Y1246444*
X1164950Y1246335*
X1164778Y1246255*
X1164594Y1246206*
X1164405Y1246190*
X1163224*
X1163035Y1246206*
X1162851Y1246255*
X1162679Y1246336*
X1162524Y1246445*
X1162390Y1246579*
X1162281Y1246734*
X1162200Y1246906*
X1162151Y1247090*
X1162135Y1247279*
X1162135D02*
Y1248461D01*
X1162135D02*
X1162151Y1248650D01*
X1162200Y1248834*
X1162281Y1249006*
X1162390Y1249161*
X1162524Y1249296*
X1162679Y1249404*
X1162851Y1249485*
X1163035Y1249534*
X1163224Y1249551*
X1164405*
X1164594Y1249534*
X1164778Y1249485*
X1164950Y1249405*
X1165106Y1249296*
X1165240Y1249162*
X1165349Y1249006*
X1165429Y1248834*
X1165479Y1248651*
X1165495Y1248461*
X1165495D02*
Y1247279D01*
X1162139Y1247228D02*
Y1248512D01*
X1162435Y1246534D02*
Y1249206D01*
X1162730Y1246312D02*
Y1249428D01*
X1163026Y1246209D02*
Y1249531D01*
X1163321Y1246190D02*
Y1249551D01*
X1163617Y1246190D02*
Y1249551D01*
X1163912Y1246190D02*
Y1249551D01*
X1164208Y1246190D02*
Y1249551D01*
X1164503Y1246198D02*
Y1249542D01*
X1164799Y1246265D02*
Y1249475D01*
X1165094Y1246436D02*
Y1249304D01*
X1165390Y1246821D02*
Y1248919D01*
X1169235Y1247279D02*
X1169219Y1247090D01*
X1169170Y1246906*
X1169089Y1246734*
X1168980Y1246579*
X1168846Y1246445*
X1168691Y1246336*
X1168519Y1246255*
X1168335Y1246206*
X1168146Y1246190*
X1166965*
X1166776Y1246206*
X1166592Y1246255*
X1166420Y1246335*
X1166264Y1246444*
X1166130Y1246579*
X1166021Y1246734*
X1165941Y1246906*
X1165891Y1247090*
X1165875Y1247279*
X1165875D02*
Y1248461D01*
X1165875D02*
X1165891Y1248651D01*
X1165941Y1248834*
X1166021Y1249006*
X1166130Y1249162*
X1166264Y1249296*
X1166420Y1249405*
X1166592Y1249485*
X1166776Y1249534*
X1166965Y1249551*
X1168146*
X1168335Y1249534*
X1168519Y1249485*
X1168691Y1249404*
X1168846Y1249296*
X1168980Y1249161*
X1169089Y1249006*
X1169170Y1248834*
X1169219Y1248650*
X1169235Y1248461*
X1169235D02*
Y1247279D01*
X1165980Y1246821D02*
Y1248919D01*
X1166276Y1246436D02*
Y1249304D01*
X1166571Y1246265D02*
Y1249475D01*
X1166867Y1246198D02*
Y1249542D01*
X1167162Y1246190D02*
Y1249551D01*
X1167458Y1246190D02*
Y1249551D01*
X1167753Y1246190D02*
Y1249551D01*
X1168049Y1246190D02*
Y1249551D01*
X1168344Y1246209D02*
Y1249531D01*
X1168640Y1246312D02*
Y1249428D01*
X1168935Y1246534D02*
Y1249206D01*
X1169231Y1247228D02*
Y1248512D01*
X1175111Y1256910D02*
X1175127Y1257099D01*
X1175177Y1257283*
X1175257Y1257455*
X1175366Y1257610*
X1175500Y1257745*
X1175656Y1257854*
X1175828Y1257934*
X1176012Y1257983*
X1176201Y1257999*
X1176201D02*
X1177382D01*
X1177382D02*
X1177571Y1257983D01*
X1177755Y1257934*
X1177927Y1257853*
X1178082Y1257744*
X1178216Y1257610*
X1178325Y1257455*
X1178406Y1257283*
X1178455Y1257099*
X1178471Y1256910*
X1178471D02*
Y1255728D01*
X1178471D02*
X1178455Y1255539D01*
X1178406Y1255355*
X1178325Y1255183*
X1178216Y1255028*
X1178082Y1254894*
X1177927Y1254785*
X1177755Y1254704*
X1177571Y1254655*
X1177382Y1254639*
X1177382D02*
X1176201D01*
X1176201D02*
X1176012Y1254655D01*
X1175828Y1254704*
X1175656Y1254784*
X1175500Y1254893*
X1175366Y1255028*
X1175257Y1255183*
X1175177Y1255355*
X1175127Y1255539*
X1175111Y1255728*
X1175111D02*
Y1256910D01*
X1175216Y1255270D02*
Y1257368D01*
X1175512Y1254885D02*
Y1257753D01*
X1175807Y1254714D02*
Y1257924D01*
X1176103Y1254647D02*
Y1257991D01*
X1176398Y1254639D02*
Y1257999D01*
X1176694Y1254639D02*
Y1257999D01*
X1176989Y1254639D02*
Y1257999D01*
X1177285Y1254639D02*
Y1257999D01*
X1177580Y1254658D02*
Y1257980D01*
X1177876Y1254761D02*
Y1257877D01*
X1178171Y1254983D02*
Y1257655D01*
X1178467Y1255677D02*
Y1256961D01*
X1171371Y1256910D02*
X1171387Y1257099D01*
X1171436Y1257283*
X1171517Y1257455*
X1171626Y1257610*
X1171760Y1257744*
X1171915Y1257853*
X1172087Y1257934*
X1172271Y1257983*
X1172460Y1257999*
X1172460D02*
X1173641D01*
X1173641D02*
X1173830Y1257983D01*
X1174014Y1257934*
X1174186Y1257854*
X1174342Y1257745*
X1174476Y1257610*
X1174585Y1257455*
X1174665Y1257283*
X1174715Y1257099*
X1174731Y1256910*
X1174731D02*
Y1255728D01*
X1174731D02*
X1174715Y1255539D01*
X1174665Y1255355*
X1174585Y1255183*
X1174476Y1255028*
X1174342Y1254893*
X1174186Y1254784*
X1174014Y1254704*
X1173830Y1254655*
X1173641Y1254639*
X1173641D02*
X1172460D01*
X1172460D02*
X1172271Y1254655D01*
X1172087Y1254704*
X1171915Y1254785*
X1171760Y1254894*
X1171626Y1255028*
X1171517Y1255183*
X1171436Y1255355*
X1171387Y1255539*
X1171371Y1255728*
X1171371D02*
Y1256910D01*
X1171375Y1255677D02*
Y1256961D01*
X1171671Y1254983D02*
Y1257655D01*
X1171966Y1254761D02*
Y1257877D01*
X1172262Y1254658D02*
Y1257980D01*
X1172557Y1254639D02*
Y1257999D01*
X1172853Y1254639D02*
Y1257999D01*
X1173148Y1254639D02*
Y1257999D01*
X1173444Y1254639D02*
Y1257999D01*
X1173739Y1254647D02*
Y1257991D01*
X1174035Y1254714D02*
Y1257924D01*
X1174330Y1254885D02*
Y1257753D01*
X1174626Y1255270D02*
Y1257368D01*
X1165495Y1255728D02*
X1165479Y1255538D01*
X1165429Y1255355*
X1165349Y1255183*
X1165240Y1255027*
X1165106Y1254893*
X1164950Y1254784*
X1164778Y1254704*
X1164594Y1254655*
X1164405Y1254638*
X1163224*
X1163035Y1254655*
X1162851Y1254704*
X1162679Y1254785*
X1162524Y1254893*
X1162390Y1255028*
X1162281Y1255183*
X1162200Y1255355*
X1162151Y1255539*
X1162135Y1255728*
X1162135D02*
Y1256910D01*
X1162135D02*
X1162151Y1257099D01*
X1162200Y1257283*
X1162281Y1257455*
X1162390Y1257610*
X1162524Y1257744*
X1162679Y1257853*
X1162851Y1257934*
X1163035Y1257983*
X1163224Y1257999*
X1164405*
X1164594Y1257983*
X1164778Y1257934*
X1164950Y1257854*
X1165106Y1257745*
X1165240Y1257610*
X1165349Y1257455*
X1165429Y1257283*
X1165479Y1257099*
X1165495Y1256910*
X1165495D02*
Y1255728D01*
X1162139Y1255676D02*
Y1256961D01*
X1162435Y1254983D02*
Y1257655D01*
X1162730Y1254761D02*
Y1257877D01*
X1163026Y1254658D02*
Y1257980D01*
X1163321Y1254638D02*
Y1257999D01*
X1163617Y1254638D02*
Y1257999D01*
X1163912Y1254638D02*
Y1257999D01*
X1164208Y1254638D02*
Y1257999D01*
X1164503Y1254647D02*
Y1257991D01*
X1164799Y1254714D02*
Y1257924D01*
X1165094Y1254885D02*
Y1257753D01*
X1165390Y1255270D02*
Y1257368D01*
X1169235Y1255728D02*
X1169219Y1255539D01*
X1169170Y1255355*
X1169089Y1255183*
X1168980Y1255028*
X1168846Y1254893*
X1168691Y1254785*
X1168519Y1254704*
X1168335Y1254655*
X1168146Y1254638*
X1166965*
X1166776Y1254655*
X1166592Y1254704*
X1166420Y1254784*
X1166264Y1254893*
X1166130Y1255027*
X1166021Y1255183*
X1165941Y1255355*
X1165891Y1255538*
X1165875Y1255728*
X1165875D02*
Y1256910D01*
X1165875D02*
X1165891Y1257099D01*
X1165941Y1257283*
X1166021Y1257455*
X1166130Y1257610*
X1166264Y1257745*
X1166420Y1257853*
X1166420D02*
X1166592Y1257934D01*
X1166776Y1257983*
X1166965Y1257999*
X1168146*
X1168335Y1257983*
X1168519Y1257934*
X1168691Y1257853*
X1168846Y1257744*
X1168980Y1257610*
X1169089Y1257455*
X1169170Y1257283*
X1169219Y1257099*
X1169235Y1256910*
X1169235D02*
Y1255728D01*
X1165980Y1255270D02*
Y1257368D01*
X1166276Y1254885D02*
Y1257753D01*
X1166571Y1254714D02*
Y1257924D01*
X1166867Y1254647D02*
Y1257991D01*
X1167162Y1254638D02*
Y1257999D01*
X1167458Y1254638D02*
Y1257999D01*
X1167753Y1254638D02*
Y1257999D01*
X1168049Y1254638D02*
Y1257999D01*
X1168344Y1254658D02*
Y1257980D01*
X1168640Y1254761D02*
Y1257877D01*
X1168935Y1254983D02*
Y1257655D01*
X1169231Y1255676D02*
Y1256961D01*
X1175111Y1252599D02*
X1175127Y1252788D01*
X1175177Y1252972*
X1175257Y1253144*
X1175366Y1253299*
X1175500Y1253434*
X1175656Y1253543*
X1175828Y1253623*
X1176012Y1253672*
X1176201Y1253688*
X1176201D02*
X1177382D01*
X1177382D02*
X1177571Y1253672D01*
X1177755Y1253623*
X1177927Y1253542*
X1178082Y1253433*
X1178216Y1253299*
X1178325Y1253144*
X1178406Y1252972*
X1178455Y1252788*
X1178471Y1252599*
X1178471D02*
Y1251417D01*
X1178471D02*
X1178455Y1251228D01*
X1178406Y1251044*
X1178325Y1250872*
X1178216Y1250717*
X1178082Y1250583*
X1177927Y1250474*
X1177755Y1250393*
X1177571Y1250344*
X1177382Y1250328*
X1177382D02*
X1176201D01*
X1176201D02*
X1176012Y1250344D01*
X1175828Y1250393*
X1175656Y1250473*
X1175500Y1250582*
X1175366Y1250717*
X1175257Y1250872*
X1175177Y1251044*
X1175127Y1251228*
X1175111Y1251417*
X1175111D02*
Y1252599D01*
X1175216Y1250959D02*
Y1253057D01*
X1175512Y1250574D02*
Y1253442D01*
X1175807Y1250403D02*
Y1253613D01*
X1176103Y1250336D02*
Y1253680D01*
X1176398Y1250328D02*
Y1253688D01*
X1176694Y1250328D02*
Y1253688D01*
X1176989Y1250328D02*
Y1253688D01*
X1177285Y1250328D02*
Y1253688D01*
X1177580Y1250347D02*
Y1253669D01*
X1177876Y1250450D02*
Y1253566D01*
X1178171Y1250672D02*
Y1253344D01*
X1178467Y1251366D02*
Y1252650D01*
X1171371Y1252599D02*
X1171387Y1252788D01*
X1171436Y1252972*
X1171517Y1253144*
X1171626Y1253299*
X1171760Y1253433*
X1171915Y1253542*
X1172087Y1253623*
X1172271Y1253672*
X1172460Y1253688*
X1172460D02*
X1173641D01*
X1173641D02*
X1173830Y1253672D01*
X1174014Y1253623*
X1174186Y1253543*
X1174342Y1253434*
X1174476Y1253299*
X1174585Y1253144*
X1174665Y1252972*
X1174715Y1252788*
X1174731Y1252599*
X1174731D02*
Y1251417D01*
X1174731D02*
X1174715Y1251228D01*
X1174665Y1251044*
X1174585Y1250872*
X1174476Y1250717*
X1174342Y1250582*
X1174186Y1250473*
X1174014Y1250393*
X1173830Y1250344*
X1173641Y1250328*
X1173641D02*
X1172460D01*
X1172460D02*
X1172271Y1250344D01*
X1172087Y1250393*
X1171915Y1250474*
X1171760Y1250583*
X1171626Y1250717*
X1171517Y1250872*
X1171436Y1251044*
X1171387Y1251228*
X1171371Y1251417*
X1171371D02*
Y1252599D01*
X1171375Y1251366D02*
Y1252650D01*
X1171671Y1250672D02*
Y1253344D01*
X1171966Y1250450D02*
Y1253566D01*
X1172262Y1250347D02*
Y1253669D01*
X1172557Y1250328D02*
Y1253688D01*
X1172853Y1250328D02*
Y1253688D01*
X1173148Y1250328D02*
Y1253688D01*
X1173444Y1250328D02*
Y1253688D01*
X1173739Y1250336D02*
Y1253680D01*
X1174035Y1250403D02*
Y1253613D01*
X1174330Y1250574D02*
Y1253442D01*
X1174626Y1250959D02*
Y1253057D01*
X1175111Y1248461D02*
X1175127Y1248650D01*
X1175177Y1248834*
X1175257Y1249006*
X1175366Y1249161*
X1175500Y1249296*
X1175656Y1249405*
X1175828Y1249485*
X1176012Y1249534*
X1176201Y1249550*
X1176201D02*
X1177382D01*
X1177382D02*
X1177571Y1249534D01*
X1177755Y1249485*
X1177927Y1249404*
X1178082Y1249295*
X1178216Y1249161*
X1178325Y1249006*
X1178406Y1248834*
X1178455Y1248650*
X1178471Y1248461*
X1178471D02*
Y1247279D01*
X1178471D02*
X1178455Y1247090D01*
X1178406Y1246906*
X1178325Y1246734*
X1178216Y1246579*
X1178082Y1246445*
X1177927Y1246336*
X1177755Y1246255*
X1177571Y1246206*
X1177382Y1246190*
X1177382D02*
X1176201D01*
X1176201D02*
X1176012Y1246206D01*
X1175828Y1246255*
X1175656Y1246335*
X1175500Y1246444*
X1175366Y1246579*
X1175257Y1246734*
X1175177Y1246906*
X1175127Y1247090*
X1175111Y1247279*
X1175111D02*
Y1248461D01*
X1175216Y1246821D02*
Y1248919D01*
X1175512Y1246436D02*
Y1249304D01*
X1175807Y1246265D02*
Y1249475D01*
X1176103Y1246198D02*
Y1249542D01*
X1176398Y1246190D02*
Y1249550D01*
X1176694Y1246190D02*
Y1249550D01*
X1176989Y1246190D02*
Y1249550D01*
X1177285Y1246190D02*
Y1249550D01*
X1177580Y1246209D02*
Y1249531D01*
X1177876Y1246312D02*
Y1249428D01*
X1178171Y1246534D02*
Y1249206D01*
X1178467Y1247228D02*
Y1248512D01*
X1171371Y1248461D02*
X1171387Y1248650D01*
X1171436Y1248834*
X1171517Y1249006*
X1171626Y1249161*
X1171760Y1249295*
X1171915Y1249404*
X1172087Y1249485*
X1172271Y1249534*
X1172460Y1249550*
X1172460D02*
X1173641D01*
X1173641D02*
X1173830Y1249534D01*
X1174014Y1249485*
X1174186Y1249405*
X1174342Y1249296*
X1174476Y1249161*
X1174585Y1249006*
X1174665Y1248834*
X1174715Y1248650*
X1174731Y1248461*
X1174731D02*
Y1247279D01*
X1174731D02*
X1174715Y1247090D01*
X1174665Y1246906*
X1174585Y1246734*
X1174476Y1246579*
X1174342Y1246444*
X1174186Y1246335*
X1174014Y1246255*
X1173830Y1246206*
X1173641Y1246190*
X1173641D02*
X1172460D01*
X1172460D02*
X1172271Y1246206D01*
X1172087Y1246255*
X1171915Y1246336*
X1171760Y1246445*
X1171626Y1246579*
X1171517Y1246734*
X1171436Y1246906*
X1171387Y1247090*
X1171371Y1247279*
X1171371D02*
Y1248461D01*
X1171375Y1247228D02*
Y1248512D01*
X1171671Y1246534D02*
Y1249206D01*
X1171966Y1246312D02*
Y1249428D01*
X1172262Y1246209D02*
Y1249531D01*
X1172557Y1246190D02*
Y1249550D01*
X1172853Y1246190D02*
Y1249550D01*
X1173148Y1246190D02*
Y1249550D01*
X1173444Y1246190D02*
Y1249550D01*
X1173739Y1246198D02*
Y1249542D01*
X1174035Y1246265D02*
Y1249475D01*
X1174330Y1246436D02*
Y1249304D01*
X1174626Y1246821D02*
Y1248919D01*
X1174731Y1264617D02*
X1174715Y1264428D01*
X1174665Y1264245*
X1174585Y1264073*
X1174476Y1263917*
X1174342Y1263783*
X1174186Y1263674*
X1174014Y1263594*
X1173830Y1263545*
X1173641Y1263528*
X1172460*
X1172271Y1263545*
X1172087Y1263594*
X1171915Y1263674*
X1171760Y1263783*
X1171626Y1263917*
X1171517Y1264073*
X1171436Y1264245*
X1171387Y1264428*
X1171371Y1264618*
X1171371D02*
Y1265800D01*
X1171371D02*
X1171387Y1265989D01*
X1171436Y1266172*
X1171517Y1266344*
X1171626Y1266500*
X1171760Y1266634*
X1171915Y1266743*
X1172087Y1266823*
X1172271Y1266873*
X1172460Y1266889*
X1173641*
X1173830Y1266873*
X1174014Y1266823*
X1174186Y1266743*
X1174342Y1266634*
X1174476Y1266500*
X1174585Y1266345*
X1174665Y1266173*
X1174715Y1265989*
X1174731Y1265800*
X1174731D02*
Y1264617D01*
X1171375Y1264566D02*
Y1265851D01*
X1171671Y1263873D02*
Y1266545D01*
X1171966Y1263651D02*
Y1266767D01*
X1172262Y1263547D02*
Y1266870D01*
X1172557Y1263528D02*
Y1266889D01*
X1172853Y1263528D02*
Y1266889D01*
X1173148Y1263528D02*
Y1266889D01*
X1173444Y1263528D02*
Y1266889D01*
X1173739Y1263537D02*
Y1266881D01*
X1174035Y1263604D02*
Y1266814D01*
X1174330Y1263775D02*
Y1266642D01*
X1174626Y1264159D02*
Y1266258D01*
X1178471Y1264618D02*
X1178455Y1264428D01*
X1178406Y1264245*
X1178325Y1264073*
X1178216Y1263917*
X1178082Y1263783*
X1177927Y1263674*
X1177755Y1263594*
X1177571Y1263545*
X1177382Y1263528*
X1176201*
X1176012Y1263545*
X1175828Y1263594*
X1175656Y1263674*
X1175500Y1263783*
X1175366Y1263917*
X1175257Y1264073*
X1175177Y1264245*
X1175127Y1264428*
X1175111Y1264617*
X1175111D02*
Y1265800D01*
X1175111D02*
X1175127Y1265989D01*
X1175177Y1266173*
X1175257Y1266345*
X1175366Y1266500*
X1175500Y1266634*
X1175656Y1266743*
X1175828Y1266823*
X1176012Y1266873*
X1176201Y1266889*
X1177382*
X1177571Y1266873*
X1177755Y1266823*
X1177927Y1266743*
X1178082Y1266634*
X1178216Y1266500*
X1178325Y1266344*
X1178406Y1266172*
X1178455Y1265989*
X1178471Y1265800*
X1178471D02*
Y1264618D01*
X1175216Y1264159D02*
Y1266258D01*
X1175512Y1263775D02*
Y1266642D01*
X1175807Y1263604D02*
Y1266814D01*
X1176103Y1263537D02*
Y1266881D01*
X1176398Y1263528D02*
Y1266889D01*
X1176694Y1263528D02*
Y1266889D01*
X1176989Y1263528D02*
Y1266889D01*
X1177285Y1263528D02*
Y1266889D01*
X1177580Y1263547D02*
Y1266870D01*
X1177876Y1263651D02*
Y1266767D01*
X1178171Y1263873D02*
Y1266545D01*
X1178467Y1264566D02*
Y1265851D01*
X1091066Y1045159D02*
X1090877Y1045176D01*
X1090693Y1045225*
X1090521Y1045305*
X1090366Y1045414*
X1090231Y1045549*
X1090122Y1045704*
X1090042Y1045877*
X1089993Y1046060*
X1089976Y1046249*
Y1047430*
X1089993Y1047620*
X1090042Y1047803*
X1090123Y1047975*
X1090232Y1048130*
X1090366Y1048265*
X1090521Y1048374*
X1090693Y1048454*
X1090877Y1048503*
X1091066Y1048520*
X1092248*
X1092437Y1048503*
X1092621Y1048454*
X1092793Y1048374*
X1092948Y1048265*
X1093082Y1048130*
X1093191Y1047975*
X1093272Y1047803*
X1093321Y1047620*
X1093337Y1047430*
Y1046249*
X1093321Y1046060*
X1093272Y1045877*
X1093192Y1045704*
X1093083Y1045549*
X1092948Y1045414*
X1092793Y1045305*
X1092621Y1045225*
X1092437Y1045176*
X1092248Y1045159*
X1091066*
X1090179Y1045623D02*
Y1048056D01*
X1090475Y1045338D02*
Y1048341D01*
X1090770Y1045204D02*
Y1048475D01*
X1091066Y1045159D02*
Y1048520D01*
X1091361Y1045159D02*
Y1048520D01*
X1091657Y1045159D02*
Y1048520D01*
X1091952Y1045159D02*
Y1048520D01*
X1092248Y1045159D02*
Y1048520D01*
X1092543Y1045204D02*
Y1048475D01*
X1092839Y1045338D02*
Y1048341D01*
X1093134Y1045623D02*
Y1048056D01*
X1091066Y1041419D02*
X1090877Y1041435D01*
X1090693Y1041485*
X1090521Y1041565*
X1090366Y1041674*
X1090232Y1041808*
X1090123Y1041964*
X1090042Y1042136*
X1089993Y1042319*
X1089976Y1042508*
Y1043689*
X1089993Y1043879*
X1090042Y1044062*
X1090122Y1044234*
X1090231Y1044390*
X1090366Y1044524*
X1090521Y1044633*
X1090693Y1044714*
X1090877Y1044763*
X1091066Y1044780*
X1092248*
X1092437Y1044763*
X1092621Y1044714*
X1092793Y1044633*
X1092948Y1044524*
X1093083Y1044390*
X1093192Y1044234*
X1093272Y1044062*
X1093321Y1043879*
X1093337Y1043689*
Y1042508*
X1093321Y1042319*
X1093272Y1042136*
X1093191Y1041964*
X1093082Y1041808*
X1092948Y1041674*
X1092793Y1041565*
X1092621Y1041485*
X1092437Y1041435*
X1092248Y1041419*
X1091066*
X1090179Y1041882D02*
Y1044316D01*
X1090475Y1041597D02*
Y1044601D01*
X1090770Y1041464D02*
Y1044734D01*
X1091066Y1041419D02*
Y1044780D01*
X1091361Y1041419D02*
Y1044780D01*
X1091657Y1041419D02*
Y1044780D01*
X1091952Y1041419D02*
Y1044780D01*
X1092248Y1041419D02*
Y1044780D01*
X1092543Y1041464D02*
Y1044734D01*
X1092839Y1041597D02*
Y1044601D01*
X1093134Y1041882D02*
Y1044316D01*
X1072271Y1040901D02*
X1072254Y1040712D01*
X1072205Y1040528*
X1072125Y1040356*
X1072016Y1040201*
X1071881Y1040066*
X1071726Y1039958*
X1071553Y1039877*
X1071370Y1039828*
X1071181Y1039812*
X1070000*
X1069810Y1039828*
X1069627Y1039877*
X1069455Y1039958*
X1069299Y1040067*
X1069165Y1040201*
X1069056Y1040356*
X1068976Y1040529*
X1068927Y1040712*
X1068910Y1040901*
Y1042083*
X1068927Y1042272*
X1068976Y1042456*
X1069056Y1042628*
X1069165Y1042783*
X1069299Y1042918*
X1069455Y1043026*
X1069627Y1043107*
X1069810Y1043156*
X1070000Y1043173*
X1071181*
X1071370Y1043156*
X1071553Y1043107*
X1071726Y1043027*
X1071881Y1042918*
X1072016Y1042784*
X1072125Y1042628*
X1072205Y1042456*
X1072254Y1042273*
X1072271Y1042083*
Y1040901*
X1068915Y1040850D02*
Y1042135D01*
X1069210Y1040156D02*
Y1042828D01*
X1069506Y1039934D02*
Y1043050D01*
X1069801Y1039831D02*
Y1043154D01*
X1070097Y1039812D02*
Y1043173D01*
X1070392Y1039812D02*
Y1043173D01*
X1070688Y1039812D02*
Y1043173D01*
X1070983Y1039812D02*
Y1043173D01*
X1071279Y1039820D02*
Y1043164D01*
X1071574Y1039887D02*
Y1043097D01*
X1071870Y1040058D02*
Y1042926D01*
X1072165Y1040443D02*
Y1042541D01*
X1076011Y1040901D02*
X1075994Y1040712D01*
X1075945Y1040529*
X1075865Y1040356*
X1075756Y1040201*
X1075622Y1040067*
X1075466Y1039958*
X1075294Y1039877*
X1075111Y1039828*
X1074922Y1039812*
X1073741*
X1073551Y1039828*
X1073368Y1039877*
X1073196Y1039958*
X1073040Y1040066*
X1072906Y1040201*
X1072797Y1040356*
X1072716Y1040528*
X1072667Y1040712*
X1072650Y1040901*
Y1042083*
X1072667Y1042273*
X1072716Y1042456*
X1072797Y1042628*
X1072906Y1042784*
X1073040Y1042918*
X1073196Y1043027*
X1073368Y1043107*
X1073551Y1043156*
X1073741Y1043173*
X1074922*
X1075111Y1043156*
X1075294Y1043107*
X1075466Y1043026*
X1075622Y1042918*
X1075756Y1042783*
X1075865Y1042628*
X1075945Y1042456*
X1075994Y1042272*
X1076011Y1042083*
Y1040901*
X1072756Y1040443D02*
Y1042541D01*
X1073052Y1040058D02*
Y1042926D01*
X1073347Y1039887D02*
Y1043097D01*
X1073643Y1039820D02*
Y1043164D01*
X1073938Y1039812D02*
Y1043173D01*
X1074234Y1039812D02*
Y1043173D01*
X1074529Y1039812D02*
Y1043173D01*
X1074825Y1039812D02*
Y1043173D01*
X1075120Y1039831D02*
Y1043154D01*
X1075416Y1039934D02*
Y1043050D01*
X1075711Y1040156D02*
Y1042828D01*
X1076007Y1040850D02*
Y1042135D01*
X1092248Y1053500D02*
X1092437Y1053483D01*
X1092621Y1053434*
X1092793Y1053354*
X1092948Y1053245*
X1093083Y1053110*
X1093192Y1052955*
X1093272Y1052782*
X1093321Y1052599*
X1093337Y1052410*
Y1051229*
X1093321Y1051040*
X1093272Y1050856*
X1093191Y1050684*
X1093082Y1050529*
X1092948Y1050394*
X1092793Y1050285*
X1092621Y1050205*
X1092437Y1050156*
X1092248Y1050139*
X1091066*
X1090877Y1050156*
X1090693Y1050205*
X1090521Y1050285*
X1090366Y1050394*
X1090232Y1050529*
X1090123Y1050684*
X1090042Y1050856*
X1089993Y1051040*
X1089976Y1051229*
Y1052410*
X1089993Y1052599*
X1090042Y1052782*
X1090122Y1052955*
X1090231Y1053110*
X1090366Y1053245*
X1090521Y1053354*
X1090693Y1053434*
X1090877Y1053483*
X1091066Y1053500*
X1092248*
X1090179Y1050603D02*
Y1053036D01*
X1090475Y1050318D02*
Y1053321D01*
X1090770Y1050184D02*
Y1053455D01*
X1091066Y1050139D02*
Y1053500D01*
X1091361Y1050139D02*
Y1053500D01*
X1091657Y1050139D02*
Y1053500D01*
X1091952Y1050139D02*
Y1053500D01*
X1092248Y1050139D02*
Y1053500D01*
X1092543Y1050184D02*
Y1053455D01*
X1092839Y1050318D02*
Y1053321D01*
X1093134Y1050603D02*
Y1053036D01*
X1092248Y1057240D02*
X1092437Y1057224D01*
X1092621Y1057174*
X1092793Y1057094*
X1092948Y1056985*
X1093082Y1056851*
X1093191Y1056695*
X1093272Y1056523*
X1093321Y1056340*
X1093337Y1056151*
Y1054970*
X1093321Y1054781*
X1093272Y1054597*
X1093192Y1054425*
X1093083Y1054269*
X1092948Y1054135*
X1092793Y1054026*
X1092621Y1053945*
X1092437Y1053896*
X1092248Y1053879*
X1091066*
X1090877Y1053896*
X1090693Y1053945*
X1090521Y1054026*
X1090366Y1054135*
X1090231Y1054269*
X1090122Y1054425*
X1090042Y1054597*
X1089993Y1054781*
X1089976Y1054970*
Y1056151*
X1089993Y1056340*
X1090042Y1056523*
X1090123Y1056695*
X1090232Y1056851*
X1090366Y1056985*
X1090521Y1057094*
X1090693Y1057174*
X1090877Y1057224*
X1091066Y1057240*
X1092248*
X1090179Y1054343D02*
Y1056777D01*
X1090475Y1054058D02*
Y1057062D01*
X1090770Y1053925D02*
Y1057195D01*
X1091066Y1053879D02*
Y1057240D01*
X1091361Y1053879D02*
Y1057240D01*
X1091657Y1053879D02*
Y1057240D01*
X1091952Y1053879D02*
Y1057240D01*
X1092248Y1053879D02*
Y1057240D01*
X1092543Y1053925D02*
Y1057195D01*
X1092839Y1054058D02*
Y1057062D01*
X1093134Y1054343D02*
Y1056777D01*
X1050653Y1102090D02*
X1050636Y1101901D01*
X1050587Y1101717*
X1050507Y1101545*
X1050397Y1101390*
X1050263Y1101255*
X1050107Y1101147*
X1050107D02*
X1049935Y1101066D01*
X1049752Y1101017*
X1049563Y1101001*
X1048381*
X1048192Y1101017*
X1048009Y1101066*
X1047837Y1101147*
X1047681Y1101256*
X1047547Y1101390*
X1047438Y1101545*
X1047358Y1101717*
X1047309Y1101901*
X1047292Y1102090*
Y1103272*
X1047309Y1103461*
X1047358Y1103645*
X1047438Y1103817*
X1047547Y1103972*
X1047681Y1104107*
X1047837Y1104215*
X1048009Y1104296*
X1048192Y1104345*
X1048381Y1104362*
X1049563*
X1049752Y1104345*
X1049935Y1104296*
X1050107Y1104216*
X1050263Y1104107*
X1050397Y1103973*
X1050507Y1103817*
X1050587Y1103645*
X1050636Y1103462*
X1050653Y1103272*
Y1102090*
X1047297Y1102039D02*
Y1103324D01*
X1047592Y1101345D02*
Y1104017D01*
X1047888Y1101123D02*
Y1104239D01*
X1048183Y1101020D02*
Y1104342D01*
X1048479Y1101001D02*
Y1104362D01*
X1048774Y1101001D02*
Y1104362D01*
X1049070Y1101001D02*
Y1104362D01*
X1049365Y1101001D02*
Y1104362D01*
X1049661Y1101009D02*
Y1104353D01*
X1049956Y1101076D02*
Y1104286D01*
X1050252Y1101247D02*
Y1104115D01*
X1050547Y1101632D02*
Y1103730D01*
X1054393Y1102090D02*
X1054376Y1101901D01*
X1054327Y1101717*
X1054247Y1101545*
X1054138Y1101390*
X1054004Y1101256*
X1053848Y1101147*
X1053676Y1101066*
X1053493Y1101017*
X1053304Y1101001*
X1052123*
X1051933Y1101017*
X1051750Y1101066*
X1051578Y1101146*
X1051422Y1101255*
X1051288Y1101390*
X1051179Y1101545*
X1051098Y1101717*
X1051049Y1101901*
X1051032Y1102090*
Y1103272*
X1051049Y1103462*
X1051098Y1103645*
X1051179Y1103817*
X1051288Y1103973*
X1051422Y1104107*
X1051578Y1104216*
X1051750Y1104296*
X1051933Y1104345*
X1052123Y1104362*
X1053304*
X1053493Y1104345*
X1053676Y1104296*
X1053848Y1104215*
X1054004Y1104107*
X1054138Y1103972*
X1054247Y1103817*
X1054327Y1103645*
X1054376Y1103461*
X1054393Y1103272*
Y1102090*
X1051138Y1101632D02*
Y1103730D01*
X1051434Y1101247D02*
Y1104115D01*
X1051729Y1101076D02*
Y1104286D01*
X1052025Y1101009D02*
Y1104353D01*
X1052320Y1101001D02*
Y1104362D01*
X1052616Y1101001D02*
Y1104362D01*
X1052911Y1101001D02*
Y1104362D01*
X1053207Y1101001D02*
Y1104362D01*
X1053502Y1101020D02*
Y1104342D01*
X1053798Y1101123D02*
Y1104239D01*
X1054093Y1101345D02*
Y1104017D01*
X1054389Y1102039D02*
Y1103324D01*
X1058028Y1098103D02*
X1058045Y1098292D01*
X1058094Y1098476*
X1058175Y1098648*
X1058284Y1098803*
X1058418Y1098938*
X1058574Y1099046*
X1058746Y1099127*
X1058929Y1099176*
X1059119Y1099192*
X1060300*
X1060489Y1099176*
X1060672Y1099126*
X1060844Y1099046*
X1061000Y1098937*
X1061134Y1098803*
X1061243Y1098647*
X1061323Y1098475*
X1061372Y1098292*
X1061389Y1098103*
Y1096921*
X1061372Y1096732*
X1061323Y1096548*
X1061243Y1096376*
X1061134Y1096221*
X1061000Y1096086*
X1060844Y1095977*
X1060672Y1095897*
X1060489Y1095848*
X1060300Y1095831*
X1059119*
X1058929Y1095848*
X1058746Y1095897*
X1058574Y1095977*
X1058418Y1096086*
X1058284Y1096220*
X1058175Y1096376*
X1058094Y1096548*
X1058045Y1096731*
X1058028Y1096921*
Y1098103*
X1058134Y1096463D02*
Y1098561D01*
X1058430Y1096078D02*
Y1098946D01*
X1058725Y1095907D02*
Y1099117D01*
X1059021Y1095840D02*
Y1099184D01*
X1059316Y1095831D02*
Y1099192D01*
X1059612Y1095831D02*
Y1099192D01*
X1059907Y1095831D02*
Y1099192D01*
X1060203Y1095831D02*
Y1099192D01*
X1060498Y1095850D02*
Y1099173D01*
X1060794Y1095954D02*
Y1099070D01*
X1061089Y1096176D02*
Y1098848D01*
X1061385Y1096869D02*
Y1098154D01*
X1054288Y1098103D02*
X1054305Y1098292D01*
X1054354Y1098475*
X1054434Y1098647*
X1054543Y1098803*
X1054677Y1098937*
X1054833Y1099046*
X1055005Y1099126*
X1055188Y1099176*
X1055377Y1099192*
X1056559*
X1056748Y1099176*
X1056931Y1099127*
X1057103Y1099046*
X1057259Y1098938*
X1057394Y1098803*
X1057503Y1098648*
X1057583Y1098476*
X1057632Y1098292*
X1057649Y1098103*
Y1096921*
X1057632Y1096731*
X1057583Y1096548*
X1057503Y1096376*
X1057394Y1096220*
X1057259Y1096086*
X1057103Y1095977*
X1056931Y1095897*
X1056748Y1095848*
X1056559Y1095831*
X1055377*
X1055188Y1095848*
X1055005Y1095897*
X1054833Y1095977*
X1054677Y1096086*
X1054543Y1096221*
X1054434Y1096376*
X1054354Y1096548*
X1054305Y1096732*
X1054288Y1096921*
Y1098103*
X1054293Y1096869D02*
Y1098154D01*
X1054588Y1096176D02*
Y1098848D01*
X1054884Y1095954D02*
Y1099070D01*
X1055179Y1095850D02*
Y1099173D01*
X1055475Y1095831D02*
Y1099192D01*
X1055770Y1095831D02*
Y1099192D01*
X1056066Y1095831D02*
Y1099192D01*
X1056361Y1095831D02*
Y1099192D01*
X1056657Y1095840D02*
Y1099184D01*
X1056952Y1095907D02*
Y1099117D01*
X1057248Y1096078D02*
Y1098946D01*
X1057543Y1096463D02*
Y1098561D01*
X1051209Y1092776D02*
X1051226Y1092965D01*
X1051275Y1093149*
X1051356Y1093321*
X1051465Y1093477*
X1051599Y1093611*
X1051755Y1093720*
X1051927Y1093800*
X1052110Y1093849*
X1052300Y1093866*
X1053481*
X1053670Y1093849*
X1053853Y1093800*
X1054025Y1093719*
X1054181Y1093610*
X1054315Y1093476*
X1054424Y1093321*
X1054504Y1093149*
X1054554Y1092965*
X1054570Y1092776*
Y1091594*
X1054554Y1091405*
X1054504Y1091221*
X1054424Y1091049*
X1054315Y1090894*
X1054181Y1090760*
X1054025Y1090651*
X1053853Y1090570*
X1053670Y1090521*
X1053481Y1090505*
X1052300*
X1052110Y1090521*
X1051927Y1090570*
X1051755Y1090650*
X1051599Y1090759*
X1051465Y1090894*
X1051356Y1091049*
X1051275Y1091221*
X1051226Y1091405*
X1051209Y1091594*
Y1092776*
X1051315Y1091136D02*
Y1093234D01*
X1051611Y1090751D02*
Y1093619D01*
X1051906Y1090580D02*
Y1093790D01*
X1052202Y1090513D02*
Y1093857D01*
X1052497Y1090505D02*
Y1093866D01*
X1052793Y1090505D02*
Y1093866D01*
X1053088Y1090505D02*
Y1093866D01*
X1053384Y1090505D02*
Y1093866D01*
X1053679Y1090524D02*
Y1093846D01*
X1053975Y1090627D02*
Y1093743D01*
X1054270Y1090849D02*
Y1093521D01*
X1054566Y1091543D02*
Y1092827D01*
X1047469Y1092776D02*
X1047486Y1092965D01*
X1047535Y1093149*
X1047615Y1093321*
X1047724Y1093476*
X1047858Y1093610*
X1048014Y1093719*
X1048186Y1093800*
X1048369Y1093849*
X1048559Y1093866*
X1049740*
X1049929Y1093849*
X1050112Y1093800*
X1050285Y1093720*
X1050440Y1093611*
X1050575Y1093477*
X1050684Y1093321*
X1050764Y1093149*
X1050813Y1092965*
X1050830Y1092776*
Y1091594*
X1050813Y1091405*
X1050764Y1091221*
X1050684Y1091049*
X1050575Y1090894*
X1050440Y1090759*
X1050285Y1090650*
X1050112Y1090570*
X1049929Y1090521*
X1049740Y1090505*
X1048559*
X1048369Y1090521*
X1048186Y1090570*
X1048014Y1090651*
X1047858Y1090760*
X1047724Y1090894*
X1047615Y1091049*
X1047535Y1091221*
X1047486Y1091405*
X1047469Y1091594*
Y1092776*
X1047474Y1091543D02*
Y1092827D01*
X1047769Y1090849D02*
Y1093521D01*
X1048065Y1090627D02*
Y1093743D01*
X1048360Y1090524D02*
Y1093846D01*
X1048656Y1090505D02*
Y1093866D01*
X1048951Y1090505D02*
Y1093866D01*
X1049247Y1090505D02*
Y1093866D01*
X1049542Y1090505D02*
Y1093866D01*
X1049838Y1090513D02*
Y1093857D01*
X1050133Y1090580D02*
Y1093790D01*
X1050429Y1090751D02*
Y1093619D01*
X1050724Y1091136D02*
Y1093234D01*
X1055885Y1044756D02*
X1055696Y1044773D01*
X1055513Y1044823*
X1055340Y1044903*
X1055185Y1045012*
X1055051Y1045146*
X1054942Y1045302*
X1054862Y1045474*
X1054812Y1045658*
X1054796Y1045847*
Y1047028*
X1054813Y1047217*
X1054862Y1047401*
X1054942Y1047573*
X1055051Y1047728*
X1055185Y1047862*
X1055341Y1047971*
X1055513Y1048052*
X1055696Y1048101*
X1055885Y1048117*
X1057067*
X1057257Y1048101*
X1057440Y1048052*
X1057612Y1047971*
X1057768Y1047862*
X1057902Y1047728*
X1058011Y1047573*
X1058091Y1047401*
X1058140Y1047217*
X1058157Y1047028*
Y1045847*
X1058140Y1045658*
X1058091Y1045474*
X1058011Y1045302*
X1057902Y1045146*
X1057768Y1045012*
X1057612Y1044903*
X1057440Y1044823*
X1057257Y1044773*
X1057068Y1044756*
X1055885*
X1054999Y1045220D02*
Y1047654D01*
X1055294Y1044935D02*
Y1047939D01*
X1055590Y1044802D02*
Y1048072D01*
X1055885Y1044756D02*
Y1048117D01*
X1056181Y1044756D02*
Y1048117D01*
X1056476Y1044756D02*
Y1048117D01*
X1056772Y1044756D02*
Y1048117D01*
X1057067Y1044756D02*
Y1048117D01*
X1057363Y1044802D02*
Y1048072D01*
X1057658Y1044935D02*
Y1047939D01*
X1057954Y1045220D02*
Y1047654D01*
X1055885Y1041016D02*
X1055696Y1041033D01*
X1055513Y1041082*
X1055341Y1041163*
X1055185Y1041271*
X1055051Y1041406*
X1054942Y1041561*
X1054862Y1041733*
X1054813Y1041917*
X1054796Y1042106*
Y1043287*
X1054812Y1043476*
X1054862Y1043660*
X1054942Y1043832*
X1055051Y1043987*
X1055185Y1044122*
X1055340Y1044231*
X1055513Y1044311*
X1055696Y1044361*
X1055885Y1044377*
X1057068*
X1057257Y1044361*
X1057440Y1044311*
X1057612Y1044231*
X1057768Y1044122*
X1057902Y1043987*
X1058011Y1043832*
X1058091Y1043660*
X1058140Y1043476*
X1058157Y1043287*
Y1042106*
X1058140Y1041917*
X1058091Y1041733*
X1058011Y1041561*
X1057902Y1041406*
X1057768Y1041271*
X1057612Y1041163*
X1057440Y1041082*
X1057257Y1041033*
X1057067Y1041016*
X1055885*
X1054999Y1041480D02*
Y1043913D01*
X1055294Y1041195D02*
Y1044199D01*
X1055590Y1041062D02*
Y1044332D01*
X1055885Y1041016D02*
Y1044377D01*
X1056181Y1041016D02*
Y1044377D01*
X1056476Y1041016D02*
Y1044377D01*
X1056772Y1041016D02*
Y1044377D01*
X1057067Y1041016D02*
Y1044377D01*
X1057363Y1041062D02*
Y1044332D01*
X1057658Y1041195D02*
Y1044199D01*
X1057954Y1041480D02*
Y1043913D01*
X1056677Y1111665D02*
X1056660Y1111475D01*
X1056611Y1111292*
X1056530Y1111120*
X1056421Y1110964*
X1056287Y1110830*
X1056131Y1110721*
X1055959Y1110641*
X1055775Y1110592*
X1055586Y1110575*
X1054405*
X1054216Y1110592*
X1054033Y1110641*
X1053860Y1110722*
X1053705Y1110830*
X1053571Y1110965*
X1053462Y1111120*
X1053381Y1111292*
X1053332Y1111476*
X1053316Y1111665*
Y1112847*
X1053332Y1113036*
X1053381Y1113220*
X1053462Y1113392*
X1053571Y1113547*
X1053705Y1113681*
X1053860Y1113790*
X1054033Y1113871*
X1054216Y1113920*
X1054405Y1113936*
X1055586*
X1055775Y1113920*
X1055959Y1113871*
X1056131Y1113791*
X1056287Y1113682*
X1056421Y1113547*
X1056530Y1113392*
X1056611Y1113220*
X1056660Y1113036*
X1056677Y1112847*
Y1111665*
X1053320Y1111613D02*
Y1112898D01*
X1053616Y1110920D02*
Y1113592D01*
X1053911Y1110698D02*
Y1113814D01*
X1054207Y1110595D02*
Y1113917D01*
X1054502Y1110575D02*
Y1113936D01*
X1054798Y1110575D02*
Y1113936D01*
X1055093Y1110575D02*
Y1113936D01*
X1055389Y1110575D02*
Y1113936D01*
X1055684Y1110584D02*
Y1113928D01*
X1055980Y1110651D02*
Y1113861D01*
X1056275Y1110822D02*
Y1113690D01*
X1056571Y1111207D02*
Y1113305D01*
X1060417Y1111665D02*
X1060400Y1111476D01*
X1060351Y1111292*
X1060271Y1111120*
X1060162Y1110965*
X1060027Y1110830*
X1059872Y1110722*
X1059700Y1110641*
X1059516Y1110592*
X1059327Y1110575*
X1058146*
X1057957Y1110592*
X1057773Y1110641*
X1057601Y1110721*
X1057446Y1110830*
X1057311Y1110964*
X1057202Y1111120*
X1057122Y1111292*
X1057072Y1111475*
X1057056Y1111665*
Y1112847*
X1057072Y1113036*
X1057122Y1113220*
X1057202Y1113392*
X1057311Y1113547*
X1057446Y1113682*
X1057601Y1113791*
X1057773Y1113871*
X1057957Y1113920*
X1058146Y1113936*
X1059327*
X1059516Y1113920*
X1059700Y1113871*
X1059872Y1113790*
X1060027Y1113681*
X1060162Y1113547*
X1060271Y1113392*
X1060351Y1113220*
X1060400Y1113036*
X1060417Y1112847*
Y1111665*
X1057162Y1111207D02*
Y1113305D01*
X1057457Y1110822D02*
Y1113690D01*
X1057753Y1110651D02*
Y1113861D01*
X1058048Y1110584D02*
Y1113928D01*
X1058344Y1110575D02*
Y1113936D01*
X1058639Y1110575D02*
Y1113936D01*
X1058935Y1110575D02*
Y1113936D01*
X1059230Y1110575D02*
Y1113936D01*
X1059526Y1110595D02*
Y1113917D01*
X1059821Y1110698D02*
Y1113814D01*
X1060117Y1110920D02*
Y1113592D01*
X1060412Y1111613D02*
Y1112898D01*
X1173520Y1175539D02*
X1173710Y1175522D01*
X1173893Y1175473*
X1174065Y1175392*
X1174221Y1175283*
X1174355Y1175149*
X1174464Y1174993*
X1174544Y1174821*
X1174593Y1174638*
X1174610Y1174448*
Y1173267*
X1174593Y1173078*
X1174544Y1172895*
X1174463Y1172723*
X1174463D02*
X1174355Y1172567D01*
X1174220Y1172433*
X1174065Y1172324*
X1173893Y1172244*
X1173709Y1172194*
X1173520Y1172178*
X1172338*
X1172149Y1172194*
X1171966Y1172244*
X1171793Y1172324*
X1171638Y1172433*
X1171504Y1172567*
X1171395Y1172723*
X1171314Y1172895*
X1171265Y1173078*
X1171249Y1173267*
Y1174448*
X1171265Y1174638*
X1171314Y1174821*
X1171395Y1174993*
X1171503Y1175149*
X1171638Y1175283*
X1171793Y1175392*
X1171965Y1175473*
X1172149Y1175522*
X1172338Y1175539*
X1173520*
X1171452Y1172641D02*
Y1175075D01*
X1171747Y1172356D02*
Y1175360D01*
X1172043Y1172223D02*
Y1175494D01*
X1172338Y1172178D02*
Y1175539D01*
X1172634Y1172178D02*
Y1175539D01*
X1172929Y1172178D02*
Y1175539D01*
X1173225Y1172178D02*
Y1175539D01*
X1173520Y1172178D02*
Y1175539D01*
X1173816Y1172223D02*
Y1175494D01*
X1174111Y1172356D02*
Y1175360D01*
X1174407Y1172641D02*
Y1175075D01*
X1173520Y1179279D02*
X1173709Y1179262D01*
X1173893Y1179213*
X1174065Y1179133*
X1174220Y1179024*
X1174355Y1178890*
X1174463Y1178734*
X1174463D02*
X1174544Y1178562D01*
X1174593Y1178379*
X1174610Y1178189*
Y1177008*
X1174593Y1176819*
X1174544Y1176636*
X1174464Y1176463*
X1174355Y1176308*
X1174221Y1176173*
X1174065Y1176064*
X1173893Y1175984*
X1173710Y1175935*
X1173520Y1175918*
X1172338*
X1172149Y1175935*
X1171965Y1175984*
X1171793Y1176064*
X1171638Y1176173*
X1171503Y1176308*
X1171395Y1176463*
X1171314Y1176636*
X1171265Y1176819*
X1171249Y1177008*
Y1178189*
X1171265Y1178379*
X1171314Y1178562*
X1171395Y1178734*
X1171504Y1178890*
X1171638Y1179024*
X1171793Y1179133*
X1171966Y1179213*
X1172149Y1179262*
X1172338Y1179279*
X1173520*
X1171452Y1176382D02*
Y1178815D01*
X1171747Y1176097D02*
Y1179100D01*
X1172043Y1175963D02*
Y1179234D01*
X1172338Y1175918D02*
Y1179279D01*
X1172634Y1175918D02*
Y1179279D01*
X1172929Y1175918D02*
Y1179279D01*
X1173225Y1175918D02*
Y1179279D01*
X1173520Y1175918D02*
Y1179279D01*
X1173816Y1175963D02*
Y1179234D01*
X1174111Y1176097D02*
Y1179100D01*
X1174407Y1176382D02*
Y1178815D01*
G54D152*
X1043299Y1236662D03*
X1090841Y1317172D03*
X1125992Y1380758D03*
X1184221Y1134693D03*
X1166275Y1135007D03*
X1150877Y1145345D03*
X1158535Y1140101D03*
X1158578Y1129423D03*
X1150842Y1134057D03*
X1150700Y1124077D03*
X1086259Y1062898D03*
X1146143Y1113519D03*
X1065229Y1085160D03*
X1059873Y1092359D03*
X1065949Y1098075D03*
X1169624Y1380310D03*
X1169308Y1369803D03*
X1047959Y1352307D03*
X1053601Y1342997D03*
X1051079Y1063165D03*
X1074390Y1123858D03*
X1058898Y1103220D03*
X1044583Y1145469D03*
X1041311Y1139016D03*
X1036724Y1144469D03*
G54D173*
X1114793Y1370514D02*
X1114776Y1370325D01*
X1114727Y1370141*
X1114646Y1369969*
X1114537Y1369813*
X1114403Y1369679*
X1114247Y1369570*
X1114075Y1369489*
X1113891Y1369440*
X1113702Y1369424*
X1112521*
X1112332Y1369440*
X1112148Y1369489*
X1111976Y1369570*
X1111820Y1369679*
X1111686Y1369813*
X1111576Y1369969*
X1111496Y1370141*
X1111447Y1370325*
X1111430Y1370514*
Y1371695*
X1111447Y1371885*
X1111496Y1372068*
X1111576Y1372240*
X1111686Y1372396*
X1111820Y1372531*
X1111976Y1372640*
X1112148Y1372720*
X1112332Y1372769*
X1112521Y1372786*
X1113702*
X1113891Y1372769*
X1114075Y1372720*
X1114247Y1372640*
X1114403Y1372531*
X1114537Y1372396*
X1114646Y1372240*
X1114727Y1372068*
X1114776Y1371885*
X1114793Y1371695*
Y1370514*
X1111438Y1370424D02*
Y1371785D01*
X1111734Y1369765D02*
Y1372444D01*
X1112029Y1369545D02*
Y1372664D01*
X1112324Y1369442D02*
Y1372767D01*
X1112619Y1369424D02*
Y1372786D01*
X1112915Y1369424D02*
Y1372786D01*
X1113210Y1369424D02*
Y1372786D01*
X1113505Y1369424D02*
Y1372786D01*
X1113800Y1369432D02*
Y1372777D01*
X1114096Y1369499D02*
Y1372710D01*
X1114391Y1369670D02*
Y1372539D01*
X1114686Y1370054D02*
Y1372155D01*
X1118533Y1370514D02*
X1118516Y1370325D01*
X1118467Y1370141*
X1118387Y1369969*
X1118278Y1369813*
X1118143Y1369679*
X1117987Y1369570*
X1117815Y1369489*
X1117632Y1369440*
X1117442Y1369424*
X1116261*
X1116072Y1369440*
X1115888Y1369489*
X1115716Y1369570*
X1115560Y1369679*
X1115426Y1369813*
X1115317Y1369969*
X1115236Y1370141*
X1115187Y1370325*
X1115171Y1370514*
Y1371695*
X1115187Y1371885*
X1115236Y1372068*
X1115317Y1372240*
X1115426Y1372396*
X1115560Y1372531*
X1115716Y1372640*
X1115888Y1372720*
X1116072Y1372769*
X1116261Y1372786*
X1117442*
X1117632Y1372769*
X1117815Y1372720*
X1117987Y1372640*
X1118143Y1372531*
X1118278Y1372396*
X1118387Y1372240*
X1118467Y1372068*
X1118516Y1371885*
X1118533Y1371695*
Y1370514*
X1115277Y1370054D02*
Y1372155D01*
X1115572Y1369670D02*
Y1372539D01*
X1115867Y1369499D02*
Y1372710D01*
X1116163Y1369432D02*
Y1372777D01*
X1116458Y1369424D02*
Y1372786D01*
X1116753Y1369424D02*
Y1372786D01*
X1117048Y1369424D02*
Y1372786D01*
X1117344Y1369424D02*
Y1372786D01*
X1117639Y1369442D02*
Y1372767D01*
X1117934Y1369545D02*
Y1372664D01*
X1118230Y1369765D02*
Y1372444D01*
X1118525Y1370424D02*
Y1371785D01*
X1114831Y1365709D02*
X1114815Y1365520D01*
X1114765Y1365336*
X1114685Y1365164*
X1114576Y1365008*
X1114442Y1364874*
X1114286Y1364765*
X1114114Y1364684*
X1113930Y1364635*
X1113741Y1364619*
X1112560*
X1112370Y1364635*
X1112187Y1364684*
X1112014Y1364765*
X1111859Y1364874*
X1111724Y1365008*
X1111615Y1365164*
X1111535Y1365336*
X1111486Y1365520*
X1111469Y1365709*
Y1366890*
X1111486Y1367080*
X1111535Y1367263*
X1111615Y1367436*
X1111724Y1367591*
X1111859Y1367726*
X1112014Y1367835*
X1112187Y1367915*
X1112370Y1367964*
X1112560Y1367981*
X1113741*
X1113930Y1367964*
X1114114Y1367915*
X1114286Y1367835*
X1114442Y1367726*
X1114576Y1367591*
X1114685Y1367436*
X1114765Y1367263*
X1114815Y1367080*
X1114831Y1366890*
Y1365709*
X1111477Y1365619D02*
Y1366980D01*
X1111772Y1364960D02*
Y1367639D01*
X1112067Y1364740D02*
Y1367860D01*
X1112363Y1364637D02*
Y1367962D01*
X1112658Y1364619D02*
Y1367981D01*
X1112953Y1364619D02*
Y1367981D01*
X1113249Y1364619D02*
Y1367981D01*
X1113544Y1364619D02*
Y1367981D01*
X1113839Y1364627D02*
Y1367972D01*
X1114134Y1364694D02*
Y1367905D01*
X1114430Y1364865D02*
Y1367734D01*
X1114725Y1365249D02*
Y1367350D01*
X1118571Y1365709D02*
X1118555Y1365520D01*
X1118506Y1365336*
X1118425Y1365164*
X1118316Y1365008*
X1118182Y1364874*
X1118026Y1364765*
X1117854Y1364684*
X1117670Y1364635*
X1117481Y1364619*
X1116300*
X1116110Y1364635*
X1115927Y1364684*
X1115754Y1364765*
X1115599Y1364874*
X1115464Y1365008*
X1115355Y1365164*
X1115275Y1365336*
X1115226Y1365520*
X1115209Y1365709*
Y1366890*
X1115226Y1367080*
X1115275Y1367263*
X1115355Y1367436*
X1115464Y1367591*
X1115599Y1367726*
X1115754Y1367835*
X1115927Y1367915*
X1116110Y1367964*
X1116300Y1367981*
X1117481*
X1117670Y1367964*
X1117854Y1367915*
X1118026Y1367835*
X1118182Y1367726*
X1118316Y1367591*
X1118425Y1367436*
X1118506Y1367263*
X1118555Y1367080*
X1118571Y1366890*
Y1365709*
X1115315Y1365249D02*
Y1367350D01*
X1115611Y1364865D02*
Y1367734D01*
X1115906Y1364694D02*
Y1367905D01*
X1116201Y1364627D02*
Y1367972D01*
X1116497Y1364619D02*
Y1367981D01*
X1116792Y1364619D02*
Y1367981D01*
X1117087Y1364619D02*
Y1367981D01*
X1117382Y1364619D02*
Y1367981D01*
X1117678Y1364637D02*
Y1367962D01*
X1117973Y1364740D02*
Y1367860D01*
X1118268Y1364960D02*
Y1367639D01*
X1118564Y1365619D02*
Y1366980D01*
X1088487Y1327852D02*
X1088298Y1327869D01*
X1088114Y1327918*
X1087942Y1327998*
X1087786Y1328107*
X1087651Y1328242*
X1087542Y1328397*
X1087462Y1328570*
X1087413Y1328753*
X1087396Y1328943*
Y1330124*
X1087413Y1330313*
X1087462Y1330497*
X1087542Y1330669*
X1087651Y1330825*
X1087786Y1330959*
X1087942Y1331068*
X1088114Y1331148*
X1088298Y1331198*
X1088487Y1331214*
X1089668*
X1089857Y1331198*
X1090041Y1331148*
X1090213Y1331068*
X1090369Y1330959*
X1090503Y1330825*
X1090612Y1330669*
X1090693Y1330497*
X1090742Y1330313*
X1090759Y1330124*
Y1328943*
X1090742Y1328753*
X1090693Y1328570*
X1090612Y1328397*
X1090503Y1328242*
X1090369Y1328107*
X1090213Y1327998*
X1090041Y1327918*
X1089857Y1327869*
X1089668Y1327852*
X1088487*
X1087601Y1328314D02*
Y1330753D01*
X1087896Y1328030D02*
Y1331036D01*
X1088192Y1327897D02*
Y1331169D01*
X1088487Y1327852D02*
Y1331214D01*
X1088782Y1327852D02*
Y1331214D01*
X1089077Y1327852D02*
Y1331214D01*
X1089373Y1327852D02*
Y1331214D01*
X1089668Y1327852D02*
Y1331214D01*
X1089963Y1327897D02*
Y1331169D01*
X1090259Y1328030D02*
Y1331036D01*
X1090554Y1328314D02*
Y1330753D01*
X1088487Y1324112D02*
X1088298Y1324128D01*
X1088114Y1324178*
X1087942Y1324258*
X1087786Y1324367*
X1087651Y1324501*
X1087542Y1324657*
X1087462Y1324829*
X1087413Y1325013*
X1087396Y1325202*
Y1326383*
X1087413Y1326573*
X1087462Y1326756*
X1087542Y1326929*
X1087651Y1327084*
X1087786Y1327219*
X1087942Y1327328*
X1088114Y1327408*
X1088298Y1327457*
X1088487Y1327474*
X1089668*
X1089857Y1327457*
X1090041Y1327408*
X1090213Y1327328*
X1090369Y1327219*
X1090503Y1327084*
X1090612Y1326929*
X1090693Y1326756*
X1090742Y1326573*
X1090759Y1326383*
Y1325202*
X1090742Y1325013*
X1090693Y1324829*
X1090612Y1324657*
X1090503Y1324501*
X1090369Y1324367*
X1090213Y1324258*
X1090041Y1324178*
X1089857Y1324128*
X1089668Y1324112*
X1088487*
X1087601Y1324573D02*
Y1327012D01*
X1087896Y1324290D02*
Y1327296D01*
X1088192Y1324157D02*
Y1327429D01*
X1088487Y1324112D02*
Y1327474D01*
X1088782Y1324112D02*
Y1327474D01*
X1089077Y1324112D02*
Y1327474D01*
X1089373Y1324112D02*
Y1327474D01*
X1089668Y1324112D02*
Y1327474D01*
X1089963Y1324157D02*
Y1327429D01*
X1090259Y1324290D02*
Y1327296D01*
X1090554Y1324573D02*
Y1327012D01*
X1110015Y1339482D02*
X1109825Y1339498D01*
X1109642Y1339547*
X1109470Y1339628*
X1109314Y1339737*
X1109179Y1339871*
X1109070Y1340027*
X1108990Y1340199*
X1108941Y1340383*
X1108924Y1340572*
Y1341753*
X1108941Y1341943*
X1108990Y1342126*
X1109070Y1342299*
X1109179Y1342454*
X1109314Y1342589*
X1109470Y1342698*
X1109642Y1342778*
X1109825Y1342827*
X1110015Y1342844*
X1111196*
X1111385Y1342827*
X1111569Y1342778*
X1111741Y1342698*
X1111897Y1342589*
X1112031Y1342454*
X1112140Y1342299*
X1112221Y1342126*
X1112270Y1341943*
X1112287Y1341753*
Y1340572*
X1112270Y1340383*
X1112221Y1340199*
X1112140Y1340027*
X1112031Y1339871*
X1111897Y1339737*
X1111741Y1339628*
X1111569Y1339547*
X1111385Y1339498*
X1111196Y1339482*
X1110015*
X1109129Y1339943D02*
Y1342382D01*
X1109424Y1339659D02*
Y1342666D01*
X1109720Y1339527D02*
Y1342799D01*
X1110015Y1339482D02*
Y1342844D01*
X1110310Y1339482D02*
Y1342844D01*
X1110605Y1339482D02*
Y1342844D01*
X1110901Y1339482D02*
Y1342844D01*
X1111196Y1339482D02*
Y1342844D01*
X1111491Y1339527D02*
Y1342799D01*
X1111787Y1339659D02*
Y1342666D01*
X1112082Y1339943D02*
Y1342382D01*
X1110015Y1335741D02*
X1109825Y1335758D01*
X1109642Y1335807*
X1109470Y1335888*
X1109314Y1335997*
X1109179Y1336131*
X1109070Y1336287*
X1108990Y1336459*
X1108941Y1336643*
X1108924Y1336832*
Y1338013*
X1108941Y1338202*
X1108990Y1338386*
X1109070Y1338558*
X1109179Y1338714*
X1109314Y1338849*
X1109470Y1338958*
X1109642Y1339038*
X1109825Y1339087*
X1110015Y1339104*
X1111196*
X1111385Y1339087*
X1111569Y1339038*
X1111741Y1338958*
X1111897Y1338849*
X1112031Y1338714*
X1112140Y1338558*
X1112221Y1338386*
X1112270Y1338202*
X1112287Y1338013*
Y1336832*
X1112270Y1336643*
X1112221Y1336459*
X1112140Y1336287*
X1112031Y1336131*
X1111897Y1335997*
X1111741Y1335888*
X1111569Y1335807*
X1111385Y1335758*
X1111196Y1335741*
X1110015*
X1109129Y1336203D02*
Y1338642D01*
X1109424Y1335919D02*
Y1338926D01*
X1109720Y1335786D02*
Y1339059D01*
X1110015Y1335741D02*
Y1339104D01*
X1110310Y1335741D02*
Y1339104D01*
X1110605Y1335741D02*
Y1339104D01*
X1110901Y1335741D02*
Y1339104D01*
X1111196Y1335741D02*
Y1339104D01*
X1111491Y1335786D02*
Y1339059D01*
X1111787Y1335919D02*
Y1338926D01*
X1112082Y1336203D02*
Y1338642D01*
X1095043Y1346579D02*
X1095026Y1346389D01*
X1094977Y1346206*
X1094897Y1346033*
X1094788Y1345878*
X1094653Y1345743*
X1094498Y1345634*
X1094325Y1345554*
X1094142Y1345505*
X1093952Y1345488*
X1092771*
X1092582Y1345505*
X1092398Y1345554*
X1092226Y1345634*
X1092070Y1345743*
X1091936Y1345878*
X1091827Y1346033*
X1091746Y1346206*
X1091697Y1346389*
X1091681Y1346579*
Y1347760*
X1091697Y1347949*
X1091746Y1348133*
X1091827Y1348305*
X1091936Y1348461*
X1092070Y1348595*
X1092226Y1348704*
X1092398Y1348785*
X1092582Y1348834*
X1092771Y1348850*
X1093952*
X1094142Y1348834*
X1094325Y1348785*
X1094498Y1348704*
X1094653Y1348595*
X1094788Y1348461*
X1094897Y1348305*
X1094977Y1348133*
X1095026Y1347949*
X1095043Y1347760*
Y1346579*
X1091689Y1346489D02*
Y1347850D01*
X1091984Y1345830D02*
Y1348509D01*
X1092279Y1345610D02*
Y1348729D01*
X1092574Y1345507D02*
Y1348832D01*
X1092870Y1345488D02*
Y1348850D01*
X1093165Y1345488D02*
Y1348850D01*
X1093460Y1345488D02*
Y1348850D01*
X1093755Y1345488D02*
Y1348850D01*
X1094051Y1345497D02*
Y1348842D01*
X1094346Y1345564D02*
Y1348775D01*
X1094641Y1345735D02*
Y1348604D01*
X1094937Y1346119D02*
Y1348220D01*
X1098783Y1346579D02*
X1098766Y1346389D01*
X1098717Y1346206*
X1098637Y1346033*
X1098528Y1345878*
X1098393Y1345743*
X1098238Y1345634*
X1098065Y1345554*
X1097882Y1345505*
X1097692Y1345488*
X1096511*
X1096322Y1345505*
X1096138Y1345554*
X1095966Y1345634*
X1095810Y1345743*
X1095676Y1345878*
X1095567Y1346033*
X1095487Y1346206*
X1095437Y1346389*
X1095421Y1346579*
Y1347760*
X1095437Y1347949*
X1095487Y1348133*
X1095567Y1348305*
X1095676Y1348461*
X1095810Y1348595*
X1095966Y1348704*
X1096138Y1348785*
X1096322Y1348834*
X1096511Y1348850*
X1097692*
X1097882Y1348834*
X1098065Y1348785*
X1098238Y1348704*
X1098393Y1348595*
X1098528Y1348461*
X1098637Y1348305*
X1098717Y1348133*
X1098766Y1347949*
X1098783Y1347760*
Y1346579*
X1095527Y1346119D02*
Y1348220D01*
X1095822Y1345735D02*
Y1348604D01*
X1096118Y1345564D02*
Y1348775D01*
X1096413Y1345497D02*
Y1348842D01*
X1096708Y1345488D02*
Y1348850D01*
X1097004Y1345488D02*
Y1348850D01*
X1097299Y1345488D02*
Y1348850D01*
X1097594Y1345488D02*
Y1348850D01*
X1097889Y1345507D02*
Y1348832D01*
X1098185Y1345610D02*
Y1348729D01*
X1098480Y1345830D02*
Y1348509D01*
X1098775Y1346489D02*
Y1347850D01*
X1034898Y1246016D02*
X1034708Y1246032D01*
X1034525Y1246082*
X1034352Y1246162*
X1034197Y1246271*
X1034062Y1246405*
X1033953Y1246561*
X1033873Y1246733*
X1033824Y1246917*
X1033807Y1247106*
Y1248287*
X1033824Y1248477*
X1033873Y1248660*
X1033953Y1248833*
X1034062Y1248988*
X1034197Y1249123*
X1034352Y1249232*
X1034525Y1249312*
X1034708Y1249361*
X1034898Y1249378*
X1036079*
X1036268Y1249361*
X1036452Y1249312*
X1036624Y1249232*
X1036780Y1249123*
X1036914Y1248988*
X1037023Y1248833*
X1037104Y1248660*
X1037153Y1248477*
X1037169Y1248287*
Y1247106*
X1037153Y1246917*
X1037104Y1246733*
X1037023Y1246561*
X1036914Y1246405*
X1036780Y1246271*
X1036624Y1246162*
X1036452Y1246082*
X1036268Y1246032*
X1036079Y1246016*
X1034898*
X1034012Y1246477D02*
Y1248916D01*
X1034307Y1246194D02*
Y1249200D01*
X1034602Y1246061D02*
Y1249333D01*
X1034898Y1246016D02*
Y1249378D01*
X1035193Y1246016D02*
Y1249378D01*
X1035488Y1246016D02*
Y1249378D01*
X1035783Y1246016D02*
Y1249378D01*
X1036079Y1246016D02*
Y1249378D01*
X1036374Y1246061D02*
Y1249333D01*
X1036669Y1246194D02*
Y1249200D01*
X1036965Y1246477D02*
Y1248916D01*
X1034898Y1242276D02*
X1034708Y1242292D01*
X1034525Y1242341*
X1034352Y1242422*
X1034197Y1242531*
X1034062Y1242665*
X1033953Y1242821*
X1033873Y1242993*
X1033824Y1243177*
X1033807Y1243366*
Y1244547*
X1033824Y1244737*
X1033873Y1244920*
X1033953Y1245093*
X1034062Y1245248*
X1034197Y1245383*
X1034352Y1245492*
X1034525Y1245572*
X1034708Y1245621*
X1034898Y1245638*
X1036079*
X1036268Y1245621*
X1036452Y1245572*
X1036624Y1245492*
X1036780Y1245383*
X1036914Y1245248*
X1037023Y1245093*
X1037104Y1244920*
X1037153Y1244737*
X1037169Y1244547*
Y1243366*
X1037153Y1243177*
X1037104Y1242993*
X1037023Y1242821*
X1036914Y1242665*
X1036780Y1242531*
X1036624Y1242422*
X1036452Y1242341*
X1036268Y1242292*
X1036079Y1242276*
X1034898*
X1034012Y1242737D02*
Y1245176D01*
X1034307Y1242453D02*
Y1245460D01*
X1034602Y1242321D02*
Y1245593D01*
X1034898Y1242276D02*
Y1245638D01*
X1035193Y1242276D02*
Y1245638D01*
X1035488Y1242276D02*
Y1245638D01*
X1035783Y1242276D02*
Y1245638D01*
X1036079Y1242276D02*
Y1245638D01*
X1036374Y1242321D02*
Y1245593D01*
X1036669Y1242453D02*
Y1245460D01*
X1036965Y1242737D02*
Y1245176D01*
X1167551Y1274441D02*
X1167362Y1274458D01*
X1167178Y1274507*
X1167006Y1274587*
X1166850Y1274696*
X1166716Y1274831*
X1166607Y1274986*
X1166526Y1275159*
X1166477Y1275342*
X1166461Y1275531*
Y1276713*
X1166477Y1276902*
X1166526Y1277086*
X1166607Y1277258*
X1166716Y1277414*
X1166850Y1277548*
X1167006Y1277657*
X1167178Y1277737*
X1167362Y1277787*
X1167551Y1277803*
X1168732*
X1168922Y1277787*
X1169105Y1277737*
X1169278Y1277657*
X1169433Y1277548*
X1169568Y1277414*
X1169677Y1277258*
X1169757Y1277086*
X1169806Y1276902*
X1169823Y1276713*
Y1275531*
X1169806Y1275342*
X1169757Y1275159*
X1169677Y1274986*
X1169568Y1274831*
X1169433Y1274696*
X1169278Y1274587*
X1169105Y1274507*
X1168922Y1274458*
X1168732Y1274441*
X1167551*
X1166665Y1274903D02*
Y1277342D01*
X1166961Y1274619D02*
Y1277625D01*
X1167256Y1274486D02*
Y1277758D01*
X1167551Y1274441D02*
Y1277803D01*
X1167846Y1274441D02*
Y1277803D01*
X1168142Y1274441D02*
Y1277803D01*
X1168437Y1274441D02*
Y1277803D01*
X1168732Y1274441D02*
Y1277803D01*
X1169028Y1274486D02*
Y1277758D01*
X1169323Y1274619D02*
Y1277625D01*
X1169618Y1274903D02*
Y1277342D01*
X1167551Y1270701D02*
X1167362Y1270717D01*
X1167178Y1270767*
X1167006Y1270847*
X1166850Y1270956*
X1166716Y1271090*
X1166607Y1271246*
X1166526Y1271418*
X1166477Y1271602*
X1166461Y1271791*
Y1272972*
X1166477Y1273162*
X1166526Y1273345*
X1166607Y1273518*
X1166716Y1273673*
X1166850Y1273808*
X1167006Y1273917*
X1167178Y1273997*
X1167362Y1274046*
X1167551Y1274063*
X1168732*
X1168922Y1274046*
X1169105Y1273997*
X1169278Y1273917*
X1169433Y1273808*
X1169568Y1273673*
X1169677Y1273518*
X1169757Y1273345*
X1169806Y1273162*
X1169823Y1272972*
Y1271791*
X1169806Y1271602*
X1169757Y1271418*
X1169677Y1271246*
X1169568Y1271090*
X1169433Y1270956*
X1169278Y1270847*
X1169105Y1270767*
X1168922Y1270717*
X1168732Y1270701*
X1167551*
X1166665Y1271162D02*
Y1273601D01*
X1166961Y1270879D02*
Y1273885D01*
X1167256Y1270746D02*
Y1274018D01*
X1167551Y1270701D02*
Y1274063D01*
X1167846Y1270701D02*
Y1274063D01*
X1168142Y1270701D02*
Y1274063D01*
X1168437Y1270701D02*
Y1274063D01*
X1168732Y1270701D02*
Y1274063D01*
X1169028Y1270746D02*
Y1274018D01*
X1169323Y1270879D02*
Y1273885D01*
X1169618Y1271162D02*
Y1273601D01*
X1148921Y1252547D02*
X1148905Y1252358D01*
X1148855Y1252174*
X1148775Y1252002*
X1148666Y1251846*
X1148532Y1251712*
X1148376Y1251603*
X1148204Y1251522*
X1148020Y1251473*
X1147831Y1251457*
X1146650*
X1146460Y1251473*
X1146277Y1251522*
X1146104Y1251603*
X1145949Y1251712*
X1145814Y1251846*
X1145705Y1252002*
X1145625Y1252174*
X1145576Y1252358*
X1145559Y1252547*
Y1253728*
X1145576Y1253918*
X1145625Y1254101*
X1145705Y1254274*
X1145814Y1254429*
X1145949Y1254564*
X1146104Y1254673*
X1146277Y1254753*
X1146460Y1254802*
X1146650Y1254819*
X1147831*
X1148020Y1254802*
X1148204Y1254753*
X1148376Y1254673*
X1148532Y1254564*
X1148666Y1254429*
X1148775Y1254274*
X1148855Y1254101*
X1148905Y1253918*
X1148921Y1253728*
Y1252547*
X1145567Y1252457D02*
Y1253818D01*
X1145862Y1251798D02*
Y1254477D01*
X1146157Y1251578D02*
Y1254698D01*
X1146453Y1251475D02*
Y1254800D01*
X1146748Y1251457D02*
Y1254819D01*
X1147043Y1251457D02*
Y1254819D01*
X1147339Y1251457D02*
Y1254819D01*
X1147634Y1251457D02*
Y1254819D01*
X1147929Y1251465D02*
Y1254810D01*
X1148224Y1251532D02*
Y1254743D01*
X1148520Y1251703D02*
Y1254572D01*
X1148815Y1252087D02*
Y1254188D01*
X1152661Y1252547D02*
X1152645Y1252358D01*
X1152596Y1252174*
X1152515Y1252002*
X1152406Y1251846*
X1152272Y1251712*
X1152116Y1251603*
X1151944Y1251522*
X1151760Y1251473*
X1151571Y1251457*
X1150390*
X1150200Y1251473*
X1150017Y1251522*
X1149844Y1251603*
X1149689Y1251712*
X1149554Y1251846*
X1149445Y1252002*
X1149365Y1252174*
X1149316Y1252358*
X1149299Y1252547*
Y1253728*
X1149316Y1253918*
X1149365Y1254101*
X1149445Y1254274*
X1149554Y1254429*
X1149689Y1254564*
X1149844Y1254673*
X1150017Y1254753*
X1150200Y1254802*
X1150390Y1254819*
X1151571*
X1151760Y1254802*
X1151944Y1254753*
X1152116Y1254673*
X1152272Y1254564*
X1152406Y1254429*
X1152515Y1254274*
X1152596Y1254101*
X1152645Y1253918*
X1152661Y1253728*
Y1252547*
X1149406Y1252087D02*
Y1254188D01*
X1149701Y1251703D02*
Y1254572D01*
X1149996Y1251532D02*
Y1254743D01*
X1150291Y1251465D02*
Y1254810D01*
X1150587Y1251457D02*
Y1254819D01*
X1150882Y1251457D02*
Y1254819D01*
X1151177Y1251457D02*
Y1254819D01*
X1151472Y1251457D02*
Y1254819D01*
X1151768Y1251475D02*
Y1254800D01*
X1152063Y1251578D02*
Y1254698D01*
X1152358Y1251798D02*
Y1254477D01*
X1152654Y1252457D02*
Y1253818D01*
X1137252Y1165658D02*
X1137236Y1165469D01*
X1137187Y1165285*
X1137106Y1165113*
X1136997Y1164957*
X1136863Y1164823*
X1136707Y1164714*
X1136535Y1164633*
X1136351Y1164584*
X1136162Y1164568*
X1134981*
X1134791Y1164584*
X1134608Y1164633*
X1134436Y1164714*
X1134280Y1164823*
X1134145Y1164957*
X1134036Y1165113*
X1133956Y1165285*
X1133907Y1165469*
X1133890Y1165658*
Y1166839*
X1133907Y1167029*
X1133956Y1167212*
X1134036Y1167384*
X1134145Y1167540*
X1134280Y1167675*
X1134436Y1167784*
X1134608Y1167864*
X1134791Y1167913*
X1134981Y1167930*
X1136162*
X1136351Y1167913*
X1136535Y1167864*
X1136707Y1167784*
X1136863Y1167675*
X1136997Y1167540*
X1137106Y1167384*
X1137187Y1167212*
X1137236Y1167029*
X1137252Y1166839*
X1137252D02*
Y1165658D01*
X1133898Y1165568D02*
Y1166929D01*
X1134193Y1164909D02*
Y1167588D01*
X1134489Y1164689D02*
Y1167808D01*
X1134784Y1164586D02*
Y1167911D01*
X1135079Y1164568D02*
Y1167930D01*
X1135375Y1164568D02*
Y1167930D01*
X1135670Y1164568D02*
Y1167930D01*
X1135965Y1164568D02*
Y1167930D01*
X1136260Y1164576D02*
Y1167921D01*
X1136556Y1164643D02*
Y1167854D01*
X1136851Y1164814D02*
Y1167683D01*
X1137146Y1165198D02*
Y1167299D01*
X1140993Y1165658D02*
X1140976Y1165469D01*
X1140927Y1165285*
X1140847Y1165113*
X1140738Y1164957*
X1140603Y1164823*
X1140447Y1164714*
X1140275Y1164633*
X1140091Y1164584*
X1139902Y1164568*
X1138721*
X1138532Y1164584*
X1138348Y1164633*
X1138176Y1164714*
X1138020Y1164823*
X1137886Y1164957*
X1137777Y1165113*
X1137696Y1165285*
X1137647Y1165469*
X1137630Y1165658*
Y1166839*
X1137647Y1167029*
X1137696Y1167212*
X1137777Y1167384*
X1137886Y1167540*
X1138020Y1167675*
X1138176Y1167784*
X1138348Y1167864*
X1138532Y1167913*
X1138721Y1167930*
X1139902*
X1140091Y1167913*
X1140275Y1167864*
X1140447Y1167784*
X1140603Y1167675*
X1140738Y1167540*
X1140847Y1167384*
X1140927Y1167212*
X1140976Y1167029*
X1140993Y1166839*
Y1165658*
X1137737Y1165198D02*
Y1167299D01*
X1138032Y1164814D02*
Y1167683D01*
X1138327Y1164643D02*
Y1167854D01*
X1138623Y1164576D02*
Y1167921D01*
X1138918Y1164568D02*
Y1167930D01*
X1139213Y1164568D02*
Y1167930D01*
X1139508Y1164568D02*
Y1167930D01*
X1139804Y1164568D02*
Y1167930D01*
X1140099Y1164586D02*
Y1167911D01*
X1140394Y1164689D02*
Y1167808D01*
X1140690Y1164909D02*
Y1167588D01*
X1140985Y1165568D02*
Y1166929D01*
X1087218Y1053879D02*
X1087028Y1053895D01*
X1086845Y1053944*
X1086673Y1054025*
X1086517Y1054134*
X1086382Y1054268*
X1086273Y1054424*
X1086193Y1054596*
X1086144Y1054780*
X1086127Y1054969*
Y1056150*
X1086144Y1056340*
X1086193Y1056523*
X1086273Y1056696*
X1086382Y1056851*
X1086517Y1056986*
X1086673Y1057095*
X1086845Y1057175*
X1087028Y1057224*
X1087218Y1057241*
X1088399*
X1088588Y1057224*
X1088772Y1057175*
X1088944Y1057095*
X1089100Y1056986*
X1089234Y1056851*
X1089343Y1056696*
X1089424Y1056523*
X1089473Y1056340*
X1089489Y1056150*
Y1054969*
X1089473Y1054780*
X1089424Y1054596*
X1089343Y1054424*
X1089234Y1054268*
X1089100Y1054134*
X1088944Y1054025*
X1088772Y1053944*
X1088588Y1053895*
X1088399Y1053879*
X1087218*
X1086332Y1054340D02*
Y1056779D01*
X1086627Y1054057D02*
Y1057063D01*
X1086923Y1053924D02*
Y1057196D01*
X1087218Y1053879D02*
Y1057241D01*
X1087513Y1053879D02*
Y1057241D01*
X1087808Y1053879D02*
Y1057241D01*
X1088104Y1053879D02*
Y1057241D01*
X1088399Y1053879D02*
Y1057241D01*
X1088694Y1053924D02*
Y1057196D01*
X1088989Y1054057D02*
Y1057063D01*
X1089285Y1054340D02*
Y1056779D01*
X1087218Y1050139D02*
X1087028Y1050155D01*
X1086845Y1050204*
X1086673Y1050285*
X1086517Y1050394*
X1086382Y1050528*
X1086273Y1050684*
X1086193Y1050856*
X1086144Y1051040*
X1086127Y1051229*
Y1052410*
X1086144Y1052600*
X1086193Y1052783*
X1086273Y1052955*
X1086273D02*
X1086382Y1053111D01*
X1086517Y1053246*
X1086673Y1053355*
X1086845Y1053435*
X1087028Y1053484*
X1087218Y1053501*
X1088399*
X1088588Y1053484*
X1088772Y1053435*
X1088944Y1053355*
X1089100Y1053246*
X1089234Y1053111*
X1089343Y1052955*
X1089343D02*
X1089424Y1052783D01*
X1089473Y1052600*
X1089489Y1052410*
Y1051229*
X1089473Y1051040*
X1089424Y1050856*
X1089343Y1050684*
X1089234Y1050528*
X1089100Y1050394*
X1088944Y1050285*
X1088772Y1050204*
X1088588Y1050155*
X1088399Y1050139*
X1087218*
X1086332Y1050600D02*
Y1053039D01*
X1086627Y1050316D02*
Y1053323D01*
X1086923Y1050184D02*
Y1053456D01*
X1087218Y1050139D02*
Y1053501D01*
X1087513Y1050139D02*
Y1053501D01*
X1087808Y1050139D02*
Y1053501D01*
X1088104Y1050139D02*
Y1053501D01*
X1088399Y1050139D02*
Y1053501D01*
X1088694Y1050184D02*
Y1053456D01*
X1088989Y1050316D02*
Y1053323D01*
X1089285Y1050600D02*
Y1053039D01*
X1072282Y1161902D02*
X1072298Y1162092D01*
X1072348Y1162275*
X1072428Y1162448*
X1072537Y1162603*
X1072671Y1162738*
X1072827Y1162847*
X1072999Y1162927*
X1073183Y1162976*
X1073372Y1162993*
X1074553*
X1074743Y1162976*
X1074926Y1162927*
X1075099Y1162847*
X1075254Y1162738*
X1075389Y1162603*
X1075498Y1162448*
X1075578Y1162275*
X1075627Y1162092*
X1075644Y1161902*
Y1160721*
X1075627Y1160532*
X1075578Y1160348*
X1075498Y1160176*
X1075389Y1160020*
X1075254Y1159886*
X1075099Y1159777*
X1074926Y1159696*
X1074743Y1159647*
X1074553Y1159631*
X1073372*
X1073183Y1159647*
X1072999Y1159696*
X1072827Y1159777*
X1072671Y1159886*
X1072537Y1160020*
X1072428Y1160176*
X1072348Y1160348*
X1072298Y1160532*
X1072282Y1160721*
Y1161902*
X1072388Y1160261D02*
Y1162362D01*
X1072683Y1159877D02*
Y1162746D01*
X1072979Y1159706D02*
Y1162917D01*
X1073274Y1159639D02*
Y1162984D01*
X1073569Y1159631D02*
Y1162993D01*
X1073864Y1159631D02*
Y1162993D01*
X1074160Y1159631D02*
Y1162993D01*
X1074455Y1159631D02*
Y1162993D01*
X1074750Y1159649D02*
Y1162974D01*
X1075046Y1159752D02*
Y1162871D01*
X1075341Y1159972D02*
Y1162651D01*
X1075636Y1160631D02*
Y1161992D01*
X1068542Y1161902D02*
X1068558Y1162092D01*
X1068607Y1162275*
X1068688Y1162448*
X1068797Y1162603*
X1068931Y1162738*
X1069087Y1162847*
X1069259Y1162927*
X1069443Y1162976*
X1069632Y1162993*
X1070813*
X1071003Y1162976*
X1071186Y1162927*
X1071359Y1162847*
X1071514Y1162738*
X1071649Y1162603*
X1071758Y1162448*
X1071838Y1162275*
X1071887Y1162092*
X1071904Y1161902*
Y1160721*
X1071887Y1160532*
X1071838Y1160348*
X1071758Y1160176*
X1071649Y1160020*
X1071514Y1159886*
X1071359Y1159777*
X1071186Y1159696*
X1071003Y1159647*
X1070813Y1159631*
X1069632*
X1069443Y1159647*
X1069259Y1159696*
X1069087Y1159777*
X1068931Y1159886*
X1068797Y1160020*
X1068688Y1160176*
X1068607Y1160348*
X1068558Y1160532*
X1068542Y1160721*
Y1161902*
X1068549Y1160631D02*
Y1161992D01*
X1068845Y1159972D02*
Y1162651D01*
X1069140Y1159752D02*
Y1162871D01*
X1069435Y1159649D02*
Y1162974D01*
X1069731Y1159631D02*
Y1162993D01*
X1070026Y1159631D02*
Y1162993D01*
X1070321Y1159631D02*
Y1162993D01*
X1070616Y1159631D02*
Y1162993D01*
X1070912Y1159639D02*
Y1162984D01*
X1071207Y1159706D02*
Y1162917D01*
X1071502Y1159877D02*
Y1162746D01*
X1071798Y1160261D02*
Y1162362D01*
X1072337Y1157780D02*
X1072353Y1157970D01*
X1072403Y1158153*
X1072483Y1158325*
X1072592Y1158481*
X1072726Y1158616*
X1072882Y1158725*
X1073054Y1158805*
X1073238Y1158854*
X1073427Y1158871*
X1074609*
X1074798Y1158854*
X1074982Y1158805*
X1075154Y1158725*
X1075310Y1158616*
X1075444Y1158481*
X1075553Y1158325*
X1075633Y1158153*
X1075683Y1157970*
X1075699Y1157780*
Y1156599*
X1075683Y1156410*
X1075633Y1156226*
X1075553Y1156054*
X1075444Y1155898*
X1075310Y1155764*
X1075154Y1155655*
X1074982Y1155574*
X1074798Y1155525*
X1074609Y1155509*
X1073427*
X1073238Y1155525*
X1073054Y1155574*
X1072882Y1155655*
X1072726Y1155764*
X1072592Y1155898*
X1072483Y1156054*
X1072403Y1156226*
X1072353Y1156410*
X1072337Y1156599*
Y1157780*
X1072443Y1156139D02*
Y1158240D01*
X1072738Y1155755D02*
Y1158624D01*
X1073034Y1155584D02*
Y1158795D01*
X1073329Y1155517D02*
Y1158862D01*
X1073624Y1155509D02*
Y1158871D01*
X1073920Y1155509D02*
Y1158871D01*
X1074215Y1155509D02*
Y1158871D01*
X1074510Y1155509D02*
Y1158871D01*
X1074805Y1155527D02*
Y1158852D01*
X1075101Y1155630D02*
Y1158749D01*
X1075396Y1155850D02*
Y1158529D01*
X1075691Y1156509D02*
Y1157870D01*
X1068597Y1157780D02*
X1068613Y1157970D01*
X1068662Y1158153*
X1068743Y1158325*
X1068852Y1158481*
X1068986Y1158616*
X1069142Y1158725*
X1069314Y1158805*
X1069498Y1158854*
X1069687Y1158871*
X1070868*
X1071058Y1158854*
X1071241Y1158805*
X1071414Y1158725*
X1071569Y1158616*
X1071704Y1158481*
X1071813Y1158325*
X1071893Y1158153*
X1071942Y1157970*
X1071959Y1157780*
Y1156599*
X1071942Y1156410*
X1071893Y1156226*
X1071813Y1156054*
X1071704Y1155898*
X1071569Y1155764*
X1071414Y1155655*
X1071241Y1155574*
X1071058Y1155525*
X1070868Y1155509*
X1069687*
X1069498Y1155525*
X1069314Y1155574*
X1069142Y1155655*
X1068986Y1155764*
X1068852Y1155898*
X1068743Y1156054*
X1068662Y1156226*
X1068613Y1156410*
X1068597Y1156599*
Y1157780*
X1068605Y1156509D02*
Y1157870D01*
X1068900Y1155850D02*
Y1158529D01*
X1069195Y1155630D02*
Y1158749D01*
X1069490Y1155527D02*
Y1158852D01*
X1069786Y1155509D02*
Y1158871D01*
X1070081Y1155509D02*
Y1158871D01*
X1070376Y1155509D02*
Y1158871D01*
X1070672Y1155509D02*
Y1158871D01*
X1070967Y1155517D02*
Y1158862D01*
X1071262Y1155584D02*
Y1158795D01*
X1071557Y1155755D02*
Y1158624D01*
X1071853Y1156139D02*
Y1158240D01*
G54D174*
X1071530Y1169040D02*
X1071554Y1169291D01*
X1071628Y1169533*
X1071747Y1169755*
X1071907Y1169950*
X1072102Y1170110*
X1072325Y1170229*
X1072566Y1170303*
X1072818Y1170327*
X1075770*
X1076021Y1170303*
X1076262Y1170229*
X1076485Y1170110*
X1076680Y1169950*
X1076840Y1169755*
X1076959Y1169533*
X1077033Y1169291*
X1077058Y1169040*
Y1165890*
X1077033Y1165639*
X1076959Y1165398*
X1076840Y1165175*
X1076680Y1164980*
X1076485Y1164820*
X1076262Y1164701*
X1076021Y1164628*
X1075770Y1164603*
X1072818*
X1072566Y1164628*
X1072325Y1164701*
X1072102Y1164820*
X1071907Y1164980*
X1071747Y1165175*
X1071628Y1165398*
X1071554Y1165639*
X1071530Y1165890*
Y1169040*
X1071833Y1165071D02*
Y1169860D01*
X1072325Y1164701D02*
Y1170229D01*
X1072817Y1164603D02*
Y1170327D01*
X1073309Y1164603D02*
Y1170327D01*
X1073801Y1164603D02*
Y1170327D01*
X1074293Y1164603D02*
Y1170327D01*
X1074785Y1164603D02*
Y1170327D01*
X1075277Y1164603D02*
Y1170327D01*
X1075769Y1164603D02*
Y1170327D01*
X1076261Y1164701D02*
Y1170230D01*
X1076753Y1165069D02*
Y1169862D01*
X1063656Y1169040D02*
X1063680Y1169291D01*
X1063754Y1169533*
X1063873Y1169755*
X1064033Y1169950*
X1064228Y1170110*
X1064451Y1170229*
X1064692Y1170303*
X1064944Y1170327*
X1067896*
X1068147Y1170303*
X1068388Y1170229*
X1068611Y1170110*
X1068806Y1169950*
X1068966Y1169755*
X1069085Y1169533*
X1069159Y1169291*
X1069184Y1169040*
Y1165890*
X1069159Y1165639*
X1069085Y1165398*
X1068966Y1165175*
X1068806Y1164980*
X1068611Y1164820*
X1068388Y1164701*
X1068147Y1164628*
X1067896Y1164603*
X1064944*
X1064692Y1164628*
X1064451Y1164701*
X1064228Y1164820*
X1064033Y1164980*
X1063873Y1165175*
X1063754Y1165398*
X1063680Y1165639*
X1063656Y1165890*
Y1169040*
X1063961Y1165069D02*
Y1169862D01*
X1064453Y1164701D02*
Y1170230D01*
X1064945Y1164603D02*
Y1170327D01*
X1065437Y1164603D02*
Y1170327D01*
X1065929Y1164603D02*
Y1170327D01*
X1066421Y1164603D02*
Y1170327D01*
X1066913Y1164603D02*
Y1170327D01*
X1067405Y1164603D02*
Y1170327D01*
X1067897Y1164603D02*
Y1170327D01*
X1068389Y1164701D02*
Y1170229D01*
X1068881Y1165071D02*
Y1169860D01*
X1135371Y1170138D02*
X1135346Y1169887D01*
X1135273Y1169646*
X1135153Y1169423*
X1134993Y1169228*
X1134798Y1169068*
X1134576Y1168949*
X1134576D02*
X1134334Y1168876D01*
X1134083Y1168851*
X1131131*
X1130880Y1168876*
X1130638Y1168949*
X1130416Y1169068*
X1130220Y1169228*
X1130060Y1169423*
X1129941Y1169646*
X1129868Y1169887*
X1129843Y1170138*
Y1173288*
X1129868Y1173539*
X1129941Y1173781*
X1130060Y1174003*
X1130220Y1174198*
X1130416Y1174358*
X1130638Y1174477*
X1130880Y1174550*
X1131131Y1174575*
X1134083*
X1134334Y1174550*
X1134576Y1174477*
X1134576D02*
X1134798Y1174358D01*
X1134993Y1174198*
X1135153Y1174003*
X1135273Y1173781*
X1135346Y1173539*
X1135371Y1173288*
Y1170138*
X1130148Y1169316D02*
Y1174110D01*
X1130640Y1168949D02*
Y1174478D01*
X1131132Y1168851D02*
Y1174575D01*
X1131624Y1168851D02*
Y1174575D01*
X1132116Y1168851D02*
Y1174575D01*
X1132608Y1168851D02*
Y1174575D01*
X1133100Y1168851D02*
Y1174575D01*
X1133592Y1168851D02*
Y1174575D01*
X1134084Y1168851D02*
Y1174575D01*
X1134576Y1168949D02*
Y1174477D01*
X1135068Y1169319D02*
Y1174107D01*
X1143245Y1170138D02*
X1143220Y1169887D01*
X1143147Y1169646*
X1143027Y1169423*
X1142867Y1169228*
X1142672Y1169068*
X1142450Y1168949*
X1142450D02*
X1142208Y1168876D01*
X1141957Y1168851*
X1139005*
X1138754Y1168876*
X1138512Y1168949*
X1138290Y1169068*
X1138094Y1169228*
X1137934Y1169423*
X1137815Y1169646*
X1137742Y1169887*
X1137717Y1170138*
Y1173288*
X1137742Y1173539*
X1137815Y1173781*
X1137934Y1174003*
X1138094Y1174198*
X1138290Y1174358*
X1138512Y1174477*
X1138754Y1174550*
X1139005Y1174575*
X1141957*
X1142208Y1174550*
X1142450Y1174477*
X1142450D02*
X1142672Y1174358D01*
X1142867Y1174198*
X1143027Y1174003*
X1143147Y1173781*
X1143220Y1173539*
X1143245Y1173288*
Y1170138*
X1138020Y1169319D02*
Y1174107D01*
X1138512Y1168949D02*
Y1174477D01*
X1139004Y1168851D02*
Y1174575D01*
X1139496Y1168851D02*
Y1174575D01*
X1139988Y1168851D02*
Y1174575D01*
X1140480Y1168851D02*
Y1174575D01*
X1140972Y1168851D02*
Y1174575D01*
X1141464Y1168851D02*
Y1174575D01*
X1141956Y1168851D02*
Y1174575D01*
X1142448Y1168949D02*
Y1174478D01*
X1142940Y1169316D02*
Y1174110D01*
X1147295Y1307437D02*
X1147320Y1307688D01*
X1147393Y1307930*
X1147512Y1308152*
X1147673Y1308347*
X1147868Y1308507*
X1148090Y1308626*
X1148332Y1308699*
X1148583Y1308724*
X1151535*
X1151786Y1308699*
X1152028Y1308626*
X1152250Y1308507*
X1152445Y1308347*
X1152606Y1308152*
X1152725Y1307930*
X1152798Y1307688*
X1152823Y1307437*
Y1304287*
X1152798Y1304036*
X1152725Y1303795*
X1152606Y1303572*
X1152445Y1303377*
X1152250Y1303217*
X1152028Y1303098*
X1151786Y1303025*
X1151535Y1303000*
X1148583*
X1148332Y1303025*
X1148090Y1303098*
X1147868Y1303217*
X1147673Y1303377*
X1147512Y1303572*
X1147393Y1303795*
X1147320Y1304036*
X1147295Y1304287*
Y1307437*
X1147598Y1303468D02*
Y1308256D01*
X1148090Y1303098D02*
Y1308626D01*
X1148582Y1303000D02*
Y1308724D01*
X1149074Y1303000D02*
Y1308724D01*
X1149566Y1303000D02*
Y1308724D01*
X1150058Y1303000D02*
Y1308724D01*
X1150550Y1303000D02*
Y1308724D01*
X1151042Y1303000D02*
Y1308724D01*
X1151534Y1303000D02*
Y1308724D01*
X1152026Y1303098D02*
Y1308627D01*
X1152518Y1303465D02*
Y1308259D01*
X1139421Y1307437D02*
X1139446Y1307688D01*
X1139519Y1307930*
X1139638Y1308152*
X1139799Y1308347*
X1139994Y1308507*
X1140216Y1308626*
X1140458Y1308699*
X1140709Y1308724*
X1143661*
X1143912Y1308699*
X1144154Y1308626*
X1144376Y1308507*
X1144571Y1308347*
X1144732Y1308152*
X1144851Y1307930*
X1144924Y1307688*
X1144949Y1307437*
Y1304287*
X1144924Y1304036*
X1144851Y1303795*
X1144732Y1303572*
X1144571Y1303377*
X1144376Y1303217*
X1144154Y1303098*
X1143912Y1303025*
X1143661Y1303000*
X1140709*
X1140458Y1303025*
X1140216Y1303098*
X1139994Y1303217*
X1139799Y1303377*
X1139638Y1303572*
X1139519Y1303795*
X1139446Y1304036*
X1139421Y1304287*
Y1307437*
X1139726Y1303465D02*
Y1308259D01*
X1140218Y1303098D02*
Y1308627D01*
X1140710Y1303000D02*
Y1308724D01*
X1141202Y1303000D02*
Y1308724D01*
X1141694Y1303000D02*
Y1308724D01*
X1142186Y1303000D02*
Y1308724D01*
X1142678Y1303000D02*
Y1308724D01*
X1143170Y1303000D02*
Y1308724D01*
X1143662Y1303000D02*
Y1308724D01*
X1144154Y1303098D02*
Y1308626D01*
X1144646Y1303468D02*
Y1308256D01*
X1163410Y1043728D02*
X1163385Y1043477D01*
X1163311Y1043236*
X1163192Y1043013*
X1163032Y1042818*
X1162837Y1042658*
X1162614Y1042539*
X1162373Y1042466*
X1162122Y1042441*
X1159170*
X1158919Y1042466*
X1158677Y1042539*
X1158454Y1042658*
X1158259Y1042818*
X1158099Y1043013*
X1157980Y1043236*
X1157907Y1043477*
X1157882Y1043728*
Y1046878*
X1157907Y1047129*
X1157980Y1047371*
X1158099Y1047593*
X1158259Y1047788*
X1158454Y1047948*
X1158677Y1048067*
X1158919Y1048140*
X1159170Y1048165*
X1162122*
X1162373Y1048140*
X1162614Y1048067*
X1162837Y1047948*
X1163032Y1047788*
X1163192Y1047593*
X1163311Y1047371*
X1163385Y1047129*
X1163410Y1046878*
Y1043728*
X1158187Y1042906D02*
Y1047700D01*
X1158679Y1042539D02*
Y1048068D01*
X1159171Y1042441D02*
Y1048165D01*
X1159663Y1042441D02*
Y1048165D01*
X1160155Y1042441D02*
Y1048165D01*
X1160647Y1042441D02*
Y1048165D01*
X1161139Y1042441D02*
Y1048165D01*
X1161631Y1042441D02*
Y1048165D01*
X1162123Y1042441D02*
Y1048165D01*
X1162615Y1042539D02*
Y1048067D01*
X1163107Y1042909D02*
Y1047697D01*
X1171284Y1043728D02*
X1171259Y1043477D01*
X1171185Y1043236*
X1171066Y1043013*
X1170906Y1042818*
X1170711Y1042658*
X1170488Y1042539*
X1170247Y1042466*
X1169996Y1042441*
X1167044*
X1166793Y1042466*
X1166551Y1042539*
X1166328Y1042658*
X1166133Y1042818*
X1165973Y1043013*
X1165854Y1043236*
X1165781Y1043477*
X1165756Y1043728*
Y1046878*
X1165781Y1047129*
X1165854Y1047371*
X1165973Y1047593*
X1166133Y1047788*
X1166328Y1047948*
X1166551Y1048067*
X1166793Y1048140*
X1167044Y1048165*
X1169996*
X1170247Y1048140*
X1170488Y1048067*
X1170711Y1047948*
X1170906Y1047788*
X1171066Y1047593*
X1171185Y1047371*
X1171259Y1047129*
X1171284Y1046878*
Y1043728*
X1166059Y1042909D02*
Y1047697D01*
X1166551Y1042539D02*
Y1048067D01*
X1167043Y1042441D02*
Y1048165D01*
X1167535Y1042441D02*
Y1048165D01*
X1168027Y1042441D02*
Y1048165D01*
X1168519Y1042441D02*
Y1048165D01*
X1169011Y1042441D02*
Y1048165D01*
X1169503Y1042441D02*
Y1048165D01*
X1169995Y1042441D02*
Y1048165D01*
X1170487Y1042539D02*
Y1048068D01*
X1170979Y1042906D02*
Y1047700D01*
X1163327Y1036319D02*
X1163302Y1036068D01*
X1163229Y1035826*
X1163110Y1035604*
X1162949Y1035409*
X1162754Y1035249*
X1162532Y1035130*
X1162290Y1035056*
X1162039Y1035032*
X1159087*
X1158836Y1035056*
X1158594Y1035130*
X1158372Y1035249*
X1158177Y1035409*
X1158016Y1035604*
X1157897Y1035826*
X1157824Y1036068*
X1157799Y1036319*
Y1039469*
X1157824Y1039720*
X1157897Y1039961*
X1158016Y1040184*
X1158177Y1040379*
X1158372Y1040539*
X1158594Y1040658*
X1158836Y1040731*
X1159087Y1040756*
X1162039*
X1162290Y1040731*
X1162532Y1040658*
X1162754Y1040539*
X1162949Y1040379*
X1163110Y1040184*
X1163229Y1039961*
X1163302Y1039720*
X1163327Y1039469*
Y1036319*
X1158104Y1035497D02*
Y1040290D01*
X1158596Y1035129D02*
Y1040658D01*
X1159088Y1035032D02*
Y1040756D01*
X1159580Y1035032D02*
Y1040756D01*
X1160072Y1035032D02*
Y1040756D01*
X1160564Y1035032D02*
Y1040756D01*
X1161056Y1035032D02*
Y1040756D01*
X1161548Y1035032D02*
Y1040756D01*
X1162040Y1035032D02*
Y1040756D01*
X1162532Y1035130D02*
Y1040658D01*
X1163024Y1035499D02*
Y1040288D01*
X1171201Y1036319D02*
X1171176Y1036068D01*
X1171103Y1035826*
X1170984Y1035604*
X1170823Y1035409*
X1170628Y1035249*
X1170406Y1035130*
X1170164Y1035056*
X1169913Y1035032*
X1166961*
X1166710Y1035056*
X1166468Y1035130*
X1166246Y1035249*
X1166051Y1035409*
X1165890Y1035604*
X1165771Y1035826*
X1165698Y1036068*
X1165673Y1036319*
Y1039469*
X1165698Y1039720*
X1165771Y1039961*
X1165890Y1040184*
X1166051Y1040379*
X1166246Y1040539*
X1166468Y1040658*
X1166710Y1040731*
X1166961Y1040756*
X1169913*
X1170164Y1040731*
X1170406Y1040658*
X1170628Y1040539*
X1170823Y1040379*
X1170984Y1040184*
X1171103Y1039961*
X1171176Y1039720*
X1171201Y1039469*
Y1036319*
X1165976Y1035499D02*
Y1040288D01*
X1166468Y1035130D02*
Y1040658D01*
X1166960Y1035032D02*
Y1040756D01*
X1167452Y1035032D02*
Y1040756D01*
X1167944Y1035032D02*
Y1040756D01*
X1168436Y1035032D02*
Y1040756D01*
X1168928Y1035032D02*
Y1040756D01*
X1169420Y1035032D02*
Y1040756D01*
X1169912Y1035032D02*
Y1040756D01*
X1170404Y1035129D02*
Y1040658D01*
X1170896Y1035497D02*
Y1040290D01*
G54D175*
X1058362Y1115606D02*
X1058340Y1115407D01*
X1058274Y1115219*
X1058167Y1115049*
X1058026Y1114908*
X1057856Y1114801*
X1057667Y1114735*
X1057469Y1114713*
X1053531*
X1053333Y1114735*
X1053144Y1114801*
X1052974Y1114908*
X1052833Y1115049*
X1052726Y1115219*
X1052660Y1115407*
X1052638Y1115606*
Y1118559*
X1052660Y1118758*
X1052726Y1118947*
X1052833Y1119116*
X1052974Y1119258*
X1053144Y1119364*
X1053333Y1119430*
X1053531Y1119453*
X1057469*
X1057667Y1119430*
X1057856Y1119364*
X1058026Y1119258*
X1058167Y1119116*
X1058274Y1118947*
X1058340Y1118758*
X1058362Y1118559*
Y1115606*
X1052941Y1114941D02*
Y1119224D01*
X1053335Y1114735D02*
Y1119431D01*
X1053728Y1114713D02*
Y1119453D01*
X1054122Y1114713D02*
Y1119453D01*
X1054516Y1114713D02*
Y1119453D01*
X1054909Y1114713D02*
Y1119453D01*
X1055303Y1114713D02*
Y1119453D01*
X1055697Y1114713D02*
Y1119453D01*
X1056091Y1114713D02*
Y1119453D01*
X1056484Y1114713D02*
Y1119453D01*
X1056878Y1114713D02*
Y1119453D01*
X1057272Y1114713D02*
Y1119453D01*
X1057665Y1114735D02*
Y1119431D01*
X1058059Y1114941D02*
Y1119224D01*
X1058362Y1126827D02*
X1058340Y1126628D01*
X1058274Y1126439*
X1058167Y1126270*
X1058026Y1126128*
X1057856Y1126022*
X1057667Y1125955*
X1057469Y1125933*
X1053531*
X1053333Y1125955*
X1053144Y1126022*
X1052974Y1126128*
X1052833Y1126270*
X1052726Y1126439*
X1052660Y1126628*
X1052638Y1126827*
Y1129780*
X1052660Y1129978*
X1052726Y1130167*
X1052833Y1130337*
X1052974Y1130478*
X1053144Y1130585*
X1053333Y1130651*
X1053531Y1130673*
X1057469*
X1057667Y1130651*
X1057856Y1130585*
X1058026Y1130478*
X1058167Y1130337*
X1058274Y1130167*
X1058340Y1129978*
X1058362Y1129780*
Y1126827*
X1052941Y1126161D02*
Y1130445D01*
X1053335Y1125955D02*
Y1130651D01*
X1053728Y1125933D02*
Y1130673D01*
X1054122Y1125933D02*
Y1130673D01*
X1054516Y1125933D02*
Y1130673D01*
X1054909Y1125933D02*
Y1130673D01*
X1055303Y1125933D02*
Y1130673D01*
X1055697Y1125933D02*
Y1130673D01*
X1056091Y1125933D02*
Y1130673D01*
X1056484Y1125933D02*
Y1130673D01*
X1056878Y1125933D02*
Y1130673D01*
X1057272Y1125933D02*
Y1130673D01*
X1057665Y1125955D02*
Y1130651D01*
X1058059Y1126161D02*
Y1130445D01*
X1065843Y1126827D02*
X1065820Y1126628D01*
X1065754Y1126439*
X1065648Y1126270*
X1065506Y1126128*
X1065337Y1126022*
X1065148Y1125955*
X1064949Y1125933*
X1061012*
X1060813Y1125955*
X1060624Y1126022*
X1060455Y1126128*
X1060313Y1126270*
X1060207Y1126439*
X1060141Y1126628*
X1060118Y1126827*
Y1129780*
X1060141Y1129978*
X1060207Y1130167*
X1060313Y1130337*
X1060455Y1130478*
X1060624Y1130585*
X1060813Y1130651*
X1061012Y1130673*
X1064949*
X1065148Y1130651*
X1065337Y1130585*
X1065506Y1130478*
X1065648Y1130337*
X1065754Y1130167*
X1065820Y1129978*
X1065843Y1129780*
Y1126827*
X1060421Y1126161D02*
Y1130445D01*
X1060815Y1125955D02*
Y1130651D01*
X1061209Y1125933D02*
Y1130673D01*
X1061602Y1125933D02*
Y1130673D01*
X1061996Y1125933D02*
Y1130673D01*
X1062390Y1125933D02*
Y1130673D01*
X1062783Y1125933D02*
Y1130673D01*
X1063177Y1125933D02*
Y1130673D01*
X1063571Y1125933D02*
Y1130673D01*
X1063965Y1125933D02*
Y1130673D01*
X1064358Y1125933D02*
Y1130673D01*
X1064752Y1125933D02*
Y1130673D01*
X1065146Y1125955D02*
Y1130651D01*
X1065539Y1126161D02*
Y1130445D01*
X1065843Y1115606D02*
X1065820Y1115407D01*
X1065754Y1115219*
X1065648Y1115049*
X1065506Y1114908*
X1065337Y1114801*
X1065148Y1114735*
X1064949Y1114713*
X1061012*
X1060813Y1114735*
X1060624Y1114801*
X1060455Y1114908*
X1060313Y1115049*
X1060207Y1115219*
X1060141Y1115407*
X1060118Y1115606*
Y1118559*
X1060141Y1118758*
X1060207Y1118947*
X1060313Y1119116*
X1060455Y1119258*
X1060624Y1119364*
X1060813Y1119430*
X1061012Y1119453*
X1064949*
X1065148Y1119430*
X1065337Y1119364*
X1065506Y1119258*
X1065648Y1119116*
X1065754Y1118947*
X1065820Y1118758*
X1065843Y1118559*
Y1115606*
X1060421Y1114941D02*
Y1119224D01*
X1060815Y1114735D02*
Y1119431D01*
X1061209Y1114713D02*
Y1119453D01*
X1061602Y1114713D02*
Y1119453D01*
X1061996Y1114713D02*
Y1119453D01*
X1062390Y1114713D02*
Y1119453D01*
X1062783Y1114713D02*
Y1119453D01*
X1063177Y1114713D02*
Y1119453D01*
X1063571Y1114713D02*
Y1119453D01*
X1063965Y1114713D02*
Y1119453D01*
X1064358Y1114713D02*
Y1119453D01*
X1064752Y1114713D02*
Y1119453D01*
X1065146Y1114735D02*
Y1119431D01*
X1065539Y1114941D02*
Y1119224D01*
G54D181*
X1055126Y1252324D03*
X1051126D03*
X1039472Y1244016D03*
X1043472D03*
X1163934Y1156114D03*
Y1152114D03*
X1133752Y1112185D03*
X1137752D03*
X1046769Y1190990D03*
Y1194990D03*
X1123343Y1269165D03*
Y1265165D03*
X1186306Y1145439D03*
Y1141439D03*
X1182495Y1141463D03*
Y1145463D03*
X1178329Y1143740D03*
X1174329D03*
X1158280Y1264543D03*
X1162280D03*
X1172921Y1268740D03*
X1176921D03*
X1105641Y1061481D03*
X1109641D03*
X1084102Y1051690D03*
Y1055690D03*
X1070286Y1153135D03*
X1074286D03*
X1070337Y1149642D03*
X1074337D03*
X1132591Y1132776D03*
Y1136776D03*
X1132469Y1140165D03*
Y1144165D03*
X1097406Y1143382D03*
X1093406D03*
X1089535Y1143756D03*
Y1139756D03*
X1052628Y1050709D03*
Y1054709D03*
X1048921D03*
Y1050709D03*
X1087232Y1109618D03*
X1083232D03*
X1062409Y1112256D03*
X1066409D03*
X1123276Y1272811D03*
Y1276811D03*
X1070461Y1060890D03*
X1074461D03*
X1085543Y1132551D03*
X1081543D03*
X1090886Y1106268D03*
Y1102268D03*
X1133701Y1108602D03*
Y1104602D03*
X1089622Y1136657D03*
Y1132657D03*
X1144787Y1292071D03*
X1148787D03*
X1127169Y1143657D03*
X1123169D03*
X1140480Y1132772D03*
X1136480D03*
X1181543Y1280331D03*
X1177543D03*
X1162961Y1032764D03*
X1166961D03*
X1177575Y1284031D03*
X1181575D03*
G54D184*
X1078996Y1328541D03*
Y1336541D03*
X1071074Y1328582D03*
Y1336582D03*
X1115986Y1356133D03*
Y1348133D03*
X1132476Y1356445D03*
Y1348445D03*
X1124301Y1356395D03*
Y1348395D03*
X1029669Y1239272D03*
Y1247272D03*
X1116588Y1297602D03*
Y1289602D03*
G54D185*
X1183295Y1296724D03*
X1175295D03*
X1150000Y1297256D03*
X1142000D03*
X1175323Y1289315D03*
X1183323D03*
G54D186*
X1074420Y1186438D03*
X1062420D03*
X1074361Y1206961D03*
X1062361D03*
X1074695Y1217225D03*
X1062695D03*
X1074896Y1226717D03*
X1062896D03*
X1074609Y1176938D03*
X1062609D03*
X1074262Y1196379D03*
X1062262D03*
X1133997Y1181438D03*
X1145997D03*
X1134138Y1210571D03*
X1146138D03*
X1134138Y1200780D03*
X1146138D03*
X1133997Y1190942D03*
X1145997D03*
X1157220Y1053661D03*
X1169220D03*
G54D223*
X1047312Y1248402D03*
Y1244002D03*
X1051039Y1248386D03*
Y1243986D03*
X1084745Y1333556D03*
Y1337956D03*
X1084723Y1325409D03*
Y1329809D03*
X1106390Y1332285D03*
Y1336685D03*
Y1341527D03*
Y1345927D03*
X1178427Y1134855D03*
Y1139255D03*
X1174179Y1134950D03*
Y1139350D03*
X1024557Y1183254D03*
Y1178854D03*
X1068472Y1128322D03*
Y1123922D03*
G54D224*
X1105441Y1041492D03*
X1109841D03*
G54D228*
X1128121Y1156955D03*
X1140121D03*
G54D301*
X1009901Y1358302D03*
X1215063Y1036228D03*
G54D359*
X1117003Y1320646D03*
Y1308646D03*
X1145684Y1224986D03*
Y1236986D03*
X1134661Y1224978D03*
Y1236978D03*
X1160779Y1272513D03*
Y1284513D03*
G54D364*
X1100369Y1342412D03*
Y1338672D03*
Y1334932D03*
X1089739D03*
Y1338672D03*
Y1342412D03*
G54D559*
X1137073Y1313664D03*
X1150065D03*
G54D623*
X1161417Y1016780D03*
X1111413Y1379583D03*
X1181102Y1379921D03*
G54D624*
X1151417Y1016780D03*
X1141417D03*
X1131417D03*
X1101413Y1379583D03*
X1091413D03*
X1081413D03*
X1071413D03*
X1061413D03*
X1181102Y1369921D03*
Y1359921D03*
Y1349921D03*
G54D657*
X1197126Y1231024D03*
Y1265039D03*
G54D658*
X1213583Y1231024D03*
Y1265039D03*
G54D659*
X1199094Y1236654D03*
Y1259409D03*
G54D663*
X1013780Y1379921D03*
X1208661D03*
X1013780Y1013780D03*
X1208661D03*
G54D665*
X1086715Y1360309D03*
X1102857D03*
G54D666*
X1130266Y1261450D03*
Y1263419D03*
Y1265387D03*
Y1267356D03*
Y1269324D03*
Y1271293D03*
Y1273261D03*
Y1275230D03*
Y1277198D03*
Y1279167D03*
Y1281135D03*
Y1283104D03*
X1149558D03*
Y1281135D03*
Y1279167D03*
Y1277198D03*
Y1275230D03*
Y1273261D03*
Y1271293D03*
Y1269324D03*
Y1267356D03*
Y1265387D03*
Y1263419D03*
Y1261450D03*
G54D667*
X1133022Y1285860D03*
X1134991D03*
X1136959D03*
X1138928D03*
X1140896D03*
X1142865D03*
X1144833D03*
X1146802D03*
Y1258695D03*
X1144833D03*
X1142865D03*
X1140896D03*
X1138928D03*
X1136959D03*
X1134991D03*
X1133022D03*
G54D668*
X1139912Y1272277D03*
G54D669*
X1098051Y1277031D03*
Y1241598D03*
G54D670*
X1181059Y1152144D03*
X1178500D03*
X1175941D03*
X1173382D03*
Y1167499D03*
X1175941D03*
X1178500D03*
X1181059D03*
G54D671*
X1108996Y1054587D03*
Y1050650D03*
Y1046713D03*
X1097578D03*
Y1054587D03*
X1073815D03*
Y1050650D03*
Y1046713D03*
X1062398D03*
Y1054587D03*
G54D672*
X1046521Y1159608D03*
X1043962D03*
X1041403D03*
X1038844D03*
X1036285D03*
X1033726D03*
X1031167D03*
X1028608D03*
Y1183230D03*
X1031167D03*
X1033726D03*
X1036285D03*
X1038844D03*
X1041403D03*
X1043962D03*
X1046521D03*
X0Y0D02*
M02*
